<?xml version="1.0" standalone="no"?>
<!DOCTYPE svg PUBLIC "-//W3C//DTD SVG 20010904//EN"
 "http://www.w3.org/TR/2001/REC-SVG-20010904/DTD/svg10.dtd">
<svg version="1.0" xmlns="http://www.w3.org/2000/svg"
 width="1618.000000pt" height="1214.000000pt" viewBox="0 0 1618.000000 1214.000000"
 preserveAspectRatio="xMidYMid meet">

<g transform="translate(0.000000,1214.000000) scale(0.100000,-0.100000)"
fill="#000000" stroke="none">
<path d="M2661 11721 c-60 -32 -66 -85 -20 -192 68 -159 39 -301 -57 -286 -50
8 -124 46 -124 64 0 10 -8 13 -27 11 -54 -6 -25 -38 77 -84 50 -23 107 -29
135 -14 13 7 34 35 46 63 29 69 22 155 -20 256 -17 41 -31 84 -31 96 0 33 30
64 68 71 l32 7 -6 -55 c-7 -61 6 -82 33 -55 20 20 34 97 22 119 -13 24 -83 23
-128 -1z"/>
<path d="M5347 11713 c-4 -3 -7 -17 -7 -30 0 -12 -14 -54 -31 -93 -27 -59 -37
-71 -62 -78 -38 -10 -48 -32 -14 -32 l24 0 -28 -81 c-16 -44 -29 -87 -29 -94
0 -26 31 -45 72 -45 49 0 48 23 -1 28 -18 2 -34 9 -36 15 -3 7 8 48 24 92 l29
80 46 -2 c58 -3 66 22 10 33 -20 4 -33 11 -30 18 58 136 74 196 52 196 -7 0
-16 -3 -19 -7z"/>
<path d="M6595 11682 c-121 -74 -257 -309 -235 -406 16 -70 59 -95 131 -76 51
14 119 74 119 106 0 19 6 23 37 26 20 2 38 9 41 16 3 9 -16 12 -82 10 -91 -3
-112 -17 -56 -37 38 -13 38 -23 0 -55 -57 -47 -137 -53 -154 -11 -20 54 10
158 74 250 97 141 202 209 199 128 -1 -28 -1 -28 -8 -4 -6 23 -8 22 -19 -16
-13 -42 -16 -93 -6 -93 19 0 43 24 53 51 35 101 -15 159 -94 111z"/>
<path d="M4552 11660 c3 -16 1 -30 -4 -30 -4 0 -8 -7 -8 -15 0 -22 -48 -138
-61 -146 -6 -3 -30 -5 -55 -2 -34 2 -44 0 -44 -12 0 -11 12 -15 45 -15 25 0
45 -4 45 -9 0 -5 -7 -28 -15 -51 -8 -23 -15 -53 -15 -66 0 -31 33 -64 65 -64
31 0 34 27 4 32 -38 5 -43 29 -23 94 l19 59 53 9 c61 10 65 32 5 29 l-40 -1
29 80 c32 91 36 138 12 138 -12 0 -15 -7 -12 -30z"/>
<path d="M5487 11673 c-3 -5 -8 -30 -12 -57 -4 -27 -23 -95 -42 -150 -47 -138
-49 -146 -29 -146 9 0 16 4 16 9 0 13 50 71 60 71 5 0 10 -21 12 -47 4 -69 22
-59 26 15 3 68 -8 83 -47 63 l-20 -11 20 57 c19 56 49 174 49 194 0 11 -27 12
-33 2z"/>
<path d="M3730 11591 c-5 -11 -10 -27 -10 -36 0 -8 -16 -64 -37 -123 -33 -100
-35 -110 -22 -137 11 -23 22 -31 46 -33 27 -3 40 5 82 46 36 34 51 56 51 75 0
45 -63 63 -108 31 -22 -15 -23 -15 -16 13 4 15 13 45 21 67 7 21 13 47 13 58
0 10 7 21 15 24 8 4 15 12 15 20 0 21 -38 17 -50 -5z m75 -201 c3 -5 -5 -25
-19 -43 -52 -69 -114 -74 -85 -8 19 42 88 76 104 51z"/>
<path d="M13898 11539 c-41 -48 -45 -50 -70 -38 -37 16 -73 -8 -98 -65 -15
-33 -17 -50 -9 -83 8 -38 6 -47 -20 -89 -16 -25 -27 -52 -24 -60 8 -22 38 -12
39 12 2 38 34 74 66 74 62 0 130 51 145 107 4 17 -2 34 -17 55 l-22 30 29 31
c15 18 31 33 36 35 4 2 7 10 7 17 0 31 -21 22 -62 -26z m-80 -78 c10 -6 4 -22
-27 -66 l-41 -58 0 40 c0 26 8 50 21 67 22 28 27 30 47 17z m72 -30 c7 -14 7
-27 -1 -43 -13 -29 -72 -71 -94 -66 -12 2 -7 16 27 65 24 34 46 63 50 63 4 0
12 -9 18 -19z"/>
<path d="M7927 11508 c-79 -220 -87 -258 -52 -258 10 0 15 10 15 30 0 16 20
86 45 156 24 70 42 131 39 135 -12 20 -23 5 -47 -63z"/>
<path d="M13211 11551 c-28 -23 -31 -29 -17 -34 15 -6 15 -9 -2 -40 -18 -37
-36 -38 -63 -4 -15 18 -18 18 -46 4 -16 -9 -40 -35 -53 -60 -27 -51 -23 -86
15 -121 14 -13 25 -27 25 -32 0 -5 -16 -34 -36 -63 -26 -39 -34 -59 -28 -69
15 -22 27 -20 34 8 12 43 70 125 93 130 34 9 67 66 67 118 0 33 9 59 35 102
54 89 43 117 -24 61z m-82 -192 c-18 -33 -35 -59 -40 -59 -10 0 -49 50 -49 64
0 6 9 25 19 43 19 30 21 31 60 21 l41 -10 -31 -59z"/>
<path d="M14903 11514 c-4 -11 -16 -31 -27 -46 -16 -23 -28 -28 -61 -28 -32 0
-47 -6 -67 -27 -53 -57 -60 -110 -18 -133 19 -10 19 -12 3 -45 -9 -19 -20 -35
-25 -35 -4 0 -8 -7 -8 -15 0 -31 39 -16 55 22 20 47 43 73 66 73 26 0 76 46
83 76 4 16 1 34 -7 48 -13 19 -12 25 14 62 25 36 27 44 14 54 -12 10 -16 9
-22 -6z m-84 -141 c-13 -21 -28 -46 -33 -55 -14 -23 -33 -23 -45 0 -13 25 19
79 51 85 49 9 50 8 27 -30z m51 -7 c0 -15 -10 -30 -26 -41 l-26 -17 23 41 c12
23 24 41 26 41 2 0 3 -11 3 -24z"/>
<path d="M15227 11505 c-34 -24 -54 -60 -45 -85 2 -6 -20 -35 -49 -64 -72 -72
-71 -126 1 -126 78 0 173 90 146 140 -9 17 -7 26 14 51 70 83 21 144 -67 84z
m59 -44 c-17 -33 -43 -51 -63 -44 -20 7 -15 27 12 53 14 13 25 20 25 16 0 -4
8 -3 17 3 25 13 27 7 9 -28z m-36 -114 c0 -37 -66 -87 -115 -87 -63 0 12 94
78 97 23 1 37 -3 37 -10z"/>
<path d="M14018 11497 c-7 -8 -18 -12 -24 -10 -15 5 -58 -43 -45 -51 5 -4 26
5 47 19 21 14 42 24 48 22 36 -12 -5 -87 -64 -117 -40 -21 -59 -44 -46 -58 4
-4 21 1 37 11 40 22 44 22 83 -8 33 -25 80 -33 91 -15 3 5 -7 12 -22 16 -15 4
-40 18 -55 31 l-26 25 24 35 c26 39 31 82 12 101 -16 16 -43 15 -60 -1z"/>
<path d="M13418 11489 c-55 -8 -68 -15 -68 -34 0 -11 9 -13 33 -9 l32 5 -27
-16 c-38 -21 -37 -52 1 -60 16 -3 35 -13 42 -22 11 -13 10 -18 -10 -34 -28
-23 -79 -25 -110 -3 -17 12 -26 13 -34 5 -19 -19 17 -43 72 -49 43 -4 57 -1
91 22 22 15 40 34 40 45 0 21 -25 46 -58 58 -21 8 -19 11 28 38 76 45 62 68
-32 54z"/>
<path d="M14516 11459 c-43 -23 -56 -33 -47 -42 8 -8 25 -4 66 16 31 15 58 27
60 27 3 0 5 -10 5 -23 0 -29 -65 -107 -90 -107 -10 0 -32 -12 -49 -26 -51 -42
-35 -74 19 -37 22 16 24 16 38 -5 17 -26 82 -31 102 -7 14 16 10 18 -38 15
-41 -2 -53 23 -24 50 62 58 94 128 72 155 -18 22 -48 18 -114 -16z"/>
<path d="M15050 11446 c-6 -19 -27 -54 -45 -78 -37 -45 -47 -98 -20 -98 8 0
15 8 15 18 0 11 14 38 31 62 31 42 59 100 59 120 0 25 -29 7 -40 -24z"/>
<path d="M5646 11425 c-52 -56 -59 -103 -20 -134 15 -12 35 -21 46 -21 30 0
116 40 123 57 10 26 -2 26 -58 -1 -44 -22 -59 -25 -80 -17 -39 15 -33 42 13
56 49 15 76 55 58 88 -14 28 -39 20 -82 -28z m48 -10 c-7 -16 -24 -21 -24 -6
0 8 7 13 27 20 1 1 0 -6 -3 -14z"/>
<path d="M3509 11426 c-42 -29 -73 -72 -65 -92 6 -16 49 -19 77 -4 16 9 19 7
19 -8 0 -21 18 -42 37 -42 17 0 17 27 1 33 -10 3 -9 13 5 41 9 20 17 44 17 53
0 16 -27 42 -45 43 -6 0 -26 -11 -46 -24z m51 -25 c0 -12 -54 -51 -71 -51 -7
0 0 14 16 30 28 29 55 39 55 21z"/>
<path d="M4152 11398 c-15 -28 -44 -71 -65 -94 -46 -51 -41 -82 6 -34 21 21
33 28 41 20 15 -15 21 -13 57 18 18 15 30 22 26 15 -4 -6 -1 -18 8 -26 12 -12
22 -13 55 -5 53 14 56 42 3 32 -33 -6 -36 -5 -29 12 4 10 10 34 13 52 8 48
-16 41 -60 -18 -50 -66 -65 -64 -26 5 28 51 31 75 8 75 -5 0 -21 -23 -37 -52z"/>
<path d="M8273 11443 c-47 -9 -47 -29 -1 -75 40 -40 42 -43 20 -46 -13 -2 -30
2 -37 8 -12 10 -16 9 -21 -5 -9 -24 13 -36 61 -33 54 4 60 36 15 83 -26 27
-29 33 -15 39 9 3 27 3 41 0 17 -4 24 -2 24 9 0 24 -30 31 -87 20z"/>
<path d="M8468 11433 c-21 -8 -38 -20 -38 -27 0 -6 18 -27 41 -47 58 -49 33
-77 -41 -46 -8 4 -22 3 -30 -3 -24 -15 0 -30 58 -37 42 -5 56 -2 72 12 27 24
26 29 -15 74 -19 21 -35 42 -35 46 0 4 18 5 40 1 32 -5 40 -3 40 9 0 12 -41
38 -53 34 -1 0 -19 -7 -39 -16z"/>
<path d="M2846 11409 c-14 -16 -27 -43 -31 -61 -6 -26 -3 -35 15 -50 29 -23
72 -23 101 0 18 15 22 28 21 62 -3 78 -60 104 -106 49z m65 -19 c13 0 11 -54
-3 -68 -16 -16 -43 -15 -56 1 -16 18 13 81 34 73 9 -3 20 -6 25 -6z"/>
<path d="M8064 11419 c-27 -14 -56 -63 -48 -83 7 -19 37 -21 67 -5 16 9 22 9
25 -1 9 -26 41 -48 61 -43 28 7 26 21 -4 33 -25 10 -33 34 -15 45 13 8 12 16
-3 37 -17 22 -56 30 -83 17z m41 -29 c3 -5 -8 -16 -25 -25 -35 -18 -41 -4 -8
19 26 19 25 19 33 6z"/>
<path d="M3906 11389 c-30 -35 -32 -56 -10 -87 15 -22 57 -30 80 -14 16 11 34
48 34 71 0 26 -34 61 -59 61 -11 0 -31 -14 -45 -31z m70 -23 c8 -21 -14 -56
-35 -56 -24 0 -34 26 -21 51 12 22 48 25 56 5z"/>
<path d="M7658 11404 c-49 -26 -64 -86 -29 -118 14 -13 33 -16 72 -14 70 4 76
24 8 27 -28 1 -56 4 -60 7 -31 19 25 90 62 79 22 -7 36 14 18 26 -20 12 -40
10 -71 -7z"/>
<path d="M6777 11387 c-37 -30 -52 -83 -31 -114 20 -31 36 -37 80 -28 27 5 34
10 30 22 -5 11 -2 14 11 9 13 -5 15 -4 7 4 -7 7 -19 7 -42 -1 -42 -14 -62 -6
-62 26 0 18 5 25 19 25 26 0 71 38 71 61 0 27 -47 25 -83 -4z"/>
<path d="M6953 11403 c-24 -5 -73 -50 -73 -67 0 -7 6 -20 13 -31 11 -15 22
-17 55 -11 26 4 42 2 42 -4 0 -5 6 -10 14 -10 8 0 16 16 20 40 5 32 2 44 -16
65 -12 14 -24 24 -27 24 -3 -1 -16 -4 -28 -6z m32 -42 c18 -7 17 -10 -13 -25
-19 -10 -41 -15 -49 -12 -14 6 -14 9 2 26 19 21 29 23 60 11z"/>
<path d="M7135 11390 c-10 -11 -21 -17 -25 -15 -11 7 -26 -15 -40 -58 -15 -49
0 -69 24 -33 9 14 30 42 48 62 l32 36 16 -23 c22 -28 45 -17 29 14 -23 42 -55
49 -84 17z"/>
<path d="M8723 11305 c-3 -9 -3 -18 0 -21 10 -10 47 7 47 22 0 19 -39 18 -47
-1z"/>
<path d="M14236 11313 c-3 -4 -6 -15 -6 -25 0 -24 33 -21 38 3 3 17 -21 33
-32 22z"/>
<path d="M13502 11278 c7 -19 38 -22 38 -4 0 10 -9 16 -21 16 -12 0 -19 -5
-17 -12z"/>
<path d="M11248 10835 c-43 -29 -61 -56 -51 -82 4 -10 25 -44 47 -76 35 -49
41 -66 40 -106 0 -49 -28 -102 -62 -120 -23 -12 -62 -4 -92 19 -22 17 -24 21
-12 41 16 25 11 33 -16 25 -63 -20 -4 -109 81 -123 28 -4 40 0 70 26 44 39 72
107 64 156 -3 20 -24 63 -46 95 -23 33 -41 68 -41 79 0 19 58 61 86 61 17 0
18 -14 0 -65 -15 -44 -12 -65 11 -65 25 0 42 31 43 75 0 82 -50 107 -122 60z"/>
<path d="M9523 10744 c-16 -16 -22 -29 -15 -33 6 -4 -4 -29 -28 -69 -20 -34
-46 -81 -56 -103 -18 -40 -18 -41 -61 -34 -24 3 -43 2 -43 -2 0 -17 24 -33 47
-33 20 0 22 -3 13 -19 -24 -46 -4 -118 33 -122 33 -4 114 4 131 13 33 18 3 28
-54 19 -33 -5 -62 -5 -72 0 -20 11 -23 50 -7 81 10 18 17 20 69 14 45 -5 59
-4 63 8 4 10 -7 15 -49 21 -30 3 -54 9 -54 11 0 10 54 112 97 182 41 68 46 92
22 92 -5 0 -22 -12 -36 -26z"/>
<path d="M5264 10745 c-15 -12 -16 -16 -6 -23 11 -7 7 -29 -18 -113 -18 -57
-48 -137 -66 -178 -19 -41 -34 -78 -34 -82 0 -23 29 -3 68 47 48 60 68 70 57
27 -11 -42 -11 -55 0 -60 17 -6 46 86 35 108 -13 23 -37 24 -61 3 -13 -12 -7
18 26 118 25 73 45 141 45 151 0 21 -20 22 -46 2z"/>
<path d="M5785 10749 c-4 -6 -5 -13 -1 -16 3 -3 -15 -46 -40 -95 l-45 -90 -51
4 c-70 4 -78 -19 -10 -28 l50 -6 -5 -57 c-7 -71 11 -96 61 -85 38 8 46 12 46
25 0 6 -17 9 -37 7 -34 -3 -38 0 -41 22 -2 13 1 41 7 62 11 35 14 38 70 49 66
13 86 22 77 37 -5 9 -52 3 -109 -14 -14 -4 -9 12 24 79 25 49 40 91 36 101 -7
18 -23 21 -32 5z"/>
<path d="M9020 10740 c-29 -29 -56 -88 -70 -152 -10 -45 -18 -58 -35 -62 -36
-9 -97 -83 -93 -113 4 -35 29 -50 65 -38 35 12 67 75 83 165 16 84 47 156 77
180 30 24 33 32 10 36 -10 1 -27 -6 -37 -16z m-107 -287 c-8 -21 -20 -41 -27
-45 -17 -11 -36 -9 -36 4 0 18 50 78 65 78 12 0 11 -6 -2 -37z"/>
<path d="M5074 10739 c-3 -6 -2 -15 4 -21 11 -11 -12 -108 -44 -189 -17 -41
-17 -41 -60 -35 -27 3 -46 1 -50 -5 -9 -15 15 -29 49 -29 15 0 27 -4 27 -9 0
-18 -43 -111 -51 -111 -16 0 -9 -19 11 -30 17 -9 21 -8 26 7 3 10 17 46 31 81
24 59 27 62 58 62 41 0 85 16 85 30 0 6 -20 8 -55 4 l-56 -7 20 51 c30 76 53
171 46 193 -7 21 -30 26 -41 8z"/>
<path d="M6336 10653 c-21 -54 -59 -138 -84 -186 -27 -54 -41 -92 -35 -98 5
-5 34 16 73 56 35 36 68 65 72 65 4 0 -2 -21 -13 -46 -22 -48 -19 -94 5 -94
20 0 27 12 15 26 -8 10 -3 29 17 74 25 57 26 62 11 78 -16 15 -19 15 -44 -4
-16 -11 -34 -24 -40 -28 -7 -4 8 42 33 101 55 128 62 153 42 153 -8 0 -29 -39
-52 -97z"/>
<path d="M12227 10734 c-3 -3 -3 -12 -1 -19 3 -7 -12 -56 -33 -109 -41 -104
-59 -118 -116 -97 -18 7 -28 7 -33 -1 -10 -16 24 -38 58 -38 34 0 34 -7 7 -66
-16 -34 -19 -48 -10 -57 15 -15 24 -4 51 71 22 62 23 62 62 62 45 0 49 23 5
28 -15 2 -27 4 -27 6 0 1 16 41 35 89 37 91 44 137 22 137 -8 0 -16 -3 -20 -6z"/>
<path d="M12419 10738 c0 -2 -2 -19 -4 -39 -5 -46 -68 -204 -106 -263 -36 -58
-18 -73 32 -26 19 17 47 41 63 53 l29 21 -7 -25 c-4 -13 -10 -36 -13 -52 -8
-39 20 -26 35 17 26 71 5 104 -48 72 l-29 -16 26 62 c54 135 66 198 38 198 -8
0 -15 -1 -16 -2z"/>
<path d="M12886 10709 c-18 -14 -24 -25 -17 -33 6 -7 -2 -31 -23 -71 -25 -45
-39 -61 -57 -63 -52 -6 -69 -13 -69 -28 0 -13 9 -15 40 -12 36 3 39 2 33 -17
-15 -48 -21 -91 -14 -98 12 -12 25 12 40 68 6 27 14 52 17 54 2 3 23 7 46 10
56 8 63 31 9 31 l-40 0 42 80 c30 56 39 82 31 90 -7 7 -18 4 -38 -11z"/>
<path d="M13169 10699 c-12 -17 -44 -44 -71 -61 -35 -22 -46 -34 -39 -41 21
-21 147 73 136 101 -2 7 0 10 5 7 6 -3 10 -2 10 4 0 24 -20 19 -41 -10z"/>
<path d="M14213 10719 c-6 -6 -9 -17 -7 -24 3 -7 -11 -38 -32 -69 -34 -52 -40
-56 -75 -56 -28 0 -39 -4 -39 -15 0 -10 10 -15 30 -15 l30 0 -30 -60 c-53
-105 -32 -159 56 -145 61 9 74 14 74 32 0 11 -8 12 -37 7 -71 -14 -88 -11 -91
16 -2 14 10 50 26 80 l28 55 94 5 c60 3 95 9 97 17 3 9 -20 13 -81 15 l-86 3
36 53 c35 53 48 101 29 109 -6 2 -16 -2 -22 -8z"/>
<path d="M2616 10695 c-7 -26 -130 -220 -147 -230 -5 -4 -9 17 -9 48 0 64 -25
153 -45 161 -22 8 -26 -9 -9 -43 9 -17 19 -72 24 -123 8 -87 8 -92 -15 -122
-54 -71 -135 -211 -135 -233 0 -32 26 -29 33 5 5 24 112 191 196 307 114 158
163 255 128 255 -8 0 -18 -11 -21 -25z"/>
<path d="M3930 10686 c0 -21 -50 -179 -60 -189 -4 -5 -27 -9 -51 -10 -57 -3
-66 -27 -10 -27 47 0 49 -6 21 -60 -23 -46 -25 -60 -7 -60 8 0 25 26 39 58 21
50 30 60 57 65 35 7 44 37 10 37 -12 0 -19 5 -17 13 2 6 14 45 27 85 22 70 23
102 1 102 -5 0 -10 -7 -10 -14z"/>
<path d="M4080 10595 c0 -8 7 -15 15 -15 8 0 15 7 15 15 0 8 -7 15 -15 15 -8
0 -15 -7 -15 -15z"/>
<path d="M7397 10586 c-4 -9 -3 -18 2 -20 13 -8 52 6 48 18 -6 17 -44 19 -50
2z"/>
<path d="M13731 10551 c-12 -12 -21 -18 -21 -14 0 3 -10 -2 -21 -13 -16 -14
-23 -15 -26 -6 -8 23 -28 12 -51 -28 -12 -22 -27 -40 -32 -40 -12 0 -13 -27
-2 -34 5 -3 41 20 82 50 40 29 75 54 77 54 3 0 -5 -16 -17 -35 -22 -35 -21
-70 2 -63 6 2 12 12 14 22 1 10 10 26 19 36 20 22 25 81 8 87 -6 2 -21 -5 -32
-16z"/>
<path d="M14357 10549 c-4 -16 -3 -18 9 -8 7 6 11 15 8 20 -8 13 -11 11 -17
-12z"/>
<path d="M3499 10552 c-56 -25 -143 -132 -118 -148 7 -4 20 2 31 17 34 42 90
99 99 99 5 0 3 -15 -4 -32 -25 -61 -28 -86 -11 -102 21 -21 36 -11 28 19 -3
13 2 47 11 75 23 70 12 92 -36 72z"/>
<path d="M9705 10540 c-7 -12 2 -30 16 -30 5 0 9 9 9 20 0 21 -15 27 -25 10z"/>
<path d="M11388 10525 c-57 -52 -41 -115 29 -115 63 0 93 61 57 115 -21 32
-52 32 -86 0z m72 -44 c0 -9 -5 -22 -12 -29 -14 -14 -54 -16 -63 -2 -10 16 13
48 37 52 30 5 38 1 38 -21z"/>
<path d="M6692 10525 c-38 -17 -39 -22 -8 -68 13 -19 22 -38 18 -41 -9 -10
-50 -7 -57 4 -10 17 -25 11 -25 -10 0 -30 34 -43 76 -30 50 17 60 42 29 78
-32 39 -32 46 5 39 22 -5 30 -3 30 8 0 25 -32 34 -68 20z"/>
<path d="M7197 10506 c-18 -16 -29 -20 -36 -13 -7 7 -12 5 -17 -9 -4 -10 -17
-45 -30 -78 -22 -55 -23 -76 -4 -76 4 0 18 19 29 43 12 24 37 62 57 85 30 36
38 40 54 30 25 -16 35 -5 20 21 -14 28 -41 27 -73 -3z"/>
<path d="M8692 10504 c-18 -15 -31 -20 -30 -12 2 7 -2 13 -9 13 -15 0 -65 -93
-53 -100 14 -8 58 16 75 41 8 13 25 28 37 35 20 11 20 10 -4 -34 -18 -31 -22
-49 -16 -61 11 -20 28 -21 28 -1 0 9 12 38 26 66 39 79 12 105 -54 53z"/>
<path d="M13845 10515 c-35 -18 -75 -63 -75 -86 0 -9 9 -24 20 -34 45 -41 140
17 140 86 0 30 -4 38 -22 43 -31 8 -29 8 -63 -9z m52 -59 c-4 -9 -22 -24 -42
-33 -65 -31 -70 21 -6 60 22 14 28 14 40 2 7 -7 11 -21 8 -29z"/>
<path d="M3631 10501 c-57 -57 -63 -105 -14 -117 29 -8 50 2 69 32 11 16 11
24 -1 47 -8 15 -12 34 -8 42 8 22 -23 19 -46 -4z m29 -60 c0 -24 -15 -35 -36
-27 -12 4 -13 10 -4 26 14 26 40 26 40 1z"/>
<path d="M5386 10489 c-41 -35 -53 -64 -36 -84 15 -18 52 -19 68 -3 9 9 12 6
12 -15 0 -31 27 -50 52 -36 24 13 23 29 -2 29 -11 0 -20 2 -20 5 0 3 9 23 20
45 29 58 25 90 -9 58 -7 -7 -12 -8 -11 -3 9 45 -26 47 -74 4z m38 -46 c-37
-29 -59 -31 -44 -3 13 25 40 39 58 32 12 -4 8 -11 -14 -29z"/>
<path d="M7875 10511 c-31 -6 -59 -55 -40 -69 15 -10 16 -62 2 -62 -7 0 -29
11 -48 25 -34 22 -49 24 -49 4 0 -18 76 -59 108 -59 40 0 47 15 27 62 -18 45
-11 67 24 70 14 1 35 2 46 3 20 1 25 6 25 25 0 11 -47 11 -95 1z"/>
<path d="M8512 10503 c-18 -8 -46 -31 -62 -50 -25 -28 -28 -38 -20 -53 13 -24
26 -25 64 -5 37 19 36 20 36 -13 0 -18 5 -29 14 -29 9 0 15 17 19 50 3 32 10
53 21 59 21 12 20 27 -1 44 -23 17 -31 17 -71 -3z m22 -36 c-5 -15 -64 -52
-64 -40 0 8 51 52 62 53 4 0 5 -6 2 -13z"/>
<path d="M13057 10504 c-26 -14 -28 -20 -25 -62 4 -55 -17 -67 -52 -32 -17 17
-25 19 -33 10 -19 -18 36 -60 78 -60 39 0 51 21 41 75 -7 38 11 55 58 55 16 0
26 6 26 15 0 20 -56 19 -93 -1z"/>
<path d="M4159 10503 c-9 -2 -31 -22 -48 -44 -60 -74 -22 -143 66 -122 60 14
53 33 -11 33 -49 0 -56 3 -56 19 0 30 48 81 76 81 27 0 33 24 8 34 -9 3 -16 5
-17 5 -1 -1 -9 -3 -18 -6z"/>
<path d="M7610 10480 c-43 -36 -49 -37 -42 -5 5 30 -7 32 -51 8 -18 -9 -39
-16 -47 -15 -20 2 -74 -74 -66 -94 5 -12 18 -5 63 33 35 30 52 40 45 26 -16
-29 -15 -43 2 -43 19 0 86 39 86 50 0 4 9 10 21 13 19 5 20 2 17 -45 -2 -39 1
-53 14 -61 25 -17 51 9 27 26 -13 10 -15 23 -9 64 6 48 -1 73 -20 73 -3 0 -21
-13 -40 -30z"/>
<path d="M10014 10500 c-11 -4 -32 -22 -47 -39 -14 -17 -31 -31 -37 -31 -7 0
-10 -3 -8 -7 24 -49 34 -63 55 -74 29 -16 99 -15 119 2 19 16 7 31 -19 23 -30
-10 -78 -7 -89 4 -7 7 -2 13 13 17 37 12 89 55 89 74 0 36 -32 49 -76 31z m46
-28 c0 -5 -18 -18 -40 -31 -41 -23 -54 -16 -22 11 26 23 62 35 62 20z"/>
<path d="M10239 10491 l-24 -20 38 -38 c20 -21 37 -42 37 -46 0 -13 -65 6 -86
25 -28 25 -42 6 -20 -27 12 -18 28 -25 71 -30 69 -9 83 1 65 45 -7 17 -23 39
-37 50 -30 23 -17 33 40 28 32 -2 42 1 42 12 0 25 -96 26 -126 1z"/>
<path d="M12540 10491 c-82 -44 -90 -96 -12 -75 36 10 37 9 38 -18 1 -34 20
-58 45 -58 23 0 25 16 3 24 -12 5 -15 19 -12 73 3 78 -4 84 -62 54z"/>
<path d="M2787 10474 c-12 -15 -44 -51 -70 -80 -28 -30 -46 -58 -42 -64 5 -8
16 -3 35 15 18 17 30 23 34 16 11 -18 41 -13 80 14 l36 24 0 -24 c0 -24 30
-42 50 -30 15 10 12 35 -5 35 -19 0 -19 17 0 50 19 33 18 40 -1 40 -9 0 -34
-15 -54 -34 -74 -67 -108 -69 -50 -3 30 35 39 67 19 67 -6 0 -20 -12 -32 -26z"/>
<path d="M4002 10463 c-9 -21 -23 -42 -30 -46 -9 -6 -9 -13 -2 -28 6 -11 16
-17 21 -13 13 7 49 90 49 110 0 27 -20 14 -38 -23z"/>
<path d="M6445 10465 c-20 -19 -35 -40 -33 -47 5 -14 52 -16 78 -4 12 5 16 0
15 -21 0 -23 5 -29 26 -31 32 -4 79 14 79 29 0 8 -13 10 -40 5 l-41 -6 16 29
c19 37 19 51 1 51 -7 0 -19 7 -26 15 -19 23 -35 18 -75 -20z m55 -9 c0 -2 -7
-7 -16 -10 -8 -3 -12 -2 -9 4 6 10 25 14 25 6z"/>
<path d="M9812 10485 c-26 -19 -62 -85 -62 -115 0 -38 25 -20 43 30 20 55 39
70 95 73 52 3 46 21 -8 25 -29 2 -53 -3 -68 -13z"/>
<path d="M4300 10460 c-38 -40 -45 -99 -16 -129 12 -11 23 -11 65 -1 28 6 51
16 51 21 0 4 7 6 15 3 18 -7 49 22 40 36 -4 7 -11 8 -18 2 -17 -14 -119 -42
-129 -36 -14 9 -9 44 5 38 18 -7 70 50 65 73 -6 31 -45 28 -78 -7z m40 -15
c-7 -9 -15 -13 -19 -10 -3 3 1 10 9 15 21 14 24 12 10 -5z"/>
<path d="M2563 10438 c-90 -93 -47 -177 46 -92 47 42 63 91 35 111 -28 20 -47
16 -81 -19z m67 -19 c0 -14 -64 -79 -78 -79 -17 0 -2 38 25 65 27 26 53 33 53
14z"/>
<path d="M9645 10433 c-16 -38 -17 -72 -2 -76 8 -2 25 37 44 96 11 35 -27 17
-42 -20z"/>
<path d="M7273 10413 c-10 -16 -27 -35 -38 -44 -16 -14 -17 -19 -6 -33 18 -21
41 -20 41 2 0 10 11 33 25 52 29 39 31 50 10 50 -8 0 -23 -12 -32 -27z"/>
<path d="M10464 10367 c-8 -22 11 -46 26 -31 7 7 5 17 -4 30 -14 18 -15 18
-22 1z"/>
<path d="M3294 10288 c-5 -7 -18 -49 -29 -93 -12 -44 -25 -91 -29 -103 -7 -20
-5 -23 10 -20 15 2 26 28 47 107 19 67 26 106 19 113 -6 6 -13 5 -18 -4z"/>
<path d="M4167 10253 c-13 -21 -27 -44 -31 -50 -4 -7 -3 -20 2 -29 7 -13 15
-5 40 40 18 31 32 60 32 66 0 22 -21 8 -43 -27z"/>
<path d="M3936 10272 c-8 -14 79 -177 97 -180 22 -5 22 13 -2 47 -11 15 -31
53 -45 84 -23 53 -38 68 -50 49z"/>
<path d="M4102 10151 c-17 -23 -18 -30 -8 -34 21 -8 50 28 39 47 -8 14 -12 12
-31 -13z"/>
<path d="M2540 10093 c-95 -79 -61 -203 48 -174 35 10 70 46 58 59 -3 3 -6 -1
-6 -9 0 -12 -2 -12 -9 0 -10 15 -31 7 -31 -13 0 -17 -61 -9 -76 11 -24 29 17
106 62 117 14 4 24 12 21 19 -7 22 -34 18 -67 -10z"/>
<path d="M2794 10088 c-11 -13 -29 -42 -39 -66 -17 -39 -17 -44 -3 -59 35 -34
121 20 121 75 0 32 -26 72 -48 72 -6 0 -20 -10 -31 -22z m46 -58 c0 -12 -12
-26 -30 -35 -34 -18 -39 -6 -12 30 21 30 42 32 42 5z"/>
<path d="M3987 9991 c-99 -134 -141 -206 -132 -221 12 -19 23 -10 49 43 14 28
64 103 111 166 47 63 85 118 85 123 0 29 -38 -7 -113 -111z"/>
<path d="M2957 10066 c-44 -40 -53 -70 -33 -101 30 -46 98 -23 120 39 9 27
-12 83 -34 89 -12 3 -31 -7 -53 -27z m56 -30 c8 -21 -17 -61 -41 -64 -17 -3
-22 2 -22 19 0 41 51 78 63 45z"/>
<path d="M4421 10045 c-17 -20 -31 -41 -31 -47 0 -6 -3 -8 -7 -5 -3 4 -15 0
-25 -10 -24 -21 -23 -5 2 27 11 14 20 31 20 38 0 22 -29 13 -45 -15 -9 -16
-37 -44 -61 -63 -42 -33 -57 -60 -33 -60 6 0 22 9 36 20 19 15 29 17 39 9 15
-12 46 1 85 38 25 23 27 23 31 5 7 -26 40 -44 59 -31 12 8 10 13 -10 29 -20
18 -22 23 -12 51 6 18 11 36 11 40 0 20 -30 7 -59 -26z"/>
<path d="M3221 10029 c-14 -40 -14 -42 2 -33 6 4 4 -2 -6 -13 -24 -27 -35 -93
-16 -93 13 0 22 24 57 158 8 27 -27 10 -37 -19z"/>
<path d="M4145 10029 c-34 -41 -31 -83 6 -87 33 -4 79 32 79 63 0 63 -42 75
-85 24z m53 -27 c-3 -17 -34 -39 -43 -30 -3 3 -1 17 6 31 12 27 42 27 37 -1z"/>
<path d="M3306 9933 c-4 -9 -3 -20 1 -24 13 -13 37 7 30 25 -8 21 -23 20 -31
-1z"/>
</g>
</svg>
