<?xml version="1.0" standalone="no"?>
<!DOCTYPE svg PUBLIC "-//W3C//DTD SVG 20010904//EN"
 "http://www.w3.org/TR/2001/REC-SVG-20010904/DTD/svg10.dtd">
<svg version="1.0" xmlns="http://www.w3.org/2000/svg"
 width="1618.000000pt" height="1214.000000pt" viewBox="0 0 1618.000000 1214.000000"
 preserveAspectRatio="xMidYMid meet">

<g transform="translate(0.000000,1214.000000) scale(0.100000,-0.100000)"
fill="#000000" stroke="none">
<path d="M2661 11721 c-60 -32 -66 -85 -20 -192 68 -159 39 -301 -57 -286 -50
8 -124 46 -124 64 0 10 -8 13 -27 11 -54 -6 -25 -38 77 -84 50 -23 107 -29
135 -14 13 7 34 35 46 63 29 69 22 155 -20 256 -17 41 -31 84 -31 96 0 33 30
64 68 71 l32 7 -6 -55 c-7 -61 6 -82 33 -55 20 20 34 97 22 119 -13 24 -83 23
-128 -1z"/>
<path d="M5347 11713 c-4 -3 -7 -17 -7 -30 0 -12 -14 -54 -31 -93 -27 -59 -37
-71 -62 -78 -38 -10 -48 -32 -14 -32 l24 0 -28 -81 c-16 -44 -29 -87 -29 -94
0 -26 31 -45 72 -45 49 0 48 23 -1 28 -18 2 -34 9 -36 15 -3 7 8 48 24 92 l29
80 46 -2 c58 -3 66 22 10 33 -20 4 -33 11 -30 18 58 136 74 196 52 196 -7 0
-16 -3 -19 -7z"/>
<path d="M6595 11682 c-121 -74 -257 -309 -235 -406 16 -70 59 -95 131 -76 51
14 119 74 119 106 0 19 6 23 37 26 20 2 38 9 41 16 3 9 -16 12 -82 10 -91 -3
-112 -17 -56 -37 38 -13 38 -23 0 -55 -57 -47 -137 -53 -154 -11 -20 54 10
158 74 250 97 141 202 209 199 128 -1 -28 -1 -28 -8 -4 -6 23 -8 22 -19 -16
-13 -42 -16 -93 -6 -93 19 0 43 24 53 51 35 101 -15 159 -94 111z"/>
<path d="M4552 11660 c3 -16 1 -30 -4 -30 -4 0 -8 -7 -8 -15 0 -22 -48 -138
-61 -146 -6 -3 -30 -5 -55 -2 -34 2 -44 0 -44 -12 0 -11 12 -15 45 -15 25 0
45 -4 45 -9 0 -5 -7 -28 -15 -51 -8 -23 -15 -53 -15 -66 0 -31 33 -64 65 -64
31 0 34 27 4 32 -38 5 -43 29 -23 94 l19 59 53 9 c61 10 65 32 5 29 l-40 -1
29 80 c32 91 36 138 12 138 -12 0 -15 -7 -12 -30z"/>
<path d="M5487 11673 c-3 -5 -8 -30 -12 -57 -4 -27 -23 -95 -42 -150 -47 -138
-49 -146 -29 -146 9 0 16 4 16 9 0 13 50 71 60 71 5 0 10 -21 12 -47 4 -69 22
-59 26 15 3 68 -8 83 -47 63 l-20 -11 20 57 c19 56 49 174 49 194 0 11 -27 12
-33 2z"/>
<path d="M3730 11591 c-5 -11 -10 -27 -10 -36 0 -8 -16 -64 -37 -123 -33 -100
-35 -110 -22 -137 11 -23 22 -31 46 -33 27 -3 40 5 82 46 36 34 51 56 51 75 0
45 -63 63 -108 31 -22 -15 -23 -15 -16 13 4 15 13 45 21 67 7 21 13 47 13 58
0 10 7 21 15 24 8 4 15 12 15 20 0 21 -38 17 -50 -5z m75 -201 c3 -5 -5 -25
-19 -43 -52 -69 -114 -74 -85 -8 19 42 88 76 104 51z"/>
<path d="M13898 11539 c-41 -48 -45 -50 -70 -38 -37 16 -73 -8 -98 -65 -15
-33 -17 -50 -9 -83 8 -38 6 -47 -20 -89 -16 -25 -27 -52 -24 -60 8 -22 38 -12
39 12 2 38 34 74 66 74 62 0 130 51 145 107 4 17 -2 34 -17 55 l-22 30 29 31
c15 18 31 33 36 35 4 2 7 10 7 17 0 31 -21 22 -62 -26z m-80 -78 c10 -6 4 -22
-27 -66 l-41 -58 0 40 c0 26 8 50 21 67 22 28 27 30 47 17z m72 -30 c7 -14 7
-27 -1 -43 -13 -29 -72 -71 -94 -66 -12 2 -7 16 27 65 24 34 46 63 50 63 4 0
12 -9 18 -19z"/>
<path d="M7927 11508 c-79 -220 -87 -258 -52 -258 10 0 15 10 15 30 0 16 20
86 45 156 24 70 42 131 39 135 -12 20 -23 5 -47 -63z"/>
<path d="M13211 11551 c-28 -23 -31 -29 -17 -34 15 -6 15 -9 -2 -40 -18 -37
-36 -38 -63 -4 -15 18 -18 18 -46 4 -16 -9 -40 -35 -53 -60 -27 -51 -23 -86
15 -121 14 -13 25 -27 25 -32 0 -5 -16 -34 -36 -63 -26 -39 -34 -59 -28 -69
15 -22 27 -20 34 8 12 43 70 125 93 130 34 9 67 66 67 118 0 33 9 59 35 102
54 89 43 117 -24 61z m-82 -192 c-18 -33 -35 -59 -40 -59 -10 0 -49 50 -49 64
0 6 9 25 19 43 19 30 21 31 60 21 l41 -10 -31 -59z"/>
<path d="M14903 11514 c-4 -11 -16 -31 -27 -46 -16 -23 -28 -28 -61 -28 -32 0
-47 -6 -67 -27 -53 -57 -60 -110 -18 -133 19 -10 19 -12 3 -45 -9 -19 -20 -35
-25 -35 -4 0 -8 -7 -8 -15 0 -31 39 -16 55 22 20 47 43 73 66 73 26 0 76 46
83 76 4 16 1 34 -7 48 -13 19 -12 25 14 62 25 36 27 44 14 54 -12 10 -16 9
-22 -6z m-84 -141 c-13 -21 -28 -46 -33 -55 -14 -23 -33 -23 -45 0 -13 25 19
79 51 85 49 9 50 8 27 -30z m51 -7 c0 -15 -10 -30 -26 -41 l-26 -17 23 41 c12
23 24 41 26 41 2 0 3 -11 3 -24z"/>
<path d="M15227 11505 c-34 -24 -54 -60 -45 -85 2 -6 -20 -35 -49 -64 -72 -72
-71 -126 1 -126 78 0 173 90 146 140 -9 17 -7 26 14 51 70 83 21 144 -67 84z
m59 -44 c-17 -33 -43 -51 -63 -44 -20 7 -15 27 12 53 14 13 25 20 25 16 0 -4
8 -3 17 3 25 13 27 7 9 -28z m-36 -114 c0 -37 -66 -87 -115 -87 -63 0 12 94
78 97 23 1 37 -3 37 -10z"/>
<path d="M14018 11497 c-7 -8 -18 -12 -24 -10 -15 5 -58 -43 -45 -51 5 -4 26
5 47 19 21 14 42 24 48 22 36 -12 -5 -87 -64 -117 -40 -21 -59 -44 -46 -58 4
-4 21 1 37 11 40 22 44 22 83 -8 33 -25 80 -33 91 -15 3 5 -7 12 -22 16 -15 4
-40 18 -55 31 l-26 25 24 35 c26 39 31 82 12 101 -16 16 -43 15 -60 -1z"/>
<path d="M13418 11489 c-55 -8 -68 -15 -68 -34 0 -11 9 -13 33 -9 l32 5 -27
-16 c-38 -21 -37 -52 1 -60 16 -3 35 -13 42 -22 11 -13 10 -18 -10 -34 -28
-23 -79 -25 -110 -3 -17 12 -26 13 -34 5 -19 -19 17 -43 72 -49 43 -4 57 -1
91 22 22 15 40 34 40 45 0 21 -25 46 -58 58 -21 8 -19 11 28 38 76 45 62 68
-32 54z"/>
<path d="M14516 11459 c-43 -23 -56 -33 -47 -42 8 -8 25 -4 66 16 31 15 58 27
60 27 3 0 5 -10 5 -23 0 -29 -65 -107 -90 -107 -10 0 -32 -12 -49 -26 -51 -42
-35 -74 19 -37 22 16 24 16 38 -5 17 -26 82 -31 102 -7 14 16 10 18 -38 15
-41 -2 -53 23 -24 50 62 58 94 128 72 155 -18 22 -48 18 -114 -16z"/>
<path d="M15050 11446 c-6 -19 -27 -54 -45 -78 -37 -45 -47 -98 -20 -98 8 0
15 8 15 18 0 11 14 38 31 62 31 42 59 100 59 120 0 25 -29 7 -40 -24z"/>
<path d="M5646 11425 c-52 -56 -59 -103 -20 -134 15 -12 35 -21 46 -21 30 0
116 40 123 57 10 26 -2 26 -58 -1 -44 -22 -59 -25 -80 -17 -39 15 -33 42 13
56 49 15 76 55 58 88 -14 28 -39 20 -82 -28z m48 -10 c-7 -16 -24 -21 -24 -6
0 8 7 13 27 20 1 1 0 -6 -3 -14z"/>
<path d="M3509 11426 c-42 -29 -73 -72 -65 -92 6 -16 49 -19 77 -4 16 9 19 7
19 -8 0 -21 18 -42 37 -42 17 0 17 27 1 33 -10 3 -9 13 5 41 9 20 17 44 17 53
0 16 -27 42 -45 43 -6 0 -26 -11 -46 -24z m51 -25 c0 -12 -54 -51 -71 -51 -7
0 0 14 16 30 28 29 55 39 55 21z"/>
<path d="M4152 11398 c-15 -28 -44 -71 -65 -94 -46 -51 -41 -82 6 -34 21 21
33 28 41 20 15 -15 21 -13 57 18 18 15 30 22 26 15 -4 -6 -1 -18 8 -26 12 -12
22 -13 55 -5 53 14 56 42 3 32 -33 -6 -36 -5 -29 12 4 10 10 34 13 52 8 48
-16 41 -60 -18 -50 -66 -65 -64 -26 5 28 51 31 75 8 75 -5 0 -21 -23 -37 -52z"/>
<path d="M8273 11443 c-47 -9 -47 -29 -1 -75 40 -40 42 -43 20 -46 -13 -2 -30
2 -37 8 -12 10 -16 9 -21 -5 -9 -24 13 -36 61 -33 54 4 60 36 15 83 -26 27
-29 33 -15 39 9 3 27 3 41 0 17 -4 24 -2 24 9 0 24 -30 31 -87 20z"/>
<path d="M8468 11433 c-21 -8 -38 -20 -38 -27 0 -6 18 -27 41 -47 58 -49 33
-77 -41 -46 -8 4 -22 3 -30 -3 -24 -15 0 -30 58 -37 42 -5 56 -2 72 12 27 24
26 29 -15 74 -19 21 -35 42 -35 46 0 4 18 5 40 1 32 -5 40 -3 40 9 0 12 -41
38 -53 34 -1 0 -19 -7 -39 -16z"/>
<path d="M2846 11409 c-14 -16 -27 -43 -31 -61 -6 -26 -3 -35 15 -50 29 -23
72 -23 101 0 18 15 22 28 21 62 -3 78 -60 104 -106 49z m65 -19 c13 0 11 -54
-3 -68 -16 -16 -43 -15 -56 1 -16 18 13 81 34 73 9 -3 20 -6 25 -6z"/>
<path d="M8064 11419 c-27 -14 -56 -63 -48 -83 7 -19 37 -21 67 -5 16 9 22 9
25 -1 9 -26 41 -48 61 -43 28 7 26 21 -4 33 -25 10 -33 34 -15 45 13 8 12 16
-3 37 -17 22 -56 30 -83 17z m41 -29 c3 -5 -8 -16 -25 -25 -35 -18 -41 -4 -8
19 26 19 25 19 33 6z"/>
<path d="M3906 11389 c-30 -35 -32 -56 -10 -87 15 -22 57 -30 80 -14 16 11 34
48 34 71 0 26 -34 61 -59 61 -11 0 -31 -14 -45 -31z m70 -23 c8 -21 -14 -56
-35 -56 -24 0 -34 26 -21 51 12 22 48 25 56 5z"/>
<path d="M7658 11404 c-49 -26 -64 -86 -29 -118 14 -13 33 -16 72 -14 70 4 76
24 8 27 -28 1 -56 4 -60 7 -31 19 25 90 62 79 22 -7 36 14 18 26 -20 12 -40
10 -71 -7z"/>
<path d="M6777 11387 c-37 -30 -52 -83 -31 -114 20 -31 36 -37 80 -28 27 5 34
10 30 22 -5 11 -2 14 11 9 13 -5 15 -4 7 4 -7 7 -19 7 -42 -1 -42 -14 -62 -6
-62 26 0 18 5 25 19 25 26 0 71 38 71 61 0 27 -47 25 -83 -4z"/>
<path d="M6953 11403 c-24 -5 -73 -50 -73 -67 0 -7 6 -20 13 -31 11 -15 22
-17 55 -11 26 4 42 2 42 -4 0 -5 6 -10 14 -10 8 0 16 16 20 40 5 32 2 44 -16
65 -12 14 -24 24 -27 24 -3 -1 -16 -4 -28 -6z m32 -42 c18 -7 17 -10 -13 -25
-19 -10 -41 -15 -49 -12 -14 6 -14 9 2 26 19 21 29 23 60 11z"/>
<path d="M7135 11390 c-10 -11 -21 -17 -25 -15 -11 7 -26 -15 -40 -58 -15 -49
0 -69 24 -33 9 14 30 42 48 62 l32 36 16 -23 c22 -28 45 -17 29 14 -23 42 -55
49 -84 17z"/>
<path d="M8723 11305 c-3 -9 -3 -18 0 -21 10 -10 47 7 47 22 0 19 -39 18 -47
-1z"/>
<path d="M14236 11313 c-3 -4 -6 -15 -6 -25 0 -24 33 -21 38 3 3 17 -21 33
-32 22z"/>
<path d="M13502 11278 c7 -19 38 -22 38 -4 0 10 -9 16 -21 16 -12 0 -19 -5
-17 -12z"/>
<path d="M13094 11102 c-7 -4 -13 -16 -15 -27 -3 -16 -17 -23 -62 -32 -63 -12
-98 -37 -118 -85 -10 -25 -9 -33 8 -56 19 -26 19 -28 1 -57 -20 -33 -23 -61
-9 -70 6 -3 19 15 30 40 l20 45 53 0 c62 1 92 15 119 56 25 39 24 70 -4 98
-23 23 -23 24 -6 47 30 38 18 65 -17 41z m-77 -108 c6 -17 -52 -84 -73 -84
-19 0 -23 22 -8 52 23 44 69 63 81 32z m83 -9 c10 -12 10 -21 1 -44 -14 -32
-48 -51 -92 -51 l-30 0 48 55 c26 30 51 55 54 55 4 0 12 -7 19 -15z"/>
<path d="M14724 11079 c-10 -12 -18 -23 -16 -25 8 -14 -2 -24 -26 -24 -50 0
-110 -92 -97 -149 4 -21 -1 -33 -26 -56 -36 -35 -62 -81 -54 -95 10 -17 35
-11 35 8 0 27 85 112 112 112 31 0 94 43 101 69 3 11 -3 35 -13 53 -17 32 -17
34 6 70 13 21 24 42 24 48 0 17 -26 11 -46 -11z m-83 -146 c-28 -42 -31 -44
-25 -18 7 30 43 79 52 70 3 -2 -10 -26 -27 -52z m77 2 c-3 -20 -54 -62 -64
-53 -3 4 7 25 22 47 27 41 50 44 42 6z"/>
<path d="M15019 11092 c-25 -11 -67 -65 -75 -97 -4 -15 -15 -36 -26 -47 -62
-62 -42 -160 29 -144 84 20 113 57 94 124 -6 19 -6 32 -1 32 24 0 42 50 36 95
-7 46 -18 53 -57 37z m31 -59 c0 -25 -30 -53 -57 -53 -29 0 -29 10 2 44 27 29
55 34 55 9z m-40 -135 c0 -35 -3 -40 -36 -54 -50 -21 -68 -12 -60 28 9 43 32
67 67 66 27 -1 29 -4 29 -40z"/>
<path d="M13792 11055 c-13 -21 -38 -42 -62 -51 -56 -23 -91 -67 -89 -113 2
-26 -8 -52 -34 -96 -39 -63 -44 -80 -27 -90 6 -4 24 23 41 59 22 47 38 68 54
72 13 3 28 3 33 0 16 -10 81 14 97 37 20 28 19 67 -1 96 -16 22 -15 25 14 66
17 24 28 46 25 49 -13 13 -29 4 -51 -29z m-78 -109 c-9 -23 12 -27 31 -6 14
15 21 17 32 9 33 -28 2 -79 -48 -79 -31 0 -36 9 -17 28 9 9 9 15 -1 25 -10 10
-15 8 -27 -7 -8 -11 -14 -14 -14 -8 0 11 35 52 45 52 2 0 2 -6 -1 -14z"/>
<path d="M14837 11083 c-4 -3 -7 -12 -7 -19 0 -6 -18 -51 -41 -98 -40 -86 -44
-116 -14 -116 10 0 15 9 15 28 0 15 18 63 40 106 22 43 40 84 40 92 0 14 -22
19 -33 7z"/>
<path d="M13977 11050 c-16 -17 -55 -51 -88 -76 -81 -64 -79 -78 11 -74 l35 1
0 -53 c0 -40 4 -53 15 -53 10 0 14 8 12 24 -7 47 7 87 36 100 24 12 25 14 10
25 -15 11 -15 16 -4 37 7 14 15 42 19 62 7 46 -7 48 -46 7z m-14 -77 c-8 -25
-33 -43 -57 -43 -17 0 -15 5 14 30 40 34 52 37 43 13z"/>
<path d="M13220 11036 c0 -11 14 -16 48 -18 l47 -3 -38 -24 c-21 -13 -36 -28
-34 -35 2 -6 22 -18 46 -26 50 -17 50 -36 2 -64 -33 -19 -34 -19 -67 -1 -24
13 -38 15 -45 8 -14 -14 36 -53 68 -53 51 0 113 50 113 90 0 22 -7 30 -37 41
l-36 14 51 28 c78 43 70 57 -33 57 -67 0 -85 -3 -85 -14z"/>
<path d="M14398 11028 c-35 -12 -39 -44 -5 -33 12 4 35 9 51 12 25 5 28 3 23
-12 -15 -36 -53 -74 -76 -74 -32 -1 -111 -48 -111 -66 0 -20 36 -19 85 3 l40
18 20 -30 c23 -34 51 -44 68 -27 9 9 6 13 -10 17 -12 4 -29 17 -38 31 -15 23
-15 26 14 59 33 37 47 74 37 99 -6 17 -56 19 -98 3z"/>
<path d="M14037 10862 c-22 -24 -21 -32 2 -32 22 0 45 25 36 40 -9 15 -20 12
-38 -8z"/>
<path d="M11248 10835 c-43 -29 -61 -56 -51 -82 4 -10 25 -44 47 -76 35 -49
41 -66 40 -106 0 -49 -28 -102 -62 -120 -23 -12 -62 -4 -92 19 -22 17 -24 21
-12 41 16 25 11 33 -16 25 -63 -20 -4 -109 81 -123 28 -4 40 0 70 26 44 39 72
107 64 156 -3 20 -24 63 -46 95 -23 33 -41 68 -41 79 0 19 58 61 86 61 17 0
18 -14 0 -65 -15 -44 -12 -65 11 -65 25 0 42 31 43 75 0 82 -50 107 -122 60z"/>
<path d="M13424 10836 c-4 -10 -2 -22 4 -28 8 -8 13 -7 18 6 4 10 2 22 -4 28
-8 8 -13 7 -18 -6z"/>
<path d="M9523 10744 c-16 -16 -22 -29 -15 -33 6 -4 -4 -29 -28 -69 -20 -34
-46 -81 -56 -103 -18 -40 -18 -41 -61 -34 -24 3 -43 2 -43 -2 0 -17 24 -33 47
-33 20 0 22 -3 13 -19 -24 -46 -4 -118 33 -122 33 -4 114 4 131 13 33 18 3 28
-54 19 -33 -5 -62 -5 -72 0 -20 11 -23 50 -7 81 10 18 17 20 69 14 45 -5 59
-4 63 8 4 10 -7 15 -49 21 -30 3 -54 9 -54 11 0 10 54 112 97 182 41 68 46 92
22 92 -5 0 -22 -12 -36 -26z"/>
<path d="M5264 10745 c-15 -12 -16 -16 -6 -23 11 -7 7 -29 -18 -113 -18 -57
-48 -137 -66 -178 -19 -41 -34 -78 -34 -82 0 -23 29 -3 68 47 48 60 68 70 57
27 -11 -42 -11 -55 0 -60 17 -6 46 86 35 108 -13 23 -37 24 -61 3 -13 -12 -7
18 26 118 25 73 45 141 45 151 0 21 -20 22 -46 2z"/>
<path d="M5785 10749 c-4 -6 -5 -13 -1 -16 3 -3 -15 -46 -40 -95 l-45 -90 -51
4 c-70 4 -78 -19 -10 -28 l50 -6 -5 -57 c-7 -71 11 -96 61 -85 38 8 46 12 46
25 0 6 -17 9 -37 7 -34 -3 -38 0 -41 22 -2 13 1 41 7 62 11 35 14 38 70 49 66
13 86 22 77 37 -5 9 -52 3 -109 -14 -14 -4 -9 12 24 79 25 49 40 91 36 101 -7
18 -23 21 -32 5z"/>
<path d="M9020 10740 c-29 -29 -56 -88 -70 -152 -10 -45 -18 -58 -35 -62 -36
-9 -97 -83 -93 -113 4 -35 29 -50 65 -38 35 12 67 75 83 165 16 84 47 156 77
180 30 24 33 32 10 36 -10 1 -27 -6 -37 -16z m-107 -287 c-8 -21 -20 -41 -27
-45 -17 -11 -36 -9 -36 4 0 18 50 78 65 78 12 0 11 -6 -2 -37z"/>
<path d="M5074 10739 c-3 -6 -2 -15 4 -21 11 -11 -12 -108 -44 -189 -17 -41
-17 -41 -60 -35 -27 3 -46 1 -50 -5 -9 -15 15 -29 49 -29 15 0 27 -4 27 -9 0
-18 -43 -111 -51 -111 -16 0 -9 -19 11 -30 17 -9 21 -8 26 7 3 10 17 46 31 81
24 59 27 62 58 62 41 0 85 16 85 30 0 6 -20 8 -55 4 l-56 -7 20 51 c30 76 53
171 46 193 -7 21 -30 26 -41 8z"/>
<path d="M6336 10653 c-21 -54 -59 -138 -84 -186 -27 -54 -41 -92 -35 -98 5
-5 34 16 73 56 35 36 68 65 72 65 4 0 -2 -21 -13 -46 -22 -48 -19 -94 5 -94
20 0 27 12 15 26 -8 10 -3 29 17 74 25 57 26 62 11 78 -16 15 -19 15 -44 -4
-16 -11 -34 -24 -40 -28 -7 -4 8 42 33 101 55 128 62 153 42 153 -8 0 -29 -39
-52 -97z"/>
<path d="M12227 10734 c-3 -3 -3 -12 -1 -19 3 -7 -12 -56 -33 -109 -41 -104
-59 -118 -116 -97 -18 7 -28 7 -33 -1 -10 -16 24 -38 58 -38 34 0 34 -7 7 -66
-16 -34 -19 -48 -10 -57 15 -15 24 -4 51 71 22 62 23 62 62 62 45 0 49 23 5
28 -15 2 -27 4 -27 6 0 1 16 41 35 89 37 91 44 137 22 137 -8 0 -16 -3 -20 -6z"/>
<path d="M12419 10738 c0 -2 -2 -19 -4 -39 -5 -46 -68 -204 -106 -263 -36 -58
-18 -73 32 -26 19 17 47 41 63 53 l29 21 -7 -25 c-4 -13 -10 -36 -13 -52 -8
-39 20 -26 35 17 26 71 5 104 -48 72 l-29 -16 26 62 c54 135 66 198 38 198 -8
0 -15 -1 -16 -2z"/>
<path d="M12886 10709 c-18 -14 -24 -25 -17 -33 6 -7 -2 -31 -23 -71 -25 -45
-39 -61 -57 -63 -52 -6 -69 -13 -69 -28 0 -13 9 -15 40 -12 36 3 39 2 33 -17
-15 -48 -21 -91 -14 -98 12 -12 25 12 40 68 6 27 14 52 17 54 2 3 23 7 46 10
56 8 63 31 9 31 l-40 0 42 80 c30 56 39 82 31 90 -7 7 -18 4 -38 -11z"/>
<path d="M13169 10699 c-12 -17 -44 -44 -71 -61 -35 -22 -46 -34 -39 -41 21
-21 147 73 136 101 -2 7 0 10 5 7 6 -3 10 -2 10 4 0 24 -20 19 -41 -10z"/>
<path d="M14213 10719 c-6 -6 -9 -17 -7 -24 3 -7 -11 -38 -32 -69 -34 -52 -40
-56 -75 -56 -28 0 -39 -4 -39 -15 0 -10 10 -15 30 -15 l30 0 -30 -60 c-53
-105 -32 -159 56 -145 61 9 74 14 74 32 0 11 -8 12 -37 7 -71 -14 -88 -11 -91
16 -2 14 10 50 26 80 l28 55 94 5 c60 3 95 9 97 17 3 9 -20 13 -81 15 l-86 3
36 53 c35 53 48 101 29 109 -6 2 -16 -2 -22 -8z"/>
<path d="M2616 10695 c-7 -26 -130 -220 -147 -230 -5 -4 -9 17 -9 48 0 64 -25
153 -45 161 -22 8 -26 -9 -9 -43 9 -17 19 -72 24 -123 8 -87 8 -92 -15 -122
-54 -71 -135 -211 -135 -233 0 -32 26 -29 33 5 5 24 112 191 196 307 114 158
163 255 128 255 -8 0 -18 -11 -21 -25z"/>
<path d="M3930 10686 c0 -21 -50 -179 -60 -189 -4 -5 -27 -9 -51 -10 -57 -3
-66 -27 -10 -27 47 0 49 -6 21 -60 -23 -46 -25 -60 -7 -60 8 0 25 26 39 58 21
50 30 60 57 65 35 7 44 37 10 37 -12 0 -19 5 -17 13 2 6 14 45 27 85 22 70 23
102 1 102 -5 0 -10 -7 -10 -14z"/>
<path d="M4080 10595 c0 -8 7 -15 15 -15 8 0 15 7 15 15 0 8 -7 15 -15 15 -8
0 -15 -7 -15 -15z"/>
<path d="M7397 10586 c-4 -9 -3 -18 2 -20 13 -8 52 6 48 18 -6 17 -44 19 -50
2z"/>
<path d="M13731 10551 c-12 -12 -21 -18 -21 -14 0 3 -10 -2 -21 -13 -16 -14
-23 -15 -26 -6 -8 23 -28 12 -51 -28 -12 -22 -27 -40 -32 -40 -12 0 -13 -27
-2 -34 5 -3 41 20 82 50 40 29 75 54 77 54 3 0 -5 -16 -17 -35 -22 -35 -21
-70 2 -63 6 2 12 12 14 22 1 10 10 26 19 36 20 22 25 81 8 87 -6 2 -21 -5 -32
-16z"/>
<path d="M14357 10549 c-4 -16 -3 -18 9 -8 7 6 11 15 8 20 -8 13 -11 11 -17
-12z"/>
<path d="M3499 10552 c-56 -25 -143 -132 -118 -148 7 -4 20 2 31 17 34 42 90
99 99 99 5 0 3 -15 -4 -32 -25 -61 -28 -86 -11 -102 21 -21 36 -11 28 19 -3
13 2 47 11 75 23 70 12 92 -36 72z"/>
<path d="M9705 10540 c-7 -12 2 -30 16 -30 5 0 9 9 9 20 0 21 -15 27 -25 10z"/>
<path d="M11388 10525 c-57 -52 -41 -115 29 -115 63 0 93 61 57 115 -21 32
-52 32 -86 0z m72 -44 c0 -9 -5 -22 -12 -29 -14 -14 -54 -16 -63 -2 -10 16 13
48 37 52 30 5 38 1 38 -21z"/>
<path d="M6692 10525 c-38 -17 -39 -22 -8 -68 13 -19 22 -38 18 -41 -9 -10
-50 -7 -57 4 -10 17 -25 11 -25 -10 0 -30 34 -43 76 -30 50 17 60 42 29 78
-32 39 -32 46 5 39 22 -5 30 -3 30 8 0 25 -32 34 -68 20z"/>
<path d="M7197 10506 c-18 -16 -29 -20 -36 -13 -7 7 -12 5 -17 -9 -4 -10 -17
-45 -30 -78 -22 -55 -23 -76 -4 -76 4 0 18 19 29 43 12 24 37 62 57 85 30 36
38 40 54 30 25 -16 35 -5 20 21 -14 28 -41 27 -73 -3z"/>
<path d="M8692 10504 c-18 -15 -31 -20 -30 -12 2 7 -2 13 -9 13 -15 0 -65 -93
-53 -100 14 -8 58 16 75 41 8 13 25 28 37 35 20 11 20 10 -4 -34 -18 -31 -22
-49 -16 -61 11 -20 28 -21 28 -1 0 9 12 38 26 66 39 79 12 105 -54 53z"/>
<path d="M13845 10515 c-35 -18 -75 -63 -75 -86 0 -9 9 -24 20 -34 45 -41 140
17 140 86 0 30 -4 38 -22 43 -31 8 -29 8 -63 -9z m52 -59 c-4 -9 -22 -24 -42
-33 -65 -31 -70 21 -6 60 22 14 28 14 40 2 7 -7 11 -21 8 -29z"/>
<path d="M3631 10501 c-57 -57 -63 -105 -14 -117 29 -8 50 2 69 32 11 16 11
24 -1 47 -8 15 -12 34 -8 42 8 22 -23 19 -46 -4z m29 -60 c0 -24 -15 -35 -36
-27 -12 4 -13 10 -4 26 14 26 40 26 40 1z"/>
<path d="M5386 10489 c-41 -35 -53 -64 -36 -84 15 -18 52 -19 68 -3 9 9 12 6
12 -15 0 -31 27 -50 52 -36 24 13 23 29 -2 29 -11 0 -20 2 -20 5 0 3 9 23 20
45 29 58 25 90 -9 58 -7 -7 -12 -8 -11 -3 9 45 -26 47 -74 4z m38 -46 c-37
-29 -59 -31 -44 -3 13 25 40 39 58 32 12 -4 8 -11 -14 -29z"/>
<path d="M7875 10511 c-31 -6 -59 -55 -40 -69 15 -10 16 -62 2 -62 -7 0 -29
11 -48 25 -34 22 -49 24 -49 4 0 -18 76 -59 108 -59 40 0 47 15 27 62 -18 45
-11 67 24 70 14 1 35 2 46 3 20 1 25 6 25 25 0 11 -47 11 -95 1z"/>
<path d="M8512 10503 c-18 -8 -46 -31 -62 -50 -25 -28 -28 -38 -20 -53 13 -24
26 -25 64 -5 37 19 36 20 36 -13 0 -18 5 -29 14 -29 9 0 15 17 19 50 3 32 10
53 21 59 21 12 20 27 -1 44 -23 17 -31 17 -71 -3z m22 -36 c-5 -15 -64 -52
-64 -40 0 8 51 52 62 53 4 0 5 -6 2 -13z"/>
<path d="M13057 10504 c-26 -14 -28 -20 -25 -62 4 -55 -17 -67 -52 -32 -17 17
-25 19 -33 10 -19 -18 36 -60 78 -60 39 0 51 21 41 75 -7 38 11 55 58 55 16 0
26 6 26 15 0 20 -56 19 -93 -1z"/>
<path d="M4159 10503 c-9 -2 -31 -22 -48 -44 -60 -74 -22 -143 66 -122 60 14
53 33 -11 33 -49 0 -56 3 -56 19 0 30 48 81 76 81 27 0 33 24 8 34 -9 3 -16 5
-17 5 -1 -1 -9 -3 -18 -6z"/>
<path d="M7610 10480 c-43 -36 -49 -37 -42 -5 5 30 -7 32 -51 8 -18 -9 -39
-16 -47 -15 -20 2 -74 -74 -66 -94 5 -12 18 -5 63 33 35 30 52 40 45 26 -16
-29 -15 -43 2 -43 19 0 86 39 86 50 0 4 9 10 21 13 19 5 20 2 17 -45 -2 -39 1
-53 14 -61 25 -17 51 9 27 26 -13 10 -15 23 -9 64 6 48 -1 73 -20 73 -3 0 -21
-13 -40 -30z"/>
<path d="M10014 10500 c-11 -4 -32 -22 -47 -39 -14 -17 -31 -31 -37 -31 -7 0
-10 -3 -8 -7 24 -49 34 -63 55 -74 29 -16 99 -15 119 2 19 16 7 31 -19 23 -30
-10 -78 -7 -89 4 -7 7 -2 13 13 17 37 12 89 55 89 74 0 36 -32 49 -76 31z m46
-28 c0 -5 -18 -18 -40 -31 -41 -23 -54 -16 -22 11 26 23 62 35 62 20z"/>
<path d="M10239 10491 l-24 -20 38 -38 c20 -21 37 -42 37 -46 0 -13 -65 6 -86
25 -28 25 -42 6 -20 -27 12 -18 28 -25 71 -30 69 -9 83 1 65 45 -7 17 -23 39
-37 50 -30 23 -17 33 40 28 32 -2 42 1 42 12 0 25 -96 26 -126 1z"/>
<path d="M12540 10491 c-82 -44 -90 -96 -12 -75 36 10 37 9 38 -18 1 -34 20
-58 45 -58 23 0 25 16 3 24 -12 5 -15 19 -12 73 3 78 -4 84 -62 54z"/>
<path d="M2787 10474 c-12 -15 -44 -51 -70 -80 -28 -30 -46 -58 -42 -64 5 -8
16 -3 35 15 18 17 30 23 34 16 11 -18 41 -13 80 14 l36 24 0 -24 c0 -24 30
-42 50 -30 15 10 12 35 -5 35 -19 0 -19 17 0 50 19 33 18 40 -1 40 -9 0 -34
-15 -54 -34 -74 -67 -108 -69 -50 -3 30 35 39 67 19 67 -6 0 -20 -12 -32 -26z"/>
<path d="M4002 10463 c-9 -21 -23 -42 -30 -46 -9 -6 -9 -13 -2 -28 6 -11 16
-17 21 -13 13 7 49 90 49 110 0 27 -20 14 -38 -23z"/>
<path d="M6445 10465 c-20 -19 -35 -40 -33 -47 5 -14 52 -16 78 -4 12 5 16 0
15 -21 0 -23 5 -29 26 -31 32 -4 79 14 79 29 0 8 -13 10 -40 5 l-41 -6 16 29
c19 37 19 51 1 51 -7 0 -19 7 -26 15 -19 23 -35 18 -75 -20z m55 -9 c0 -2 -7
-7 -16 -10 -8 -3 -12 -2 -9 4 6 10 25 14 25 6z"/>
<path d="M9812 10485 c-26 -19 -62 -85 -62 -115 0 -38 25 -20 43 30 20 55 39
70 95 73 52 3 46 21 -8 25 -29 2 -53 -3 -68 -13z"/>
<path d="M4300 10460 c-38 -40 -45 -99 -16 -129 12 -11 23 -11 65 -1 28 6 51
16 51 21 0 4 7 6 15 3 18 -7 49 22 40 36 -4 7 -11 8 -18 2 -17 -14 -119 -42
-129 -36 -14 9 -9 44 5 38 18 -7 70 50 65 73 -6 31 -45 28 -78 -7z m40 -15
c-7 -9 -15 -13 -19 -10 -3 3 1 10 9 15 21 14 24 12 10 -5z"/>
<path d="M2563 10438 c-90 -93 -47 -177 46 -92 47 42 63 91 35 111 -28 20 -47
16 -81 -19z m67 -19 c0 -14 -64 -79 -78 -79 -17 0 -2 38 25 65 27 26 53 33 53
14z"/>
<path d="M9645 10433 c-16 -38 -17 -72 -2 -76 8 -2 25 37 44 96 11 35 -27 17
-42 -20z"/>
<path d="M7273 10413 c-10 -16 -27 -35 -38 -44 -16 -14 -17 -19 -6 -33 18 -21
41 -20 41 2 0 10 11 33 25 52 29 39 31 50 10 50 -8 0 -23 -12 -32 -27z"/>
<path d="M10464 10367 c-8 -22 11 -46 26 -31 7 7 5 17 -4 30 -14 18 -15 18
-22 1z"/>
<path d="M3294 10288 c-5 -7 -18 -49 -29 -93 -12 -44 -25 -91 -29 -103 -7 -20
-5 -23 10 -20 15 2 26 28 47 107 19 67 26 106 19 113 -6 6 -13 5 -18 -4z"/>
<path d="M5234 10243 c-8 -21 -31 -87 -50 -148 -19 -60 -39 -117 -43 -125 -11
-22 -2 -40 20 -40 15 0 19 7 19 33 1 17 19 84 41 147 22 63 43 127 46 143 8
40 -14 34 -33 -10z"/>
<path d="M9607 10273 c-3 -5 -19 -54 -36 -110 -19 -61 -46 -122 -68 -154 -26
-38 -33 -57 -26 -67 15 -25 45 -30 96 -17 58 15 90 41 81 68 -4 12 -2 17 4 13
19 -11 24 34 8 59 -19 29 -42 32 -76 8 -23 -16 -23 -16 -16 3 18 43 56 170 56
187 0 17 -15 24 -23 10z m33 -243 c0 -16 -9 -39 -19 -49 -19 -19 -87 -39 -97
-29 -6 7 91 108 105 108 6 0 11 -13 11 -30z"/>
<path d="M9144 10253 c-6 -19 -11 -31 -44 -105 -69 -159 -86 -249 -47 -256 16
-3 17 1 12 30 -5 32 9 78 88 275 14 34 22 64 19 67 -10 11 -23 6 -28 -11z"/>
<path d="M4087 10228 c-3 -18 -1 -37 4 -42 5 -5 2 -14 -6 -20 -12 -9 -30 -63
-82 -238 -10 -34 26 -19 46 20 17 32 101 125 101 111 0 -17 -35 -105 -44 -111
-12 -8 2 -39 20 -45 13 -4 58 151 50 172 -8 22 -35 18 -74 -12 -30 -23 -34
-24 -28 -7 13 32 46 166 46 186 0 32 -27 20 -33 -14z"/>
<path d="M6917 10253 c-4 -3 -7 -13 -7 -20 0 -8 -20 -58 -45 -112 -41 -90 -55
-141 -39 -141 4 0 26 16 50 35 23 19 45 35 47 35 3 0 3 -17 1 -37 -4 -46 3
-73 20 -73 11 0 15 69 8 128 -3 23 -55 10 -69 -18 -30 -59 -9 13 28 97 37 85
42 113 20 113 -4 0 -11 -3 -14 -7z"/>
<path d="M7166 10205 c-25 -55 -25 -55 -70 -55 -34 0 -46 -4 -46 -15 0 -11 11
-15 38 -15 l39 0 -19 -57 c-24 -70 -18 -98 23 -112 44 -15 49 -14 49 9 0 15
-7 20 -24 20 -14 0 -27 4 -31 9 -3 5 4 39 16 75 21 63 23 66 61 73 46 9 55 27
16 31 -33 4 -32 0 -13 45 13 32 12 47 -6 47 -4 0 -19 -25 -33 -55z"/>
<path d="M9007 10228 c-7 -18 -21 -60 -31 -93 -10 -33 -29 -95 -42 -137 -28
-91 -28 -88 -10 -88 10 0 23 26 37 73 12 39 36 116 54 169 18 54 30 100 27
103 -12 12 -22 3 -35 -27z"/>
<path d="M3970 10234 c-58 -15 -225 -14 -269 1 -19 6 -22 5 -20 -10 5 -24 46
-35 132 -36 37 0 67 -3 67 -6 0 -3 -14 -58 -30 -121 -17 -64 -30 -130 -28
-146 4 -39 28 -47 28 -9 0 15 14 85 31 155 l31 126 76 19 c41 10 77 24 80 31
5 15 -26 14 -98 -4z"/>
<path d="M10456 10242 c-3 -5 -9 -27 -15 -50 -6 -30 -6 -42 3 -42 8 0 8 -2 -1
-8 -6 -4 -23 -37 -38 -74 -26 -64 -43 -91 -32 -49 6 24 -17 35 -33 15 -10 -11
-10 -17 0 -29 7 -9 13 -31 12 -49 -1 -30 2 -34 38 -45 34 -10 45 -9 74 6 44
23 98 90 94 117 -2 12 -15 26 -29 33 -22 11 -32 10 -58 -3 -35 -17 -51 -13
-33 9 10 11 40 115 45 156 2 16 -19 26 -27 13z m69 -212 c4 -6 -11 -29 -33
-50 -29 -30 -48 -40 -71 -40 -17 0 -31 3 -31 7 0 4 19 27 42 50 41 42 79 55
93 33z"/>
<path d="M11556 10218 c-14 -64 -40 -238 -40 -273 -1 -29 3 -40 14 -40 8 0 14
8 13 18 0 10 9 82 22 160 13 78 21 145 19 149 -10 15 -24 8 -28 -14z"/>
<path d="M6637 10214 c-9 -10 2 -24 19 -24 8 0 14 7 14 15 0 15 -21 21 -33 9z"/>
<path d="M10705 10160 c-8 -13 3 -30 21 -30 18 0 18 14 0 29 -10 8 -16 9 -21
1z"/>
<path d="M5680 10132 c-44 -22 -52 -63 -20 -97 l22 -24 -33 -3 c-36 -3 -50
-23 -22 -32 25 -8 75 7 87 27 8 13 4 23 -19 47 -31 32 -28 41 16 64 22 11 28
28 12 33 -4 2 -24 -5 -43 -15z"/>
<path d="M5513 10125 c-27 -19 -29 -44 -7 -87 18 -34 9 -48 -33 -48 -14 0 -23
-6 -23 -15 0 -22 60 -19 90 5 l25 19 -23 41 c-27 48 -19 67 31 72 18 2 32 8
32 13 0 17 -68 17 -92 0z"/>
<path d="M6222 10058 c-23 -52 -29 -75 -21 -82 8 -8 16 -4 27 14 27 39 83 100
94 100 6 0 7 -16 3 -40 -9 -52 3 -51 55 3 32 32 40 37 35 20 -8 -28 1 -44 20
-36 10 3 15 20 15 49 0 36 -3 44 -18 44 -10 0 -27 -6 -37 -14 -17 -12 -21 -12
-31 2 -8 11 -18 13 -40 7 -32 -9 -32 -9 -54 -1 -11 5 -24 -13 -48 -66z"/>
<path d="M6540 10070 c-12 -33 -19 -67 -16 -76 9 -23 18 -10 44 59 26 69 27
77 8 77 -7 0 -23 -26 -36 -60z"/>
<path d="M2540 10093 c-95 -79 -61 -203 48 -174 35 10 70 46 58 59 -3 3 -6 -1
-6 -9 0 -12 -2 -12 -9 0 -10 15 -31 7 -31 -13 0 -17 -61 -9 -76 11 -24 29 17
106 62 117 14 4 24 12 21 19 -7 22 -34 18 -67 -10z"/>
<path d="M4964 10086 c-36 -36 -42 -61 -21 -90 15 -20 90 -39 119 -30 32 10
14 29 -31 31 -49 2 -71 16 -64 43 7 26 50 52 73 45 28 -9 44 3 29 21 -21 26
-68 17 -105 -20z"/>
<path d="M5289 10092 c-43 -44 -54 -71 -35 -90 14 -14 19 -14 51 1 33 16 40
13 37 -15 -2 -12 27 -30 38 -23 13 8 13 35 -1 35 -6 0 -9 15 -7 37 4 46 -15
54 -47 19 -13 -14 -30 -26 -36 -26 -17 0 31 50 59 61 31 12 28 29 -5 28 -17 0
-39 -11 -54 -27z"/>
<path d="M2794 10088 c-11 -13 -29 -42 -39 -66 -17 -39 -17 -44 -3 -59 35 -34
121 20 121 75 0 32 -26 72 -48 72 -6 0 -20 -10 -31 -22z m46 -58 c0 -12 -12
-26 -30 -35 -34 -18 -39 -6 -12 30 21 30 42 32 42 5z"/>
<path d="M6750 10102 c0 -5 -14 -7 -30 -4 -36 5 -62 -14 -81 -59 -10 -25 -9
-33 3 -45 12 -13 19 -13 56 0 l42 15 0 -25 c0 -14 -5 -45 -11 -69 -11 -43 -13
-44 -58 -51 -80 -12 -141 -100 -99 -142 8 -8 9 -28 0 -79 -22 -135 -23 -152
-12 -172 18 -35 28 -23 29 37 0 31 5 86 12 122 10 58 15 67 43 81 18 9 45 38
65 72 26 44 39 57 57 57 22 0 28 8 22 28 -2 4 -11 6 -21 6 -12 -1 -16 3 -13
13 4 8 8 40 11 71 3 32 8 78 11 105 4 38 2 47 -11 47 -8 0 -15 -4 -15 -8z
m-33 -57 c-42 -37 -65 -32 -30 7 9 10 26 18 37 18 19 -1 19 -2 -7 -25z m-17
-210 c0 -15 -31 -63 -54 -84 -25 -24 -27 -24 -44 -8 -15 16 -15 20 -2 45 16
28 100 67 100 47z"/>
<path d="M7926 10101 c-4 -5 -2 -21 4 -36 13 -33 13 -102 1 -110 -5 -3 -21 0
-36 7 -18 8 -29 8 -36 1 -8 -8 -3 -16 19 -27 69 -36 95 -14 90 73 l-3 60 37
-5 c21 -4 45 -3 54 0 26 10 2 28 -43 32 -21 2 -48 6 -60 9 -12 3 -24 1 -27 -4z"/>
<path d="M8521 10099 c-14 -6 -31 -15 -39 -21 -8 -7 -24 -14 -35 -15 -29 -5
-44 -20 -31 -33 6 -6 25 -2 52 10 23 10 42 17 42 15 0 -2 -16 -33 -35 -68 -57
-104 -44 -125 36 -57 39 32 46 36 41 18 -5 -21 19 -48 43 -48 22 0 121 150
108 164 -13 12 -23 5 -39 -26 -19 -36 -66 -98 -74 -98 -4 0 -4 16 -2 35 4 29
1 35 -15 35 -11 0 -28 -9 -38 -20 -33 -36 -33 -21 -1 40 34 64 30 85 -13 69z"/>
<path d="M8810 10084 c-54 -30 -100 -91 -100 -132 0 -33 27 -62 57 -62 35 0
83 21 83 37 0 11 -6 12 -22 7 -13 -5 -36 -8 -53 -9 -25 0 -30 4 -33 27 -3 24
1 27 30 30 22 2 34 9 36 21 3 16 0 18 -20 12 -21 -7 -22 -6 -9 9 8 10 28 24
45 33 30 16 31 16 16 -3 -8 -10 -18 -21 -22 -24 -4 -3 -3 -12 3 -20 8 -12 15
-9 40 18 32 35 36 75 9 79 -8 2 -35 -9 -60 -23z"/>
<path d="M11712 10100 c-12 -5 -32 -25 -43 -45 -12 -19 -25 -35 -30 -35 -5 0
-9 -7 -9 -15 0 -8 5 -15 10 -15 6 0 10 -8 10 -18 0 -11 9 -27 20 -37 34 -31
160 -5 160 33 0 10 -6 12 -17 7 -37 -16 -102 -28 -117 -22 -27 11 -18 34 16
41 37 7 98 51 98 71 0 37 -49 54 -98 35z m58 -38 c0 -13 -12 -22 -37 -30 -48
-15 -55 -6 -20 24 33 29 57 31 57 6z"/>
<path d="M2957 10066 c-44 -40 -53 -70 -33 -101 30 -46 98 -23 120 39 9 27
-12 83 -34 89 -12 3 -31 -7 -53 -27z m56 -30 c8 -21 -17 -61 -41 -64 -17 -3
-22 2 -22 19 0 41 51 78 63 45z"/>
<path d="M9785 10081 c-16 -9 -42 -39 -57 -67 -44 -79 -35 -124 27 -124 39 0
120 27 135 45 19 23 -6 26 -55 5 -75 -32 -114 -24 -100 20 4 14 15 20 36 20
39 0 79 40 79 78 0 18 -6 32 -16 36 -9 3 -16 6 -17 5 -1 0 -15 -8 -32 -18z
m35 -28 c0 -13 -33 -43 -48 -43 -12 0 -10 6 8 25 23 24 40 32 40 18z"/>
<path d="M7705 10066 c-29 -29 -42 -73 -28 -95 7 -10 24 -16 46 -15 27 1 37
-3 41 -18 6 -24 32 -18 28 5 -2 9 2 26 8 37 13 25 5 74 -17 95 -21 22 -51 18
-78 -9z m64 -28 c7 -19 3 -26 -18 -40 -51 -34 -69 -13 -30 36 25 32 37 33 48
4z"/>
<path d="M4283 10070 c-31 -13 -68 -90 -59 -124 10 -42 43 -57 96 -45 47 11
120 52 120 69 0 16 -15 12 -66 -15 -52 -28 -109 -33 -117 -11 -4 10 5 18 29
26 40 14 67 49 62 82 -3 26 -29 33 -65 18z m19 -52 c-12 -12 -25 -18 -29 -14
-4 4 3 16 16 27 31 25 41 15 13 -13z"/>
<path d="M11315 10040 c-73 -58 -81 -97 -26 -119 32 -14 140 -11 144 4 1 6
-20 11 -48 13 -70 3 -95 10 -95 26 0 18 74 77 92 74 7 -2 13 4 13 12 0 27 -40
22 -80 -10z"/>
<path d="M3221 10029 c-14 -40 -14 -42 2 -33 6 4 4 -2 -6 -13 -24 -27 -35 -93
-16 -93 13 0 22 24 57 158 8 27 -27 10 -37 -19z"/>
<path d="M10656 10014 c-13 -32 -15 -49 -8 -56 7 -7 17 2 31 30 24 47 27 72 9
72 -7 0 -21 -21 -32 -46z"/>
<path d="M10845 10038 c-49 -25 -85 -57 -85 -75 0 -8 12 -26 26 -40 22 -22 31
-25 67 -19 23 4 54 7 69 7 27 -1 43 12 34 27 -3 5 -30 5 -60 1 -69 -9 -96 -3
-96 23 0 14 16 26 56 45 30 13 53 30 51 36 -6 18 -20 17 -62 -5z"/>
<path d="M11046 10051 c-4 -5 4 -22 17 -38 13 -15 31 -43 40 -62 19 -37 20
-34 -79 -198 -31 -51 -35 -73 -15 -73 11 0 121 187 166 281 35 73 42 99 27 99
-15 0 -32 -24 -32 -47 0 -13 -4 -23 -9 -23 -5 0 -12 -10 -15 -22 l-7 -23 -9
23 c-11 27 -62 92 -72 92 -4 0 -9 -4 -12 -9z"/>
<path d="M3306 9933 c-4 -9 -3 -20 1 -24 13 -13 37 7 30 25 -8 21 -23 20 -31
-1z"/>
<path d="M11954 9939 c-8 -14 11 -33 25 -25 6 4 11 14 11 22 0 16 -26 19 -36
3z"/>
<path d="M3584 9796 c-19 -41 -34 -79 -34 -85 0 -6 -5 -11 -11 -11 -5 0 -8 -4
-5 -8 3 -5 -19 -5 -50 1 -30 5 -61 6 -70 3 -32 -12 -7 -28 51 -33 33 -2 61 -6
63 -8 2 -2 -1 -20 -7 -42 -18 -64 -14 -111 13 -138 24 -24 92 -49 108 -39 16
10 7 23 -22 29 -44 10 -80 42 -80 73 0 15 6 50 13 77 13 49 14 50 58 56 24 4
64 4 89 1 42 -5 44 -4 31 12 -8 10 -23 15 -33 13 -10 -3 -18 -1 -18 5 0 6 -19
7 -51 3 -50 -7 -51 -7 -44 16 4 13 16 40 26 60 10 20 15 39 12 43 -4 3 -1 6 5
6 7 0 12 9 12 20 0 40 -22 18 -56 -54z"/>
<path d="M4363 9823 c-32 -30 -43 -50 -52 -91 -6 -29 -11 -59 -11 -66 0 -8
-24 -18 -60 -26 -66 -14 -97 -31 -86 -48 4 -8 16 -7 39 2 55 23 97 27 97 11 0
-30 -31 -157 -46 -192 -10 -21 -18 -69 -19 -108 -2 -47 -13 -100 -35 -162 -33
-96 -36 -138 -10 -138 9 0 14 7 12 18 -2 9 11 61 29 115 17 53 33 125 34 160
2 34 13 86 23 115 11 29 25 85 32 125 9 47 18 72 27 72 16 0 17 16 2 25 -13 9
-2 99 17 136 11 22 33 39 50 39 2 0 4 -7 4 -16 0 -22 34 -14 38 9 4 17 -23 57
-38 57 -4 0 -25 -17 -47 -37z"/>
<path d="M7061 9836 c-50 -28 -63 -89 -36 -166 8 -23 15 -45 15 -49 0 -3 -19
-6 -42 -6 -40 0 -44 -3 -61 -37 -26 -52 -16 -93 25 -107 38 -13 78 -14 97 -2
19 12 16 141 -4 208 -22 72 -19 92 20 127 19 18 35 35 35 39 0 11 -23 8 -49
-7z m-21 -298 c0 -51 -6 -55 -57 -42 -18 5 -23 14 -23 38 0 40 16 57 52 54 26
-2 28 -5 28 -50z"/>
<path d="M7782 9834 c-24 -16 -20 -39 5 -30 8 3 13 2 11 -2 -1 -4 -16 -39 -32
-76 l-30 -68 -38 5 c-39 5 -61 -9 -37 -24 8 -5 24 -9 37 -9 19 0 22 -5 22 -45
0 -48 25 -85 58 -85 9 0 27 -3 40 -6 16 -5 22 -2 22 9 0 10 -13 18 -35 23 -44
8 -57 24 -53 66 3 31 5 33 46 36 53 4 59 29 8 34 l-35 3 35 74 c19 40 34 82
34 92 0 23 -27 25 -58 3z"/>
<path d="M2596 9794 c-3 -9 -6 -47 -6 -85 l0 -69 -29 0 c-39 0 -78 -34 -92
-80 -10 -33 -9 -43 5 -65 21 -33 47 -32 84 3 37 35 52 83 59 192 4 57 10 88
19 93 22 13 16 27 -10 27 -13 0 -27 -7 -30 -16z m-16 -189 c0 -23 -36 -86 -52
-91 -42 -13 -44 38 -3 79 15 15 55 24 55 12z"/>
<path d="M13130 9795 c-7 -8 -25 -52 -40 -98 -27 -80 -29 -82 -58 -79 -61 6
-122 -49 -122 -111 0 -68 81 -59 140 16 12 15 38 76 58 135 28 81 42 109 60
117 12 5 21 14 19 20 -6 17 -43 17 -57 0z m-90 -224 c0 -22 -66 -84 -83 -78
-23 7 -18 38 11 67 35 34 72 40 72 11z"/>
<path d="M2124 9763 c-9 -21 -17 -39 -18 -40 0 -1 -20 2 -44 7 -35 6 -45 5
-50 -8 -3 -9 -1 -17 4 -19 5 -2 24 -12 41 -23 29 -17 32 -22 23 -46 -6 -14
-26 -45 -45 -68 -41 -50 -42 -56 -14 -79 19 -17 22 -17 39 -2 10 9 21 31 24
48 7 36 32 77 47 77 6 0 19 -20 30 -45 20 -44 35 -62 46 -51 5 5 -9 74 -23
109 -4 12 8 23 45 42 71 36 69 59 -4 53 -59 -5 -56 -7 -59 51 -2 39 -25 36
-42 -6z m16 -94 c0 -11 -4 -18 -10 -14 -5 3 -7 12 -3 20 7 21 13 19 13 -6z"/>
<path d="M4807 9758 c-3 -24 -15 -90 -27 -146 -16 -75 -20 -112 -14 -135 17
-56 31 -42 32 30 0 37 10 106 21 153 25 101 27 140 7 140 -9 0 -16 -15 -19
-42z"/>
<path d="M10166 9775 c-3 -8 -3 -22 0 -30 3 -8 -2 -37 -11 -64 -17 -53 -39
-79 -50 -61 -8 13 -61 13 -85 0 -27 -14 -72 -95 -68 -121 10 -68 103 -32 173
66 51 71 75 130 75 186 0 40 -22 55 -34 24z m-78 -188 c8 -10 5 -20 -14 -40
-26 -29 -83 -62 -91 -53 -9 8 8 45 34 76 26 32 54 38 71 17z"/>
<path d="M6470 9756 c0 -14 -6 -53 -14 -88 -30 -130 -31 -188 -3 -188 8 0 13
19 13 53 1 30 7 77 14 106 10 45 10 55 -1 62 -11 7 -11 9 2 9 17 0 29 35 21
58 -7 22 -32 13 -32 -12z"/>
<path d="M9097 9753 c-3 -5 -8 -23 -12 -41 -4 -18 -24 -75 -46 -127 -43 -104
-49 -138 -21 -133 9 2 17 12 18 23 2 41 16 63 46 76 36 15 89 14 99 -3 10 -16
-11 -68 -27 -68 -18 0 -18 -11 -1 -35 19 -25 33 -13 52 45 19 57 10 85 -33
101 l-27 11 30 24 c17 13 54 38 84 55 39 22 50 34 42 42 -14 14 -38 3 -135
-67 -43 -31 -80 -55 -82 -53 -2 2 5 28 16 58 21 58 26 99 11 99 -6 0 -12 -3
-14 -7z"/>
<path d="M11192 9684 c2 -11 11 -20 22 -22 13 -3 17 1 14 14 -2 11 -11 20 -22
22 -13 3 -17 -1 -14 -14z"/>
<path d="M13623 9684 c-8 -20 8 -36 26 -25 15 10 8 41 -9 41 -6 0 -13 -7 -17
-16z"/>
<path d="M10767 9664 c-11 -11 3 -24 24 -24 12 0 19 5 17 13 -5 14 -31 21 -41
11z"/>
<path d="M2693 9638 c-47 -53 -57 -114 -23 -148 28 -28 52 -25 89 9 40 38 42
86 5 130 -31 37 -44 38 -71 9z m67 -73 c0 -12 -11 -32 -25 -45 -20 -19 -27
-21 -40 -10 -21 18 -19 53 6 84 20 26 22 26 40 10 11 -9 19 -27 19 -39z"/>
<path d="M11740 9633 c-67 -34 -73 -53 -24 -79 50 -26 51 -37 8 -58 -36 -17
-37 -16 -60 5 -13 12 -27 19 -31 15 -12 -12 21 -61 44 -64 29 -4 123 45 123
64 0 17 -44 64 -60 64 -27 0 -5 21 40 37 48 17 60 35 29 41 -8 1 -39 -10 -69
-25z"/>
<path d="M13400 9638 c-45 -31 -47 -43 -9 -77 42 -39 35 -66 -15 -58 -40 6
-58 -16 -26 -33 28 -15 96 11 103 39 5 21 -18 67 -38 74 -25 10 -17 25 20 38
19 7 34 18 32 24 -7 19 -33 16 -67 -7z"/>
<path d="M3089 9631 c-19 -15 -21 -22 -12 -32 9 -9 9 -20 -3 -47 -24 -58 -1
-63 47 -9 53 61 63 60 55 -4 -8 -58 3 -79 40 -79 29 0 32 20 4 27 -17 5 -19
11 -14 47 3 22 7 47 10 54 12 39 -34 56 -68 25 -19 -17 -19 -16 -13 10 9 33
-11 37 -46 8z"/>
<path d="M4599 9636 c-13 -6 -34 -27 -46 -45 -43 -63 -21 -131 41 -131 32 0
96 25 96 38 0 19 -14 21 -42 6 -16 -8 -41 -14 -56 -12 -23 2 -27 8 -27 33 0
22 4 29 16 27 21 -3 79 56 72 73 -7 20 -28 25 -54 11z"/>
<path d="M6085 9636 c-31 -14 -112 -95 -108 -108 2 -4 -9 -30 -23 -59 -15 -29
-26 -62 -26 -75 0 -13 -4 -24 -9 -24 -5 0 -9 -13 -9 -30 0 -16 4 -30 10 -30
14 0 72 119 64 132 -4 7 -3 8 4 4 7 -4 12 -2 12 3 0 6 10 11 22 11 37 0 104
47 122 85 32 67 0 116 -59 91z m40 -53 c-8 -35 -38 -68 -76 -84 -38 -15 -43
-9 -26 33 17 40 61 78 89 78 17 0 19 -4 13 -27z"/>
<path d="M10271 9629 c-16 -10 -38 -31 -47 -46 -10 -15 -24 -33 -32 -40 -12
-10 -12 -18 -3 -44 16 -48 41 -72 58 -58 9 9 13 9 13 0 0 -13 49 -14 70 -1 23
14 3 24 -45 21 -36 -2 -46 1 -55 18 -14 28 -8 37 45 60 24 10 51 30 59 44 32
48 -10 79 -63 46z m39 -29 c0 -5 -13 -16 -30 -25 -35 -18 -41 -4 -8 19 26 18
38 20 38 6z"/>
<path d="M12239 9602 c-51 -51 -60 -80 -33 -107 30 -29 105 13 124 71 14 41 9
58 -20 74 -19 10 -27 6 -71 -38z m40 -58 c-23 -25 -59 -33 -59 -13 0 7 17 28
38 47 36 34 37 35 40 13 2 -14 -6 -33 -19 -47z"/>
<path d="M13170 9613 c-53 -50 -62 -92 -27 -127 28 -28 57 -34 57 -12 0 8 5
16 12 18 21 7 -4 30 -28 25 -33 -6 -30 8 5 23 40 16 84 64 79 87 -6 35 -53 28
-98 -14z m41 -23 c-19 -16 -37 -27 -40 -24 -8 7 47 54 62 54 7 -1 -3 -14 -22
-30z"/>
<path d="M6750 9627 c-14 -7 -33 -29 -43 -49 -18 -36 -18 -38 2 -77 17 -32 29
-42 61 -51 47 -13 77 -7 77 15 0 11 -12 15 -42 15 -66 0 -71 17 -20 62 51 45
57 74 19 88 -30 12 -24 12 -54 -3z m30 -52 c-21 -22 -50 -34 -50 -20 0 19 29
45 49 45 l24 0 -23 -25z"/>
<path d="M8600 9633 c-8 -2 -22 -7 -30 -11 -8 -3 -26 -6 -40 -6 -20 -1 -26 -7
-31 -38 -3 -20 -14 -48 -23 -63 -12 -18 -15 -30 -8 -37 14 -14 25 -5 47 39 17
35 71 90 80 81 2 -2 0 -21 -5 -43 -10 -46 1 -65 25 -45 8 7 13 15 11 18 -3 2
9 16 25 29 16 14 33 22 37 18 4 -4 7 -28 7 -53 0 -33 4 -47 15 -49 23 -5 25
105 2 130 -16 18 -17 18 -23 0 -7 -17 -8 -17 -8 1 -1 18 -3 18 -26 -4 l-25
-23 0 31 c0 32 -3 35 -30 25z"/>
<path d="M5311 9616 c-50 -28 -65 -95 -31 -139 24 -30 74 -44 95 -27 17 14 10
31 -10 24 -15 -6 -55 12 -67 30 -24 36 23 100 70 94 19 -2 28 2 30 15 3 13 -3
17 -30 17 -18 -1 -44 -7 -57 -14z"/>
<path d="M6261 9602 c-38 -37 -49 -93 -27 -127 13 -20 25 -25 60 -25 54 0 76
8 76 26 0 21 -30 17 -31 -3 0 -11 -3 -13 -6 -5 -2 6 -20 12 -38 12 -30 0 -45
13 -45 40 0 5 16 10 37 12 45 4 84 48 67 76 -19 29 -61 27 -93 -6z m51 -24
c-12 -12 -25 -17 -32 -13 -9 6 -6 13 11 26 30 23 47 13 21 -13z"/>
<path d="M7976 9621 c-4 -6 -16 -11 -26 -11 -11 0 -23 -8 -28 -17 -14 -27 -2
-82 20 -94 38 -21 128 29 128 71 0 34 -79 76 -94 51z m61 -44 c9 -15 -34 -47
-63 -47 -19 0 -24 5 -24 26 0 14 4 23 10 19 6 -3 13 0 16 8 6 16 50 12 61 -6z"/>
<path d="M9385 9611 c-48 -29 -67 -57 -72 -104 -7 -56 13 -77 70 -77 43 0 117
17 117 26 0 3 -5 14 -10 25 -13 22 -45 27 -37 4 4 -10 -3 -16 -27 -20 -51 -10
-81 -3 -84 20 -2 15 10 26 49 45 61 30 82 55 68 82 -12 23 -36 23 -74 -1z m45
-19 c0 -5 -16 -16 -35 -25 -44 -21 -46 -13 -2 13 37 23 37 23 37 12z"/>
<path d="M4427 9613 c-35 -9 -60 -98 -41 -147 7 -19 56 -21 103 -5 34 12 38
36 5 31 -84 -15 -84 -15 -84 7 0 14 6 21 19 21 18 0 71 52 71 69 0 24 -32 35
-73 24z m18 -43 c-10 -11 -21 -17 -24 -14 -3 3 3 12 13 20 28 20 32 17 11 -6z"/>
<path d="M10506 9599 c-30 -23 -56 -69 -56 -97 0 -45 99 -79 149 -52 32 16 20
23 -44 24 -70 1 -84 14 -62 60 16 34 57 67 57 46 0 -13 27 -13 35 0 9 15 -13
40 -35 40 -9 0 -29 -9 -44 -21z"/>
<path d="M10913 9599 c-18 -12 -33 -25 -33 -29 0 -5 14 -20 32 -33 26 -21 30
-28 20 -40 -16 -19 -50 -28 -58 -16 -9 16 -24 10 -24 -10 0 -29 35 -35 78 -14
46 22 53 55 21 90 -20 20 -21 25 -9 33 8 5 25 10 36 10 12 0 24 6 27 13 8 22
-54 19 -90 -4z"/>
<path d="M11253 9600 c-38 -23 -65 -71 -61 -108 4 -36 42 -40 97 -13 67 35 91
90 53 124 -24 22 -50 21 -89 -3z m76 -36 c13 -11 -71 -74 -99 -74 -18 0 -11
28 16 59 21 25 31 30 52 25 15 -4 29 -8 31 -10z"/>
<path d="M12451 9611 c-7 -5 -21 -6 -31 -4 -14 4 -24 -6 -39 -36 -12 -23 -26
-41 -31 -41 -6 0 -10 -9 -10 -20 0 -28 9 -25 60 21 25 22 54 45 64 51 17 9 18
8 11 -13 -14 -43 -11 -84 5 -84 9 0 14 7 12 17 -1 10 4 31 13 48 9 17 13 40
10 50 -7 21 -39 26 -64 11z"/>
<path d="M13877 9563 c-44 -95 -31 -109 41 -44 39 36 42 37 42 16 0 -36 25
-55 63 -48 95 18 122 29 121 46 -1 9 3 17 9 17 6 0 7 3 4 6 -4 4 -13 2 -20 -4
-19 -16 -136 -42 -142 -32 -3 5 -3 27 1 49 6 36 4 41 -13 41 -22 0 -57 -33
-46 -43 3 -4 -1 -7 -11 -7 -13 0 -15 4 -6 19 14 26 13 41 -3 41 -7 0 -25 -26
-40 -57z"/>
<path d="M3300 9590 c-13 -13 -20 -33 -20 -58 0 -67 41 -82 84 -31 31 36 33
69 8 92 -25 22 -48 21 -72 -3z m60 -37 c0 -18 -28 -53 -42 -53 -10 0 -11 54
-1 63 13 14 43 7 43 -10z"/>
<path d="M5523 9602 c-19 -12 -73 -95 -73 -112 0 -26 22 -40 63 -40 73 0 106
37 87 95 -6 19 -21 42 -33 50 -24 17 -27 18 -44 7z m43 -57 c16 -24 16 -27 -1
-45 -16 -18 -85 -30 -85 -15 0 11 53 85 61 85 5 0 16 -11 25 -25z"/>
<path d="M8813 9588 c-64 -71 -53 -127 18 -89 32 18 34 17 51 -3 15 -18 19
-19 27 -6 7 9 6 17 -1 21 -8 5 -7 16 1 39 18 54 15 60 -32 60 -32 0 -49 -6
-64 -22z m32 -38 c-16 -16 -31 -28 -33 -25 -9 9 29 55 45 55 13 0 10 -7 -12
-30z"/>
<path d="M11435 9588 c-4 -13 -20 -40 -36 -60 -54 -69 -30 -80 37 -16 43 41
80 67 97 68 15 0 6 -38 -14 -64 -20 -26 -20 -56 0 -56 17 0 53 85 49 116 -2
23 -8 30 -30 32 -15 2 -36 -2 -48 -8 -13 -7 -20 -7 -20 0 0 20 -29 10 -35 -12z"/>
<path d="M5828 9569 c-28 -27 -32 -29 -41 -14 -6 12 -16 15 -33 11 -14 -4 -24
-2 -24 4 0 5 -6 10 -14 10 -8 0 -16 -15 -19 -34 -3 -19 -15 -48 -27 -64 -21
-28 -21 -52 0 -52 4 0 22 23 39 50 34 56 51 64 48 23 -3 -44 25 -37 63 15 l35
47 5 -50 c3 -35 10 -51 21 -53 13 -2 15 6 12 55 -7 96 -15 103 -65 52z"/>
<path d="M13692 9580 c-18 -11 -38 -32 -44 -46 -11 -23 -10 -28 7 -41 13 -9
32 -12 53 -9 29 4 33 3 27 -12 -4 -9 -18 -48 -30 -87 -22 -67 -24 -70 -69 -85
-64 -21 -86 -43 -86 -85 0 -36 35 -85 61 -85 24 0 78 70 86 113 8 38 12 42 41
45 21 2 32 9 32 19 0 9 -6 13 -13 10 -8 -3 -20 -2 -27 3 -10 6 -9 19 5 61 23
69 58 137 81 153 17 13 13 53 -5 42 -5 -3 -11 1 -15 9 -8 22 -65 19 -104 -5z
m87 -19 c11 -7 9 -12 -10 -24 -29 -18 -89 -32 -89 -20 1 35 66 64 99 44z
m-109 -307 c0 -28 -40 -84 -61 -84 -20 0 -35 39 -25 65 11 31 86 47 86 19z"/>
<path d="M10727 9536 c-29 -60 -32 -72 -17 -81 9 -5 70 103 70 125 0 28 -30 4
-53 -44z"/>
<path d="M11132 9578 c-19 -25 -42 -77 -42 -97 0 -27 19 -37 26 -14 3 10 14
37 25 61 10 23 19 47 19 52 0 14 -16 12 -28 -2z"/>
<path d="M13545 9560 c-3 -5 -3 -10 0 -10 3 0 -7 -11 -22 -24 -22 -19 -25 -27
-16 -37 10 -10 16 -9 28 1 21 18 46 66 38 74 -9 9 -21 7 -28 -4z"/>
<path d="M6316 9429 c-51 -12 -116 -49 -116 -66 0 -18 13 -16 52 6 45 27 115
42 144 31 34 -13 57 -65 51 -117 -9 -79 -56 -118 -116 -97 -28 11 -30 24 -16
102 7 39 6 42 -14 42 -15 0 -22 -5 -20 -17 6 -44 -13 -100 -37 -111 -25 -12
-32 -38 -12 -44 9 -3 6 -24 -12 -81 -18 -59 -21 -80 -12 -89 15 -15 13 -18 43
77 l26 80 34 -2 c24 -1 42 -11 61 -32 32 -36 34 -60 13 -122 -11 -29 -12 -46
-5 -53 16 -16 27 3 41 72 13 60 12 67 -7 102 l-21 38 29 22 c54 40 73 125 44
193 -26 63 -75 85 -150 66z"/>
<path d="M13127 9413 c-4 -3 -7 -16 -7 -27 0 -12 -13 -49 -29 -83 -30 -62 -35
-66 -95 -75 -37 -6 -30 -28 8 -28 l36 0 -24 -37 c-28 -43 -50 -118 -42 -140 9
-24 23 -6 36 45 6 27 24 68 40 93 26 38 37 46 87 59 65 17 69 36 6 32 l-41 -3
30 71 c27 67 31 100 10 100 -5 0 -12 -3 -15 -7z"/>
<path d="M7455 9373 c-8 -20 -27 -62 -41 -94 -28 -62 -31 -63 -118 -71 -16 -2
-31 -9 -34 -15 -2 -9 11 -13 47 -13 l51 0 -19 -37 c-29 -59 -42 -113 -30 -134
10 -20 35 -23 88 -13 31 7 44 34 15 34 -8 0 -13 4 -9 9 3 5 0 13 -6 16 -6 4
-13 -2 -16 -14 -3 -12 -13 -21 -24 -21 -28 0 -24 40 11 110 30 59 31 60 71 60
43 0 52 22 11 28 -12 2 -22 7 -22 12 0 5 16 43 35 86 39 86 41 94 20 94 -8 0
-22 -16 -30 -37z"/>
<path d="M11349 9377 c-45 -30 -73 -74 -99 -155 -12 -37 -29 -73 -38 -79 -9
-7 -35 -13 -59 -13 -32 0 -43 -4 -43 -16 0 -12 9 -15 38 -14 65 3 64 4 47 -37
-9 -20 -20 -42 -26 -49 -11 -14 -42 -7 -33 7 6 10 -19 12 -29 2 -9 -8 40 -53
58 -53 16 0 60 71 70 112 6 22 14 29 44 34 59 10 72 15 68 27 -2 8 -20 11 -46
9 -49 -4 -48 -10 -9 95 22 60 93 132 111 114 18 -18 27 -13 27 14 0 33 -34 34
-81 2z"/>
<path d="M12614 9340 c-15 -43 -18 -62 -10 -70 8 -8 7 -10 -4 -6 -11 4 -21 -7
-35 -41 -10 -27 -18 -50 -16 -52 1 -2 -1 -7 -6 -10 -16 -11 -64 -120 -58 -131
10 -15 25 -12 32 8 7 20 73 92 85 92 5 0 5 -18 2 -40 -5 -32 -3 -40 8 -40 9 0
18 13 22 31 16 79 -2 106 -50 74 -15 -9 -24 -13 -21 -9 2 5 17 36 32 69 15 33
33 74 41 91 8 17 16 43 17 59 4 50 -17 36 -39 -25z"/>
<path d="M11896 9378 c-2 -7 -9 -28 -15 -47 -6 -19 -11 -45 -11 -58 0 -13 -4
-31 -9 -41 -36 -67 -77 -212 -68 -236 11 -29 29 -13 32 29 2 22 13 64 24 94
17 42 66 212 74 255 3 14 -23 19 -27 4z"/>
<path d="M12460 9371 c-5 -11 -10 -25 -10 -31 0 -6 -15 -44 -34 -84 l-33 -73
-53 -6 c-58 -7 -65 -10 -55 -27 5 -7 21 -9 46 -5 21 4 39 5 39 2 0 -3 -11 -29
-24 -58 -14 -29 -23 -56 -20 -61 10 -16 25 -8 35 20 24 66 54 112 74 112 37 0
65 12 65 27 0 11 -9 14 -34 11 l-34 -4 14 28 c23 44 62 157 56 163 -10 10 -21
5 -32 -14z"/>
<path d="M3508 9298 l-25 -73 -49 -5 c-52 -6 -74 -15 -74 -31 0 -5 22 -7 55
-3 30 4 55 5 55 2 0 -2 -11 -32 -25 -66 -14 -34 -25 -71 -25 -83 0 -41 23 -12
53 69 27 70 35 82 54 82 27 0 30 15 7 28 -15 9 -15 15 5 73 25 74 25 79 7 79
-9 0 -24 -28 -38 -72z"/>
<path d="M4766 9353 c-11 -11 -6 -41 10 -57 8 -9 13 -20 10 -25 -3 -4 8 -33
24 -63 l30 -56 -45 -33 c-94 -70 -91 -66 -77 -81 10 -10 21 -8 61 15 72 40 97
37 123 -18 21 -42 36 -54 51 -39 3 4 0 22 -8 41 -8 18 -12 39 -9 47 4 11 66
30 129 39 12 1 20 10 20 22 0 12 -6 19 -14 17 -11 -2 -65 14 -79 24 -2 1 8 25
22 52 34 67 19 74 -49 23 -30 -23 -60 -41 -68 -41 -17 0 -70 57 -91 97 -17 35
-30 46 -40 36z m102 -169 c-4 -3 -12 5 -18 18 -12 22 -12 22 6 6 10 -10 15
-20 12 -24z m97 26 c-3 -5 -12 -10 -18 -10 -7 0 -6 4 3 10 19 12 23 12 15 0z
m-32 -61 c-7 -25 -30 -36 -45 -21 -9 9 -7 17 6 31 22 24 46 17 39 -10z m61 2
c3 -5 -3 -11 -13 -14 -14 -3 -18 -1 -14 9 6 16 19 18 27 5z"/>
<path d="M9772 9292 c-26 -27 -58 -69 -72 -95 -22 -42 -28 -46 -65 -49 -28 -2
-40 -8 -40 -18 0 -11 9 -14 33 -12 l32 3 -21 -53 c-11 -29 -25 -57 -30 -62
-13 -14 -11 -48 2 -44 13 4 32 36 63 110 24 56 26 58 55 52 24 -5 31 -3 31 10
0 9 -8 16 -20 16 -28 0 -25 20 9 66 47 65 87 97 111 91 16 -4 20 -1 18 11 -2
10 -15 18 -31 20 -21 3 -37 -7 -75 -46z"/>
<path d="M9574 9295 c-4 -9 -2 -21 5 -28 13 -13 18 -9 23 17 4 24 -20 33 -28
11z"/>
<path d="M7002 9269 c1 -13 8 -23 13 -21 15 3 12 35 -3 40 -9 3 -13 -3 -10
-19z"/>
<path d="M2390 9212 c-26 -27 -54 -51 -63 -55 -9 -3 -16 -14 -15 -24 0 -25
-31 -220 -42 -260 -5 -21 -5 -35 2 -39 18 -11 29 13 46 99 14 73 19 87 38 91
40 10 154 155 154 195 0 17 -31 41 -53 41 -12 0 -40 -21 -67 -48z m83 12 c14
-15 -50 -112 -99 -149 l-32 -25 10 38 c13 48 43 96 75 122 27 21 36 24 46 14z"/>
<path d="M2600 9225 c-29 -31 -73 -156 -59 -169 13 -14 23 0 43 67 21 69 50
104 71 87 12 -10 12 -16 0 -41 -18 -34 -20 -100 -3 -117 7 -7 25 -12 40 -12
37 0 108 36 108 55 0 18 -12 19 -28 3 -13 -13 -33 -19 -72 -21 -21 -2 -25 3
-28 28 -3 36 31 95 55 95 14 0 13 -3 -5 -23 -25 -26 -29 -47 -9 -47 18 0 57
42 57 62 0 25 -27 41 -59 35 -19 -4 -33 -1 -41 8 -18 22 -44 18 -70 -10z"/>
<path d="M14738 9227 c-42 -35 -98 -116 -92 -132 9 -23 19 -18 46 23 14 20 39
53 56 72 30 34 31 35 46 15 13 -19 15 -19 21 -2 19 47 -31 63 -77 24z"/>
<path d="M2879 9193 c-6 -21 -23 -57 -37 -81 -18 -32 -22 -46 -13 -55 8 -8 24
4 62 46 28 32 53 56 55 54 3 -2 0 -17 -6 -32 -8 -20 -8 -31 1 -39 8 -8 23 2
55 38 l43 50 -5 -35 c-6 -38 15 -77 35 -65 6 4 8 12 4 18 -3 7 -5 33 -4 60 3
62 -17 73 -60 32 -21 -20 -29 -24 -29 -12 0 20 -30 32 -44 18 -18 -18 -27 -11
-20 15 10 42 -23 31 -37 -12z"/>
<path d="M8209 9192 c-27 -24 -33 -37 -37 -84 -4 -50 -2 -57 23 -76 15 -12 38
-22 50 -22 29 0 85 20 85 30 0 11 -28 21 -34 12 -9 -15 -65 -12 -81 4 -15 15
-13 18 26 41 49 27 68 50 69 79 0 50 -54 58 -101 16z m71 -10 c0 -13 -23 -38
-52 -57 -26 -16 -28 -16 -28 -1 0 21 44 66 65 66 8 0 15 -4 15 -8z"/>
<path d="M8483 9213 c-9 -3 -13 -29 -13 -79 0 -41 -4 -74 -8 -74 -5 0 -16 25
-26 55 -18 58 -31 74 -48 57 -8 -8 -8 -15 -1 -24 6 -7 18 -36 27 -65 20 -60
39 -81 59 -64 21 17 37 82 31 122 -5 32 -3 37 17 42 19 5 20 8 9 21 -13 16
-25 18 -47 9z"/>
<path d="M3150 9168 c-35 -48 -37 -68 -10 -93 17 -15 26 -17 54 -8 32 10 35 9
40 -13 4 -15 14 -24 26 -24 21 0 27 15 10 25 -16 10 -12 34 15 73 28 42 32 62
10 62 -8 0 -15 -4 -15 -10 0 -5 -15 -1 -32 10 -47 29 -64 25 -98 -22z m105
-17 c4 -8 -39 -43 -66 -53 -9 -3 -22 -3 -29 2 -10 6 -8 16 9 43 20 33 24 35
51 25 17 -5 32 -13 35 -17z"/>
<path d="M8635 9177 c-52 -52 -58 -122 -13 -150 21 -14 110 3 116 21 3 11 -7
12 -50 7 -45 -6 -56 -4 -61 9 -4 11 3 21 26 32 68 35 84 66 49 97 -25 23 -29
22 -67 -16z m43 -31 c-7 -7 -22 -15 -32 -19 -17 -7 -17 -6 -5 10 19 25 32 33
41 27 5 -3 2 -11 -4 -18z"/>
<path d="M8830 9183 c-6 -16 -24 -54 -40 -85 -43 -81 -21 -85 49 -9 32 33 60
61 64 61 3 0 1 -14 -5 -30 -23 -68 19 -108 81 -75 35 17 34 37 -2 29 -57 -13
-57 -13 -42 68 9 47 -12 59 -53 30 l-28 -21 4 30 c5 37 -15 39 -28 2z"/>
<path d="M10545 9157 c-22 -28 -39 -55 -37 -60 1 -5 -1 -6 -6 -3 -5 3 -22 -8
-37 -24 -16 -17 -36 -30 -46 -30 -16 0 -29 -19 -29 -41 0 -22 39 -6 75 31 44
45 55 49 55 20 0 -29 33 -25 72 9 l33 29 -4 -44 c-3 -39 -1 -44 18 -44 24 0
25 3 11 49 -5 19 -7 31 -3 27 9 -8 43 50 43 74 0 32 -23 23 -75 -30 -27 -27
-53 -50 -57 -50 -5 0 5 27 22 60 28 55 31 81 12 80 -4 -1 -25 -24 -47 -53z"/>
<path d="M14267 9196 c-40 -31 -87 -102 -87 -133 0 -38 11 -47 50 -38 35 8 82
64 81 97 -3 84 -11 99 -44 74z m-4 -110 c-10 -14 -26 -27 -35 -29 -30 -8 -21
29 15 62 29 28 32 29 35 11 2 -11 -5 -31 -15 -44z"/>
<path d="M14383 9102 c-51 -53 -90 -98 -88 -100 9 -9 66 21 76 40 10 18 11 18
23 3 11 -16 16 -15 64 9 28 14 53 26 56 26 3 0 6 -10 8 -22 4 -27 48 -40 48
-15 0 9 -6 17 -12 20 -10 3 -7 17 11 50 32 62 19 78 -28 34 -37 -36 -121 -84
-121 -69 0 5 16 27 35 49 35 41 42 58 27 67 -4 2 -49 -39 -99 -92z"/>
<path d="M3964 9180 c-56 -22 -91 -115 -58 -152 16 -17 27 -20 78 -15 58 5 94
25 82 45 -4 7 -17 5 -36 -4 -33 -17 -101 -15 -107 2 -2 7 7 14 19 17 27 7 88
63 88 81 0 15 -21 36 -34 35 -6 0 -21 -4 -32 -9z m16 -46 c-8 -8 -22 -20 -32
-25 -17 -9 -18 -8 -9 9 10 19 25 29 45 31 5 1 3 -6 -4 -15z"/>
<path d="M10318 9172 c-37 -24 -97 -105 -104 -140 -5 -23 -1 -33 17 -45 21
-15 25 -15 58 4 45 25 79 98 63 133 -7 17 -7 27 1 35 21 21 -7 32 -35 13z m-3
-108 c-17 -41 -30 -54 -57 -54 -28 0 -21 27 19 70 43 49 62 41 38 -16z"/>
<path d="M14097 9120 c-36 -38 -67 -70 -70 -70 -3 0 -8 15 -11 33 -7 40 -32
77 -52 77 -18 0 -18 -24 1 -40 8 -7 15 -20 15 -29 0 -9 7 -28 14 -43 12 -23
12 -29 2 -35 -7 -5 -42 -34 -78 -65 -71 -63 -117 -132 -96 -144 7 -4 16 0 22
12 6 10 86 94 179 186 92 91 167 171 167 177 0 27 -33 6 -93 -59z"/>
<path d="M6733 9164 c-30 -22 -29 -32 8 -70 38 -39 31 -58 -17 -49 -26 4 -34
3 -34 -9 0 -20 36 -39 59 -31 22 7 61 42 61 56 0 6 -15 24 -32 40 -28 25 -31
31 -18 39 8 6 29 9 45 8 21 -2 30 1 30 12 0 22 -74 24 -102 4z"/>
<path d="M7116 9170 c-29 -9 -66 -37 -66 -51 0 -5 15 -25 33 -45 l32 -37 -57
6 c-48 6 -58 5 -58 -8 0 -18 34 -27 91 -23 36 2 45 7 47 24 2 12 -9 35 -24 53
-14 18 -24 34 -22 36 2 3 22 11 43 18 69 24 52 48 -19 27z"/>
<path d="M12728 9159 c-44 -23 -63 -50 -46 -67 13 -13 38 -16 38 -4 0 4 11 8
25 8 20 2 25 -3 25 -22 0 -26 21 -41 40 -29 8 5 8 11 -1 21 -9 11 -9 23 1 54
7 22 11 42 9 44 -17 14 -59 12 -91 -5z m32 -29 c0 -5 -8 -10 -17 -10 -15 0
-16 2 -3 10 19 12 20 12 20 0z"/>
<path d="M3565 9147 c-22 -32 -20 -110 5 -132 16 -15 24 -16 47 -6 54 23 121
151 79 151 -10 0 -19 -11 -22 -29 -7 -35 -69 -106 -84 -96 -16 10 -12 81 5 95
19 16 19 26 0 34 -8 3 -21 -4 -30 -17z"/>
<path d="M3788 9138 c-30 -39 -52 -108 -39 -121 12 -12 31 0 31 19 0 19 36 91
50 99 6 4 18 1 26 -6 19 -16 31 -3 18 19 -20 31 -58 26 -86 -10z"/>
<path d="M11610 9163 c-8 -3 -32 -23 -52 -45 -33 -35 -36 -42 -26 -69 12 -35
35 -49 80 -49 39 0 85 27 70 42 -6 6 -17 6 -30 -1 -27 -14 -65 -14 -80 1 -16
16 -15 28 1 28 21 0 77 58 77 79 0 21 -11 24 -40 14z"/>
<path d="M4356 9100 c-21 -33 -42 -60 -45 -60 -4 0 -12 24 -17 52 -7 40 -14
54 -28 56 -16 3 -18 0 -12 -25 29 -121 29 -118 -7 -170 -64 -89 -118 -185
-113 -199 8 -21 23 -17 29 8 4 12 8 20 11 17 3 -2 -10 -45 -29 -94 -37 -97
-41 -115 -24 -115 5 0 7 -4 4 -10 -3 -5 -2 -10 2 -10 5 0 15 21 21 47 7 26 26
81 43 121 32 82 36 107 15 99 -22 -9 8 38 124 193 55 74 100 138 100 143 0 4
-8 7 -17 7 -11 -1 -34 -26 -57 -60z"/>
<path d="M10135 9100 c-46 -75 -54 -80 -52 -30 1 46 -24 83 -45 62 -8 -8 -8
-15 2 -27 7 -8 13 -36 14 -62 1 -39 -4 -52 -35 -87 -40 -46 -89 -120 -89 -136
0 -23 27 -8 45 26 10 19 48 68 83 107 64 73 142 181 142 198 0 27 -33 2 -65
-51z"/>
<path d="M11403 9140 c-36 -22 -63 -66 -63 -104 0 -35 39 -60 80 -51 40 9 42
40 2 32 -65 -13 -71 38 -7 60 50 17 68 39 54 64 -12 24 -26 24 -66 -1z"/>
<path d="M6527 9129 c-34 -26 -52 -88 -36 -123 11 -23 18 -26 58 -26 25 0 53
5 61 10 13 8 12 13 -7 32 -20 19 -23 20 -29 5 -7 -20 -54 -23 -54 -4 0 7 20
23 44 34 47 23 65 55 46 78 -17 21 -53 18 -83 -6z m53 -19 c0 -5 -15 -17 -32
-26 l-33 -17 24 27 c25 27 41 33 41 16z"/>
<path d="M9465 9078 c-38 -79 -43 -108 -20 -108 8 0 15 6 15 14 0 7 15 44 34
82 19 37 32 72 30 76 -12 19 -26 4 -59 -64z"/>
<path d="M6910 9098 c-23 -37 -26 -78 -7 -78 10 0 47 81 47 104 0 17 -23 2
-40 -26z"/>
<path d="M8323 9093 c-7 -2 -13 -12 -13 -20 0 -10 6 -13 16 -9 9 3 18 6 20 6
2 0 4 7 4 15 0 15 -6 17 -27 8z"/>
<path d="M7556 9081 c-4 -6 -5 -15 -2 -20 6 -10 -56 -90 -80 -104 -18 -10 -18
-37 0 -37 16 0 93 83 109 118 8 18 7 26 -5 38 -11 11 -18 12 -22 5z"/>
<path d="M4521 9036 c-9 -10 -9 -16 -1 -21 17 -10 37 12 24 25 -8 8 -15 6 -23
-4z"/>
<path d="M4980 8888 c-6 -24 -14 -59 -19 -78 -5 -19 -15 -55 -21 -78 -11 -42
-12 -43 -30 -27 -23 21 -52 13 -80 -22 -32 -41 -21 -113 18 -113 25 0 87 67
107 115 22 53 65 227 59 237 -11 18 -24 6 -34 -34z m-86 -225 c4 -11 -2 -26
-18 -42 -23 -22 -26 -23 -32 -7 -8 20 14 66 32 66 6 0 15 -8 18 -17z"/>
<path d="M12163 8909 c-52 -25 -59 -43 -34 -88 69 -131 73 -140 66 -171 -10
-46 -54 -66 -112 -50 -52 15 -60 25 -38 50 22 25 0 38 -26 14 -40 -36 -15 -74
63 -95 80 -22 148 24 148 99 0 31 -31 102 -60 139 -30 38 -26 62 15 79 49 20
55 18 42 -16 -13 -34 -4 -49 20 -34 30 19 38 40 25 68 -15 33 -50 34 -109 5z"/>
<path d="M6951 8818 c-19 -57 -47 -134 -64 -171 -42 -94 -25 -106 37 -27 26
33 51 60 56 60 5 0 3 -20 -4 -45 -11 -37 -12 -47 -1 -62 16 -21 16 -20 35 65
11 46 10 56 -3 69 -14 15 -18 15 -41 0 l-24 -16 23 72 c12 40 27 85 34 100 15
37 14 57 -2 57 -8 0 -27 -43 -46 -102z"/>
<path d="M12405 8858 c-22 -80 -46 -128 -101 -201 -46 -62 -54 -87 -29 -87 8
0 15 4 15 9 0 9 131 103 137 97 2 -1 -4 -22 -12 -46 -18 -51 -19 -83 -3 -78
14 5 60 138 53 155 -7 20 -28 16 -70 -12 -20 -14 -35 -22 -33 -18 2 4 15 31
29 58 25 48 45 111 41 128 -1 4 5 15 13 23 16 17 12 34 -9 34 -8 0 -21 -27
-31 -62z"/>
<path d="M14382 8889 c-9 -17 -28 -46 -42 -65 -270 -366 -280 -380 -280 -403
0 -22 27 -10 39 16 7 14 65 98 129 185 192 259 201 272 202 286 0 24 -31 12
-48 -19z"/>
<path d="M6820 8895 c0 -8 0 -18 1 -21 0 -4 -5 -10 -11 -14 -7 -4 -13 -19 -13
-34 -1 -14 -5 -26 -9 -26 -3 0 -11 -13 -17 -30 -9 -27 -14 -30 -53 -30 -51 0
-73 -12 -65 -34 5 -13 11 -15 26 -6 23 12 71 14 71 3 0 -5 -9 -35 -20 -67 -24
-71 -25 -86 -5 -86 9 0 18 17 25 43 22 90 23 92 57 89 43 -4 52 16 14 29 -17
6 -31 14 -31 19 0 4 14 40 30 80 34 82 37 100 15 100 -8 0 -15 -7 -15 -15z"/>
<path d="M2890 8881 c-5 -11 -10 -33 -10 -50 0 -27 -19 -132 -25 -139 -1 -1
-14 2 -29 8 -78 29 -159 -81 -91 -126 23 -15 27 -14 62 6 21 11 48 35 60 53
25 36 53 134 53 183 0 18 7 39 15 48 8 8 15 19 15 25 0 19 -39 12 -50 -8z
m-62 -220 c10 -6 6 -15 -18 -35 -36 -30 -70 -34 -70 -9 0 39 54 66 88 44z"/>
<path d="M14101 8866 c-6 -7 -21 -48 -34 -91 l-22 -78 -50 -14 c-63 -18 -97
-49 -93 -82 4 -32 39 -50 81 -42 40 8 68 54 103 171 21 73 31 100 52 143 6 13
-25 7 -37 -7z m-88 -238 c-20 -34 -57 -48 -76 -29 -14 14 3 32 46 48 48 17 50
16 30 -19z"/>
<path d="M7939 8823 c-12 -27 -26 -66 -33 -88 -10 -33 -17 -40 -45 -46 -45 -9
-90 -56 -97 -101 -5 -30 -3 -38 15 -48 18 -9 27 -7 51 10 16 11 39 34 51 51
19 27 83 191 96 247 10 41 -17 23 -38 -25z m-74 -190 c-20 -32 -53 -63 -67
-63 -17 0 3 44 30 67 39 33 59 31 37 -4z"/>
<path d="M8537 8864 c-9 -10 2 -24 19 -24 8 0 14 7 14 15 0 15 -21 21 -33 9z"/>
<path d="M4339 8822 c-6 -20 -15 -41 -19 -47 -4 -5 -21 -47 -39 -92 -34 -90
-41 -153 -16 -153 10 0 15 10 15 29 0 29 45 163 73 219 25 48 29 69 13 75 -10
4 -18 -5 -27 -31z"/>
<path d="M5130 8824 c0 -9 5 -14 12 -12 18 6 21 28 4 28 -9 0 -16 -7 -16 -16z"/>
<path d="M3977 8806 c-5 -13 12 -26 34 -26 15 0 10 27 -7 34 -21 8 -21 8 -27
-8z"/>
<path d="M2995 8745 c-46 -24 -75 -65 -75 -106 0 -66 48 -83 159 -57 27 6 53
18 56 26 8 22 5 22 -55 6 -74 -20 -124 -15 -127 11 -2 16 10 26 58 47 55 25
60 30 57 55 -4 34 -30 40 -73 18z m45 -20 c0 -2 -14 -12 -31 -21 -17 -8 -28
-11 -24 -4 4 6 17 15 29 20 27 11 26 11 26 5z"/>
<path d="M8282 8731 c-40 -36 -40 -57 -2 -79 38 -21 35 -47 -5 -47 -22 0 -30
5 -30 17 0 22 -16 25 -29 6 -26 -42 34 -77 89 -53 29 11 35 19 35 44 0 20 -8
36 -27 50 l-28 21 22 19 c14 12 31 17 44 14 17 -5 20 -2 17 13 -6 32 -50 29
-86 -5z"/>
<path d="M3663 8729 c-41 -19 -52 -32 -35 -43 4 -2 27 4 51 15 48 21 48 23 -6
-44 -42 -53 -17 -86 36 -48 40 29 49 27 53 -11 4 -46 31 -47 73 -5 29 29 35
43 35 76 0 30 -4 41 -15 41 -10 0 -15 -10 -15 -30 0 -31 -25 -80 -41 -80 -5 0
-9 8 -9 18 0 10 -6 27 -14 37 -12 17 -17 18 -40 7 l-27 -12 25 33 c15 19 26
41 26 50 0 23 -43 21 -97 -4z"/>
<path d="M5202 8740 c-31 -13 -38 -37 -18 -70 9 -16 16 -33 16 -39 0 -16 -31
-13 -54 4 -25 19 -36 19 -36 1 0 -18 44 -46 73 -46 45 0 62 45 32 87 -14 20
-14 23 4 32 11 6 26 8 34 5 20 -7 33 16 16 27 -17 11 -37 10 -67 -1z"/>
<path d="M5403 8730 c-19 -11 -35 -15 -38 -10 -13 21 -24 8 -39 -44 -9 -30
-16 -57 -16 -60 0 -18 27 -1 65 42 l43 47 -5 -42 c-7 -55 4 -55 69 -3 56 45
72 50 63 20 -8 -26 3 -62 18 -57 13 4 20 51 12 85 -8 34 -52 27 -109 -18 -17
-14 -18 -13 -12 6 3 11 0 28 -6 37 -12 16 -15 16 -45 -3z"/>
<path d="M5971 8628 c-45 -68 -102 -151 -126 -186 -42 -58 -58 -112 -35 -112
5 0 18 19 28 43 10 23 37 65 58 92 63 80 174 252 174 269 0 33 -20 12 -99
-106z"/>
<path d="M7153 8730 c-30 -13 -48 -30 -62 -59 -25 -49 -27 -99 -5 -108 20 -8
124 15 124 28 0 5 5 8 12 7 6 -2 14 5 16 16 3 12 0 17 -10 13 -53 -22 -119
-39 -125 -34 -4 4 -2 20 3 35 7 20 17 28 39 30 38 5 65 29 65 58 0 33 -10 35
-57 14z"/>
<path d="M8085 8738 c-11 -6 -35 -24 -52 -41 -60 -56 -35 -137 42 -137 31 0
35 3 35 25 0 28 -14 33 -27 10 -8 -13 -11 -13 -31 1 -35 24 -28 49 18 63 44
13 74 49 64 75 -7 19 -21 20 -49 4z"/>
<path d="M9345 8734 c-50 -25 -85 -65 -85 -95 0 -49 36 -50 103 -5 l37 25 -3
-64 c-1 -36 -5 -65 -9 -65 -5 0 -8 -7 -8 -15 0 -11 -12 -15 -48 -15 -77 0
-110 -34 -119 -120 -12 -128 85 -116 149 18 11 23 29 47 40 53 14 7 17 14 10
21 -6 6 -7 21 -1 42 5 17 12 68 15 113 5 59 10 80 19 76 22 -8 28 17 9 32 -25
19 -72 19 -109 -1z m39 -40 c-18 -26 -94 -71 -94 -55 0 15 34 50 65 66 42 21
48 19 29 -11z m-24 -229 c0 -3 -9 -25 -20 -49 -24 -50 -74 -101 -89 -92 -24
15 -6 109 26 134 16 11 83 17 83 7z"/>
<path d="M5885 8721 c-8 -27 13 -101 31 -108 24 -9 28 4 10 41 -9 19 -15 44
-14 56 4 29 -18 38 -27 11z"/>
<path d="M9927 8669 c-52 -52 -65 -70 -53 -75 8 -3 25 4 38 16 20 18 24 19 34
5 16 -22 44 -19 86 10 l37 25 3 -23 c4 -27 53 -35 82 -14 25 18 13 41 -14 27
-32 -17 -40 -11 -40 30 0 41 -20 55 -37 27 -10 -17 -83 -72 -83 -63 0 4 9 25
20 47 19 36 20 61 2 58 -4 -1 -38 -33 -75 -70z"/>
<path d="M10921 8710 c-58 -37 -81 -67 -81 -107 0 -63 59 -90 139 -62 20 7 31
18 31 30 0 23 -16 25 -36 4 -18 -18 -75 -20 -92 -3 -22 22 -14 45 17 51 42 9
103 65 99 91 -4 30 -27 29 -77 -4z m29 -25 c0 -2 -10 -9 -22 -15 -22 -11 -22
-10 -4 4 21 17 26 19 26 11z"/>
<path d="M11337 8730 c-21 -4 -51 -20 -68 -36 -58 -55 -14 -97 57 -54 l35 22
-7 -28 c-3 -16 -17 -52 -29 -81 -13 -28 -21 -53 -19 -56 2 -2 -15 -3 -39 -3
-80 2 -120 -52 -87 -115 17 -31 45 -22 88 26 22 25 46 45 54 45 8 0 15 7 15
15 0 8 -3 15 -7 15 -4 0 6 26 21 58 39 80 58 205 31 201 -4 -1 -24 -5 -45 -9z
m-20 -55 c-15 -14 -33 -25 -40 -25 -7 0 1 12 16 25 15 14 33 25 40 25 7 0 -1
-12 -16 -25z m-54 -229 c-14 -25 -46 -55 -54 -50 -15 9 -10 46 8 59 19 14 56
8 46 -9z"/>
<path d="M2396 8696 c-39 -37 -47 -77 -22 -111 11 -15 27 -19 72 -20 66 0 85
19 23 23 -52 3 -79 17 -79 41 0 31 35 65 66 66 38 0 40 29 2 33 -19 2 -36 -6
-62 -32z"/>
<path d="M8436 8680 c-30 -57 -32 -70 -11 -70 8 0 24 20 35 44 38 85 18 107
-24 26z"/>
<path d="M2573 8705 c-24 -17 -39 -71 -28 -104 9 -30 47 -36 90 -15 62 29 90
100 51 126 -20 13 -91 9 -113 -7z m47 -45 c5 0 15 7 24 15 19 20 26 19 26 -4
0 -24 -57 -73 -79 -69 -23 5 -25 35 -5 66 15 22 19 24 22 10 2 -10 7 -18 12
-18z"/>
<path d="M5659 8690 c-58 -58 -17 -100 64 -67 33 14 35 14 46 -9 6 -13 17 -24
26 -24 18 0 20 21 4 37 -8 8 -9 20 -1 42 11 31 2 48 -18 36 -5 -3 -10 -1 -10
4 0 6 -18 11 -41 11 -32 0 -47 -6 -70 -30z m86 -10 c7 -12 -51 -42 -73 -38
-15 3 -14 6 6 26 23 23 56 29 67 12z"/>
<path d="M8721 8653 c-40 -84 -27 -99 38 -41 l46 40 3 -28 c5 -38 15 -48 42
-39 21 7 23 32 1 28 -14 -4 -14 42 -1 68 17 31 -14 35 -53 5 l-33 -26 4 30 c7
50 -14 33 -47 -37z"/>
<path d="M12923 8692 c-39 -34 -65 -85 -61 -120 5 -40 56 -50 134 -26 48 15
60 23 62 43 2 13 0 21 -5 19 -81 -40 -131 -53 -151 -40 -22 15 -3 38 49 56 52
19 77 50 66 80 -10 25 -58 19 -94 -12z m58 -16 c-6 -8 -22 -16 -34 -19 -22 -6
-22 -6 2 14 27 22 49 26 32 5z"/>
<path d="M5018 8666 c-14 -38 -15 -46 -2 -56 11 -10 16 -7 25 16 6 16 13 41
16 57 9 45 -21 32 -39 -17z"/>
<path d="M9626 8670 c-14 -35 -20 -40 -47 -40 -30 0 -31 1 -25 35 5 27 4 35
-7 35 -27 0 -38 -65 -15 -88 7 -7 32 -12 55 -12 42 0 44 1 63 46 24 54 25 64
6 64 -8 0 -21 -18 -30 -40z"/>
<path d="M9761 8684 c-22 -28 -27 -59 -11 -69 5 -3 16 10 24 30 13 29 20 35
45 35 21 0 31 5 31 15 0 27 -65 19 -89 -11z"/>
<path d="M12765 8696 c-10 -7 -26 -11 -35 -9 -23 6 -87 -94 -71 -110 8 -8 14
-9 19 -1 12 19 112 104 122 104 5 0 0 -21 -10 -46 -24 -55 -25 -84 -5 -84 8 0
15 8 15 18 0 9 9 37 20 61 11 24 18 52 15 63 -7 21 -43 24 -70 4z"/>
<path d="M12538 8675 c-51 -34 -74 -70 -58 -90 14 -17 43 -19 69 -5 16 8 20 5
25 -21 8 -42 29 -32 33 17 10 112 9 119 -12 121 -11 1 -37 -9 -57 -22z m24
-46 c-32 -29 -52 -37 -52 -20 0 11 73 60 80 54 3 -3 -10 -18 -28 -34z"/>
<path d="M13591 8674 c-56 -28 -76 -54 -66 -84 5 -15 15 -20 40 -20 19 0 37 5
41 12 5 7 10 4 15 -10 5 -12 12 -22 17 -22 9 0 27 70 25 98 0 6 3 12 8 12 16
0 10 19 -10 29 -14 8 -31 4 -70 -15z m21 -44 c-31 -29 -71 -42 -56 -19 8 14
66 49 79 49 6 0 -5 -14 -23 -30z"/>
<path d="M14357 8664 c-47 -48 -64 -89 -47 -109 29 -35 127 28 115 75 -3 14
-7 34 -8 44 -3 32 -22 29 -60 -10z m38 -34 c6 -10 -29 -50 -45 -50 -14 0 -12
12 6 38 16 24 29 28 39 12z"/>
<path d="M14541 8665 c-53 -61 -66 -84 -52 -98 10 -9 18 -5 37 18 14 17 30 41
37 55 10 20 19 24 45 22 34 -2 40 6 20 26 -22 22 -55 13 -87 -23z"/>
<path d="M3939 8663 c-19 -48 -24 -106 -9 -101 13 4 40 78 40 111 0 26 -19 20
-31 -10z"/>
<path d="M8528 8669 c-31 -23 -37 -63 -12 -73 9 -4 32 -3 51 0 33 6 35 5 28
-17 -4 -13 -20 -52 -35 -86 -28 -61 -29 -62 -68 -60 -53 2 -76 -18 -68 -57 9
-45 33 -76 59 -76 17 0 28 11 44 43 15 32 29 45 54 52 38 11 41 31 4 28 l-25
-2 24 47 c32 65 68 182 61 200 -4 12 -10 9 -30 -12 -13 -14 -31 -26 -39 -26
-8 0 -23 -3 -33 -7 -17 -6 -17 -5 1 15 14 16 26 20 43 16 21 -6 24 -3 21 12
-5 27 -47 28 -80 3z m-12 -278 c-3 -4 -10 -21 -16 -36 -9 -24 -13 -26 -24 -14
-8 8 -17 24 -21 37 -6 20 -3 22 30 22 20 0 34 -4 31 -9z"/>
<path d="M13792 8680 c-12 -5 -28 -7 -36 -4 -9 3 -21 -11 -36 -40 -30 -63 -17
-75 31 -26 47 48 82 56 48 11 -12 -16 -19 -37 -16 -45 9 -22 20 -20 33 7 6 12
19 37 30 55 17 28 17 34 4 42 -18 12 -28 12 -58 0z"/>
<path d="M11146 8634 c-18 -17 -21 -44 -6 -44 13 0 50 37 50 50 0 15 -27 12
-44 -6z"/>
<path d="M11502 8583 c4 -21 33 -25 33 -3 0 8 -8 16 -18 18 -14 3 -18 -1 -15
-15z"/>
<path d="M10396 8583 c-3 -3 -6 -17 -6 -31 0 -15 -13 -37 -35 -58 -37 -34 -44
-54 -21 -54 25 0 86 78 86 109 0 30 -12 46 -24 34z"/>
<path d="M7098 8483 c-23 -26 -52 -89 -77 -165 -21 -62 -25 -68 -50 -68 -44 0
-91 -62 -91 -120 0 -39 19 -46 62 -24 47 24 54 36 89 149 32 102 85 215 100
215 5 0 9 7 9 15 0 20 -23 19 -42 -2z m-120 -293 c-14 -42 -68 -79 -68 -47 0
25 40 77 59 77 18 0 19 -3 9 -30z"/>
<path d="M8370 8450 c-7 -27 -17 -50 -21 -50 -4 0 -10 -12 -13 -27 -4 -16 -28
-69 -53 -120 -26 -51 -44 -95 -41 -99 4 -3 25 9 46 27 34 28 37 35 26 47 -18
18 -18 23 1 16 8 -4 15 -10 15 -16 0 -5 5 -6 11 -2 8 5 8 1 0 -14 -37 -69 11
-104 75 -55 l38 28 -29 3 c-18 2 -33 -2 -41 -12 -6 -9 -14 -16 -18 -16 -11 0
-6 35 9 54 32 43 11 79 -30 52 -14 -9 -25 -12 -25 -7 0 5 4 12 9 16 5 3 17 29
27 58 9 28 26 71 36 94 19 41 19 73 0 73 -5 0 -15 -22 -22 -50z"/>
<path d="M5151 8473 c-5 -10 -9 -30 -9 -45 0 -15 -27 -84 -61 -154 -43 -88
-58 -131 -51 -138 7 -7 20 1 41 26 16 21 44 47 61 59 l30 22 -7 -24 c-4 -13
-15 -41 -25 -61 -14 -30 -15 -41 -5 -54 8 -11 14 -13 18 -6 15 23 53 148 49
160 -5 17 -43 15 -69 -3 -20 -14 -18 -8 12 57 38 83 59 154 50 168 -9 15 -23
12 -34 -7z"/>
<path d="M6293 8463 c-31 -33 -67 -109 -84 -175 -12 -52 -23 -59 -89 -60 -27
0 -40 -5 -40 -14 0 -10 15 -14 56 -14 53 0 55 -1 49 -22 -4 -13 -23 -47 -42
-77 -23 -36 -31 -57 -25 -63 14 -14 71 67 94 130 14 39 21 48 48 53 42 9 58
25 42 41 -9 9 -15 9 -24 0 -10 -10 -48 -18 -48 -9 0 1 7 23 14 48 18 59 43
108 69 136 19 21 22 22 38 7 21 -19 34 -3 19 26 -15 28 -46 25 -77 -7z"/>
<path d="M8245 8454 c-18 -45 -18 -44 0 -44 15 0 46 59 38 73 -9 16 -23 5 -38
-29z"/>
<path d="M11660 8453 c-12 -9 -30 -48 -46 -101 l-26 -87 -36 -1 c-27 0 -43 -9
-69 -37 -37 -41 -42 -76 -15 -100 27 -24 55 -21 84 11 35 37 51 71 87 189 24
76 36 103 51 108 23 7 27 32 5 32 -8 0 -24 -7 -35 -14z m-90 -223 c0 -20 -30
-69 -48 -79 -10 -5 -24 -6 -31 -2 -20 13 -3 50 32 72 36 22 47 24 47 9z"/>
<path d="M12445 8433 c-3 -16 -29 -81 -56 -146 -50 -118 -66 -196 -41 -204 8
-3 12 5 12 23 0 15 27 94 60 176 33 81 60 155 60 163 0 26 -28 16 -35 -12z"/>
<path d="M13444 8444 c-4 -10 -20 -50 -36 -89 -46 -107 -68 -175 -68 -207 0
-50 17 -30 43 50 14 42 40 114 58 160 25 62 30 85 21 94 -9 9 -13 7 -18 -8z"/>
<path d="M3466 8373 c-9 -38 -35 -112 -57 -167 -42 -105 -46 -126 -26 -126 13
0 78 159 108 265 22 82 23 95 6 95 -7 0 -20 -28 -31 -67z"/>
<path d="M4757 8404 c-31 -19 -57 -39 -57 -44 0 -22 24 -19 64 9 73 50 73 47
1 -110 -30 -66 -55 -129 -55 -140 0 -37 28 -19 81 54 l54 72 5 -61 c9 -110 49
-124 105 -36 43 69 93 218 77 234 -11 11 -35 2 -28 -11 12 -19 -44 -163 -87
-224 -25 -36 -37 -22 -37 45 0 85 -21 99 -73 51 l-29 -28 21 42 c11 23 31 68
42 99 21 55 21 58 3 71 -24 17 -22 18 -87 -23z"/>
<path d="M13710 8404 c0 -14 -27 -80 -60 -147 -38 -75 -60 -131 -58 -146 4
-37 20 -24 40 34 9 27 24 55 33 61 17 13 68 9 113 -7 26 -10 30 -50 7 -69 -8
-7 -15 -19 -15 -27 0 -26 32 -9 51 26 18 34 18 36 1 65 -12 20 -31 34 -56 41
-44 13 -42 14 49 65 33 19 66 40 73 46 11 12 17 34 8 34 -6 0 -179 -100 -193
-112 -19 -15 -16 -4 12 54 28 59 33 108 10 108 -9 0 -15 -10 -15 -26z"/>
<path d="M2879 8412 c-1 -4 -2 -23 -3 -42 -2 -19 -13 -83 -27 -142 -13 -59
-20 -110 -17 -114 4 -4 29 16 56 45 48 51 81 68 67 34 -4 -10 -10 -38 -13 -62
-4 -34 -2 -43 8 -39 16 5 41 105 34 131 -7 23 -49 22 -84 -3 l-27 -19 14 57
c25 98 28 148 9 155 -9 4 -17 3 -17 -1z"/>
<path d="M8199 8338 l-24 -63 -49 -5 c-66 -7 -75 -30 -12 -30 45 0 51 -5 47
-37 -3 -25 15 -12 28 20 23 55 61 160 61 169 0 4 -6 8 -13 8 -8 0 -24 -28 -38
-62z"/>
<path d="M2683 8380 c-70 -16 -139 -58 -156 -95 -20 -41 -21 -65 -6 -118 13
-47 58 -77 114 -77 50 1 137 30 143 49 5 14 2 14 -83 -8 -102 -27 -148 1 -149
90 -1 46 2 54 31 78 32 26 76 43 146 56 21 4 37 13 37 21 0 15 -26 17 -77 4z"/>
<path d="M11140 8360 c0 -12 -20 -65 -45 -119 -25 -54 -45 -104 -45 -110 0
-26 32 -5 45 29 7 19 29 72 50 117 20 46 33 87 30 93 -11 18 -35 11 -35 -10z"/>
<path d="M7995 8350 c-7 -12 2 -30 16 -30 5 0 9 9 9 20 0 21 -15 27 -25 10z"/>
<path d="M10667 8296 c-20 -14 -39 -21 -42 -16 -11 19 -33 10 -33 -12 1 -13
-3 -38 -7 -55 -11 -47 12 -43 50 8 26 36 70 69 91 69 8 0 -4 -47 -23 -87 -8
-17 -13 -40 -11 -49 5 -30 32 6 53 72 28 88 -6 119 -78 70z"/>
<path d="M10411 8284 c-17 -14 -31 -34 -31 -45 0 -10 -4 -19 -10 -19 -5 0 -10
-9 -10 -20 0 -24 32 -27 54 -4 9 8 16 12 16 8 0 -3 7 -1 15 6 13 11 15 7 15
-24 0 -30 4 -36 21 -36 18 0 20 4 15 25 -4 14 0 41 9 62 22 53 5 62 -44 22
-23 -18 -44 -29 -48 -25 -5 4 4 18 20 30 26 21 36 46 18 46 -5 0 -23 -12 -40
-26z"/>
<path d="M13550 8290 c0 -13 5 -20 13 -17 6 2 12 10 12 17 0 7 -6 15 -12 18
-8 2 -13 -5 -13 -18z"/>
<path d="M10097 8293 c-3 -4 -8 -22 -11 -40 -4 -17 -21 -51 -38 -74 -22 -31
-27 -44 -18 -53 9 -8 26 5 70 54 60 66 72 71 45 21 -28 -55 7 -55 70 -1 25 22
47 40 49 40 1 0 0 -16 -2 -35 -5 -41 5 -73 18 -59 5 5 12 37 16 72 6 57 5 62
-12 62 -11 0 -37 -14 -58 -32 l-38 -31 15 30 c25 47 -3 59 -52 24 -27 -20 -27
-20 -27 1 1 21 -18 36 -27 21z"/>
<path d="M11294 8283 c-79 -45 -101 -80 -82 -134 11 -33 41 -44 91 -35 39 7
75 31 65 42 -5 4 -25 2 -46 -5 -49 -17 -76 -11 -80 15 -2 18 4 23 31 28 66 12
106 63 75 94 -15 15 -17 15 -54 -5z m26 -31 c0 -5 -11 -14 -25 -20 -29 -13
-33 -5 -7 14 20 15 32 18 32 6z"/>
<path d="M12140 8278 c-80 -55 -89 -112 -25 -142 42 -20 71 -17 69 6 -1 10 3
16 8 15 6 -1 13 4 15 11 6 16 -31 16 -57 0 -16 -10 -23 -10 -36 4 -16 16 -16
19 0 42 18 28 76 63 76 46 0 -5 7 -10 15 -10 16 0 19 9 9 34 -9 22 -35 20 -74
-6z"/>
<path d="M12882 8284 c-27 -19 -28 -55 -2 -79 29 -26 25 -37 -12 -33 -24 2
-33 -1 -33 -12 0 -11 13 -16 48 -18 46 -3 47 -2 47 26 0 16 -9 40 -20 54 -21
27 -12 48 22 48 10 0 18 7 18 15 0 20 -39 19 -68 -1z"/>
<path d="M13985 8281 c-47 -21 -105 -77 -105 -102 0 -41 19 -68 58 -80 34 -10
44 -8 78 10 57 30 89 57 76 65 -6 4 -36 -7 -65 -24 -44 -25 -59 -29 -79 -21
-21 8 -38 29 -38 46 0 1 22 5 48 9 53 7 88 33 98 71 12 47 -7 54 -71 26z m35
-32 c0 -9 -58 -39 -77 -39 -12 0 10 18 42 34 36 19 35 19 35 5z"/>
<path d="M3790 8279 c-31 -13 -60 -39 -60 -54 0 -7 18 -24 40 -39 23 -15 40
-34 40 -45 0 -23 -36 -34 -61 -18 -14 9 -21 9 -31 -1 -16 -16 0 -31 43 -38 26
-4 41 0 62 16 36 29 34 45 -12 91 -43 43 -38 60 18 63 36 2 50 14 31 26 -19
12 -38 12 -70 -1z"/>
<path d="M9411 8253 c-42 -41 -61 -87 -43 -105 11 -11 45 -3 65 15 7 7 22 17
34 24 19 11 22 9 27 -11 6 -24 44 -42 59 -27 11 11 -2 41 -18 41 -9 0 -10 9
-2 40 6 22 8 42 5 46 -4 3 -25 8 -47 11 -37 5 -44 2 -80 -34z m79 -2 c0 -9
-73 -71 -84 -71 -14 0 -4 20 23 49 28 29 61 41 61 22z"/>
<path d="M6704 8261 c-32 -20 -64 -74 -64 -110 0 -12 10 -31 21 -42 17 -17 29
-20 57 -15 36 5 71 30 59 42 -3 4 -14 3 -24 -1 -25 -11 -45 -12 -65 -2 -32 14
-21 36 21 43 43 7 65 35 59 75 -4 31 -25 34 -64 10z m34 -33 c-3 -7 -13 -15
-24 -17 -16 -3 -17 -1 -5 13 16 19 34 21 29 4z"/>
<path d="M10874 8266 c-35 -16 -74 -61 -74 -86 0 -30 31 -32 81 -7 42 20 49
21 52 8 1 -9 0 -23 -4 -31 -4 -8 -17 -43 -29 -76 l-21 -61 -55 -6 c-102 -11
-136 -61 -93 -137 42 -74 73 -66 124 32 35 65 39 70 66 66 34 -5 42 21 9 29
-12 3 -19 11 -16 17 9 21 44 141 56 193 12 55 7 81 -14 64 -7 -6 -17 -6 -26
-1 -19 12 -19 12 -56 -4z m41 -36 c-8 -12 -65 -43 -71 -38 -2 3 5 14 16 26 20
22 67 32 55 12z m-55 -257 c0 -15 -66 -118 -76 -118 -5 0 -18 17 -29 37 -19
35 -19 37 -1 57 10 11 28 22 40 24 37 7 66 7 66 0z"/>
<path d="M12716 8259 c-29 -23 -33 -54 -11 -83 23 -31 18 -39 -20 -32 -28 6
-35 4 -35 -9 0 -23 45 -37 75 -23 28 13 32 40 10 78 -20 34 -19 39 10 50 14 5
25 14 25 19 0 19 -30 19 -54 0z"/>
<path d="M5253 8238 c-38 -39 -51 -70 -45 -109 6 -43 32 -53 100 -38 31 6 62
14 67 17 6 4 16 7 23 7 7 0 29 22 50 49 49 65 68 72 46 18 -18 -46 -16 -77 6
-77 8 0 14 6 12 14 -2 8 5 35 14 61 19 52 14 80 -13 80 -25 0 -75 -48 -67 -63
4 -7 3 -8 -1 -4 -5 4 -9 18 -10 30 -1 47 -21 29 -35 -31 -8 -35 -17 -61 -20
-59 -3 3 -32 -1 -65 -8 -37 -9 -63 -11 -69 -5 -6 6 -2 12 10 15 33 11 47 21
67 47 15 21 17 32 10 54 -13 41 -42 41 -80 2z m43 -45 c-13 -14 -31 -23 -41
-21 -16 3 -15 7 10 36 21 25 30 30 41 21 11 -9 9 -15 -10 -36z"/>
<path d="M3511 8234 c-12 -15 -21 -31 -21 -36 0 -5 -4 -7 -9 -3 -15 8 -25 -15
-12 -28 6 -6 11 -23 11 -37 0 -14 5 -31 12 -38 25 -25 174 -6 165 22 -2 6 -15
9 -28 6 -13 -2 -44 -4 -69 -5 -41 0 -45 2 -48 26 -3 23 2 27 29 33 32 6 69 31
69 47 0 16 -32 39 -55 39 -14 0 -32 -11 -44 -26z m59 -13 c0 -5 -9 -11 -19
-14 -14 -3 -18 -1 -14 9 6 15 33 19 33 5z"/>
<path d="M6511 8232 c-44 -62 -30 -110 34 -115 40 -3 41 17 3 28 -38 11 -40
32 -8 76 18 25 17 39 -1 39 -4 0 -17 -13 -28 -28z"/>
<path d="M7638 8242 c-38 -17 -51 -42 -22 -42 8 0 25 5 36 11 21 11 20 10 -2
-27 -13 -22 -27 -43 -32 -48 -13 -16 -9 -36 8 -36 9 0 32 14 51 30 l34 30 29
-21 c27 -21 30 -21 54 -5 31 20 48 50 44 79 -4 32 -34 29 -30 -4 1 -16 -6 -33
-19 -45 -21 -19 -21 -19 -40 5 -13 16 -26 22 -40 18 -16 -4 -19 -2 -14 11 4 9
10 27 12 40 6 27 -14 28 -69 4z"/>
<path d="M12500 8246 c-27 -15 -63 -74 -54 -88 10 -17 48 -26 71 -17 18 7 22
4 25 -14 2 -12 9 -22 17 -22 10 0 15 13 15 45 1 48 0 48 -51 28 -18 -6 -36 -9
-40 -4 -13 13 46 56 78 56 19 0 29 5 29 15 0 19 -55 20 -90 1z"/>
<path d="M7933 8220 c-9 -16 -25 -30 -35 -30 -10 0 -21 -7 -25 -15 -6 -18 -5
-20 23 -29 16 -5 26 2 47 35 28 42 34 69 18 69 -6 0 -18 -13 -28 -30z"/>
<path d="M3233 8225 c-31 -13 -63 -59 -63 -90 0 -24 34 -14 38 10 5 25 31 55
47 55 7 0 15 -10 19 -22 4 -17 8 -20 17 -11 14 14 4 59 -14 66 -7 3 -27 -1
-44 -8z"/>
<path d="M6330 8210 c-32 -34 -46 -72 -35 -89 9 -15 38 -14 61 4 26 19 32 19
39 -6 11 -34 29 -16 30 30 1 56 -15 62 -60 22 -45 -39 -51 -39 -28 -1 10 18
30 34 48 38 36 10 36 26 0 30 -18 2 -34 -6 -55 -28z"/>
<path d="M3049 8217 c-58 -44 -38 -128 23 -96 20 11 37 0 38 -23 0 -5 6 -8 13
-8 9 0 13 19 14 60 2 49 -1 62 -17 70 -25 13 -51 12 -71 -3z m51 -25 c0 -14
-38 -44 -50 -40 -14 4 17 48 36 48 8 0 14 -4 14 -8z"/>
<path d="M13476 8202 c-3 -5 -8 -28 -12 -50 -5 -34 -4 -42 9 -42 9 0 18 13 22
33 4 17 9 40 11 50 5 17 -20 25 -30 9z"/>
<path d="M8121 8134 c-13 -36 -21 -68 -17 -71 11 -11 33 20 49 69 12 37 13 49
3 57 -9 8 -18 -5 -35 -55z"/>
<path d="M3924 8076 c-8 -22 3 -33 18 -18 9 9 9 15 0 24 -9 9 -13 7 -18 -6z"/>
<path d="M2320 7941 c-46 -103 -60 -117 -108 -104 -15 4 -22 1 -22 -10 0 -16
20 -27 51 -27 16 0 19 -7 19 -49 0 -61 29 -104 69 -99 15 2 27 10 29 21 3 14
-1 17 -21 12 -30 -8 -47 16 -47 67 0 40 8 53 38 63 26 7 24 32 -1 27 -15 -2
-15 0 0 35 8 21 26 59 39 85 27 53 30 78 11 78 -7 0 -32 -45 -57 -99z"/>
<path d="M2509 8008 c-1 -2 -3 -20 -4 -40 -2 -21 -18 -77 -35 -125 -37 -100
-46 -148 -32 -157 5 -3 28 8 51 24 22 17 43 30 46 30 3 0 2 -18 -1 -40 -5 -32
-3 -40 8 -40 19 0 46 116 31 131 -6 6 -27 -2 -61 -26 l-51 -35 20 46 c26 61
69 216 63 226 -5 7 -33 12 -35 6z"/>
<path d="M2690 7865 c0 -8 7 -15 15 -15 8 0 15 7 15 15 0 8 -7 15 -15 15 -8 0
-15 -7 -15 -15z"/>
<path d="M2793 7828 l-22 -22 20 -33 c17 -27 19 -36 9 -48 -16 -19 -29 -19
-52 1 -16 16 -18 16 -24 0 -17 -43 56 -67 93 -30 27 27 29 51 7 82 -19 28 -11
42 27 42 19 0 29 5 29 15 0 24 -61 19 -87 -7z"/>
<path d="M3380 7828 c-25 -17 -36 -32 -38 -54 -5 -47 17 -60 73 -40 l46 15 -6
-57 c-12 -118 -14 -123 -35 -112 -42 23 -94 2 -119 -47 -34 -67 25 -181 80
-153 8 5 28 33 44 62 16 29 33 56 39 60 6 4 11 26 11 50 1 24 5 95 9 159 5 67
5 118 0 121 -32 19 -72 17 -104 -4z m70 -29 c0 -12 -42 -39 -62 -39 -27 0 -22
23 9 42 26 16 53 14 53 -3z m-37 -257 c15 -16 14 -22 -7 -69 -28 -59 -42 -71
-62 -51 -26 26 -28 80 -4 111 25 31 50 35 73 9z"/>
<path d="M3568 7811 c-41 -49 -49 -100 -18 -131 11 -11 27 -20 35 -20 19 0 91
36 100 50 15 24 -8 26 -52 3 -45 -22 -49 -23 -60 -6 -19 26 -16 30 26 37 48 7
63 25 59 68 -2 27 -8 34 -29 36 -20 2 -34 -6 -61 -37z m62 -10 c0 -19 -35 -39
-47 -27 -7 7 26 46 39 46 4 0 8 -9 8 -19z"/>
<path d="M3764 7822 c-22 -15 -44 -58 -44 -84 0 -35 28 -38 71 -7 32 22 29 24
45 -29 2 -7 8 -11 13 -7 16 9 8 115 -9 125 -18 12 -61 13 -76 2z m40 -34 c-6
-16 -54 -52 -54 -41 0 5 7 19 16 31 16 23 47 31 38 10z"/>
<path d="M3967 7824 c-4 -4 -17 -8 -29 -9 -22 -2 -27 -12 -40 -89 -6 -37 20
-26 41 18 23 46 47 64 65 46 17 -17 28 -11 24 13 -2 15 -11 23 -28 25 -14 2
-29 0 -33 -4z"/>
<path d="M2639 7790 c-2 -15 -4 -22 -17 -53 -29 -68 -1 -79 29 -11 20 45 20
74 -1 74 -5 0 -11 -4 -11 -10z"/>
</g>
</svg>
