<?xml version="1.0" standalone="no"?>
<!DOCTYPE svg PUBLIC "-//W3C//DTD SVG 20010904//EN"
 "http://www.w3.org/TR/2001/REC-SVG-20010904/DTD/svg10.dtd">
<svg version="1.0" xmlns="http://www.w3.org/2000/svg"
 width="1618.000000pt" height="1214.000000pt" viewBox="0 0 1618.000000 1214.000000"
 preserveAspectRatio="xMidYMid meet">

<g transform="translate(0.000000,1214.000000) scale(0.100000,-0.100000)"
fill="#000000" stroke="none">
<path d="M3786 11775 c4 -16 -2 -41 -15 -70 -12 -25 -21 -50 -21 -55 0 -20
-72 -185 -83 -192 -7 -4 -29 -8 -50 -8 -28 0 -36 -3 -31 -12 4 -7 -2 -4 -15 6
-15 14 -25 16 -32 9 -21 -21 2 -33 64 -33 l62 0 0 -37 c0 -21 -4 -41 -8 -44
-13 -9 8 -74 24 -74 11 0 13 11 10 45 -1 25 -8 51 -13 58 -7 8 -7 12 1 12 6 0
13 11 17 24 5 21 14 26 60 32 72 9 76 34 5 30 l-50 -2 15 34 c7 19 11 39 7 45
-3 6 -1 7 5 3 11 -7 16 7 15 42 -1 6 3 12 8 12 5 0 9 5 9 11 0 6 13 44 30 85
31 78 31 104 -1 104 -16 0 -18 -5 -13 -25z"/>
<path d="M6721 11752 c-5 -9 -18 -55 -29 -102 -12 -47 -27 -103 -35 -125 -14
-39 -15 -40 -71 -45 -68 -6 -78 -24 -16 -28 25 -2 48 -7 53 -11 4 -4 0 -40 -9
-79 -15 -69 -14 -109 4 -98 5 3 17 44 27 91 10 47 21 87 25 90 4 2 25 7 47 11
l40 6 -23 -68 c-35 -105 -19 -112 49 -24 26 33 54 60 63 60 17 0 17 2 -3 -87
-4 -16 -1 -23 10 -23 19 0 40 67 35 108 -4 33 -38 41 -73 18 -13 -9 -26 -16
-29 -16 -2 0 10 42 26 93 34 104 42 182 18 182 -9 0 -15 -12 -16 -36 -4 -53
-31 -150 -46 -164 -13 -12 -88 -28 -88 -19 0 2 9 36 19 74 13 46 16 72 9 76
-7 4 -6 9 2 14 15 9 51 106 42 114 -10 11 -21 6 -31 -12z"/>
<path d="M12428 11733 c-9 -10 -32 -53 -52 -96 l-35 -79 -33 7 c-18 4 -35 8
-38 8 -16 3 -74 -39 -90 -66 -26 -42 -25 -67 5 -111 l24 -36 -63 -98 c-35 -53
-72 -114 -82 -134 -10 -21 -22 -38 -26 -38 -5 0 -6 5 -3 10 3 6 1 10 -4 10
-13 0 -13 -2 -1 -34 14 -38 33 -32 53 19 11 25 49 91 87 148 l68 102 45 -3
c121 -10 194 94 114 163 l-35 31 45 92 c33 66 50 91 60 87 22 -8 36 5 22 21
-16 19 -43 18 -61 -3z m-146 -223 c24 0 23 -2 -17 -66 -38 -59 -56 -61 -69 -9
-11 44 34 107 59 84 5 -5 17 -9 27 -9z m96 -26 c51 -36 7 -102 -74 -112 -26
-3 -45 -1 -43 4 14 33 76 124 84 124 6 0 21 -7 33 -16z"/>
<path d="M13638 11713 c0 -5 -2 -12 -3 -18 -1 -5 -6 -21 -12 -35 -6 -14 -12
-29 -14 -35 -2 -5 -19 -38 -37 -73 l-32 -62 -26 16 c-14 10 -54 19 -93 22 -60
4 -71 2 -90 -17 -17 -17 -19 -25 -11 -41 8 -15 7 -27 -5 -49 -8 -17 -15 -43
-15 -58 0 -36 35 -94 61 -100 10 -3 19 -9 19 -13 0 -5 -26 -48 -58 -97 -79
-119 -132 -211 -132 -229 0 -29 26 -12 49 33 52 105 175 285 200 296 50 21
110 70 122 98 7 18 9 46 5 71 -6 36 -1 53 44 142 59 119 70 156 46 156 -9 0
-17 -3 -18 -7z m-158 -227 c22 -7 34 -17 32 -26 -5 -23 -106 -180 -115 -180
-18 0 -67 60 -67 82 0 13 11 41 25 63 14 22 28 48 31 58 7 20 43 22 94 3z m60
-89 c0 -29 -22 -60 -62 -89 l-33 -23 29 50 c46 79 50 85 58 85 5 0 8 -10 8
-23z"/>
<path d="M2825 11699 c-9 -13 0 -22 25 -26 24 -3 37 16 19 28 -19 12 -36 11
-44 -2z"/>
<path d="M7280 11681 c-5 -11 -17 -49 -25 -85 -25 -107 -29 -114 -70 -118 -45
-4 -50 -22 -7 -26 18 -2 30 -7 27 -11 -2 -5 -11 -33 -19 -62 -8 -30 -17 -62
-21 -71 -5 -13 -2 -18 9 -18 18 0 28 20 47 93 14 57 31 77 65 77 27 0 28 3 13
31 -6 11 -16 18 -23 16 -15 -6 16 136 34 158 12 15 6 35 -10 35 -5 0 -14 -9
-20 -19z"/>
<path d="M14620 11590 c-24 -47 -41 -70 -53 -70 -27 0 -95 -38 -107 -59 -17
-32 -12 -79 11 -102 l20 -20 -45 -89 c-43 -83 -59 -146 -35 -138 6 2 18 26 28
53 10 28 33 77 52 110 33 58 37 60 84 67 58 8 129 54 133 86 3 22 -31 64 -71
87 -16 9 -15 14 8 59 13 26 29 54 35 61 11 13 4 25 -14 25 -6 0 -27 -31 -46
-70z m-80 -161 c-26 -50 -34 -59 -46 -49 -30 26 -4 90 38 90 10 0 18 5 18 10
0 6 5 10 10 10 6 0 -4 -27 -20 -61z m99 46 c40 -20 47 -45 19 -67 -26 -20 -95
-44 -104 -36 -5 5 46 118 54 118 1 0 16 -7 31 -15z"/>
<path d="M14902 11618 c-7 -7 -12 -19 -12 -27 0 -16 -138 -251 -154 -263 -6
-4 -5 -13 3 -22 16 -20 31 -21 31 -2 0 7 29 60 63 118 35 58 71 120 80 138 27
53 20 89 -11 58z"/>
<path d="M12655 11594 c-49 -24 -99 -70 -91 -83 5 -8 23 -1 57 25 66 48 100
33 68 -29 -25 -47 -123 -148 -158 -163 -45 -19 -101 -72 -101 -96 0 -28 20
-22 83 27 l57 45 0 -45 c0 -35 4 -47 21 -56 26 -13 89 2 109 26 20 24 4 29
-38 12 -21 -8 -43 -12 -50 -8 -14 8 -19 100 -6 109 24 16 114 135 120 157 16
63 -21 104 -71 79z"/>
<path d="M15097 11600 c-16 -5 -44 -20 -63 -35 -27 -21 -34 -33 -34 -62 0 -25
-7 -40 -24 -54 -31 -24 -59 -84 -51 -109 15 -46 111 -36 163 16 26 26 32 38
26 56 -4 13 -6 29 -6 36 1 6 3 19 4 27 1 8 4 13 6 10 3 -3 14 2 24 12 22 20
24 76 2 97 -8 9 -16 16 -17 15 -1 0 -15 -5 -30 -9z m33 -54 c0 -31 -22 -48
-65 -51 -75 -4 -24 61 58 74 4 0 7 -10 7 -23z m-69 -106 c31 -17 24 -55 -16
-80 -44 -27 -92 -24 -87 5 4 21 60 85 75 85 4 0 17 -5 28 -10z"/>
<path d="M14223 11586 c-51 -16 -100 -46 -132 -80 -20 -21 -21 -26 -9 -31 10
-4 26 4 42 20 50 50 163 84 181 54 8 -12 -32 -72 -78 -117 -17 -17 -52 -38
-77 -47 -68 -24 -110 -71 -80 -90 6 -4 33 7 60 24 l50 31 32 -28 c43 -36 70
-50 86 -45 22 8 12 31 -17 38 -16 3 -39 17 -51 30 l-23 25 50 52 c91 97 104
141 48 166 -31 14 -29 14 -82 -2z"/>
<path d="M8455 11573 c-14 -35 -85 -247 -85 -255 0 -17 23 -7 63 27 48 42 55
43 63 11 8 -32 39 -60 59 -53 21 9 19 24 -4 32 -10 3 -22 20 -27 38 -11 38
-42 47 -79 23 -24 -16 -24 -15 10 84 19 54 35 102 35 105 0 13 -29 3 -35 -12z"/>
<path d="M9454 11545 c-4 -8 -4 -22 0 -30 3 -9 0 -15 -8 -15 -9 0 -27 -36 -46
-87 -36 -97 -45 -178 -20 -178 8 0 14 7 12 15 -5 22 28 137 60 208 15 35 28
72 28 83 0 23 -18 25 -26 4z"/>
<path d="M13175 11524 c-3 -20 -31 -89 -61 -152 -30 -63 -54 -121 -54 -128 0
-20 30 -17 36 4 3 9 25 62 50 117 53 122 74 181 67 189 -16 15 -31 3 -38 -30z"/>
<path d="M4831 11523 c-11 -21 -61 -209 -61 -229 0 -37 35 -8 95 81 78 114 93
123 64 35 -23 -69 -25 -117 -4 -117 10 0 15 10 15 27 0 15 9 53 20 85 24 70
25 94 5 101 -24 9 -62 -21 -102 -81 -20 -31 -38 -53 -40 -51 -3 2 5 35 16 74
12 38 21 74 21 81 0 17 -18 13 -29 -6z"/>
<path d="M4622 11510 c-13 -6 -20 -14 -17 -20 4 -6 1 -9 -6 -8 -7 2 -23 -13
-35 -32 -13 -19 -29 -41 -35 -48 -8 -10 -6 -23 7 -50 9 -20 22 -40 28 -44 35
-24 163 7 195 46 24 28 4 29 -54 1 -37 -17 -69 -25 -92 -23 -42 4 -55 23 -20
32 13 3 45 24 71 47 40 35 47 46 44 73 -3 27 -7 31 -33 33 -16 1 -40 -2 -53
-7z m58 -31 c0 -16 -65 -75 -89 -82 -26 -6 -26 -3 0 40 27 43 89 72 89 42z"/>
<path d="M2990 11498 c-33 -12 -60 -38 -60 -57 0 -9 11 -33 25 -54 29 -42 26
-57 -11 -57 -22 0 -25 4 -22 27 4 35 -19 41 -33 9 -10 -22 -9 -29 6 -46 24
-26 79 -26 105 0 23 23 25 34 7 52 -7 7 -21 26 -31 43 -18 27 -18 30 -2 40 38
22 49 32 45 42 -3 7 -12 7 -29 1z"/>
<path d="M2756 11491 c-11 -4 -20 -18 -22 -32 -1 -13 -8 -43 -15 -66 -14 -44
-3 -73 27 -73 16 0 18 14 4 40 -7 13 -3 30 15 64 36 68 34 84 -9 67z"/>
<path d="M5146 11477 c-19 -14 -19 -20 -8 -88 6 -41 8 -77 4 -80 -11 -11 -52
9 -59 28 -4 9 -1 19 5 21 17 5 15 32 -2 32 -8 0 -22 -10 -30 -21 -13 -19 -13
-26 -1 -49 19 -37 67 -57 102 -41 25 11 25 14 18 69 -14 105 -14 107 20 107
20 0 30 5 30 15 0 20 -55 25 -79 7z"/>
<path d="M5633 11445 c-19 -19 -41 -35 -48 -35 -7 0 -15 -10 -19 -22 -9 -36
-7 -98 4 -98 5 0 17 17 25 38 19 44 57 102 68 102 4 0 12 -11 17 -25 20 -51
40 -17 24 42 -10 36 -33 36 -71 -2z"/>
<path d="M5347 11453 c-2 -5 -10 -31 -16 -59 -28 -118 32 -182 109 -118 35 30
60 73 60 103 0 22 -39 39 -60 26 -15 -9 -1 -27 17 -21 11 5 13 1 7 -17 -17
-56 -73 -102 -95 -80 -13 13 -13 92 0 126 11 29 8 47 -9 47 -5 0 -11 -3 -13
-7z"/>
<path d="M5860 11447 c-46 -16 -60 -48 -50 -111 9 -61 36 -86 92 -86 43 0 98
31 98 56 0 20 -24 17 -45 -6 -23 -25 -76 -26 -98 -2 -21 23 -21 32 -1 32 9 0
32 9 50 21 38 23 46 65 18 93 -18 19 -18 19 -64 3z m47 -52 c-8 -19 -49 -36
-61 -25 -13 13 1 39 26 49 27 10 43 -1 35 -24z"/>
<path d="M7844 11450 c-47 -19 -81 -108 -56 -146 13 -19 50 -34 86 -34 40 0
88 19 84 32 -4 11 -9 11 -55 2 -18 -3 -45 -3 -59 0 l-27 7 34 25 c60 44 74 78
43 108 -17 18 -20 18 -50 6z m36 -38 c0 -10 -53 -62 -63 -62 -12 0 -8 19 9 45
15 23 54 35 54 17z"/>
<path d="M8055 11441 c-34 -14 -75 -59 -75 -81 0 -27 22 -35 61 -21 27 9 30 8
25 -5 -8 -21 11 -54 30 -54 12 0 14 7 9 30 -4 19 0 47 11 75 9 25 15 47 13 49
-10 10 -56 14 -74 7z m27 -33 c-15 -19 -76 -53 -67 -39 6 11 64 51 74 51 2 0
-1 -6 -7 -12z"/>
<path d="M9815 11436 c-43 -19 -59 -41 -51 -73 14 -57 13 -58 -29 -58 -29 0
-40 -4 -40 -15 0 -11 12 -15 52 -15 71 1 81 13 58 66 -19 40 -19 41 1 53 10 6
30 13 44 16 27 6 35 33 10 37 -8 1 -29 -3 -45 -11z"/>
<path d="M3821 11405 c-33 -38 -39 -70 -18 -99 12 -17 17 -17 49 -6 81 29 106
83 58 122 -33 26 -54 22 -89 -17z m79 -24 c0 -23 -35 -51 -63 -51 -14 0 -17 5
-11 23 10 34 24 47 50 47 17 0 24 -6 24 -19z"/>
<path d="M8201 11409 c-55 -54 -33 -119 41 -119 20 0 41 7 48 15 14 16 13 17
-45 19 -66 2 -58 53 13 83 18 7 30 18 27 23 -12 20 -54 9 -84 -21z"/>
<path d="M9171 11418 c-54 -36 -75 -71 -61 -97 20 -38 122 -61 176 -41 36 14
22 25 -34 26 -110 3 -141 29 -85 73 40 32 71 37 88 15 11 -15 16 -17 27 -6 20
20 -3 46 -43 50 -23 2 -46 -5 -68 -20z"/>
<path d="M9988 11425 c-41 -23 -45 -57 -14 -98 30 -39 23 -47 -41 -47 -45 0
-40 -24 6 -28 39 -4 87 14 95 34 3 8 -9 30 -26 50 l-32 36 23 19 c13 11 32 19
43 19 25 0 18 24 -8 27 -10 2 -31 -4 -46 -12z"/>
<path d="M6996 11409 c-39 -31 -50 -66 -31 -95 19 -30 24 -30 69 1 l36 24 0
-24 c0 -16 6 -25 15 -25 11 0 15 12 15 48 0 85 -47 116 -104 71z m60 -21 c7
-11 -38 -58 -57 -58 -18 0 -9 39 13 54 27 19 35 20 44 4z"/>
<path d="M9542 11404 c-76 -53 -49 -145 31 -103 18 10 23 8 35 -10 18 -26 48
-29 37 -3 -9 21 -9 40 0 70 11 33 -20 29 -62 -8 -36 -32 -53 -38 -53 -18 0 19
41 57 56 51 9 -3 14 2 14 16 0 25 -26 28 -58 5z"/>
<path d="M8568 11301 c-50 -32 -120 -121 -184 -233 -35 -61 -46 -74 -70 -76
-40 -5 -55 -21 -26 -28 12 -4 22 -9 22 -12 0 -3 -13 -29 -30 -59 -36 -63 -36
-63 -10 -63 11 0 20 4 20 9 0 6 16 37 35 69 31 53 38 60 75 66 27 4 40 11 40
22 0 12 -7 14 -30 9 l-30 -7 34 61 c53 93 90 143 140 189 45 41 68 53 64 31
-6 -24 22 -19 28 5 13 53 -12 59 -78 17z"/>
<path d="M13651 11301 c-19 -12 -6 -43 16 -39 10 2 18 12 18 22 0 22 -14 29
-34 17z"/>
<path d="M11637 11293 c-4 -3 -7 -13 -7 -20 0 -24 -70 -203 -116 -297 -50
-100 -52 -118 -24 -146 43 -43 145 -8 164 57 15 56 -29 80 -98 53 -14 -5 -26
-8 -26 -6 0 2 17 41 39 87 50 108 91 224 91 255 0 23 -10 31 -23 17z m-7 -384
c0 -6 -13 -24 -30 -40 -22 -22 -37 -29 -57 -27 -38 4 -35 27 6 55 35 24 81 31
81 12z"/>
<path d="M12750 11275 c-10 -12 -10 -19 -2 -27 13 -13 42 6 42 28 0 19 -24 18
-40 -1z"/>
<path d="M11985 11200 c-9 -10 -15 -26 -11 -35 3 -9 -3 -33 -13 -53 -36 -72
-131 -320 -131 -344 0 -4 7 -8 15 -8 8 0 20 19 28 48 16 53 90 236 132 325 35
75 23 115 -20 67z"/>
<path d="M2429 11198 c-1 -7 -1 -17 0 -21 2 -14 -37 -159 -69 -251 -50 -148
-35 -168 44 -57 46 65 116 132 104 100 -29 -80 -49 -153 -46 -175 4 -38 28
-44 28 -7 0 15 14 70 32 121 24 72 29 95 20 104 -17 17 -75 -15 -118 -66 -37
-43 -40 -43 -23 1 18 48 67 248 62 256 -7 12 -33 8 -34 -5z"/>
<path d="M8023 11153 c-49 -143 -66 -174 -129 -242 -58 -63 -84 -79 -84 -51 0
16 53 72 77 81 28 10 31 39 3 39 -26 0 -85 -53 -100 -90 -16 -38 0 -80 29 -80
23 0 121 94 156 150 14 22 35 66 47 98 12 31 27 62 35 67 17 13 7 45 -13 45
-8 0 -17 -8 -21 -17z"/>
<path d="M7000 11042 c-25 -58 -56 -119 -69 -135 -24 -29 -24 -30 -6 -43 26
-19 38 -13 46 22 3 16 24 68 47 117 22 48 38 87 35 87 -3 0 2 11 11 25 9 14
15 25 14 26 -29 8 -36 -1 -78 -99z"/>
<path d="M12284 11132 c-6 -4 -19 -37 -29 -74 -20 -75 -50 -132 -65 -123 -15
9 -47 -4 -54 -22 -5 -13 -1 -15 24 -10 16 4 30 5 30 3 0 -2 -11 -29 -25 -60
-24 -55 -26 -84 -3 -70 5 3 23 35 38 69 26 57 59 93 73 79 11 -11 77 9 77 23
0 12 -9 14 -48 8 l-49 -6 29 87 c26 83 27 112 2 96z"/>
<path d="M5044 11103 c-11 -49 -22 -86 -54 -171 -33 -92 -39 -152 -15 -152 10
0 15 10 15 30 0 16 18 79 39 139 22 61 41 125 43 142 4 41 -19 51 -28 12z"/>
<path d="M7134 11083 c-15 -26 -45 -77 -66 -112 -38 -64 -47 -104 -28 -116 6
-3 13 2 16 12 17 47 71 152 114 220 11 17 12 25 3 34 -8 8 -18 -2 -39 -38z"/>
<path d="M9283 11108 c-11 -13 -41 -58 -65 -100 -30 -51 -48 -74 -55 -67 -17
17 -59 -7 -87 -48 -31 -45 -33 -69 -7 -83 43 -22 92 21 146 130 40 79 88 150
102 150 19 0 27 21 12 31 -20 12 -23 12 -46 -13z m-130 -219 c-19 -32 -47 -53
-64 -47 -15 5 34 67 56 71 11 2 21 5 23 6 2 0 -5 -13 -15 -30z"/>
<path d="M11360 11101 c0 -26 16 -35 24 -15 10 25 7 34 -9 34 -8 0 -15 -9 -15
-19z"/>
<path d="M4580 11081 c0 -25 20 -38 31 -20 15 23 10 39 -11 39 -13 0 -20 -7
-20 -19z"/>
<path d="M10108 11049 c-8 -5 -32 -33 -53 -64 -21 -30 -44 -55 -52 -55 -7 0
-13 -11 -13 -25 0 -14 -7 -37 -16 -50 -15 -23 -12 -45 6 -45 5 0 31 40 59 89
54 94 81 126 88 104 3 -7 12 -13 20 -13 11 0 14 6 9 23 -3 12 -6 25 -6 28 0
12 -26 17 -42 8z"/>
<path d="M6396 11035 c-53 -15 -72 -28 -62 -43 4 -6 29 -3 67 9 34 11 64 17
66 15 3 -2 -11 -21 -29 -43 -104 -117 -102 -144 5 -83 62 35 77 37 70 11 -7
-26 14 -61 35 -61 33 0 88 48 115 100 31 60 33 70 12 70 -8 0 -22 -18 -31 -40
-17 -41 -79 -104 -94 -95 -5 3 -6 21 -3 39 4 28 2 35 -15 40 -12 4 -34 0 -51
-8 -45 -24 -46 -20 -6 26 19 23 34 49 33 58 -4 20 -50 22 -112 5z"/>
<path d="M11784 11039 c-10 -17 13 -36 27 -22 12 12 4 33 -11 33 -5 0 -12 -5
-16 -11z"/>
<path d="M8575 11020 c-10 -16 4 -30 31 -30 29 0 31 15 5 30 -24 12 -28 13
-36 0z"/>
<path d="M2842 10994 c-25 -17 -29 -58 -11 -98 9 -20 9 -29 -1 -41 -15 -18
-41 -20 -37 -2 1 6 -5 12 -13 12 -9 0 -15 -9 -15 -25 0 -21 5 -26 32 -28 22
-2 38 3 52 17 24 24 26 44 10 91 -11 29 -10 34 11 50 13 10 20 22 16 29 -9 15
-17 14 -44 -5z"/>
<path d="M4331 11001 c-11 -7 -12 -24 -7 -73 7 -70 -6 -101 -44 -111 -18 -5
-19 -3 -9 9 19 23 -3 37 -29 18 -26 -18 -28 -36 -7 -54 12 -10 24 -10 55 -1
58 17 74 47 66 124 -4 39 -3 57 3 48 11 -17 41 -7 41 13 0 9 -9 20 -19 26 -24
12 -32 12 -50 1z"/>
<path d="M8078 10967 c-80 -69 -81 -149 -3 -155 43 -3 83 17 71 37 -5 8 -13 8
-26 1 -10 -5 -30 -10 -44 -10 -42 0 -31 31 24 70 49 35 67 60 55 80 -11 18
-39 10 -77 -23z"/>
<path d="M10573 10943 c-42 -42 -66 -76 -83 -118 -13 -33 -36 -86 -52 -117
-15 -32 -28 -64 -28 -73 0 -47 47 19 91 128 15 38 26 54 33 47 20 -20 57 -10
87 23 44 47 61 83 57 125 -5 59 -34 54 -105 -15z m73 -18 c-8 -31 -63 -95 -82
-95 -27 0 -14 36 33 89 46 53 61 54 49 6z"/>
<path d="M5135 10957 c-41 -41 -46 -81 -14 -121 14 -18 30 -26 52 -26 37 0
117 39 117 57 0 18 -20 16 -58 -7 -45 -28 -80 -26 -94 5 -6 14 -9 26 -7 28 2
1 22 11 44 22 31 15 40 26 40 45 0 40 -38 39 -80 -3z"/>
<path d="M12062 10974 c4 -21 22 -23 26 -1 2 10 -3 17 -13 17 -10 0 -15 -6
-13 -16z"/>
<path d="M11168 10969 c-15 -8 -16 -20 -11 -74 5 -60 4 -65 -14 -65 -10 0 -24
5 -31 12 -9 9 -15 9 -24 0 -21 -21 10 -43 56 -40 37 3 41 6 47 36 4 18 3 49
-1 68 -7 31 -6 36 16 44 13 5 24 14 24 20 0 13 -40 13 -62 -1z"/>
<path d="M11274 10915 c-19 -43 -34 -65 -45 -65 -29 0 -31 -30 -3 -40 38 -15
40 -14 54 33 7 23 21 59 31 79 23 44 24 58 5 58 -8 0 -27 -29 -42 -65z"/>
<path d="M2621 10933 c-49 -60 -35 -112 24 -85 19 9 24 8 28 -9 6 -21 15 -24
37 -8 11 8 12 12 3 16 -10 3 -9 13 2 40 27 63 13 71 -42 22 -19 -16 -38 -27
-42 -24 -3 4 9 20 27 36 32 29 35 49 7 49 -7 0 -27 -17 -44 -37z"/>
<path d="M6719 10941 c-34 -35 -38 -79 -10 -105 25 -23 134 -19 139 5 2 13 -6
15 -50 11 -41 -3 -57 0 -67 12 -11 14 -11 16 3 16 26 0 73 27 80 46 3 9 1 23
-5 30 -19 23 -58 16 -90 -15z m47 -16 c-11 -8 -24 -15 -30 -15 -5 0 -1 7 10
15 10 8 24 14 29 14 6 0 1 -6 -9 -14z"/>
<path d="M10185 10955 c-16 -9 -41 -32 -54 -52 l-23 -36 23 -19 c31 -24 63
-32 95 -24 36 9 25 32 -14 28 -54 -6 -57 9 -8 39 35 22 46 35 46 54 0 29 -20
32 -65 10z"/>
<path d="M10395 10961 c-3 -5 0 -29 7 -54 14 -55 7 -77 -22 -70 -18 5 -21 2
-18 -13 4 -24 50 -31 67 -10 17 20 17 77 1 107 -10 17 -10 24 -1 27 6 2 11 8
11 13 0 12 -37 12 -45 0z"/>
<path d="M4642 10934 c-54 -32 -94 -104 -58 -104 7 0 19 13 25 28 13 30 91 83
91 62 0 -7 -7 -27 -16 -46 -17 -36 -14 -50 9 -41 17 7 51 93 43 112 -8 22 -46
18 -94 -11z"/>
<path d="M8885 10944 c-16 -8 -37 -22 -46 -30 -8 -8 -23 -14 -32 -14 -22 0
-21 -7 3 -58 14 -28 29 -44 47 -48 33 -9 95 7 101 25 4 11 -4 13 -37 7 -41 -6
-81 5 -81 24 0 4 15 13 34 20 42 14 79 52 70 73 -8 21 -21 21 -59 1z"/>
<path d="M10719 10921 c-44 -44 -50 -80 -19 -111 27 -27 72 -25 107 4 15 12
34 21 41 19 7 -3 33 14 57 36 63 58 79 53 54 -18 -8 -24 -8 -36 0 -44 14 -14
41 49 41 98 0 43 -17 52 -59 31 -19 -10 -32 -12 -36 -6 -11 17 -23 11 -33 -17
-6 -16 -17 -37 -26 -48 -15 -19 -15 -19 -16 8 0 35 -18 70 -31 62 -5 -4 -6
-24 -3 -46 5 -32 3 -43 -12 -54 -25 -19 -49 -19 -64 0 -17 21 4 61 42 81 17 9
25 19 22 29 -9 23 -23 18 -65 -24z"/>
<path d="M4472 10890 c-18 -33 -32 -62 -32 -65 0 -14 41 -3 46 13 4 9 15 35
25 56 17 37 17 56 0 56 -4 0 -22 -27 -39 -60z"/>
<path d="M7475 10941 c-3 -3 -22 -4 -42 -3 -37 3 -73 -19 -73 -45 0 -17 10
-16 34 2 13 10 44 15 94 15 54 0 73 3 70 12 -5 13 -74 29 -83 19z"/>
<path d="M11739 10948 c0 -2 -2 -10 -4 -18 -2 -8 -10 -31 -18 -51 -9 -20 -12
-41 -7 -48 10 -16 30 -6 30 16 0 8 7 27 16 43 17 28 14 60 -6 60 -5 0 -10 -1
-11 -2z"/>
<path d="M12410 10770 c-149 -215 -229 -340 -230 -357 -1 -31 24 -7 70 65 26
42 62 95 78 118 63 85 232 338 232 346 0 32 -42 -16 -150 -172z"/>
<path d="M8645 10929 c-32 -19 -75 -62 -75 -76 0 -21 28 -15 45 10 13 20 54
47 70 47 11 0 4 -20 -11 -35 -16 -15 -16 -18 0 -33 23 -23 39 -3 40 50 1 39
-1 43 -24 45 -14 2 -34 -2 -45 -8z"/>
<path d="M3407 10912 c-10 -10 -17 -28 -17 -40 0 -26 41 -39 74 -24 21 9 24 8
24 -16 0 -30 36 -64 58 -55 13 5 12 9 -5 27 -13 13 -21 36 -21 55 0 59 -76 94
-113 53z m63 -21 c0 -12 -39 -25 -48 -16 -7 7 17 25 36 25 6 0 12 -4 12 -9z"/>
<path d="M12367 10923 c-7 -6 -4 -41 9 -100 2 -13 11 -23 19 -23 11 0 13 11 8
53 -5 51 -22 84 -36 70z"/>
<path d="M4794 10899 c-19 -21 -18 -21 5 -41 17 -13 33 -17 49 -13 24 6 25 5
19 -37 -4 -24 -11 -60 -17 -80 -10 -36 -13 -38 -50 -38 -43 0 -79 -26 -81 -57
-6 -85 55 -96 110 -21 17 23 38 43 47 44 45 7 57 34 14 34 -17 0 -17 3 -5 58
13 56 18 99 16 136 -1 12 -7 17 -19 14 -10 -3 -23 1 -30 9 -18 19 -36 16 -58
-8z m26 -246 c0 -10 -52 -63 -62 -63 -12 0 -9 45 4 58 13 13 58 17 58 5z"/>
<path d="M8483 10902 c-17 -14 -19 -22 -12 -41 8 -21 12 -23 24 -10 16 17 31
69 19 69 -5 0 -19 -8 -31 -18z"/>
<path d="M11970 10880 c-23 -46 -26 -70 -6 -70 12 0 46 71 46 98 0 25 -20 11
-40 -28z"/>
<path d="M5597 10874 c-4 -4 -7 -18 -7 -31 0 -26 -65 -103 -87 -103 -16 0 -14
-31 2 -37 19 -6 83 56 105 103 20 40 21 48 8 60 -8 8 -17 11 -21 8z"/>
<path d="M12610 10792 c0 -22 13 -42 27 -42 21 0 12 44 -9 48 -10 2 -18 -1
-18 -6z"/>
<path d="M4100 10514 c-173 -55 -354 -310 -326 -459 9 -48 60 -103 121 -131
41 -20 67 -24 143 -24 58 0 105 5 127 14 39 17 49 43 13 31 -46 -14 -205 -18
-244 -5 -82 26 -134 88 -134 159 0 17 9 55 21 85 58 156 203 290 335 312 34 5
42 3 48 -11 3 -10 0 -22 -7 -29 -16 -13 -41 -121 -32 -136 3 -5 10 -10 15 -10
15 0 48 72 55 123 14 90 -29 115 -135 81z"/>
<path d="M8540 10445 c-6 -8 -9 -19 -5 -25 7 -11 -80 -278 -96 -294 -5 -5 -34
-10 -66 -11 -32 0 -58 -5 -60 -12 -5 -14 68 -27 97 -18 19 6 20 3 13 -32 -11
-65 -6 -96 23 -121 20 -18 33 -22 58 -17 62 13 96 27 96 41 0 17 -1 17 -65 0
-67 -18 -85 -8 -85 47 0 76 7 86 58 89 60 4 70 28 12 28 -36 0 -41 3 -35 18 3
9 8 32 11 50 2 18 10 43 18 55 20 32 68 188 62 204 -7 17 -21 17 -36 -2z"/>
<path d="M5032 10368 c-5 -7 -18 -42 -27 -78 -9 -36 -25 -95 -36 -132 l-20
-67 -46 -3 c-63 -4 -71 -28 -9 -28 l45 0 3 -47 c3 -41 6 -48 26 -51 24 -4 52
13 52 30 0 6 -11 7 -25 4 -23 -6 -25 -4 -25 28 0 33 1 34 50 40 49 7 66 18 56
35 -4 6 -20 5 -42 0 -19 -6 -39 -9 -43 -7 -4 2 5 48 21 103 16 55 27 108 24
118 -2 9 -1 17 4 17 12 0 22 32 12 42 -5 5 -13 3 -20 -4z"/>
<path d="M2980 10330 c-11 -22 -18 -46 -14 -52 4 -6 3 -8 -3 -5 -6 4 -15 -5
-22 -20 l-12 -26 -104 5 c-83 4 -105 2 -105 -8 0 -8 12 -16 28 -20 40 -9 115
-36 129 -47 10 -7 8 -18 -7 -47 -15 -29 -37 -48 -94 -79 -86 -48 -107 -67 -81
-77 28 -11 95 14 95 35 0 11 7 21 15 25 12 4 13 2 3 -14 -7 -10 -9 -22 -6 -26
13 -13 37 5 57 43 12 25 33 45 57 57 l38 18 28 -31 c18 -21 28 -42 28 -64 0
-48 19 -107 34 -107 30 0 29 65 -1 137 -7 18 -13 49 -13 68 0 34 3 38 57 62
157 72 209 137 83 104 -19 -5 -58 -12 -87 -16 l-52 -7 -3 63 c-4 76 -19 85
-48 29z m8 -91 c-18 -12 -22 5 -6 33 l13 23 3 -24 c2 -13 -2 -27 -10 -32z
m103 -45 c-64 -29 -61 -29 -61 -5 0 15 8 21 38 24 74 7 76 5 23 -19z m-181 -4
c0 -13 -11 -13 -30 0 -12 8 -11 10 8 10 12 0 22 -4 22 -10z m90 -15 c0 -31
-36 -53 -56 -33 -23 22 -6 58 27 58 24 0 29 -4 29 -25z m-76 -54 c3 -5 -1 -11
-9 -14 -9 -4 -12 -1 -8 9 6 16 10 17 17 5z m76 -21 c0 -5 -2 -10 -4 -10 -3 0
-8 5 -11 10 -3 6 -1 10 4 10 6 0 11 -4 11 -10z"/>
<path d="M12695 10349 c-4 -6 -2 -15 5 -19 19 -11 6 -63 -55 -232 -58 -159
-69 -213 -45 -213 9 0 17 15 21 40 4 22 28 94 52 160 54 142 70 202 65 241 -3
30 -30 45 -43 23z"/>
<path d="M9955 10338 c-2 -7 -6 -31 -10 -53 -4 -22 -20 -83 -37 -135 -17 -52
-31 -99 -33 -105 -1 -5 -7 -23 -14 -40 -39 -94 -19 -116 47 -53 54 51 101 88
113 88 5 0 4 -12 -1 -26 -11 -28 -13 -87 -4 -97 10 -10 34 4 27 16 -8 13 -10
66 -2 61 8 -5 29 67 23 78 -15 24 -80 -6 -143 -66 -24 -22 -42 -36 -39 -31 5
9 65 193 74 225 15 56 31 136 27 143 -7 11 -23 8 -28 -5z"/>
<path d="M8696 10321 c-18 -20 -13 -47 6 -35 18 12 3 -112 -27 -214 -36 -123
-29 -140 33 -79 26 26 53 47 60 47 6 0 14 -12 18 -27 10 -48 13 -53 29 -53 17
0 20 16 5 25 -5 3 -7 11 -4 19 3 7 0 25 -5 39 -14 36 -55 36 -93 0 l-28 -26
25 89 c40 146 29 268 -19 215z"/>
<path d="M6486 10243 c-16 -65 -29 -113 -41 -160 -25 -95 -25 -183 1 -183 10
0 14 16 14 63 0 39 13 111 35 194 40 150 40 153 21 153 -8 0 -20 -26 -30 -67z"/>
<path d="M9261 10276 c-9 -10 -8 -16 3 -25 12 -10 17 -8 25 7 16 30 -6 44 -28
18z"/>
<path d="M9219 10178 c-11 -40 -24 -77 -28 -81 -4 -4 -29 -8 -54 -9 -31 0 -47
-5 -47 -13 0 -18 25 -26 59 -19 27 6 28 4 34 -36 7 -57 32 -82 76 -78 44 4 55
28 12 28 -21 0 -35 7 -46 24 -21 32 -11 76 19 76 34 0 53 17 38 32 -9 9 -12 9
-12 0 0 -14 -10 -15 -27 -4 -10 6 -8 23 7 72 10 35 17 67 14 72 -13 20 -25 3
-45 -64z"/>
<path d="M12040 10174 c0 -33 33 -30 38 4 3 17 -2 22 -17 22 -16 0 -21 -6 -21
-26z"/>
<path d="M5160 10176 c0 -12 29 -44 31 -35 7 34 4 49 -13 49 -10 0 -18 -6 -18
-14z"/>
<path d="M4325 10116 c-20 -19 -42 -33 -50 -30 -8 4 -15 -7 -19 -33 -4 -21 -9
-50 -12 -65 -10 -49 24 -34 48 20 27 63 77 116 95 101 9 -8 14 -7 19 4 3 9 3
21 -1 27 -12 19 -44 10 -80 -24z"/>
<path d="M11773 10125 c-39 -17 -41 -31 -9 -66 30 -33 55 -80 49 -96 -3 -7
-16 -13 -29 -13 -24 0 -32 14 -14 25 18 11 10 26 -12 23 -16 -2 -24 -11 -26
-30 -7 -57 79 -72 107 -19 17 31 13 46 -24 95 -19 26 -35 48 -35 51 0 3 15 5
34 5 41 0 54 15 27 29 -25 14 -29 13 -68 -4z"/>
<path d="M6194 10119 c-33 -9 -84 -54 -84 -73 0 -26 32 -54 74 -65 56 -14 102
-14 127 0 32 17 12 28 -39 22 -54 -6 -122 17 -122 41 0 24 46 49 80 44 37 -6
50 10 25 29 -21 15 -19 15 -61 2z"/>
<path d="M4486 10077 c-35 -46 -36 -110 -2 -132 32 -21 100 -16 104 8 3 15 -2
17 -35 11 -29 -4 -42 -2 -52 10 -12 14 -10 16 13 16 29 0 67 49 61 78 -2 10
-4 23 -4 30 -1 7 -14 12 -30 12 -22 0 -37 -9 -55 -33z m44 -42 c-13 -15 -40
-21 -40 -8 0 4 10 18 23 31 18 20 23 21 25 7 2 -9 -2 -22 -8 -30z"/>
<path d="M6800 10091 l-24 -19 17 -55 c9 -29 17 -57 17 -61 0 -4 -17 -6 -37
-4 -28 2 -38 -1 -38 -12 0 -11 13 -16 48 -18 57 -4 66 10 49 74 -6 24 -13 49
-14 56 -2 7 12 19 30 27 17 8 32 18 32 23 0 15 -55 8 -80 -11z"/>
<path d="M11254 10100 c-32 -13 -54 -50 -54 -92 0 -66 48 -68 102 -3 16 19 17
18 12 -30 -4 -35 -1 -56 9 -69 18 -25 39 -13 28 16 -4 12 -6 54 -3 92 5 66 4
69 -16 64 -15 -4 -23 0 -27 13 -7 21 -18 23 -51 9z m48 -44 c17 10 -10 -25
-37 -48 -27 -24 -35 -22 -35 6 0 33 27 61 46 45 7 -6 19 -7 26 -3z"/>
<path d="M12162 10090 c-29 -18 -112 -130 -112 -152 0 -26 32 0 64 52 21 33
50 67 66 75 l28 14 -8 -32 c-5 -18 -14 -46 -21 -63 -12 -31 -5 -75 10 -58 9
11 36 86 45 127 7 29 -7 57 -28 57 -6 0 -26 -9 -44 -20z"/>
<path d="M12841 10081 c-83 -89 -73 -202 17 -187 45 7 127 48 121 61 -5 12 -9
11 -78 -14 -57 -20 -76 -19 -85 5 -9 23 4 41 32 47 67 13 107 83 63 107 -30
15 -41 13 -70 -19z m59 -21 c0 -5 -13 -16 -30 -25 -33 -17 -38 -11 -13 17 17
19 43 24 43 8z"/>
<path d="M6992 10083 c-6 -12 -5 -35 3 -68 13 -48 7 -74 -13 -61 -6 3 -8 15
-5 25 4 16 1 19 -15 14 -49 -12 -22 -73 33 -73 40 0 50 23 36 86 -14 60 -8 80
15 50 19 -26 45 -6 28 22 -16 24 -70 28 -82 5z"/>
<path d="M7403 10078 c-33 -16 -29 -48 12 -101 37 -48 43 -67 23 -67 -24 0
-39 16 -32 34 5 14 3 17 -12 14 -28 -5 -29 -43 -2 -62 41 -29 88 -15 88 27 0
10 -16 39 -35 64 -38 49 -42 62 -22 64 6 1 22 3 35 4 30 3 40 14 22 25 -19 12
-49 11 -77 -2z"/>
<path d="M4639 10049 c-16 -17 -29 -39 -29 -49 0 -25 29 -33 56 -15 23 15 24
15 24 -12 0 -38 14 -57 35 -49 14 5 15 9 5 21 -8 10 -10 30 -5 61 5 38 3 48
-12 60 -27 20 -42 17 -74 -17z m41 -13 c0 -2 -7 -9 -15 -16 -13 -11 -14 -10
-9 4 5 14 24 23 24 12z"/>
<path d="M7148 10048 c-28 -40 -30 -98 -4 -127 38 -42 136 -52 136 -15 0 12
-6 15 -24 10 -33 -8 -86 13 -95 38 -7 17 -3 23 20 33 30 12 54 56 45 80 -10
25 -54 15 -78 -19z m42 -18 c0 -5 -5 -10 -11 -10 -5 0 -7 5 -4 10 3 6 8 10 11
10 2 0 4 -4 4 -10z"/>
<path d="M10371 10021 c-13 -33 -31 -67 -41 -76 -16 -15 -18 -15 -24 0 -3 9
-6 27 -6 41 0 17 -4 22 -15 18 -34 -13 -7 -104 30 -104 24 0 62 49 85 108 11
28 17 32 37 27 25 -6 63 9 63 26 0 5 -12 9 -27 8 -16 -1 -40 1 -54 5 -24 7
-27 4 -48 -53z"/>
<path d="M10599 10065 c-14 -7 -34 -30 -44 -50 -20 -35 -20 -36 0 -73 23 -43
62 -65 117 -64 37 1 108 35 108 52 0 18 -17 18 -46 -1 -45 -29 -122 -22 -146
15 -13 20 -9 26 33 42 41 17 64 50 53 79 -8 19 -41 19 -75 0z m27 -41 c-30
-21 -44 -16 -17 7 13 11 27 17 30 13 3 -3 -3 -12 -13 -20z"/>
<path d="M5501 10057 c-34 -17 -65 -62 -57 -82 8 -21 46 -14 87 16 27 19 27
19 32 -4 3 -12 9 -62 13 -110 l7 -88 -72 7 c-61 6 -74 4 -91 -11 -49 -44 2
-185 66 -185 26 0 64 41 90 99 14 28 26 41 43 43 30 4 41 28 13 28 -17 0 -20
10 -26 103 -8 133 -20 175 -52 187 -30 12 -24 12 -53 -3z m13 -42 c-29 -22
-42 -17 -15 6 13 11 26 17 29 14 3 -3 -3 -12 -14 -20z m44 -260 c11 -10 -10
-54 -43 -90 l-35 -40 -20 23 c-22 26 -36 83 -26 108 5 14 16 16 63 10 31 -4
59 -9 61 -11z"/>
<path d="M6566 10044 c-30 -31 -31 -37 -10 -58 18 -19 24 -19 58 -6 20 7 26 6
26 -4 0 -7 7 -19 15 -26 13 -11 18 -11 28 0 9 10 9 13 0 17 -7 3 -13 18 -13
35 0 32 -32 67 -61 68 -9 0 -28 -12 -43 -26z m54 -19 c0 -9 -9 -15 -21 -15
-18 0 -19 2 -9 15 7 8 16 15 21 15 5 0 9 -7 9 -15z"/>
<path d="M12282 10063 c-15 -6 -42 -55 -42 -78 0 -8 11 -20 25 -27 28 -13 75
2 112 35 13 11 25 18 28 15 22 -21 22 -203 1 -237 -4 -6 -23 -2 -49 9 -66 30
-119 35 -155 16 -38 -19 -41 -44 -12 -91 63 -102 186 -79 240 46 40 94 30 259
-19 303 -18 16 -20 16 -37 -12 -18 -31 -78 -67 -95 -57 -13 9 8 45 26 45 18 0
20 26 3 32 -7 3 -19 3 -26 1z m56 -310 c23 -8 42 -19 42 -23 0 -5 -14 -20 -31
-34 -44 -37 -80 -34 -118 9 -36 41 -38 50 -13 65 20 12 59 7 120 -17z"/>
<path d="M5229 10021 c-40 -40 -51 -71 -24 -71 9 0 18 8 22 18 9 26 34 52 50
52 11 0 14 -11 11 -42 -2 -34 0 -43 15 -46 14 -3 17 4 17 50 0 88 -30 100 -91
39z"/>
<path d="M8884 10035 c-22 -34 -15 -59 19 -63 15 -2 27 1 27 6 0 6 9 8 20 5
11 -3 17 -9 15 -14 -10 -14 7 -59 21 -59 25 0 17 79 -12 117 -31 40 -66 44
-90 8z m60 -14 c3 -5 -1 -12 -10 -15 -27 -11 -37 -7 -24 9 14 17 26 19 34 6z"/>
<path d="M10124 10027 c-26 -24 -36 -41 -37 -67 -2 -44 20 -50 60 -16 l31 26
6 -30 c10 -53 32 -36 32 25 0 66 -14 71 -63 23 -18 -18 -33 -26 -33 -19 0 13
48 61 61 61 15 0 10 18 -6 24 -10 3 -30 -7 -51 -27z"/>
<path d="M10270 10035 c0 -18 4 -23 15 -19 8 4 15 15 15 25 0 10 -7 19 -15 19
-9 0 -15 -9 -15 -25z"/>
<path d="M11967 9998 c-16 -50 -15 -68 3 -68 8 0 40 84 40 107 0 33 -28 8 -43
-39z"/>
<path d="M5117 10010 c-7 -27 3 -62 17 -57 18 6 20 77 3 77 -8 0 -17 -9 -20
-20z"/>
<path d="M3265 9898 c-39 -14 -122 -68 -159 -102 -21 -20 -26 -30 -18 -38 8
-8 19 -4 38 15 15 15 29 25 32 23 6 -7 -27 -151 -74 -320 -10 -36 -11 -53 -3
-63 16 -18 29 -7 29 24 0 28 38 164 48 175 4 3 25 8 47 10 35 3 42 -1 63 -32
21 -31 23 -44 20 -114 -2 -55 1 -80 9 -83 7 -3 14 14 19 44 13 78 8 119 -18
165 l-24 44 38 29 c21 17 56 56 78 89 39 56 48 89 32 112 -22 33 -97 43 -157
22z m120 -32 c19 -14 19 -16 3 -50 -19 -40 -78 -107 -118 -136 -23 -16 -33
-18 -63 -9 -42 11 -43 15 -22 83 11 35 12 52 4 56 -11 7 35 40 82 59 36 14 93
13 114 -3z"/>
<path d="M5734 9873 c-7 -39 -62 -159 -134 -293 -44 -83 -51 -120 -21 -120 10
0 21 7 25 15 3 8 1 15 -4 15 -14 0 0 33 59 138 89 160 131 282 98 282 -11 0
-18 -13 -23 -37z"/>
<path d="M5031 9783 c-19 -53 -56 -145 -82 -203 -29 -65 -44 -109 -38 -115 6
-6 15 -3 26 7 15 15 17 15 32 -3 34 -43 113 -20 151 44 25 40 25 59 2 80 -26
24 -63 21 -107 -9 -31 -21 -36 -22 -30 -7 43 105 105 275 105 288 0 8 -6 15
-12 15 -7 0 -28 -44 -47 -97z m74 -213 c7 -12 -19 -58 -44 -77 -20 -15 -58
-17 -66 -2 -4 6 1 16 11 23 9 7 14 18 10 24 -4 6 5 18 21 26 33 18 59 20 68 6z"/>
<path d="M6065 9776 c-25 -51 -51 -98 -58 -104 -7 -6 -34 -14 -61 -19 -58 -10
-58 -29 0 -27 l40 2 -30 -57 c-20 -39 -27 -63 -22 -77 7 -17 10 -15 26 16 11
19 19 43 20 53 0 9 4 17 8 17 5 0 15 11 22 25 8 16 22 25 37 25 29 0 43 30 21
44 -14 9 -11 20 27 97 41 80 45 99 23 99 -5 0 -29 -42 -53 -94z"/>
<path d="M7145 9751 l-57 -39 -34 23 c-45 31 -94 42 -105 24 -13 -21 -11 -30
10 -36 11 -3 24 -18 30 -34 9 -27 8 -31 -27 -53 -20 -13 -56 -33 -80 -45 -24
-12 -41 -27 -39 -34 5 -15 75 -10 129 9 22 8 42 14 45 14 2 0 13 -21 24 -46
21 -47 43 -54 45 -13 3 74 9 80 93 89 40 4 75 10 78 13 11 11 -9 26 -57 42
l-50 17 35 41 c19 22 35 44 35 48 0 21 -23 15 -75 -20z m-106 -44 c6 -8 8 -17
4 -20 -11 -12 -21 -7 -26 13 -6 23 5 26 22 7z m61 -46 c0 -15 -30 -41 -46 -41
-20 0 -18 27 4 39 22 13 42 14 42 2z m57 -17 c-3 -3 -12 -4 -19 -1 -8 3 -5 6
6 6 11 1 17 -2 13 -5z m-157 -34 c-24 -15 -36 -11 -14 4 10 8 21 12 24 10 2
-3 -2 -9 -10 -14z"/>
<path d="M5846 9733 c-12 -12 -6 -33 9 -33 8 0 15 6 15 14 0 17 -14 28 -24 19z"/>
<path d="M5285 9710 c-9 -15 2 -27 30 -32 33 -7 39 1 18 24 -18 20 -38 23 -48
8z"/>
<path d="M4655 9686 c-17 -13 -18 -15 -2 -55 22 -54 23 -121 1 -121 -11 0 -14
6 -9 20 5 16 2 20 -15 20 -30 0 -62 -19 -54 -32 4 -5 27 -19 51 -30 35 -15 47
-17 59 -8 17 15 19 105 4 146 -13 32 -6 42 15 24 11 -9 19 -10 26 -3 7 7 2 17
-17 32 -32 25 -34 25 -59 7z"/>
<path d="M4417 9666 c-21 -13 -47 -22 -56 -19 -13 3 -27 -11 -54 -57 -61 -101
-46 -108 41 -20 33 33 65 60 70 60 6 0 4 -19 -4 -46 -19 -65 -4 -98 48 -102
28 -2 39 1 47 16 13 25 4 34 -19 20 -25 -16 -50 -3 -50 25 0 13 9 49 19 80 26
74 20 81 -42 43z"/>
<path d="M4840 9676 c0 -18 16 -29 30 -21 13 8 1 35 -16 35 -8 0 -14 -6 -14
-14z"/>
<path d="M3924 9661 c-18 -11 -35 -25 -39 -31 -4 -6 -18 -15 -31 -20 -13 -5
-24 -17 -24 -26 0 -8 -15 -48 -34 -87 -19 -40 -40 -99 -46 -131 -7 -33 -17
-70 -23 -83 -7 -17 -7 -27 0 -34 13 -13 46 47 82 147 21 56 24 60 50 56 57 -8
156 66 167 125 8 42 -11 89 -39 97 -30 8 -28 8 -63 -13z m72 -46 c8 -33 -15
-75 -55 -102 -67 -45 -113 -41 -86 7 7 14 21 40 29 57 16 36 71 74 92 66 8 -3
17 -16 20 -28z"/>
<path d="M6264 9595 c-75 -94 -90 -97 -97 -19 -4 45 -13 64 -28 64 -6 0 -8
-28 -5 -72 3 -55 8 -73 20 -78 13 -4 0 -27 -62 -107 -82 -104 -134 -188 -124
-197 13 -14 31 -4 43 26 17 41 98 150 237 318 62 74 112 138 112 142 0 27 -37
-3 -96 -77z"/>
<path d="M3663 9660 c-13 -5 -23 -13 -23 -16 0 -4 16 -31 36 -60 30 -44 35
-56 25 -68 -14 -17 -41 -10 -41 10 0 19 -19 18 -27 -1 -7 -19 24 -55 46 -55
29 0 61 30 61 57 0 14 -11 41 -25 59 -34 44 -32 56 8 52 23 -2 32 1 32 12 0
18 -58 24 -92 10z"/>
<path d="M4134 9642 c-26 -22 -49 -59 -58 -94 -8 -36 24 -72 57 -62 32 9 46
23 67 63 19 40 13 74 -18 97 -22 17 -23 17 -48 -4z m36 -42 c12 -8 12 -13 -3
-44 -11 -24 -24 -36 -37 -36 -25 0 -27 30 -4 65 18 28 22 29 44 15z"/>
<path d="M3427 9623 c-48 -38 -61 -66 -47 -109 14 -41 54 -64 107 -63 61 2 88
13 91 37 4 26 3 26 -34 7 -97 -50 -184 36 -101 99 38 29 78 37 57 11 -6 -8
-27 -20 -46 -27 -39 -14 -45 -38 -9 -38 30 0 96 56 93 79 -7 40 -61 42 -111 4z"/>
<path d="M5717 9585 c-21 -44 -21 -55 -2 -55 13 0 45 58 45 81 0 23 -28 5 -43
-26z"/>
<path d="M5231 9564 c-26 -59 -31 -99 -11 -99 8 0 17 13 20 30 4 17 14 45 24
63 16 31 15 52 -4 52 -5 0 -18 -21 -29 -46z"/>
<path d="M4787 9559 c-16 -22 -14 -39 3 -39 5 0 14 9 21 21 16 31 -4 47 -24
18z"/>
<path d="M4755 9500 c-8 -27 10 -49 26 -33 13 13 8 45 -8 50 -6 2 -14 -6 -18
-17z"/>
<path d="M14155 9159 c-41 -36 -181 -232 -232 -327 -35 -62 -44 -68 -107 -74
-16 -2 -31 -9 -34 -17 -3 -10 6 -12 42 -10 25 2 46 2 46 0 0 -2 -18 -36 -40
-76 -41 -75 -49 -106 -27 -104 6 0 33 42 58 92 40 78 52 93 78 101 34 10 42
36 11 36 -20 0 -20 0 1 43 34 65 205 300 235 321 27 19 27 19 21 0 -19 -63
-19 -64 -4 -64 21 0 48 70 36 93 -14 26 -44 21 -84 -14z"/>
<path d="M7340 9096 c-5 -15 -10 -33 -10 -39 0 -7 -25 -73 -56 -147 -80 -196
-124 -323 -113 -334 5 -6 30 14 64 51 30 33 64 63 75 66 11 3 20 4 20 3 0 -1
-7 -26 -15 -54 -9 -29 -13 -57 -10 -62 11 -18 35 -11 35 10 0 11 5 40 12 64 9
36 9 48 -2 61 -16 19 -54 13 -85 -14 -54 -48 -52 -40 31 154 64 152 91 242 76
257 -8 8 -14 5 -22 -16z"/>
<path d="M7194 9083 c-3 -15 -10 -43 -16 -61 -5 -18 -11 -39 -12 -45 -1 -7 -7
-21 -13 -32 -6 -11 -20 -49 -32 -85 -31 -93 -30 -93 -102 -94 -42 -1 -64 -5
-67 -14 -3 -10 10 -13 52 -11 31 1 59 0 62 -4 8 -8 -26 -97 -38 -97 -5 0 -8
-12 -6 -27 5 -46 30 -33 50 26 10 30 16 56 14 59 -10 10 31 41 59 44 37 4 40
22 4 26 l-26 3 20 62 c11 34 26 73 32 87 18 37 38 101 40 130 1 14 4 31 6 39
2 7 -1 16 -8 18 -7 3 -15 -8 -19 -24z"/>
<path d="M9952 9033 c-22 -37 -54 -96 -71 -130 -32 -64 -50 -77 -101 -71 -42
5 -31 -26 11 -32 l37 -5 -29 -70 c-22 -52 -28 -81 -25 -114 4 -51 28 -81 52
-66 18 11 15 31 -3 29 -7 -1 -15 13 -19 31 -4 24 3 55 28 116 32 81 34 84 71
90 42 7 52 13 42 28 -3 6 -17 8 -32 5 -23 -6 -25 -5 -19 12 5 10 11 28 14 39
3 11 8 22 12 25 4 3 26 40 50 83 29 54 39 82 32 89 -7 7 -23 -12 -50 -59z"/>
<path d="M2711 9021 c-11 -15 -49 -63 -84 -105 -35 -42 -70 -89 -78 -104 -8
-15 -19 -31 -25 -37 -28 -27 -124 -163 -126 -180 -4 -27 14 -32 27 -9 5 10 29
47 53 81 42 61 44 62 67 47 18 -12 24 -12 28 -2 3 8 6 9 6 2 1 -9 13 -9 42 -3
23 6 44 8 46 5 3 -2 -7 -44 -21 -93 -30 -102 -30 -103 -12 -103 8 0 24 35 42
95 27 91 29 95 57 95 34 0 33 23 -1 28 -12 2 -22 4 -22 5 0 1 9 36 20 77 11
41 23 110 27 153 5 66 4 77 -10 77 -9 0 -25 -13 -36 -29z m-2 -156 c-24 -115
-29 -122 -94 -125 -60 -3 -75 -1 -75 10 0 6 8 18 18 29 9 10 51 62 92 115 41
53 76 92 78 86 2 -6 -6 -57 -19 -115z"/>
<path d="M5516 9018 c-2 -7 -9 -40 -16 -73 -16 -80 -63 -237 -89 -303 -25 -63
-28 -112 -6 -112 9 0 15 9 15 24 0 13 16 67 35 120 41 115 98 333 90 347 -9
13 -25 11 -29 -3z"/>
<path d="M12185 9018 c-2 -7 -17 -58 -33 -113 -16 -55 -49 -155 -73 -222 -35
-97 -41 -125 -32 -134 15 -15 22 -10 27 18 2 11 36 113 74 227 39 115 68 214
65 222 -6 17 -22 18 -28 2z"/>
<path d="M14470 8999 c0 -11 -26 -68 -59 -127 -104 -190 -152 -293 -149 -320
4 -34 28 -42 28 -9 0 35 17 71 118 258 101 186 113 219 82 219 -14 0 -20 -7
-20 -21z"/>
<path d="M5758 8978 c-22 -35 -54 -116 -73 -184 -16 -57 -18 -60 -44 -56 -62
9 -120 -82 -87 -133 39 -59 105 -12 137 99 52 178 70 224 89 229 23 6 27 39 6
56 -10 9 -17 6 -28 -11z m-118 -277 c0 -5 3 -16 6 -25 6 -15 -36 -66 -54 -66
-30 0 -12 80 20 93 20 8 28 8 28 -2z"/>
<path d="M4864 8933 c-4 -27 -18 -79 -31 -118 -13 -38 -31 -91 -39 -117 -8
-26 -19 -50 -24 -53 -12 -8 -13 -45 -1 -45 4 0 31 23 60 52 28 28 53 49 56 47
2 -3 -2 -27 -11 -54 -14 -49 -12 -81 5 -71 11 7 41 98 41 126 0 29 -28 37 -62
17 -26 -15 -27 -15 -24 1 1 9 8 30 15 47 19 46 51 167 51 192 0 13 -6 23 -14
23 -10 0 -17 -16 -22 -47z"/>
<path d="M9148 8973 c-3 -4 -6 -26 -7 -48 -1 -26 -27 -92 -71 -185 -39 -80
-70 -155 -70 -166 0 -30 24 -48 39 -30 9 10 9 16 1 21 -15 9 -8 28 67 182 46
94 64 145 65 174 0 38 -14 71 -24 52z"/>
<path d="M11887 8961 c-2 -11 0 -24 7 -31 8 -8 6 -9 -8 -4 -16 6 -18 4 -13 -9
3 -9 3 -17 -2 -17 -4 0 -27 -51 -51 -114 -30 -78 -50 -116 -62 -119 -38 -10
-10 -52 47 -71 32 -11 46 -12 70 -2 34 14 58 67 45 101 -8 23 -56 33 -73 16
-6 -6 -18 -11 -26 -11 -10 0 -12 3 -5 8 6 4 23 41 39 82 15 41 36 94 46 117
11 24 19 50 19 58 0 22 -27 18 -33 -4z m3 -294 c0 -31 -18 -47 -51 -47 -41 0
-43 15 -7 44 41 32 58 33 58 3z"/>
<path d="M6372 8944 c-5 -10 -20 -55 -32 -98 -33 -120 -37 -126 -80 -126 -47
0 -80 -33 -87 -89 -5 -37 -3 -41 22 -51 21 -8 33 -7 50 4 29 19 88 135 115
226 12 41 28 85 36 96 11 18 11 25 0 40 -13 17 -14 17 -24 -2z m-113 -294
c-33 -58 -78 -55 -48 3 15 27 28 37 52 37 17 0 17 -3 -4 -40z"/>
<path d="M9267 8848 c-30 -57 -67 -129 -81 -162 -29 -66 -35 -126 -11 -126 10
0 15 10 15 34 0 23 26 85 77 185 53 106 73 155 66 162 -7 7 -27 -21 -66 -93z"/>
<path d="M3430 8895 c0 -20 -16 -76 -35 -126 -50 -127 -66 -194 -55 -225 14
-35 30 -21 30 25 0 35 38 159 74 243 21 49 22 118 1 118 -10 0 -15 -11 -15
-35z"/>
<path d="M10779 8840 c-23 -24 -36 -46 -33 -55 4 -9 0 -15 -10 -15 -9 0 -16
-4 -16 -9 0 -4 -10 -21 -22 -36 -12 -16 -23 -35 -25 -44 -1 -9 -20 -69 -43
-134 -38 -109 -42 -137 -21 -137 11 0 46 81 72 165 l20 65 42 0 c77 0 114 46
124 156 5 51 3 68 -8 75 -25 16 -42 10 -80 -31z m54 -73 c-15 -59 -47 -97 -80
-97 -47 0 -24 68 51 148 26 27 31 30 36 16 4 -9 0 -40 -7 -67z"/>
<path d="M11623 8865 c-3 -9 -3 -18 0 -21 10 -10 47 7 47 22 0 19 -39 18 -47
-1z"/>
<path d="M8301 8809 c-21 -8 -23 -13 -17 -52 20 -125 20 -136 -5 -145 -37 -14
-59 -3 -59 29 0 22 -5 29 -19 29 -30 0 -33 -15 -13 -51 24 -43 69 -56 113 -33
l32 16 -6 71 c-3 40 -8 80 -12 89 -10 26 43 37 61 13 12 -16 34 -13 34 5 0 33
-59 49 -109 29z"/>
<path d="M3926 8797 c-17 -12 -17 -16 0 -78 9 -36 14 -73 11 -82 -9 -23 -39
-21 -70 3 -28 22 -61 27 -55 8 3 -7 20 -23 38 -36 44 -29 86 -26 113 10 19 25
19 28 3 74 -22 64 -21 84 5 84 11 0 29 -5 39 -10 24 -13 37 5 20 25 -15 18
-80 19 -104 2z"/>
<path d="M13210 8788 c-12 -13 -28 -35 -35 -49 -16 -30 -157 -139 -181 -139
-8 0 -14 -6 -12 -12 9 -27 41 -18 100 26 59 44 63 45 70 26 11 -31 34 -34 73
-11 45 27 47 26 35 -5 -6 -14 -10 -37 -10 -50 0 -38 32 -27 35 12 1 16 12 52
24 79 28 64 14 79 -34 37 -19 -18 -49 -39 -65 -47 -29 -15 -30 -15 -30 9 0 13
11 38 25 54 14 17 25 35 25 41 0 6 5 11 10 11 13 0 13 27 1 35 -6 3 -19 -5
-31 -17z"/>
<path d="M3767 8788 c-36 -13 -44 -48 -22 -104 10 -27 14 -49 8 -55 -12 -12
-53 1 -53 17 0 8 -7 14 -15 14 -9 0 -15 -9 -15 -25 0 -19 7 -26 39 -36 73 -22
101 19 65 95 -19 40 -13 66 15 66 25 0 35 15 18 28 -8 6 -22 6 -40 0z"/>
<path d="M11382 8783 c-7 -11 -4 -37 8 -80 16 -53 16 -63 4 -63 -8 0 -19 11
-24 25 -11 28 -28 33 -36 11 -9 -22 12 -52 46 -66 27 -11 34 -11 47 3 15 15
15 21 0 76 -23 81 -22 84 12 66 39 -19 54 0 21 27 -28 23 -66 23 -78 1z"/>
<path d="M7442 8777 c-33 -19 -72 -81 -72 -115 0 -33 31 -78 60 -87 23 -7 116
31 124 51 9 23 -11 25 -46 4 -42 -26 -84 -26 -98 -1 -13 25 -13 31 0 31 6 0
28 12 50 26 42 28 54 66 28 92 -15 15 -17 15 -46 -1z m28 -36 c0 -12 -42 -42
-49 -36 -5 6 29 45 41 45 4 0 8 -4 8 -9z"/>
<path d="M11213 8780 c-28 -11 -29 -30 -3 -72 11 -18 20 -39 20 -45 0 -18 -36
-16 -55 3 -18 19 -47 11 -39 -10 8 -20 56 -38 90 -34 23 2 30 9 32 31 2 15 -6
43 -16 62 -20 33 -20 33 0 38 11 3 18 11 16 18 -6 17 -19 19 -45 9z"/>
<path d="M12230 8768 c-43 -29 -60 -61 -60 -115 0 -78 55 -104 130 -62 38 21
51 42 43 67 -7 20 -33 14 -33 -9 0 -25 -66 -56 -90 -41 -30 19 -22 40 22 60
56 25 80 53 76 89 -4 37 -42 42 -88 11z m60 -17 c0 -11 -58 -61 -71 -61 -23 0
2 40 36 58 25 14 35 15 35 3z"/>
<path d="M13475 8782 c-37 -8 -47 -24 -44 -71 3 -88 1 -101 -22 -101 -15 0
-19 5 -17 22 4 28 -18 35 -32 9 -7 -14 -8 -27 -1 -40 12 -21 58 -33 82 -20 19
10 31 80 22 133 -5 34 -4 36 21 36 16 0 26 6 26 14 0 19 -10 24 -35 18z"/>
<path d="M4604 8765 c-4 -8 0 -44 7 -80 16 -80 5 -99 -39 -74 -20 11 -27 23
-27 44 0 34 -21 40 -39 13 -8 -13 -6 -24 10 -45 32 -43 67 -59 101 -47 33 11
41 51 23 122 -12 50 -9 60 13 37 19 -19 37 -20 37 -2 0 37 -74 64 -86 32z"/>
<path d="M9580 8773 c-33 -12 -39 -32 -25 -83 7 -28 9 -52 5 -55 -11 -7 -40 5
-40 16 0 5 -7 9 -15 9 -26 0 -17 -40 11 -50 34 -13 47 -13 68 3 17 13 18 18 6
66 -13 57 -11 64 23 66 12 1 22 8 22 16 0 15 -30 22 -55 12z"/>
<path d="M5027 8763 c-14 -13 -6 -33 13 -33 18 0 40 -26 40 -49 0 -17 -38 -51
-56 -51 -17 0 -16 22 1 63 5 12 3 17 -9 17 -35 0 -51 -91 -18 -109 40 -21 129
50 116 93 -8 26 -54 76 -69 76 -7 0 -15 -3 -18 -7z"/>
<path d="M8483 8743 c-4 -16 -8 -30 -8 -33 -1 -3 -9 -22 -18 -44 -9 -21 -17
-42 -17 -47 0 -20 30 -7 69 31 22 22 43 40 45 40 2 0 1 -11 -2 -25 -6 -32 16
-33 55 -2 70 56 65 58 57 -16 -6 -55 -4 -67 8 -67 10 0 17 20 25 73 5 39 8 78
5 85 -7 19 -32 14 -69 -14 -32 -24 -33 -24 -33 -5 0 29 -26 27 -68 -6 -39 -29
-37 -32 -16 37 5 14 2 20 -10 20 -9 0 -19 -12 -23 -27z"/>
<path d="M9310 8740 c-40 -43 -49 -89 -22 -111 34 -27 93 -34 109 -13 18 25 6
36 -32 28 -54 -10 -62 5 -16 33 40 23 60 60 46 82 -13 21 -57 11 -85 -19z m45
-20 c-10 -11 -23 -20 -28 -20 -6 0 -2 9 8 20 10 11 23 20 28 20 6 0 2 -9 -8
-20z"/>
<path d="M10980 8760 c-8 -5 -12 -10 -7 -10 4 0 -2 -9 -13 -20 -13 -13 -20
-33 -20 -58 0 -68 38 -81 95 -31 40 36 44 64 14 103 -21 27 -44 32 -69 16z
m41 -40 c24 -13 24 -25 -1 -50 -39 -39 -67 -11 -40 41 12 22 15 23 41 9z"/>
<path d="M3500 8711 c-59 -56 -48 -112 16 -83 23 11 29 7 26 -20 -1 -3 5 -12
14 -19 20 -16 43 3 27 23 -6 8 -7 21 -2 33 11 28 11 65 0 65 -5 0 -24 -12 -41
-26 -17 -15 -33 -24 -36 -21 -3 3 11 18 30 34 40 31 43 38 21 47 -9 3 -31 -10
-55 -33z"/>
<path d="M8812 8717 c-31 -32 -42 -70 -22 -82 5 -3 30 3 54 14 l45 19 3 -46
c2 -26 8 -47 13 -47 14 0 25 147 12 163 -19 24 -71 14 -105 -21z m73 -7 c-8
-13 -66 -43 -71 -37 -7 7 47 47 63 47 8 0 11 -5 8 -10z"/>
<path d="M13568 8728 c-14 -13 -31 -33 -37 -45 -25 -50 -4 -115 41 -126 34 -9
93 6 93 23 0 8 -6 14 -14 12 -39 -8 -84 -4 -92 9 -13 20 -11 39 4 34 6 -3 30
5 52 18 35 20 40 27 40 57 0 32 -3 35 -30 38 -20 2 -39 -5 -57 -20z m60 -20
c-2 -6 -21 -22 -42 -35 l-37 -24 12 23 c14 27 39 47 57 48 8 0 12 -5 10 -12z"/>
<path d="M5172 8696 c-19 -42 -23 -90 -9 -116 16 -32 37 -36 68 -11 29 22 82
118 73 132 -11 18 -32 8 -39 -18 -3 -16 -16 -43 -27 -60 -37 -61 -68 -32 -43
39 13 40 12 58 -4 58 -4 0 -13 -11 -19 -24z"/>
<path d="M3111 8688 c-48 -23 -81 -68 -81 -110 0 -57 88 -101 160 -79 38 11
47 20 35 33 -4 3 -24 2 -46 -3 -44 -10 -105 9 -115 36 -11 29 16 73 59 94 l41
21 27 -26 c32 -31 51 -15 22 19 -37 44 -42 45 -102 15z"/>
<path d="M6421 8684 c-39 -49 -15 -117 32 -93 60 31 75 75 35 103 -31 22 -43
20 -67 -10z m52 -42 c-5 -21 -43 -27 -43 -7 0 15 30 36 41 29 4 -2 5 -12 2
-22z"/>
<path d="M14006 8687 c-72 -72 -23 -175 59 -121 26 17 75 90 75 112 0 23 -28
11 -40 -17 -16 -40 -65 -85 -84 -78 -24 9 -19 42 10 77 19 22 24 34 16 42 -7
7 -18 3 -36 -15z"/>
<path d="M11540 8660 c-21 -41 -26 -80 -11 -80 11 0 61 102 55 112 -11 17 -24
7 -44 -32z"/>
<path d="M14842 8576 c-6 -14 -7 -27 -1 -33 8 -8 -19 -93 -100 -311 -32 -87
-39 -136 -20 -148 6 -3 18 1 27 10 15 15 15 18 2 26 -17 10 -16 11 56 196 67
175 91 284 61 284 -8 0 -19 -11 -25 -24z"/>
<path d="M15220 8568 c0 -7 -7 -26 -16 -43 -9 -16 -36 -69 -60 -117 l-45 -86
-59 -7 c-33 -4 -63 -11 -66 -17 -12 -19 12 -27 55 -17 24 5 46 8 48 5 6 -5
-17 -77 -29 -90 -4 -6 -8 -18 -8 -29 0 -36 25 -10 52 54 l27 64 60 3 c34 2 61
7 61 12 0 6 -8 11 -17 11 -10 1 -25 3 -33 4 -8 1 -25 3 -37 4 -20 1 -18 8 38
117 62 121 69 144 44 144 -8 0 -15 -6 -15 -12z"/>
<path d="M7896 8533 c-3 -3 -6 -14 -6 -24 0 -9 -23 -75 -51 -145 -36 -89 -52
-144 -53 -179 -1 -65 17 -72 26 -10 7 52 33 128 79 237 16 36 29 78 29 92 0
25 -12 41 -24 29z"/>
<path d="M8935 8448 c-15 -46 -47 -125 -71 -177 -24 -52 -44 -98 -44 -102 0
-22 30 -4 87 53 35 34 63 57 63 50 0 -7 -12 -40 -26 -73 -24 -59 -29 -109 -9
-99 9 5 29 54 61 149 10 33 11 47 3 58 -16 18 -23 17 -59 -13 -17 -15 -33 -25
-35 -23 -2 3 17 55 41 117 42 104 49 142 26 142 -5 0 -21 -37 -37 -82z"/>
<path d="M2761 8502 c-5 -10 -9 -24 -8 -32 1 -8 -9 -48 -23 -88 l-25 -74 -43
5 c-43 5 -66 -8 -41 -24 8 -5 26 -9 42 -9 27 0 27 0 21 -57 -3 -32 -7 -68 -10
-80 -4 -20 0 -23 26 -23 30 0 42 22 19 36 -16 9 -4 102 16 124 8 9 13 24 10
32 -3 8 8 48 25 89 16 41 30 84 30 97 0 27 -25 30 -39 4z"/>
<path d="M2877 8513 c-2 -4 -8 -24 -12 -43 -4 -19 -30 -95 -57 -168 -61 -162
-58 -186 12 -117 l50 49 -3 -39 c-1 -29 2 -40 12 -40 8 0 15 9 16 20 1 11 5
31 9 45 3 14 2 32 -4 40 -8 13 -13 13 -41 -3 -18 -10 -34 -16 -36 -14 -2 3 9
38 25 78 39 99 57 178 44 191 -5 5 -12 6 -15 1z"/>
<path d="M14353 8479 c11 -42 -72 -249 -120 -297 -37 -37 -42 -66 -14 -82 30
-16 61 -12 118 14 64 30 85 61 81 117 -4 55 -27 71 -68 47 -27 -16 -29 -15
-27 3 1 10 5 19 9 19 12 0 62 166 55 184 -10 25 -41 21 -34 -5z m37 -244 c0
-45 -21 -73 -71 -94 -26 -12 -50 -21 -54 -21 -15 0 39 82 72 109 45 37 53 38
53 6z"/>
<path d="M7215 8470 c-3 -6 -3 -19 0 -31 7 -21 4 -33 -53 -166 -42 -101 -38
-132 11 -86 36 35 68 53 91 53 15 0 15 -3 1 -36 -17 -42 -19 -74 -4 -74 11 0
37 55 46 100 7 40 -26 54 -76 34 -42 -17 -47 -14 -28 23 24 46 57 162 51 178
-7 17 -30 20 -39 5z"/>
<path d="M8099 8478 c0 -2 -2 -13 -3 -25 -1 -12 -18 -67 -36 -122 -27 -79 -37
-98 -47 -90 -27 23 -103 -15 -103 -51 0 -28 39 -70 65 -70 39 0 57 31 104 172
25 73 48 137 52 141 11 13 -2 47 -17 47 -8 0 -14 -1 -15 -2z m-89 -287 c0 -19
-27 -42 -43 -35 -22 8 -22 40 0 53 17 9 43 -2 43 -18z"/>
<path d="M6471 8448 c-5 -13 -19 -51 -31 -85 -23 -63 -23 -63 -62 -63 -43 0
-82 -16 -73 -30 3 -5 27 -7 52 -3 l46 6 -7 -46 c-6 -39 -4 -47 8 -47 14 0 18
9 32 77 3 14 14 24 34 28 34 8 40 24 10 32 -24 6 -24 2 0 62 14 37 16 51 7 55
-9 3 -9 5 1 5 14 1 17 31 2 31 -6 0 -14 -10 -19 -22z"/>
<path d="M11807 8413 c-3 -26 -24 -103 -47 -171 -41 -122 -44 -162 -13 -162
11 0 14 6 10 21 -3 12 0 38 8 58 34 87 76 243 73 267 -5 47 -25 38 -31 -13z"/>
<path d="M14148 8435 c-3 -14 -1 -28 4 -31 15 -10 40 20 32 39 -9 25 -31 20
-36 -8z"/>
<path d="M4436 8443 c-3 -3 -6 -12 -6 -20 0 -15 36 -18 45 -4 7 12 -29 33 -39
24z"/>
<path d="M14620 8405 c0 -10 7 -15 18 -13 21 4 19 22 -2 26 -10 2 -16 -3 -16
-13z"/>
<path d="M6234 8385 c3 -9 6 -19 6 -21 0 -2 7 -4 16 -4 22 0 13 34 -10 38 -14
3 -17 0 -12 -13z"/>
<path d="M14950 8380 c0 -13 5 -20 13 -17 6 2 12 10 12 17 0 7 -6 15 -12 18
-8 2 -13 -5 -13 -18z"/>
<path d="M3055 8370 c-7 -12 2 -30 16 -30 5 0 9 9 9 20 0 21 -15 27 -25 10z"/>
<path d="M4709 8365 c-66 -36 -91 -148 -44 -199 41 -45 71 -37 184 50 2 2 1
10 -3 19 -5 13 -15 8 -57 -25 -56 -44 -73 -48 -100 -24 -17 15 -15 18 29 49
64 43 79 72 61 110 -17 35 -34 40 -70 20z m41 -44 c0 -19 -68 -87 -77 -77 -15
14 38 96 63 96 8 0 14 -9 14 -19z"/>
<path d="M11167 8373 c-10 -10 -8 -51 2 -58 13 -7 34 33 27 51 -6 15 -18 18
-29 7z"/>
<path d="M10240 8334 c-57 -65 -23 -134 45 -90 21 14 23 14 29 -7 3 -12 6 -34
6 -48 0 -33 26 -57 42 -41 8 8 8 15 -1 26 -7 8 -12 42 -13 76 -1 52 -5 65 -28
90 -16 17 -33 30 -38 30 -5 0 -24 -16 -42 -36z m57 -20 c6 -15 -29 -53 -49
-54 -13 0 -9 24 8 48 18 26 32 28 41 6z"/>
<path d="M6992 8339 c-26 -10 -27 -23 -6 -95 18 -64 7 -102 -26 -84 -27 14
-41 43 -29 61 13 21 11 29 -10 29 -49 0 -27 -97 28 -119 72 -30 101 53 56 162
-6 15 -2 17 25 15 18 -2 35 2 37 8 6 17 -48 33 -75 23z"/>
<path d="M3837 8333 c-13 -12 -7 -53 7 -53 14 0 29 37 20 52 -6 10 -18 10 -27
1z"/>
<path d="M4353 8305 c-37 -40 -59 -102 -49 -140 7 -26 40 -46 64 -38 19 8 14
33 -7 33 -11 0 -23 5 -26 10 -12 20 8 73 42 111 19 21 32 43 28 49 -10 16 -18
12 -52 -25z"/>
<path d="M13910 8330 c-44 -6 -49 -28 -16 -67 14 -17 23 -33 19 -37 -3 -3 -26
-6 -50 -6 -32 0 -43 -4 -43 -15 0 -11 12 -15 46 -15 80 0 108 35 64 83 -21 22
-9 40 13 18 17 -17 27 -13 27 13 0 28 -13 34 -60 26z"/>
<path d="M10932 8318 c-6 -8 -6 -34 -1 -68 13 -90 11 -130 -6 -130 -14 0 -17
5 -19 40 -2 26 -31 17 -34 -11 -4 -33 28 -61 65 -57 l28 3 -2 103 c-1 56 1
102 5 102 5 0 17 -7 28 -15 24 -18 34 -19 34 -2 0 37 -75 63 -98 35z"/>
<path d="M12989 8307 c-40 -27 -49 -69 -24 -117 20 -38 14 -47 -20 -32 -34 16
-35 15 -35 -7 0 -19 25 -31 67 -31 30 0 39 38 19 78 -24 47 -20 67 17 85 17 9
40 18 50 21 9 3 17 10 17 16 0 18 -56 11 -91 -13z"/>
<path d="M13668 8306 c-57 -28 -140 -138 -119 -159 13 -13 10 -16 68 66 28 41
107 96 119 84 10 -10 -9 -57 -32 -80 -24 -25 -24 -57 0 -57 14 0 66 99 66 126
0 24 -19 44 -39 43 -9 0 -37 -11 -63 -23z"/>
<path d="M12572 8260 c-29 -28 -52 -55 -52 -61 0 -5 -9 -28 -20 -50 -20 -38
-20 -59 0 -59 6 0 24 28 41 63 39 77 86 129 111 121 26 -8 42 4 27 22 -22 26
-55 15 -107 -36z"/>
<path d="M9555 8267 c-45 -45 -47 -86 -6 -128 35 -35 68 -37 127 -8 59 28 70
43 54 74 -14 26 -34 32 -45 15 -4 -6 -2 -17 5 -25 26 -31 -91 -68 -121 -38 -8
8 1 17 35 31 70 32 75 87 8 107 -17 5 -30 -1 -57 -28z m70 -16 c7 -12 -34 -41
-58 -41 -17 0 -17 1 0 25 18 25 47 33 58 16z"/>
<path d="M11913 8284 c-97 -48 -95 -184 3 -184 44 0 130 48 115 63 -8 8 -24 4
-54 -11 -52 -26 -80 -28 -97 -7 -15 18 -16 17 35 34 64 21 85 38 85 69 0 51
-30 64 -87 36z m57 -33 c0 -15 -26 -31 -61 -37 l-34 -6 28 26 c27 25 67 35 67
17z"/>
<path d="M15350 8233 l-54 -66 -12 48 c-7 26 -17 52 -22 57 -15 15 -35 -1 -27
-21 4 -9 13 -38 20 -64 l14 -48 -89 -87 c-84 -83 -130 -143 -130 -169 0 -25
20 -12 45 27 14 22 69 84 123 138 135 136 215 229 207 242 -10 17 -18 11 -75
-57z"/>
<path d="M2994 8273 c-3 -10 -12 -35 -20 -56 -14 -38 -11 -61 8 -55 12 4 38
75 38 106 0 26 -18 30 -26 5z"/>
<path d="M7677 8283 c-3 -5 -8 -22 -11 -39 -9 -40 -38 -67 -68 -62 -20 3 -23
8 -20 41 2 27 -1 37 -11 37 -14 0 -27 -29 -27 -62 0 -43 73 -64 117 -33 18 12
53 90 53 117 0 10 -27 11 -33 1z"/>
<path d="M9264 8276 c-3 -9 -4 -50 -2 -91 6 -125 39 -127 98 -6 34 71 35 72
67 66 25 -4 33 -2 33 9 0 18 -6 22 -48 31 -32 7 -32 6 -68 -69 -20 -42 -40
-73 -46 -70 -5 3 -8 36 -7 72 2 43 -2 67 -9 70 -7 2 -15 -3 -18 -12z"/>
<path d="M14869 8263 c-5 -16 -12 -35 -16 -43 -3 -8 -7 -18 -7 -22 -1 -3 -4
-10 -8 -14 -13 -12 -9 -34 6 -34 15 0 69 117 60 131 -10 17 -24 9 -35 -18z"/>
<path d="M3175 8258 c-16 -13 -37 -21 -47 -20 -22 4 -75 -95 -59 -111 7 -7 26
8 62 47 28 31 61 62 72 67 18 11 19 9 12 -27 -11 -58 -11 -66 2 -71 15 -5 36
62 31 102 -4 39 -34 44 -73 13z"/>
<path d="M3325 8268 c-45 -24 -61 -82 -30 -108 17 -14 67 -1 96 26 23 20 27
10 35 -75 l7 -72 -60 3 c-70 2 -109 -17 -119 -59 -10 -39 32 -112 79 -138 32
-17 38 -18 63 -5 37 20 64 67 64 112 0 27 6 40 20 48 11 6 20 15 20 19 0 5 -9
11 -20 14 -17 4 -20 14 -20 54 0 27 -7 74 -16 104 -24 84 -23 82 -37 71 -8 -7
-18 -6 -31 4 -23 17 -25 17 -51 2z m40 -34 c14 -6 14 -8 -1 -25 -20 -22 -54
-25 -54 -6 0 14 19 37 31 37 4 0 15 -3 24 -6z m65 -269 c0 -35 -6 -52 -29 -77
l-29 -33 -29 21 c-15 11 -37 37 -48 57 -19 35 -19 36 -1 56 15 17 31 21 78 21
l58 0 0 -45z"/>
<path d="M11255 8262 c-38 -24 -105 -98 -105 -116 0 -31 18 -23 53 24 41 55
93 88 110 71 8 -8 4 -27 -12 -66 -21 -49 -22 -75 -3 -75 4 0 18 27 31 61 19
46 22 66 15 87 -12 34 -48 39 -89 14z"/>
<path d="M12699 8254 c-96 -68 -86 -159 19 -180 25 -5 32 -3 32 9 0 8 -12 18
-27 22 -58 14 -57 26 7 63 64 38 76 64 44 96 -21 22 -33 20 -75 -10z m38 -47
c-12 -10 -35 -25 -50 -33 -27 -15 -28 -14 -18 4 6 11 25 32 42 47 25 20 34 23
40 13 6 -8 1 -19 -14 -31z"/>
<path d="M13420 8268 c0 -7 7 -22 15 -32 25 -33 18 -64 -17 -86 -37 -22 -47
-22 -62 3 -8 12 -5 22 14 42 13 14 29 25 37 25 14 0 18 26 5 34 -14 8 -72 -32
-83 -58 -16 -34 -3 -75 27 -88 22 -10 32 -8 69 11 56 30 70 60 50 109 -19 45
-56 72 -55 40z"/>
<path d="M14556 8252 c-20 -39 -21 -81 -1 -88 22 -9 38 5 24 22 -9 11 -8 21 1
45 19 44 -3 62 -24 21z"/>
<path d="M7418 8254 c-26 -14 -48 -42 -48 -61 0 -17 41 -53 60 -53 52 0 84 96
41 120 -24 12 -20 13 -53 -6z m38 -39 c6 -16 -12 -45 -28 -45 -15 0 -21 30 -8
45 16 19 29 19 36 0z"/>
<path d="M9053 8251 c-37 -23 -52 -47 -46 -72 7 -26 53 -25 86 1 33 26 35 25
39 -7 2 -16 10 -29 19 -31 12 -2 15 7 15 45 0 26 2 55 5 63 7 24 -79 24 -118
1z m32 -36 c-34 -28 -54 -33 -34 -9 12 14 44 32 59 33 3 0 -8 -11 -25 -24z"/>
<path d="M13213 8246 c-25 -22 -29 -22 -39 -7 -15 20 -13 23 -53 -78 -19 -46
-51 -115 -73 -153 -22 -39 -37 -77 -34 -85 10 -25 31 0 77 95 51 104 48 100
58 83 13 -21 56 -6 101 35 42 38 58 81 40 113 -14 28 -43 26 -77 -3z m48 -49
c-9 -23 -80 -82 -89 -73 -2 2 -5 17 -7 34 -3 20 1 32 11 36 10 4 13 2 8 -7 -5
-6 9 3 30 21 42 37 63 32 47 -11z"/>
<path d="M14060 8241 c-12 -31 -11 -66 4 -66 7 0 35 69 36 88 0 20 -29 3 -40
-22z"/>
<path d="M11505 8236 c-19 -14 -19 -15 -1 -35 11 -12 31 -21 48 -21 l28 0 0
-81 0 -81 -32 7 c-48 11 -75 9 -102 -8 -36 -24 -41 -62 -14 -115 30 -60 58
-70 98 -35 58 48 74 95 78 226 4 102 2 121 -13 138 -21 22 -63 25 -90 5z m52
-22 c-3 -3 -12 -4 -19 -1 -8 3 -5 6 6 6 11 1 17 -2 13 -5z m-13 -227 c21 -16
16 -41 -15 -81 -26 -33 -53 -33 -67 -1 -16 34 -15 82 1 88 24 10 63 7 81 -6z"/>
<path d="M6144 8207 c-14 -30 -15 -38 -3 -63 16 -34 61 -41 67 -11 2 12 -3 17
-18 17 -22 0 -24 16 -9 69 9 30 -22 20 -37 -12z"/>
<path d="M11097 8200 c-4 -16 -13 -30 -21 -30 -16 0 -29 -27 -20 -41 3 -5 14
-9 24 -9 20 0 50 54 50 91 0 31 -27 22 -33 -11z"/>
<path d="M4902 8168 c-7 -7 -12 -18 -12 -25 0 -18 29 -16 37 3 8 21 -10 37
-25 22z"/>
<path d="M4483 8163 c-23 -9 -15 -35 10 -31 12 2 22 9 22 17 0 16 -14 22 -32
14z"/>
<path d="M5334 8123 c-12 -40 -31 -69 -52 -78 -23 -10 -29 -29 -12 -40 26 -16
90 56 90 102 0 28 -18 40 -26 16z"/>
<path d="M3807 8104 c-4 -4 -7 -27 -7 -50 0 -36 -5 -46 -32 -68 -22 -17 -35
-21 -39 -14 -6 9 -12 8 -23 -1 -23 -19 -20 -51 3 -51 25 0 102 59 119 90 22
44 5 120 -21 94z"/>
</g>
</svg>
