<?xml version="1.0" standalone="no"?>
<!DOCTYPE svg PUBLIC "-//W3C//DTD SVG 20010904//EN"
 "http://www.w3.org/TR/2001/REC-SVG-20010904/DTD/svg10.dtd">
<svg version="1.0" xmlns="http://www.w3.org/2000/svg"
 width="1618.000000pt" height="1214.000000pt" viewBox="0 0 1618.000000 1214.000000"
 preserveAspectRatio="xMidYMid meet">

<g transform="translate(0.000000,1214.000000) scale(0.100000,-0.100000)"
fill="#000000" stroke="none">
<path d="M10354 11741 c-17 -10 -40 -32 -51 -48 -27 -40 -110 -213 -119 -246
-8 -33 -31 -47 -79 -47 -52 0 -40 -24 14 -28 38 -3 41 -5 35 -25 -12 -41 -56
-107 -70 -107 -8 0 -14 -5 -14 -10 0 -17 29 -23 46 -9 19 15 74 122 74 143 0
10 17 17 53 23 49 8 52 7 55 -13 2 -12 -4 -39 -12 -59 -9 -20 -13 -41 -10 -46
11 -19 25 -7 44 37 31 71 58 104 83 101 26 -2 30 21 5 37 -14 8 -23 5 -48 -19
-16 -16 -30 -23 -30 -16 0 7 -6 11 -14 8 -8 -3 -16 -1 -18 4 -2 7 -18 7 -47 0
l-43 -9 7 26 c3 15 31 78 61 140 65 132 96 162 145 136 56 -28 70 -6 17 26
-41 25 -45 25 -84 1z"/>
<path d="M2413 11740 c-18 -4 -40 -13 -48 -20 -31 -25 -13 -118 34 -178 67
-86 76 -123 45 -188 -32 -68 -85 -89 -144 -59 -35 18 -83 79 -85 108 -1 14 -8
22 -21 22 -27 0 -22 -24 16 -83 54 -82 136 -113 199 -76 56 33 94 130 77 197
-3 13 -26 50 -50 81 -49 63 -68 129 -45 151 8 7 30 15 49 19 l35 6 -3 -61 c-5
-81 11 -97 37 -38 31 70 34 94 16 113 -17 17 -58 19 -112 6z"/>
<path d="M3655 11734 c-16 -8 -38 -23 -48 -31 -21 -20 -52 -118 -62 -195 -7
-56 -7 -57 -43 -60 -49 -4 -55 -28 -6 -28 l37 0 -7 -57 c-11 -93 -15 -104 -36
-93 -31 17 -34 -8 -6 -37 15 -14 27 -24 29 -22 22 39 30 63 40 130 8 58 15 79
27 80 8 1 22 2 32 3 45 3 27 36 -20 36 -22 0 -23 3 -16 48 3 26 16 76 28 111
18 56 26 67 59 84 31 16 43 17 62 9 31 -14 46 5 20 25 -25 17 -53 16 -90 -3z"/>
<path d="M13130 11657 c-31 -71 -39 -82 -63 -85 -15 -2 -27 1 -27 6 0 18 -27
20 -59 5 -22 -11 -39 -32 -57 -69 -23 -50 -24 -55 -10 -88 8 -20 20 -36 25
-36 19 0 12 -19 -34 -86 -25 -36 -45 -74 -45 -84 0 -31 19 -33 30 -3 6 15 31
58 56 94 41 60 50 67 86 73 29 5 52 18 80 45 41 42 48 73 22 103 -16 16 -15
23 15 90 18 40 40 77 48 84 19 13 9 34 -15 34 -12 0 -28 -26 -52 -83z m-106
-179 c-25 -35 -48 -65 -50 -67 -2 -2 -10 2 -19 9 -21 18 -19 63 6 94 17 21 29
26 65 26 l44 0 -46 -62z m92 28 c8 -21 -23 -62 -61 -80 -18 -9 -36 -16 -39
-16 -3 0 13 25 36 55 42 57 55 65 64 41z"/>
<path d="M14789 11677 c-14 -17 -38 -56 -54 -85 -30 -56 -40 -59 -93 -25 -21
13 -24 13 -28 -4 -3 -11 -18 -24 -33 -29 -18 -7 -35 -27 -50 -59 -30 -63 -25
-103 16 -131 l31 -21 -48 -65 c-64 -87 -73 -105 -59 -114 7 -4 17 0 23 9 76
111 121 167 134 167 36 0 93 22 122 46 37 32 39 68 5 118 l-25 37 20 36 c10
20 17 40 14 45 -3 4 -1 8 5 8 9 0 71 82 71 94 0 17 -28 2 -51 -27z m-109 -171
c0 -22 -76 -141 -91 -144 -28 -5 -52 28 -45 62 8 38 32 76 54 82 9 3 24 9 32
13 19 10 50 2 50 -13z m55 -46 c8 -16 15 -36 15 -44 0 -20 -40 -46 -85 -56
-35 -8 -36 -8 -22 13 7 12 26 43 41 70 15 26 30 47 32 47 2 0 10 -13 19 -30z"/>
<path d="M11228 11683 c-25 -30 -26 -35 -44 -169 -9 -71 -17 -130 -19 -132 -1
-1 -14 3 -28 9 -23 10 -31 9 -61 -12 -63 -43 -86 -118 -48 -152 42 -39 97 -8
140 78 24 48 28 68 47 215 11 80 21 123 35 141 27 37 8 56 -22 22z m-79 -320
c22 21 3 -33 -28 -78 -28 -42 -58 -56 -72 -33 -16 25 -9 50 26 85 27 27 38 33
48 24 10 -8 17 -7 26 2z"/>
<path d="M8073 11630 c7 -33 2 -48 -82 -220 -73 -149 -69 -176 13 -87 72 78
89 77 62 -1 -14 -39 -8 -61 13 -48 13 9 33 95 26 117 -8 23 -42 25 -73 3 -21
-14 -19 -7 16 63 22 43 45 95 52 116 14 45 6 87 -16 87 -13 0 -15 -7 -11 -30z"/>
<path d="M13901 11641 c-1 -13 -17 -41 -37 -63 -20 -22 -42 -56 -51 -75 -12
-31 -12 -38 2 -59 8 -13 11 -24 7 -24 -16 0 -62 -75 -62 -101 0 -30 17 -49 42
-49 37 0 114 48 132 82 23 43 18 69 -18 86 l-28 14 36 24 c62 43 76 106 31
140 -14 10 -28 18 -32 16 -4 -2 -10 5 -14 15 -6 15 -8 14 -8 -6z m49 -80 c0
-11 -19 -36 -42 -55 -70 -61 -92 -41 -36 32 35 46 78 58 78 23z m-46 -198
c-40 -53 -114 -81 -114 -44 0 32 47 79 83 83 45 5 55 -7 31 -39z"/>
<path d="M15101 11590 c-63 -53 -82 -90 -63 -121 10 -15 8 -20 -7 -29 -27 -14
-61 -72 -61 -103 0 -50 66 -72 133 -43 41 17 124 91 132 117 8 24 -19 59 -47
59 -25 0 -23 7 17 51 39 43 43 64 19 97 -24 35 -57 27 -123 -28z m92 -37 c-25
-34 -111 -79 -125 -65 -15 15 6 47 55 80 23 16 48 27 55 25 6 -3 12 1 12 9 0
8 5 6 11 -6 9 -14 7 -24 -8 -43z m7 -132 c0 -11 -19 -35 -42 -53 -73 -58 -90
-66 -125 -56 -42 11 -43 36 -3 82 31 35 50 42 128 45 35 1 42 -2 42 -18z"/>
<path d="M5686 11618 c-2 -7 -7 -37 -10 -66 -3 -29 -24 -108 -46 -174 -27 -78
-38 -124 -32 -130 14 -14 23 5 67 137 39 116 56 227 36 239 -6 4 -13 1 -15 -6z"/>
<path d="M13730 11618 c0 -7 -28 -69 -61 -138 -76 -154 -79 -164 -69 -180 9
-15 30 -5 30 15 0 7 31 78 70 157 38 78 70 146 70 151 0 4 -9 7 -20 7 -11 0
-20 -6 -20 -12z"/>
<path d="M13205 11596 c-37 -30 -25 -47 17 -23 28 16 48 15 48 -3 0 -14 -123
-160 -135 -160 -6 0 -26 -16 -45 -35 -26 -27 -31 -38 -22 -47 9 -9 21 -4 51
20 l39 31 -2 -32 c-1 -26 3 -33 22 -35 31 -5 84 17 79 32 -5 11 -6 12 -48 1
-24 -6 -25 -5 -21 32 3 27 21 58 58 107 54 68 65 101 42 124 -19 19 -50 14
-83 -12z"/>
<path d="M14957 11583 c-6 -16 -17 -34 -24 -41 -6 -6 -35 -56 -64 -110 -28
-53 -61 -107 -72 -120 -17 -18 -18 -25 -8 -35 17 -16 43 17 95 120 22 43 55
100 73 128 33 49 42 85 23 85 -6 0 -16 -12 -23 -27z"/>
<path d="M14360 11575 c-14 -8 -40 -22 -57 -31 -18 -10 -33 -21 -33 -25 0 -20
25 -18 65 5 49 29 55 31 55 15 0 -13 -160 -174 -210 -211 -24 -18 -32 -29 -25
-37 7 -7 26 0 60 24 28 19 62 37 77 40 25 6 27 5 30 -32 2 -31 7 -39 27 -41
35 -5 71 7 71 24 0 12 -7 14 -35 8 l-35 -6 0 41 c0 38 -2 41 -27 41 -25 0 -23
3 35 64 48 49 62 71 62 94 0 18 -6 32 -16 36 -19 7 -14 8 -44 -9z"/>
<path d="M10550 11485 c0 -10 7 -15 18 -13 21 4 19 22 -2 26 -10 2 -16 -3 -16
-13z"/>
<path d="M6779 11467 c-8 -12 -33 -53 -54 -90 l-40 -68 -12 62 c-7 34 -15 64
-18 67 -7 7 -55 -8 -55 -17 0 -5 8 -11 18 -13 14 -4 21 -22 30 -74 l12 -69
-54 -80 c-58 -87 -86 -138 -86 -155 0 -21 31 -9 41 17 6 15 43 79 83 143 135
213 176 281 176 290 0 18 -25 10 -41 -13z"/>
<path d="M6890 11430 c-93 -100 -69 -221 30 -148 39 28 53 78 39 135 -13 51
-30 55 -69 13z m40 -54 c0 -37 -32 -86 -57 -86 -21 0 -11 51 18 91 27 38 39
37 39 -5z"/>
<path d="M8585 11443 c-32 -36 -75 -96 -76 -107 0 -6 -6 14 -12 44 -8 37 -17
55 -27 55 -8 0 -13 -7 -12 -15 2 -8 7 -42 10 -75 6 -50 10 -60 28 -63 14 -2
24 5 33 25 7 15 28 49 48 75 25 35 41 48 60 48 33 0 25 24 -10 28 -15 2 -32
-4 -42 -15z"/>
<path d="M7086 11402 c-19 -27 -58 -70 -86 -96 -28 -26 -48 -51 -45 -57 10
-15 25 -10 51 18 18 20 34 27 53 25 20 -2 39 8 73 38 l47 41 -6 -34 c-7 -43 6
-52 52 -33 42 18 48 41 7 33 -27 -5 -27 -5 -24 39 4 47 -13 60 -38 29 -7 -9
-31 -30 -54 -48 -41 -33 -41 -27 1 29 25 33 29 49 14 58 -5 4 -25 -16 -45 -42z"/>
<path d="M9480 11421 c-31 -30 -46 -71 -36 -96 6 -17 51 -20 61 -5 11 17 35
11 35 -10 0 -22 35 -46 45 -30 3 5 0 18 -6 28 -9 15 -7 28 10 66 21 49 20 71
-5 62 -7 -3 -16 -1 -19 4 -12 20 -57 10 -85 -19z m64 -7 c9 -3 16 -10 16 -15
0 -12 -79 -63 -86 -56 -8 7 23 64 38 70 7 3 14 6 15 6 1 1 8 -2 17 -5z"/>
<path d="M2859 11368 c-20 -40 -57 -115 -83 -166 -52 -101 -70 -172 -44 -172
10 0 18 13 22 38 3 20 42 108 86 195 73 142 85 177 61 177 -4 0 -23 -33 -42
-72z"/>
<path d="M8243 11421 c-35 -22 -48 -50 -39 -87 5 -18 13 -24 35 -24 16 0 34 7
42 16 11 14 14 13 26 -10 24 -46 38 -31 39 43 l2 69 -30 6 c-41 8 -39 8 -75
-13z m57 -20 c0 -11 -50 -61 -61 -61 -18 0 -8 29 17 49 28 22 44 27 44 12z"/>
<path d="M3910 11405 c-44 -32 -73 -125 -39 -125 5 0 18 23 30 50 23 54 42 70
84 70 36 0 27 24 -11 28 -19 2 -41 -6 -64 -23z"/>
<path d="M4421 11393 c-17 -21 -31 -41 -31 -45 0 -5 -9 -8 -20 -8 -21 0 -27
-15 -10 -25 6 -3 10 -14 10 -24 0 -44 69 -66 132 -42 19 7 29 7 34 0 10 -18
66 -1 106 31 l37 30 17 -30 c20 -34 43 -45 58 -30 7 7 4 15 -11 25 -20 14 -52
82 -33 70 14 -9 42 37 29 50 -8 7 -15 3 -26 -12 -20 -30 -29 -29 -48 7 -18 34
-35 39 -35 10 0 -11 4 -20 9 -20 5 0 11 -10 14 -22 8 -28 -11 -50 -64 -73 -33
-15 -42 -16 -49 -5 -7 11 -14 11 -38 1 -40 -17 -96 -11 -100 11 -2 11 11 23
42 37 32 14 47 27 52 45 16 64 -29 75 -75 19z m30 -26 l-23 -22 17 28 c10 15
20 25 23 22 3 -3 -5 -16 -17 -28z"/>
<path d="M5798 11407 c-14 -13 -29 -34 -33 -45 -3 -12 -11 -22 -16 -22 -14 0
-1 -71 17 -91 31 -35 77 -34 139 1 30 17 55 38 55 46 0 21 -13 18 -67 -16 -39
-24 -54 -28 -78 -22 -40 11 -47 47 -11 56 13 3 41 22 62 41 36 34 36 36 19 55
-24 27 -56 25 -87 -3z m35 -39 c-24 -30 -48 -36 -33 -9 10 20 42 43 49 36 2
-2 -5 -14 -16 -27z"/>
<path d="M2633 11405 c-67 -29 -83 -105 -22 -105 17 0 39 4 49 10 14 7 19 5
23 -10 6 -24 47 -28 47 -5 0 8 -4 15 -10 15 -5 0 -10 13 -10 28 0 41 -9 45
-42 17 -33 -28 -71 -34 -62 -11 5 14 16 20 39 26 24 5 45 22 45 35 0 18 -15
18 -57 0z"/>
<path d="M5445 11410 c-11 -4 -29 -17 -39 -29 -11 -12 -31 -21 -48 -21 -18 0
-28 -5 -28 -15 0 -8 9 -15 20 -15 16 0 18 -3 11 -17 -6 -10 -18 -49 -27 -88
-9 -38 -23 -83 -31 -98 -8 -16 -13 -30 -11 -31 2 -1 19 6 38 16 19 10 30 18
24 18 -8 0 -5 19 9 55 13 36 25 55 36 55 24 0 105 53 125 81 24 35 21 76 -6
84 -45 13 -53 13 -73 5z m65 -46 c0 -30 -100 -108 -117 -90 -8 8 15 67 34 88
21 23 83 25 83 2z"/>
<path d="M8696 11380 c-20 -22 -36 -44 -36 -48 0 -5 14 -30 31 -56 51 -77 82
-83 165 -33 33 20 54 39 54 50 0 19 -14 13 -113 -47 -21 -13 -41 -2 -73 40
l-23 29 24 1 c27 2 95 51 95 68 0 21 -23 36 -56 36 -24 0 -40 -9 -68 -40z m69
-10 c-10 -11 -28 -20 -39 -20 -20 1 -20 1 3 20 13 11 30 20 39 20 13 0 12 -3
-3 -20z"/>
<path d="M2770 11394 c0 -31 23 -94 35 -94 22 0 23 11 5 58 -18 47 -40 67 -40
36z"/>
<path d="M3703 11403 c-14 -3 -30 -20 -43 -49 -50 -103 30 -140 90 -41 23 37
25 68 8 85 -12 12 -16 13 -55 5z m37 -40 c0 -19 -41 -73 -55 -73 -18 0 -19 2
-1 45 10 24 22 35 35 35 12 0 21 -3 21 -7z"/>
<path d="M4883 11387 c-25 -27 -43 -61 -43 -81 0 -26 38 -29 68 -6 l27 22 3
-36 c5 -57 29 -46 34 17 7 87 -5 97 -59 45 -18 -18 -33 -27 -33 -20 0 7 9 21
20 32 11 11 20 24 20 29 0 20 -18 19 -37 -2z"/>
<path d="M5116 11393 c-13 -13 -20 -15 -23 -5 -11 30 -31 6 -53 -64 -15 -51
-19 -79 -13 -85 7 -7 17 4 32 33 11 24 35 57 51 73 l30 29 -6 -32 c-8 -40 14
-44 42 -7 32 42 45 40 42 -7 -2 -32 1 -43 13 -46 13 -2 17 9 22 55 3 32 2 62
-2 66 -11 11 -51 -1 -51 -14 0 -5 -7 -9 -15 -9 -8 0 -15 7 -15 15 0 20 -32 19
-54 -2z"/>
<path d="M10644 11400 c-11 -4 -33 -24 -48 -45 -32 -41 -30 -77 5 -95 25 -14
94 -4 113 15 7 8 16 11 20 8 3 -4 6 -1 6 5 0 15 -14 15 -63 1 -43 -12 -82 -4
-57 11 8 5 17 7 20 5 4 -2 22 8 40 24 22 18 31 33 27 44 -9 23 -39 36 -63 27z
m26 -38 c0 -5 -11 -14 -25 -20 -23 -11 -24 -10 -13 8 13 20 38 28 38 12z"/>
<path d="M10797 11384 c-3 -4 -4 -19 -1 -34 4 -15 1 -31 -5 -34 -13 -9 -15
-46 -2 -46 6 0 25 14 43 30 l33 31 3 -33 c4 -41 14 -52 41 -43 25 7 28 35 5
35 -14 0 -15 7 -10 45 8 52 0 56 -47 23 -17 -12 -28 -17 -24 -11 15 24 -16 56
-36 37z"/>
<path d="M10457 11325 c-21 -43 -21 -45 -2 -45 14 0 45 48 45 70 0 23 -27 8
-43 -25z"/>
<path d="M13365 11331 c-8 -15 3 -31 21 -31 9 0 14 7 12 17 -4 20 -24 28 -33
14z"/>
<path d="M14007 11304 c-15 -15 -7 -44 13 -44 11 0 20 4 20 8 0 15 -26 43 -33
36z"/>
<path d="M12001 11271 c-7 -5 -10 -14 -7 -20 4 -6 12 -9 17 -6 19 12 8 -18
-46 -125 l-55 -110 -38 0 c-71 0 -113 -11 -109 -29 2 -9 8 -15 13 -14 6 1 34
5 63 9 l52 7 -35 -65 c-36 -65 -43 -92 -27 -102 5 -3 22 22 39 57 31 66 76
124 86 109 8 -14 56 -2 56 14 0 9 -11 14 -30 14 -16 0 -30 2 -30 4 0 3 23 51
50 107 53 108 63 159 33 159 -10 0 -24 -4 -32 -9z"/>
<path d="M12147 11234 c-4 -4 -7 -14 -7 -23 0 -26 -71 -171 -128 -263 -71
-114 -65 -141 13 -63 31 30 62 55 70 55 19 0 19 -5 -1 -57 -16 -41 -14 -73 4
-73 11 0 45 114 40 137 -4 20 -52 30 -71 14 -7 -5 14 43 45 107 31 64 58 128
60 141 3 24 -12 38 -25 25z"/>
<path d="M7376 11211 c-3 -5 1 -11 9 -15 8 -3 15 -1 15 4 0 13 -18 22 -24 11z"/>
<path d="M6019 11188 c-1 -2 -3 -19 -4 -39 -4 -44 -65 -167 -95 -192 -11 -10
-18 -22 -15 -27 3 -5 -6 -32 -20 -59 -28 -57 -33 -101 -10 -101 8 0 15 9 15
20 0 33 46 115 73 129 26 14 78 10 106 -8 13 -8 12 -18 -4 -71 -14 -45 -15
-64 -7 -72 8 -8 13 -8 17 3 42 118 44 142 13 163 -13 8 -42 18 -65 22 l-42 6
78 62 c43 33 103 79 134 101 52 37 72 65 46 65 -6 0 -57 -35 -113 -78 -56 -43
-107 -81 -113 -85 -6 -4 2 27 18 68 17 42 27 80 24 85 -5 9 -33 14 -36 8z"/>
<path d="M7585 11183 c-16 -2 -75 -14 -130 -26 -55 -12 -124 -21 -153 -20 -59
1 -67 -15 -14 -31 24 -6 63 -2 158 19 127 28 273 38 307 21 13 -6 17 -4 17 12
0 12 -9 22 -22 26 -24 6 -113 6 -163 -1z"/>
<path d="M8765 11163 c-3 -15 -26 -89 -51 -163 -25 -74 -46 -144 -47 -155 -1
-12 8 -24 25 -32 23 -11 33 -11 60 0 18 8 42 24 53 36 18 21 18 25 4 49 -9 17
-25 28 -43 30 -18 2 -26 0 -22 -7 4 -6 1 -9 -7 -5 -11 4 -7 25 20 104 18 55
34 114 35 131 4 41 -19 50 -27 12z m19 -278 c6 -18 -30 -45 -61 -45 -30 0 -29
14 3 39 31 25 50 27 58 6z"/>
<path d="M9156 11152 c-3 -21 -33 -106 -66 -188 -33 -82 -60 -155 -60 -161 0
-7 7 -13 15 -13 9 0 17 6 19 13 22 77 40 107 74 128 20 12 51 22 67 23 29 1
30 -1 30 -39 -1 -22 -4 -55 -9 -73 -7 -30 -6 -33 10 -30 13 2 21 20 31 66 15
74 7 99 -35 108 -15 3 -31 7 -35 8 -4 1 24 25 62 55 62 47 79 71 51 71 -4 0
-44 -27 -87 -59 -43 -33 -79 -59 -80 -58 -1 2 11 40 28 86 16 45 27 87 23 92
-13 21 -32 7 -38 -29z"/>
<path d="M3313 11168 c-10 -13 -85 -211 -105 -277 -17 -59 6 -60 57 -3 58 64
83 70 59 15 -21 -50 -22 -67 -4 -70 11 -3 21 15 34 57 19 57 19 62 2 78 -16
16 -19 16 -56 -5 -22 -12 -40 -20 -40 -18 0 5 51 141 67 178 11 25 13 41 6 48
-7 7 -13 6 -20 -3z"/>
<path d="M10500 11160 c0 -24 -28 -96 -92 -233 -62 -135 -55 -158 23 -73 51
56 86 82 96 72 3 -3 -2 -25 -10 -50 -14 -42 -13 -56 4 -56 12 0 41 86 37 111
-4 32 -42 37 -79 10 -15 -12 -30 -21 -33 -21 -2 0 15 46 39 103 57 136 61 157
35 157 -13 0 -20 -7 -20 -20z"/>
<path d="M2069 11153 c-1 -5 -1 -15 0 -24 1 -10 -12 -73 -28 -140 -35 -145
-29 -167 25 -101 55 65 84 48 40 -23 -14 -22 -10 -45 7 -45 13 0 47 84 47 114
0 9 -11 21 -24 27 -18 9 -29 8 -49 -5 l-25 -17 19 83 c23 103 24 138 4 138 -8
0 -16 -3 -16 -7z"/>
<path d="M4421 11116 c-7 -8 -14 -36 -15 -64 -2 -27 -9 -59 -15 -71 -12 -21
-16 -22 -81 -25 -24 -1 -35 -6 -35 -16 0 -12 10 -14 47 -12 l47 4 -24 -73
c-28 -82 -30 -99 -12 -99 7 0 21 25 30 55 33 108 42 123 81 130 35 7 64 30 52
42 -3 3 -22 1 -41 -5 -32 -9 -35 -9 -30 7 17 55 33 127 29 133 -8 12 -20 10
-33 -6z"/>
<path d="M5610 11115 c-6 -8 -9 -18 -6 -23 8 -13 -40 -146 -76 -212 -28 -51
-29 -55 -12 -67 10 -7 35 -13 57 -13 31 0 45 7 68 31 16 17 29 39 29 50 0 23
-35 42 -67 36 -19 -4 -23 -1 -17 12 20 46 64 174 64 187 0 18 -24 18 -40 -1z
m24 -234 c9 -14 -41 -53 -63 -49 -21 3 -21 4 4 31 26 27 49 35 59 18z"/>
<path d="M7649 11118 c0 -2 -2 -23 -5 -48 -3 -25 -23 -89 -45 -143 -55 -138
-51 -158 22 -92 22 19 43 35 48 35 4 0 4 -20 -2 -45 -7 -32 -7 -49 0 -56 17
-17 31 -2 31 33 0 18 5 44 10 58 19 52 -9 65 -65 30 -18 -11 -33 -18 -33 -16
0 2 11 28 25 58 40 88 53 188 24 188 -5 0 -9 -1 -10 -2z"/>
<path d="M7477 11073 c-4 -3 -7 -15 -7 -25 0 -11 -13 -58 -30 -105 -31 -87
-38 -133 -20 -133 6 0 12 6 14 13 2 6 20 62 41 124 20 62 34 117 30 123 -7 12
-19 13 -28 3z"/>
<path d="M8940 11035 c0 -8 7 -15 15 -15 8 0 15 7 15 15 0 8 -7 15 -15 15 -8
0 -15 -7 -15 -15z"/>
<path d="M5785 11031 c-14 -13 -3 -32 17 -29 30 4 37 37 8 35 -11 -1 -23 -3
-25 -6z"/>
<path d="M12877 11033 c-4 -4 -5 -43 -1 -88 5 -68 4 -83 -10 -94 -9 -8 -19
-11 -23 -7 -7 6 -8 52 -2 75 2 7 -2 16 -9 18 -7 3 -12 1 -11 -4 2 -4 -4 -21
-11 -36 -12 -25 -12 -33 1 -55 20 -37 62 -41 84 -8 19 29 23 73 11 134 l-8 44
38 -4 c30 -2 39 1 39 12 0 11 -13 16 -45 18 -25 2 -49 0 -53 -5z"/>
<path d="M10881 10967 c-23 -35 -52 -74 -65 -86 l-23 -22 9 52 c5 28 7 57 4
65 -12 30 -24 11 -35 -55 -18 -112 0 -128 65 -58 46 47 114 142 114 157 0 28
-32 3 -69 -53z"/>
<path d="M11064 11011 c-22 -11 -51 -31 -62 -46 -12 -15 -22 -24 -22 -19 0 4
-5 3 -12 -4 -9 -9 -9 -15 0 -24 7 -7 12 -20 12 -29 0 -26 28 -49 60 -49 56 0
149 54 128 75 -2 2 -27 -7 -56 -21 -57 -27 -95 -28 -100 -4 -2 11 11 19 42 28
25 6 60 25 78 41 27 25 31 33 22 48 -15 24 -41 25 -90 4z m51 -30 c-18 -18
-85 -42 -85 -31 0 6 15 17 33 25 38 17 66 20 52 6z"/>
<path d="M3640 11000 c-25 -25 -25 -41 1 -91 23 -46 22 -70 -3 -45 -18 17 -48
22 -48 7 0 -17 53 -52 74 -49 30 4 32 47 5 99 l-21 43 21 17 c11 9 21 22 21
28 0 18 -28 13 -50 -9z"/>
<path d="M9649 10991 l-24 -19 22 -61 c13 -35 18 -61 12 -61 -6 0 -13 9 -16
20 -7 25 -33 26 -33 2 0 -22 40 -62 62 -62 27 0 32 39 12 96 -19 56 -15 76 10
55 15 -13 36 -7 36 9 0 13 -30 40 -45 40 -7 0 -23 -9 -36 -19z"/>
<path d="M1781 10980 c-18 -16 -21 -24 -13 -32 9 -9 16 -7 30 5 43 39 42 17
-3 -80 -26 -56 -32 -80 -24 -87 8 -8 22 2 52 37 l41 48 17 -43 c9 -24 23 -44
32 -46 37 -7 79 81 67 142 -8 48 -25 35 -31 -25 -10 -89 -34 -109 -45 -38 -8
45 -25 58 -51 38 -15 -12 -16 -12 -8 6 5 11 9 36 9 55 1 30 -2 35 -24 37 -14
2 -36 -6 -49 -17z"/>
<path d="M13295 10988 c-11 -7 -31 -12 -44 -12 -18 -1 -27 -8 -32 -28 -4 -15
-16 -40 -28 -57 -22 -30 -28 -61 -12 -61 5 0 25 22 45 49 20 26 42 54 50 60
13 11 14 7 9 -23 -7 -46 3 -46 67 0 28 20 53 35 55 33 2 -2 -2 -24 -8 -47 -9
-36 -9 -45 3 -52 20 -13 34 4 37 43 1 18 5 47 8 64 10 47 -14 52 -69 13 -45
-31 -51 -29 -47 13 3 20 -6 21 -34 5z"/>
<path d="M13571 10974 c-17 -14 -31 -31 -31 -37 0 -6 -7 -19 -16 -29 -16 -16
-16 -18 0 -24 9 -3 16 -16 16 -29 0 -12 9 -30 20 -40 19 -17 25 -17 73 -6 79
21 89 28 76 54 -16 29 -14 28 -32 21 -9 -3 -14 -11 -11 -18 3 -8 -11 -17 -37
-25 -34 -10 -43 -10 -50 1 -14 22 -10 48 7 48 27 0 84 40 84 59 0 22 -30 51
-53 51 -8 0 -29 -12 -46 -26z m49 -34 c-26 -20 -50 -26 -50 -12 0 16 25 32 50
32 l25 0 -25 -20z"/>
<path d="M2264 10982 c-21 -13 -54 -86 -54 -119 0 -23 6 -36 21 -44 30 -16 60
0 84 44 19 36 19 36 -4 82 -23 46 -28 50 -47 37z m36 -83 c0 -15 -42 -59 -52
-53 -12 8 -3 61 14 81 10 13 14 12 25 -3 7 -10 13 -21 13 -25z"/>
<path d="M9425 10976 c-37 -16 -53 -35 -65 -76 -8 -27 -6 -38 11 -61 11 -16
28 -29 37 -29 52 0 147 48 130 66 -4 3 -30 -3 -59 -15 -28 -12 -58 -20 -67
-16 -16 6 -15 7 1 16 9 6 14 15 11 21 -4 6 -3 8 4 5 31 -20 73 44 52 82 -12
24 -15 25 -55 7z m25 -46 c-15 -29 -60 -51 -60 -30 0 15 38 50 55 50 13 0 14
-4 5 -20z"/>
<path d="M13067 10950 c-26 -27 -37 -50 -37 -70 0 -35 23 -49 50 -32 15 9 19
7 23 -9 6 -23 36 -16 35 9 -1 9 2 31 6 49 11 46 -10 52 -44 12 -15 -19 -32
-31 -36 -26 -12 11 30 61 57 67 29 7 32 34 3 38 -14 2 -33 -10 -57 -38z"/>
<path d="M3448 10963 c-26 -29 -50 -84 -44 -99 7 -18 30 -18 46 1 18 21 27 19
34 -10 4 -14 13 -25 20 -25 11 0 14 12 12 45 -2 24 1 42 5 39 5 -3 9 -2 9 3 0
4 3 18 6 31 9 32 -14 28 -53 -10 -18 -18 -33 -29 -33 -25 0 3 9 15 21 26 12
11 18 24 14 30 -9 16 -20 14 -37 -6z"/>
<path d="M10624 10936 c-45 -45 -56 -82 -28 -93 8 -3 29 4 46 17 30 22 30 22
23 1 -5 -17 -2 -21 14 -21 14 0 21 6 21 20 0 10 7 35 17 54 13 29 14 38 3 51
-21 26 -51 17 -96 -29z m36 -21 c-18 -19 -36 -32 -39 -30 -6 7 50 65 63 65 5
0 -5 -16 -24 -35z"/>
<path d="M12243 10960 c-17 -10 -37 -29 -44 -42 -7 -13 -16 -25 -20 -28 -15
-10 32 -90 56 -96 36 -9 135 40 135 68 0 12 -22 10 -39 -6 -9 -7 -32 -18 -51
-25 -30 -10 -37 -9 -47 6 -18 24 -17 26 28 47 42 19 66 54 56 80 -8 21 -35 20
-74 -4z m37 -26 c-19 -21 -50 -37 -50 -25 0 6 12 17 28 25 35 19 37 19 22 0z"/>
<path d="M6212 10954 c-26 -18 -66 -95 -54 -103 5 -3 11 -14 15 -23 8 -22 45
-46 83 -54 21 -4 37 0 53 14 33 26 19 50 -15 27 -22 -14 -27 -14 -54 0 -37 19
-37 26 -1 47 16 9 37 28 47 43 18 27 18 28 -5 46 -28 23 -40 24 -69 3z m29
-55 c-42 -34 -58 -16 -20 22 16 16 24 18 33 9 8 -9 5 -16 -13 -31z m79 -89 c0
-5 -5 -10 -11 -10 -5 0 -7 5 -4 10 3 6 8 10 11 10 2 0 4 -4 4 -10z"/>
<path d="M6453 10960 c-28 -11 -29 -20 -4 -51 31 -40 42 -69 36 -89 -5 -17
-10 -18 -26 -9 -16 8 -19 17 -14 41 6 28 5 29 -13 19 -29 -16 -37 -49 -17 -71
25 -28 64 -34 86 -14 24 22 24 60 -1 107 -11 20 -20 39 -20 42 0 7 32 1 48 -8
14 -9 28 16 17 33 -8 12 -61 12 -92 0z"/>
<path d="M4493 10933 c-24 -24 -26 -28 -10 -31 21 -4 21 -3 2 -38 -30 -57 -14
-69 38 -30 55 40 55 40 54 -11 -2 -45 0 -48 25 -51 21 -3 37 7 73 44 25 26 43
41 40 32 -3 -8 1 -23 10 -32 33 -32 131 -11 155 34 12 22 4 66 -13 73 -17 6
-102 1 -115 -7 -6 -4 -8 2 -5 14 9 34 -23 23 -38 -12 -14 -34 -85 -118 -100
-118 -5 0 -6 20 -2 45 7 52 -10 66 -54 46 -23 -10 -25 -10 -18 6 24 57 -1 78
-42 36z m343 -80 c-29 -25 -86 -32 -86 -10 0 37 67 66 99 43 10 -8 8 -15 -13
-33z"/>
<path d="M8890 10936 c-15 -40 -13 -86 4 -86 17 0 32 88 17 103 -7 7 -13 2
-21 -17z"/>
<path d="M7877 10920 c-19 -16 -40 -30 -46 -30 -30 0 9 -87 44 -96 37 -9 127
8 133 25 4 12 -7 13 -60 7 -52 -5 -68 -3 -78 9 -10 12 -8 16 16 25 59 21 82
45 71 74 -10 25 -43 19 -80 -14z"/>
<path d="M5720 10875 c-14 -37 -12 -65 4 -65 11 0 26 41 27 77 1 20 -22 11
-31 -12z"/>
<path d="M6750 10845 c0 -8 7 -15 15 -15 8 0 15 7 15 15 0 8 -7 15 -15 15 -8
0 -15 -7 -15 -15z"/>
<path d="M8380 10803 c0 -51 -41 -227 -79 -341 -36 -107 -41 -165 -13 -160 10
2 16 12 15 23 -1 11 18 90 42 175 65 228 81 340 50 340 -11 0 -15 -11 -15 -37z"/>
<path d="M7714 10778 c1 -7 5 -18 9 -25 11 -18 -10 -94 -65 -228 -52 -130 -56
-145 -33 -145 8 0 15 4 15 10 0 12 60 80 71 80 5 0 4 -11 -3 -24 -6 -14 -8
-32 -5 -40 9 -22 36 -20 36 2 -1 9 2 33 6 53 8 41 -11 57 -47 38 -19 -10 -20
-9 -13 7 4 11 24 65 43 121 29 83 34 108 26 130 -9 28 -44 46 -40 21z"/>
<path d="M5367 10738 c-45 -47 -77 -113 -100 -207 -9 -35 -23 -71 -32 -80 -9
-11 -11 -21 -5 -27 6 -6 5 -23 -2 -46 -11 -36 -6 -68 10 -68 4 0 14 27 21 59
13 59 14 59 57 70 25 6 47 18 51 27 8 23 1 24 -42 9 -22 -7 -41 -12 -42 -11
-4 3 35 133 51 171 29 68 106 134 106 90 0 -8 7 -15 15 -15 27 0 18 49 -11 60
-35 14 -33 15 -77 -32z"/>
<path d="M10599 10756 c-106 -38 -203 -166 -216 -285 -6 -59 -5 -61 31 -97
l37 -37 82 6 c93 6 117 13 117 34 0 11 -6 13 -22 8 -13 -3 -55 -9 -95 -12 -67
-5 -73 -4 -97 20 -29 30 -32 51 -13 124 32 122 190 254 237 198 10 -12 10 -15
-4 -15 -11 0 -16 -9 -16 -30 0 -22 5 -30 18 -30 48 0 59 75 16 109 -31 24 -28
24 -75 7z"/>
<path d="M11975 10743 c-9 -39 -67 -167 -80 -175 -5 -4 -23 -8 -38 -8 -34 0
-32 -24 2 -26 30 -2 32 -6 21 -45 -27 -95 11 -180 76 -167 28 5 24 33 -6 33
-41 0 -57 42 -42 111 6 32 17 61 24 66 7 4 34 8 61 8 34 0 47 4 47 14 0 19
-33 29 -70 21 -34 -8 -36 -5 -15 35 8 16 14 33 13 37 -1 4 5 19 15 34 25 37
33 89 14 89 -8 0 -18 -12 -22 -27z"/>
<path d="M12987 10743 c-4 -3 -7 -14 -7 -23 0 -8 -13 -56 -29 -105 l-29 -90
-61 -5 c-76 -6 -80 -24 -6 -28 30 -2 55 -4 55 -5 0 -1 -9 -25 -20 -54 -13 -35
-16 -54 -9 -59 14 -9 23 2 43 58 14 38 22 47 43 50 35 4 43 28 9 28 -14 0 -26
1 -26 3 0 2 16 50 35 107 19 57 35 110 35 117 0 14 -22 18 -33 6z"/>
<path d="M3769 10723 c-1 -4 0 -12 1 -18 8 -41 -1 -187 -14 -227 -15 -44 -15
-50 0 -73 22 -34 51 -31 89 9 60 64 51 123 -17 113 -28 -4 -28 -3 -30 57 -1
57 0 72 5 121 2 18 -32 37 -34 18z m78 -239 c7 -20 -47 -79 -58 -62 -9 14 -1
37 19 61 19 21 31 22 39 1z"/>
<path d="M5564 10711 c-17 -10 -41 -35 -54 -55 -24 -39 -50 -125 -50 -167 0
-18 -8 -29 -26 -37 -25 -12 -25 -32 0 -32 11 0 11 -10 0 -52 -10 -36 -11 -55
-4 -62 15 -15 23 1 39 73 13 57 15 61 47 67 33 6 62 29 51 40 -3 3 -22 1 -42
-5 l-36 -10 6 47 c15 107 86 198 135 172 15 -8 20 -8 20 3 0 18 -20 37 -39 37
-9 0 -30 -9 -47 -19z"/>
<path d="M12095 10710 c3 -5 11 -10 16 -10 6 0 7 5 4 10 -3 6 -11 10 -16 10
-6 0 -7 -4 -4 -10z"/>
<path d="M13100 10706 c0 -8 5 -16 11 -18 14 -5 -6 -72 -61 -203 -23 -55 -44
-106 -47 -112 -11 -28 27 -10 69 32 70 70 100 57 58 -26 -19 -37 -20 -59 -1
-59 10 0 51 87 51 109 0 52 -41 68 -88 35 l-22 -15 21 53 c40 100 59 161 59
190 0 23 -4 28 -25 28 -15 0 -25 -6 -25 -14z"/>
<path d="M6583 10693 c-26 -17 -32 -49 -8 -40 10 4 7 -9 -12 -48 -29 -58 -40
-65 -115 -65 -45 0 -72 -15 -50 -29 18 -11 113 0 106 12 -5 8 -3 9 4 2 7 -7 3
-31 -13 -80 -30 -85 -30 -96 -7 -125 16 -19 24 -22 56 -16 20 4 45 15 56 26
10 10 21 16 24 13 3 -4 6 1 6 10 0 21 2 21 -54 -4 -60 -26 -76 -16 -66 40 4
21 15 59 26 84 20 48 21 49 94 51 15 1 25 7 25 16 0 11 -11 15 -42 14 l-42 -1
35 68 c19 38 34 73 34 79 0 15 -32 11 -57 -7z"/>
<path d="M4294 10685 c-3 -8 -11 -36 -18 -62 -12 -46 -14 -48 -45 -45 -27 3
-32 0 -29 -15 2 -11 13 -19 28 -21 24 -3 25 -4 22 -77 -2 -42 1 -82 8 -95 15
-28 56 -43 81 -29 24 12 14 33 -12 26 -33 -9 -49 19 -49 86 0 85 8 94 62 80
23 -6 46 -9 51 -6 16 10 -16 33 -55 40 -39 6 -40 7 -33 37 16 77 17 96 6 96
-6 0 -14 -7 -17 -15z"/>
<path d="M5005 10653 c-16 -124 -37 -184 -87 -255 -26 -37 -68 -39 -68 -4 0
18 6 25 23 28 29 4 24 22 -7 26 -56 7 -68 -80 -16 -108 46 -25 105 34 154 150
16 40 39 187 30 201 -12 20 -23 6 -29 -38z"/>
<path d="M11569 10697 c-1 -1 -3 -11 -4 -22 -9 -81 -21 -131 -51 -210 -35 -90
-42 -154 -16 -163 8 -2 12 8 12 33 0 19 16 76 35 126 28 72 54 179 55 220 0 6
-29 21 -31 16z"/>
<path d="M14203 10688 c-16 -19 -20 -60 -7 -65 16 -5 40 55 27 68 -6 6 -13 5
-20 -3z"/>
<path d="M2712 10676 c1 -10 8 -17 13 -17 15 1 12 24 -3 29 -9 3 -13 -2 -10
-12z"/>
<path d="M11070 10641 c0 -16 -14 -62 -31 -102 -17 -41 -42 -100 -55 -133 -25
-59 -28 -106 -8 -113 7 -2 14 13 17 36 3 22 23 79 45 128 44 97 75 191 66 204
-12 21 -34 8 -34 -20z"/>
<path d="M9105 10640 c-7 -12 2 -30 16 -30 12 0 12 27 0 35 -5 3 -12 1 -16 -5z"/>
<path d="M14123 10525 c-57 -115 -51 -137 22 -81 58 45 69 45 63 4 -6 -41 -1
-58 18 -58 12 0 14 12 12 58 -3 51 -5 57 -26 60 -13 2 -34 -4 -48 -12 -31 -21
-30 -18 6 53 27 55 29 71 8 71 -4 0 -29 -43 -55 -95z"/>
<path d="M7333 10590 c-73 -29 -132 -90 -88 -90 8 0 15 4 15 8 0 9 98 62 113
62 12 0 -12 -40 -60 -98 -23 -30 -43 -58 -43 -62 0 -20 22 -20 65 -1 l45 20 0
-23 c0 -12 5 -27 12 -34 24 -24 55 -12 102 38 41 44 46 54 46 95 0 59 -23 57
-31 -3 -4 -30 -16 -53 -39 -77 -42 -44 -58 -44 -62 -2 -3 29 -6 32 -36 30 -32
-1 -33 0 -17 20 40 55 55 84 55 105 0 18 -5 22 -27 21 -16 0 -38 -4 -50 -9z"/>
<path d="M8873 10569 c-27 -10 -29 -32 -8 -82 19 -45 19 -58 1 -82 -13 -18
-15 -18 -46 8 -17 15 -35 27 -40 27 -23 0 -16 -20 20 -55 36 -36 41 -38 64
-26 44 24 59 92 31 141 -19 33 -18 40 4 40 14 0 18 -5 14 -20 -6 -23 0 -25 28
-10 25 14 24 32 -3 50 -29 18 -38 19 -65 9z"/>
<path d="M8032 10530 c-35 -34 -42 -47 -42 -78 0 -20 4 -42 8 -48 24 -36 108
-46 135 -16 27 30 22 47 -8 28 -46 -30 -105 -14 -105 29 0 19 9 28 44 44 42
18 64 49 51 71 -12 20 -42 9 -83 -30z"/>
<path d="M9600 10557 c-33 -17 -38 -61 -11 -98 20 -27 44 -79 37 -79 -20 0
-66 25 -66 37 0 8 -7 13 -17 11 -50 -9 12 -70 74 -72 37 -1 38 0 36 32 0 18
-13 50 -27 71 -26 37 -34 71 -17 71 5 0 16 3 25 6 12 4 16 0 16 -15 0 -28 18
-27 29 2 16 42 -26 61 -79 34z"/>
<path d="M2527 10540 c-41 -32 -51 -129 -12 -114 10 4 15 19 15 45 0 27 5 41
19 48 10 6 21 8 24 4 3 -3 14 -2 24 1 17 7 17 8 -1 22 -26 19 -39 18 -69 -6z"/>
<path d="M5130 10540 c0 -23 25 -27 33 -6 7 16 -1 26 -20 26 -7 0 -13 -9 -13
-20z"/>
<path d="M2200 10522 c-22 -22 -30 -40 -30 -65 0 -48 25 -68 84 -66 58 3 56
23 -2 27 -29 2 -42 8 -42 18 0 8 6 14 14 14 8 0 24 12 35 27 19 23 20 29 8 47
-21 31 -34 30 -67 -2z m35 -31 c-3 -6 -11 -11 -17 -11 -6 0 -6 6 2 15 14 17
26 13 15 -4z"/>
<path d="M2329 10520 c-24 -23 -30 -37 -27 -62 2 -28 7 -34 31 -36 16 -2 35 2
43 9 11 9 17 9 29 -1 12 -10 19 -10 28 -1 9 9 9 14 -2 20 -9 6 -11 18 -8 33 5
19 0 29 -23 46 -16 12 -32 22 -35 22 -4 0 -20 -13 -36 -30z m55 -18 c8 -13
-23 -52 -40 -52 -17 0 -18 14 -4 41 11 20 35 26 44 11z"/>
<path d="M2666 10489 c2 -63 6 -75 23 -65 13 8 12 98 -1 113 -20 24 -25 13
-22 -48z"/>
<path d="M2783 10533 c-10 -10 -25 -18 -33 -18 -11 0 -15 -12 -15 -48 0 -27 2
-50 5 -52 11 -7 27 10 33 35 3 14 13 34 21 45 19 25 31 11 40 -47 8 -51 32
-46 29 5 -3 45 -29 97 -48 97 -8 0 -23 -8 -32 -17z"/>
<path d="M7864 10521 c-107 -79 -92 -184 23 -166 36 5 43 10 38 23 -3 9 -3 13
1 9 8 -8 34 11 34 24 0 14 -27 10 -44 -6 -23 -24 -70 -29 -85 -11 -20 24 -8
40 42 54 54 16 80 42 75 74 -5 34 -37 33 -84 -1z m56 -9 c0 -5 -12 -14 -27
-21 l-28 -12 25 21 c29 22 30 23 30 12z"/>
<path d="M3964 10495 c-14 -25 -46 -62 -70 -84 -24 -21 -44 -44 -44 -50 0 -15
4 -14 42 9 31 19 32 19 45 0 17 -24 45 -16 74 23 l24 32 5 -29 c9 -53 54 -60
84 -13 15 23 -1 33 -22 14 -30 -27 -35 -20 -28 37 8 70 -8 82 -43 36 -14 -19
-36 -45 -49 -59 l-23 -26 6 28 c3 16 17 46 31 67 24 36 25 60 4 60 -5 0 -21
-20 -36 -45z"/>
<path d="M12125 10521 c-53 -33 -68 -56 -62 -98 4 -20 15 -46 26 -56 17 -18
26 -19 88 -11 50 7 68 13 68 24 0 16 -6 16 -87 5 -44 -6 -49 -5 -57 17 -8 21
-5 23 23 26 31 3 86 46 86 67 0 14 -32 45 -46 45 -5 0 -22 -8 -39 -19z m45
-29 c0 -14 -23 -32 -42 -32 -23 0 -23 9 0 26 19 15 42 18 42 6z"/>
<path d="M13930 10524 c-63 -27 -89 -84 -52 -117 22 -20 87 -32 96 -18 4 5 13
8 21 4 10 -3 15 1 15 12 0 13 -8 16 -32 14 -57 -4 -78 1 -85 16 -13 35 89 95
108 64 11 -19 34 4 26 25 -8 20 -51 20 -97 0z"/>
<path d="M2013 10523 c-53 -10 -94 -103 -59 -132 18 -15 73 10 84 37 11 28 19
-31 21 -140 l1 -98 -58 6 c-98 11 -129 -23 -92 -97 48 -92 104 -115 140 -56
11 17 23 49 26 69 6 34 8 36 26 27 33 -17 45 6 15 26 -25 16 -26 22 -30 133
-6 133 -6 132 -19 190 -6 23 -15 41 -22 41 -6 -1 -21 -4 -33 -6z m7 -50 c0
-18 -28 -53 -42 -53 -13 0 -9 24 8 48 18 26 34 29 34 5z m28 -317 c9 -9 -9
-75 -26 -96 -23 -29 -45 -19 -73 34 -33 63 -22 80 43 73 28 -4 53 -9 56 -11z"/>
<path d="M2942 10492 c-37 -66 -24 -100 32 -86 21 5 24 1 29 -48 11 -86 12
-84 -37 -80 -55 5 -114 -22 -127 -57 -11 -27 2 -92 24 -122 16 -21 51 -39 75
-39 33 0 90 72 97 124 4 25 11 46 15 46 5 0 22 -11 38 -25 17 -14 33 -21 36
-16 11 17 -6 42 -43 60 -35 19 -36 21 -47 102 -6 46 -8 91 -4 99 3 8 4 29 1
45 -5 25 -12 31 -36 33 -27 3 -34 -2 -53 -36z m32 -49 c-25 -19 -28 -9 -8 29
18 32 19 32 22 9 2 -16 -3 -30 -14 -38z m33 -206 c13 -13 -12 -92 -38 -121
-27 -30 -29 -30 -55 -16 -29 16 -57 80 -47 106 10 25 55 45 96 40 21 -2 41 -7
44 -9z"/>
<path d="M6183 10519 c-6 -6 -9 -17 -7 -24 8 -19 -23 -85 -39 -85 -8 0 -20 -6
-26 -14 -6 -7 -32 -19 -56 -26 -36 -10 -48 -10 -60 0 -22 18 -19 29 12 41 41
15 63 39 63 66 0 52 -66 41 -98 -16 -27 -48 -28 -85 -2 -111 25 -25 56 -25
121 0 29 10 56 17 62 13 5 -3 33 19 63 48 56 56 71 60 54 15 -26 -70 5 -129
58 -110 28 10 39 42 12 35 -42 -10 -45 -7 -41 39 7 96 6 104 -11 108 -9 2 -32
-11 -52 -28 -37 -33 -43 -30 -27 14 12 29 -7 54 -26 35z m-143 -48 c0 -5 -7
-12 -16 -15 -24 -9 -28 -7 -14 9 14 17 30 20 30 6z"/>
<path d="M5652 10494 c-35 -28 -51 -58 -58 -112 -5 -41 31 -82 73 -82 31 0 93
34 93 50 0 14 -16 12 -52 -6 -63 -33 -112 10 -53 46 38 24 75 66 75 86 0 13
-27 44 -38 44 -4 0 -22 -12 -40 -26z m38 -28 c0 -8 -13 -24 -30 -36 -36 -26
-40 -9 -5 25 28 29 35 31 35 11z"/>
<path d="M9145 10509 c-11 -17 3 -23 44 -20 58 4 57 -14 -3 -54 -94 -62 -99
-88 -19 -99 26 -4 58 -10 71 -13 15 -4 22 -1 22 10 0 16 -9 20 -68 32 -40 8
-33 21 33 59 41 24 64 64 50 86 -8 14 -122 13 -130 -1z"/>
<path d="M9375 10505 c-83 -44 -84 -129 -1 -159 25 -9 89 10 110 33 23 25 4
37 -26 17 -32 -23 -95 -21 -107 3 -9 16 -6 19 29 25 48 7 82 38 78 69 -4 28
-42 33 -83 12z m45 -29 c-20 -19 -65 -32 -55 -16 7 11 41 28 60 29 5 1 3 -5
-5 -13z"/>
<path d="M14570 10505 c-14 -8 -32 -14 -41 -15 -15 0 -29 -27 -29 -57 0 -20
28 -15 34 5 6 18 74 57 83 48 3 -2 -7 -27 -23 -54 -16 -28 -25 -56 -21 -65 8
-21 27 -22 27 -1 0 8 12 35 26 59 31 54 29 89 -6 92 -14 2 -36 -4 -50 -12z"/>
<path d="M5827 10469 c-32 -35 -37 -47 -37 -91 0 -64 20 -61 37 6 14 55 28 76
54 76 27 0 35 21 14 37 -26 18 -27 18 -68 -28z"/>
<path d="M9015 10440 c-26 -52 -33 -76 -26 -83 14 -14 20 -6 56 71 21 46 26
65 18 73 -9 9 -21 -8 -48 -61z"/>
<path d="M14324 10474 c-45 -47 -45 -68 -1 -62 17 3 40 8 50 13 12 5 17 3 17
-8 0 -15 18 -33 25 -26 2 2 6 25 10 52 6 39 5 47 -9 47 -9 0 -16 5 -16 10 0
23 -45 8 -76 -26z m45 -13 c-13 -11 -26 -17 -29 -14 -6 6 30 33 43 33 5 0 -1
-9 -14 -19z"/>
<path d="M14958 10503 c-16 -3 -40 -19 -57 -40 -24 -29 -28 -42 -24 -72 3 -20
15 -46 27 -59 21 -21 24 -22 75 -8 52 13 78 33 62 49 -4 4 -22 0 -39 -9 -46
-23 -86 -15 -90 17 -3 22 2 27 36 37 21 6 49 23 63 38 23 25 24 26 5 40 -11 8
-22 13 -25 13 -3 -1 -18 -4 -33 -6z m12 -43 c-8 -5 -22 -10 -30 -10 -13 0 -13
1 0 10 8 5 22 10 30 10 13 0 13 -1 0 -10z"/>
<path d="M13247 10464 c-12 -15 -32 -36 -43 -47 l-22 -21 27 -26 c44 -44 60
-49 121 -38 103 20 103 51 0 34 -43 -7 -63 -7 -71 1 -9 9 -3 15 22 26 76 32
92 90 26 95 -31 3 -41 -2 -60 -24z m54 -24 c-13 -11 -30 -20 -39 -20 -13 0
-12 3 3 20 10 11 28 20 39 20 20 -1 20 -1 -3 -20z"/>
<path d="M10757 10459 c-24 -14 -49 -67 -42 -89 5 -15 15 -20 39 -20 17 0 36
4 42 10 6 6 10 0 9 -18 0 -17 5 -27 15 -27 11 0 17 17 23 59 7 48 5 61 -9 77
-19 21 -49 24 -77 8z m53 -34 c0 -17 -44 -49 -60 -43 -15 5 27 58 46 58 8 0
14 -7 14 -15z"/>
<path d="M11105 10434 c-14 -15 -25 -37 -25 -50 0 -31 46 -66 84 -62 40 4 47
28 9 28 -16 0 -38 6 -48 14 -18 13 -18 15 -1 40 11 18 24 26 39 24 14 -2 22 2
22 12 0 28 -52 24 -80 -6z"/>
<path d="M11626 10441 c-28 -31 -17 -56 24 -56 23 1 41 -6 52 -20 13 -16 19
-18 29 -7 10 9 10 15 1 24 -7 7 -12 22 -12 35 0 41 -64 58 -94 24z m39 -21
c-3 -5 -11 -10 -16 -10 -6 0 -7 5 -4 10 3 6 11 10 16 10 6 0 7 -4 4 -10z"/>
<path d="M14687 10444 c-22 -12 -28 -21 -25 -42 3 -26 6 -27 56 -27 60 1 60 0
36 -86 l-16 -57 -58 -4 c-70 -5 -90 -19 -90 -65 0 -36 36 -83 64 -83 22 0 72
46 86 80 7 16 19 30 27 30 11 0 14 7 10 22 -3 11 5 66 18 121 25 101 24 123
-1 113 -7 -3 -16 -1 -19 4 -9 15 -56 11 -88 -6z m67 -23 c7 -11 -17 -21 -47
-21 -22 1 -22 1 -3 15 22 17 42 19 50 6z m-34 -227 c0 -14 -41 -72 -55 -78
-18 -7 -45 19 -45 44 0 11 8 24 18 29 19 11 82 15 82 5z"/>
<path d="M11256 10443 c-13 -13 -5 -60 12 -76 22 -20 75 -22 91 -4 16 20 18
59 4 64 -7 3 -17 -7 -23 -21 -14 -38 -49 -35 -57 4 -6 32 -16 44 -27 33z"/>
<path d="M5083 10418 c-19 -23 -36 -99 -24 -111 15 -15 19 -8 35 54 15 54 9
82 -11 57z"/>
<path d="M9767 10353 c-12 -11 -8 -23 8 -23 8 0 15 7 15 15 0 16 -12 20 -23 8z"/>
<path d="M3692 10327 c-29 -31 -46 -85 -62 -194 l-14 -92 -35 -3 c-47 -4 -54
-28 -8 -28 l34 0 -8 -42 c-4 -24 -4 -47 2 -52 13 -14 20 -2 30 50 10 51 18 61
62 71 26 5 46 27 35 38 -2 3 -18 -1 -36 -7 -17 -7 -34 -10 -37 -6 -8 8 25 189
41 220 19 36 35 44 46 24 12 -21 28 -20 28 2 0 44 -45 55 -78 19z"/>
<path d="M3871 10235 c-27 -31 -71 -143 -71 -181 0 -7 -16 -16 -35 -20 -43 -8
-48 -34 -6 -34 l29 0 -13 -42 c-21 -68 -21 -72 -5 -75 11 -3 20 15 34 63 11
40 25 68 35 71 46 14 56 41 14 35 -13 -1 -23 -1 -23 2 0 22 44 139 61 160 20
25 59 36 59 16 0 -5 7 -10 15 -10 18 0 20 21 3 38 -23 23 -64 14 -97 -23z"/>
<path d="M4442 10174 l-23 -75 -41 3 c-56 4 -64 -19 -9 -28 41 -7 41 -7 35
-40 -7 -41 1 -77 22 -98 21 -21 107 -22 124 -1 14 17 13 17 -52 15 -56 -2 -74
20 -63 79 8 41 19 51 58 51 33 0 67 16 67 32 0 7 -18 8 -54 4 l-55 -7 20 50
c22 59 24 91 7 91 -7 0 -23 -34 -36 -76z"/>
<path d="M3384 10140 c-62 -25 -84 -144 -34 -181 23 -17 29 -18 79 -4 63 16
91 39 74 56 -9 9 -16 8 -27 -4 -18 -17 -98 -33 -115 -22 -20 12 -12 35 13 35
26 0 70 44 82 82 4 15 1 25 -12 35 -20 15 -30 15 -60 3z m36 -35 c0 -15 -34
-55 -46 -55 -19 0 -18 19 3 42 15 17 43 25 43 13z"/>
<path d="M3983 10051 c-82 -51 -66 -157 24 -155 47 2 92 22 73 34 -7 4 -8 10
-4 12 5 3 2 2 -6 0 -41 -14 -97 -13 -103 1 -4 11 4 17 28 21 43 8 57 27 53 68
-4 40 -22 45 -65 19z m37 -29 c0 -13 -23 -32 -39 -32 -11 0 -10 4 4 20 19 21
35 26 35 12z"/>
<path d="M4165 10035 c-33 -32 -34 -87 -3 -109 26 -18 61 -20 89 -6 31 17 22
27 -22 26 -29 -1 -45 4 -53 17 -13 20 2 51 25 53 28 2 30 4 19 24 -14 26 -26
25 -55 -5z"/>
<path d="M12445 9940 c-13 -14 -15 -23 -7 -33 8 -9 1 -34 -26 -97 -68 -154
-123 -296 -125 -326 -2 -23 2 -29 18 -29 15 0 19 6 17 25 -2 23 20 83 132 354
25 60 43 113 40 118 -9 14 -30 9 -49 -12z"/>
<path d="M7596 9873 c-43 -59 -142 -219 -183 -294 -17 -30 -43 -74 -58 -97
-27 -42 -28 -59 -3 -49 7 2 35 42 62 88 27 46 50 85 50 85 1 1 27 5 59 9 l58
7 -2 -39 c-2 -22 1 -44 5 -51 15 -25 26 -10 26 34 0 33 5 51 17 59 14 10 15
16 5 27 -9 11 -7 40 8 127 11 63 20 120 20 127 0 29 -31 12 -64 -33z m7 -126
c-16 -94 -17 -97 -42 -97 -14 0 -37 -3 -50 -7 -20 -5 -23 -3 -18 11 8 21 121
196 124 192 1 -1 -5 -46 -14 -99z"/>
<path d="M9984 9803 l-39 -117 -67 -11 c-73 -12 -88 -19 -70 -37 8 -8 23 -7
56 4 25 8 49 12 55 9 7 -4 2 -34 -14 -81 -14 -45 -20 -79 -14 -84 13 -14 16
-8 47 85 27 81 29 84 65 92 47 11 53 42 7 35 -16 -3 -30 -4 -30 -4 0 1 16 46
35 100 34 93 38 126 17 126 -5 0 -26 -53 -48 -117z"/>
<path d="M8426 9898 c-2 -7 -6 -29 -9 -48 -7 -50 -75 -221 -98 -246 -12 -13
-17 -28 -13 -38 3 -9 1 -36 -6 -61 -7 -24 -9 -48 -6 -54 10 -16 36 -1 36 21 0
53 23 109 51 123 35 19 70 19 94 1 18 -13 19 -18 6 -73 -17 -74 -19 -105 -6
-110 12 -4 45 110 45 155 0 36 -29 63 -76 71 l-37 6 82 79 c44 44 81 83 81 87
0 14 -40 16 -51 3 -6 -8 -8 -14 -3 -14 10 0 -63 -76 -98 -101 l-26 -19 29 77
c33 84 41 143 22 150 -7 3 -15 -1 -17 -9z"/>
<path d="M10170 9882 c0 -38 -30 -137 -84 -276 -58 -150 -50 -170 31 -78 38
43 62 62 79 62 23 0 24 -3 21 -61 -1 -39 2 -63 9 -66 14 -5 29 113 18 140 -11
30 -51 32 -91 4 -21 -15 -38 -25 -40 -23 -2 1 10 35 26 74 33 80 73 230 65
243 -12 20 -34 8 -34 -19z"/>
<path d="M1741 9886 c-20 -24 -52 -130 -58 -193 -5 -52 -9 -62 -26 -65 -29 -4
-34 -28 -6 -28 20 0 21 -3 16 -42 -4 -24 -9 -58 -13 -77 -6 -29 -5 -33 12 -29
16 3 21 16 27 76 9 71 9 72 38 72 19 0 29 5 29 15 0 10 -10 15 -26 15 l-27 0
7 65 c4 35 16 89 28 120 18 49 23 54 44 49 17 -4 24 -2 24 9 0 27 -50 36 -69
13z"/>
<path d="M5430 9885 c-10 -12 -9 -16 4 -21 20 -8 21 -63 0 -204 -8 -58 -16
-121 -17 -140 l-2 -35 50 3 c81 6 124 65 84 115 -24 31 -45 34 -72 10 -19 -17
-20 -17 -14 7 14 58 20 236 8 258 -14 26 -24 28 -41 7z m98 -318 c3 -21 -3
-30 -23 -39 -40 -18 -53 3 -25 42 26 36 44 35 48 -3z"/>
<path d="M8048 9893 c-3 -4 -6 -30 -7 -56 -1 -29 -22 -109 -51 -194 -28 -80
-50 -152 -50 -159 0 -23 27 -16 35 9 7 21 8 20 14 -8 12 -57 89 -41 131 28 23
37 26 80 7 96 -17 13 -75 17 -99 7 -15 -7 -15 1 7 64 38 111 50 190 32 207 -8
8 -17 11 -19 6z m62 -320 c0 -28 -36 -80 -60 -88 -29 -9 -34 -1 -22 34 7 20 7
33 1 37 -19 11 13 34 47 34 26 0 34 -4 34 -17z"/>
<path d="M15015 9890 c-8 -13 -26 -81 -71 -263 -24 -101 -33 -152 -26 -159 15
-15 32 -1 32 27 0 27 43 212 71 304 10 35 19 72 19 82 0 20 -15 26 -25 9z"/>
<path d="M14310 9846 c-5 -15 -10 -33 -10 -41 0 -22 -50 -154 -82 -219 -40
-80 -24 -95 36 -32 50 51 93 63 82 24 -16 -58 -18 -78 -7 -78 15 0 41 61 41
95 0 32 -42 52 -76 36 -22 -10 -22 -8 7 72 31 90 35 117 17 117 -6 0 -3 6 8
14 15 12 16 17 7 27 -10 10 -14 6 -23 -15z"/>
<path d="M4510 9852 c0 -5 7 -58 15 -118 9 -60 15 -140 13 -179 -4 -88 14 -94
45 -15 12 30 27 55 32 55 6 0 17 -22 25 -48 16 -49 39 -75 51 -55 4 6 1 22 -6
37 -7 14 -20 43 -29 64 -17 40 -38 47 -66 22 -16 -14 -18 -8 -29 92 -16 136
-20 153 -37 153 -8 0 -14 -4 -14 -8z"/>
<path d="M5840 9853 c0 -80 -11 -208 -18 -216 -5 -7 -7 -43 -3 -82 4 -52 10
-70 21 -70 10 0 15 13 15 50 2 76 2 75 44 75 56 0 62 -13 56 -118 -3 -59 -1
-93 6 -97 18 -12 20 0 25 104 4 91 3 102 -16 121 -13 13 -33 20 -60 20 -40 0
-40 0 -25 23 8 13 12 27 8 31 -5 4 -3 6 2 5 11 -3 115 99 115 112 0 16 -27 9
-51 -14 -13 -12 -40 -41 -59 -63 l-35 -42 4 84 c3 72 1 84 -13 84 -9 0 -16 -3
-16 -7z m140 -427 c0 -3 -4 -8 -10 -11 -5 -3 -10 -1 -10 4 0 6 5 11 10 11 6 0
10 -2 10 -4z"/>
<path d="M4343 9818 c-6 -7 -10 -26 -10 -43 0 -16 -3 -47 -7 -67 -7 -38 -7
-38 -57 -38 -65 0 -62 -24 3 -28 l46 -3 7 -65 c6 -54 12 -70 40 -100 20 -21
41 -34 52 -32 24 4 23 30 -2 34 -37 5 -65 66 -65 143 0 23 2 23 48 18 26 -3
54 -2 61 3 26 15 -1 30 -55 30 -51 0 -54 1 -50 23 10 47 26 128 26 132 0 10
-28 4 -37 -7z"/>
<path d="M7180 9823 c0 -10 -57 -100 -75 -119 -8 -8 -11 1 -11 35 1 34 -3 46
-14 46 -11 0 -15 -10 -13 -35 1 -34 1 -35 -14 -12 -19 27 -66 31 -61 5 2 -10
9 -18 15 -18 16 0 29 -15 38 -43 6 -22 5 -22 -47 -16 -48 5 -55 4 -77 -20 -20
-21 -22 -29 -12 -39 10 -9 16 -7 30 12 16 20 24 23 55 17 35 -7 36 -7 20 -31
-9 -14 -20 -22 -26 -19 -9 6 -38 -13 -38 -26 0 -4 12 -11 27 -15 21 -5 31 -1
43 16 l17 22 6 -22 c3 -11 12 -21 21 -21 13 0 15 7 10 43 l-7 42 31 -33 c21
-22 39 -32 53 -30 28 4 38 28 11 28 -17 0 -52 28 -52 43 0 3 12 7 28 9 16 2
27 9 27 18 0 10 -8 14 -23 12 -21 -3 -19 2 23 64 25 36 44 71 42 77 -4 14 -27
22 -27 10z"/>
<path d="M5650 9747 c0 -31 9 -38 31 -26 16 8 17 13 6 29 -16 27 -37 25 -37
-3z"/>
<path d="M9795 9740 c-3 -5 -4 -14 0 -20 8 -13 35 -1 35 16 0 16 -26 19 -35 4z"/>
<path d="M8220 9727 c0 -20 9 -25 31 -20 28 8 24 33 -6 33 -14 0 -25 -6 -25
-13z"/>
<path d="M10992 9690 c-18 -4 -35 -9 -37 -12 -2 -2 -16 -48 -30 -103 -14 -54
-28 -101 -30 -104 -5 -4 -9 64 -8 114 0 21 -16 37 -29 29 -11 -7 0 -141 13
-166 26 -48 57 -7 83 111 9 41 21 80 27 88 6 7 29 13 50 13 44 0 58 14 30 29
-22 12 -22 12 -69 1z"/>
<path d="M9363 9660 c-35 -16 -63 -33 -63 -38 0 -20 15 -20 61 3 69 36 75 31
35 -24 -20 -27 -36 -54 -36 -60 0 -16 31 -13 55 4 18 14 20 12 40 -27 23 -50
46 -57 90 -30 35 22 95 127 95 167 0 42 -19 25 -45 -40 -22 -55 -72 -115 -95
-115 -5 0 -15 19 -22 41 -7 24 -20 44 -29 46 -16 4 -15 8 4 40 20 35 20 36 2
49 -24 18 -20 19 -92 -16z"/>
<path d="M4799 9668 c-27 -9 -49 -44 -49 -78 0 -11 -4 -20 -10 -20 -5 0 -10
-7 -10 -15 0 -8 4 -15 9 -15 5 0 14 -14 21 -31 20 -46 51 -63 93 -50 47 16 85
57 68 74 -10 9 -16 8 -29 -9 -9 -12 -28 -27 -41 -34 -22 -11 -27 -10 -48 14
-30 35 -29 42 6 60 33 18 65 62 57 81 -8 23 -39 33 -67 23z m19 -55 c-30 -30
-46 -26 -28 6 6 12 21 21 33 21 21 0 21 -1 -5 -27z"/>
<path d="M11374 9669 c-4 -8 -12 -36 -16 -64 -3 -27 -10 -63 -14 -78 -6 -25
-4 -28 12 -25 11 2 22 17 28 38 5 19 20 49 33 67 20 28 28 32 55 26 35 -7 36
11 2 33 -15 11 -24 11 -44 1 -21 -11 -27 -11 -36 2 -9 12 -12 12 -20 0z"/>
<path d="M11629 9615 c-23 -36 -44 -65 -46 -65 -1 0 -12 18 -23 40 -20 40 -40
53 -40 26 0 -8 9 -36 20 -61 l20 -48 -39 -51 c-92 -121 -138 -216 -96 -200 8
4 15 10 15 15 0 11 63 107 169 259 44 63 81 120 81 127 0 32 -22 17 -61 -42z"/>
<path d="M13880 9654 c-25 -14 -48 -31 -52 -37 -16 -26 6 -25 56 3 29 17 63
30 77 30 21 0 16 -7 -39 -63 -34 -34 -62 -68 -62 -75 0 -19 30 -14 76 13 l43
25 3 -41 c4 -57 26 -70 74 -44 47 25 87 85 88 133 1 53 -16 51 -29 -3 -13 -51
-58 -105 -88 -105 -16 0 -18 5 -14 33 6 38 -9 71 -29 63 -9 -4 -7 4 7 23 31
42 22 65 -26 69 -28 2 -53 -5 -85 -24z"/>
<path d="M14535 9650 c-25 -10 -91 -80 -76 -80 6 0 11 -9 11 -20 0 -33 44 -70
83 -70 31 0 57 14 57 32 0 5 -17 5 -38 2 -29 -4 -43 -2 -55 11 -25 24 -21 35
11 35 30 0 72 36 72 61 0 18 -20 39 -34 38 -6 0 -20 -4 -31 -9z m21 -45 c-11
-8 -27 -15 -35 -15 -13 1 -12 4 3 15 11 8 27 15 35 15 13 -1 12 -4 -3 -15z"/>
<path d="M15091 9651 c-11 -7 -11 -19 2 -75 8 -36 11 -68 7 -71 -13 -8 -40 6
-40 21 0 16 -2 16 -24 8 -25 -10 -19 -32 14 -49 67 -34 99 -10 82 63 -6 26
-14 55 -17 65 -6 14 -2 17 20 17 15 0 34 -8 41 -17 12 -17 13 -17 19 0 4 9 2
24 -5 32 -13 16 -77 20 -99 6z"/>
<path d="M1491 9637 c-37 -45 -54 -143 -26 -153 55 -21 102 41 91 120 -6 39
-11 46 -30 46 -13 0 -29 -6 -35 -13z m39 -61 c0 -27 -34 -75 -46 -64 -4 5 -2
26 5 48 13 44 41 55 41 16z"/>
<path d="M8626 9629 c-59 -46 -73 -123 -31 -164 28 -29 54 -31 98 -10 55 27
81 51 74 70 -6 15 -12 13 -45 -13 -54 -43 -86 -49 -106 -21 -20 29 -20 39 -1
39 28 0 71 28 82 53 9 19 8 29 -3 46 -19 26 -34 27 -68 0z m44 -29 c0 -11 -48
-45 -55 -38 -3 2 2 14 11 26 15 22 44 30 44 12z"/>
<path d="M11129 9612 c-41 -42 -58 -86 -42 -111 19 -30 193 -26 193 4 0 11
-16 13 -85 8 -76 -5 -85 -4 -85 11 0 11 17 25 48 38 66 29 84 46 71 69 -16 31
-57 23 -100 -19z m66 -2 c-3 -5 -11 -10 -16 -10 -6 0 -7 5 -4 10 3 6 11 10 16
10 6 0 7 -4 4 -10z"/>
<path d="M13144 9639 c-22 -11 -44 -60 -44 -98 0 -12 14 -36 30 -53 27 -27 36
-30 71 -25 69 9 148 62 126 84 -5 4 -16 2 -25 -5 -9 -7 -37 -22 -60 -33 -49
-23 -86 -19 -102 11 -9 17 -8 20 13 20 23 0 77 46 77 66 0 15 -34 44 -51 43
-8 0 -23 -5 -35 -10z m46 -34 c0 -12 -28 -35 -44 -35 -11 0 -6 19 10 34 19 20
34 20 34 1z"/>
<path d="M14681 9620 c-17 -18 -34 -42 -37 -55 -8 -31 23 -82 55 -93 31 -10
90 1 102 20 14 21 10 31 -8 23 -34 -15 -83 -17 -98 -5 -23 19 -18 40 10 40 25
0 75 39 75 58 0 13 -20 28 -46 36 -16 5 -30 -1 -53 -24z m49 -25 c-7 -8 -19
-15 -27 -15 -13 0 -13 3 -3 15 7 8 19 15 27 15 13 0 13 -3 3 -15z"/>
<path d="M2218 9616 c-26 -59 40 -105 77 -53 15 21 15 16 10 -68 -4 -49 -8
-95 -10 -102 -3 -7 -20 -12 -41 -11 -28 1 -42 -4 -56 -22 -32 -40 -7 -110 44
-123 23 -6 68 32 68 58 0 19 9 19 31 -1 33 -30 41 -10 12 31 -30 42 -31 46
-19 175 4 41 3 89 -2 105 -8 27 -13 30 -55 33 -42 3 -48 0 -59 -22z m62 -15
c0 -5 -6 -14 -14 -20 -10 -9 -15 -8 -19 3 -3 8 -3 17 0 20 9 9 33 7 33 -3z m3
-258 c2 -5 0 -23 -5 -40 -6 -23 -14 -33 -29 -33 -22 0 -42 40 -33 65 6 15 59
21 67 8z"/>
<path d="M2431 9612 c-41 -58 -16 -120 56 -138 31 -8 85 7 91 25 3 10 -5 12
-36 6 -29 -5 -49 -2 -73 11 l-33 17 38 19 c33 17 37 23 34 51 -2 26 -8 33 -29
35 -20 2 -32 -4 -48 -26z m49 -12 c0 -5 -10 -15 -22 -21 -23 -12 -23 -12 -4
10 21 23 26 26 26 11z"/>
<path d="M2796 9627 c-13 -9 -20 -30 -24 -65 -4 -46 -2 -52 15 -52 15 0 19 7
19 33 0 57 9 67 60 67 32 0 44 4 42 13 -6 17 -89 21 -112 4z"/>
<path d="M2936 9624 c-22 -21 -21 -25 14 -69 36 -45 36 -45 9 -45 -12 0 -23 8
-26 20 -6 22 -11 24 -33 10 -23 -15 0 -43 49 -59 33 -10 45 -10 56 -1 22 18
18 35 -16 74 -33 39 -31 56 7 56 15 0 24 6 24 15 0 21 -64 20 -84 -1z"/>
<path d="M6144 9626 c-51 -36 -66 -132 -30 -182 32 -43 156 -9 164 45 4 27
-13 27 -31 0 -27 -38 -117 -42 -117 -6 0 7 15 19 33 27 40 19 63 63 51 99 -11
30 -40 38 -70 17z m35 -57 c-14 -28 -30 -40 -41 -33 -13 8 -10 19 13 48 26 33
48 21 28 -15z"/>
<path d="M8175 9628 c-25 -75 -37 -120 -32 -125 11 -10 37 6 37 24 0 10 7 36
14 58 8 22 12 43 9 47 -7 12 -23 9 -28 -4z"/>
<path d="M2634 9622 c-20 -13 -35 -52 -29 -72 8 -26 40 -43 66 -35 14 5 26 -1
41 -20 26 -33 49 -19 24 16 -9 13 -16 33 -16 44 0 21 -48 75 -66 75 -5 0 -14
-4 -20 -8z m35 -41 c12 -8 13 -12 2 -25 -16 -19 -43 -3 -34 20 6 16 12 17 32
5z"/>
<path d="M9710 9571 c-21 -57 -20 -86 2 -79 9 3 47 108 48 131 0 4 -6 7 -14 7
-7 0 -23 -26 -36 -59z"/>
<path d="M12518 9610 c-44 -24 -78 -65 -78 -96 0 -32 31 -39 78 -16 l40 19 0
-24 c0 -14 4 -29 10 -35 17 -17 32 1 26 31 -3 15 1 44 10 65 20 48 20 53 -1
59 -10 2 -25 7 -33 10 -8 4 -31 -3 -52 -13z m52 -28 c0 -14 -43 -50 -72 -61
-31 -12 -33 -9 -18 19 17 31 90 65 90 42z"/>
<path d="M12755 9620 c-3 -5 -11 -7 -18 -4 -15 6 -62 -90 -54 -111 10 -25 24
-17 40 24 19 46 50 71 89 71 30 0 38 14 12 24 -24 9 -62 7 -69 -4z"/>
<path d="M12881 9605 c-73 -62 -35 -129 54 -95 25 10 27 9 22 -12 -3 -13 -9
-53 -12 -90 l-7 -68 -37 -5 c-71 -12 -83 -16 -107 -40 -19 -19 -24 -35 -24
-72 0 -59 21 -93 57 -93 36 0 98 67 120 131 l18 50 43 -6 c34 -5 42 -3 42 9 0
11 -13 18 -40 22 -28 5 -40 12 -40 23 1 46 28 193 38 203 17 17 15 58 -3 58
-8 0 -15 -5 -15 -11 0 -6 -7 -3 -16 5 -23 23 -58 20 -93 -9z m75 -19 c8 -8 14
-17 14 -21 0 -7 -64 -35 -80 -35 -19 0 -10 39 12 54 28 20 36 20 54 2z m-37
-313 c-28 -75 -90 -133 -110 -102 -11 17 -11 80 -1 95 13 20 47 33 84 34 37 0
37 -1 27 -27z"/>
<path d="M5611 9545 c-1 -61 2 -75 14 -75 9 0 15 9 15 23 0 12 3 46 6 75 6 48
5 52 -14 52 -18 0 -20 -7 -21 -75z"/>
<path d="M3629 9608 c0 -2 -2 -19 -3 -38 -1 -19 -6 -47 -10 -62 -13 -43 16
-36 48 12 33 50 46 51 46 2 0 -62 50 -90 100 -57 11 8 6 11 -25 15 l-40 5 -5
52 c-7 70 -22 84 -55 53 l-25 -23 0 21 c0 13 -6 22 -15 22 -8 0 -15 -1 -16 -2z"/>
<path d="M3461 9574 c-40 -51 -19 -114 38 -114 47 0 65 21 58 69 -3 23 -11 48
-17 56 -19 23 -56 18 -79 -11z m64 -34 c8 -36 0 -50 -26 -50 -25 0 -35 25 -21
56 16 33 39 30 47 -6z"/>
<path d="M5679 9478 c-1 -2 -2 -14 -4 -28 -1 -14 -14 -73 -29 -131 l-28 -106
-62 1 c-46 1 -61 -2 -61 -13 0 -10 15 -15 49 -17 27 -2 51 -6 54 -8 2 -3 -3
-26 -12 -52 -19 -58 -21 -117 -4 -112 7 3 16 22 20 44 4 21 13 57 21 79 12 34
19 40 46 43 36 4 38 25 2 30 -16 3 -21 9 -18 20 61 222 65 252 37 252 -5 0
-11 -1 -11 -2z"/>
<path d="M6367 9453 c-13 -12 -7 -23 13 -23 11 0 20 7 20 15 0 15 -21 21 -33
8z"/>
<path d="M5796 9434 c-3 -9 -6 -25 -6 -37 0 -12 -19 -80 -41 -152 -59 -192
-69 -227 -63 -237 10 -16 23 -4 66 61 24 36 48 66 54 68 7 3 11 -17 10 -56 -1
-33 4 -62 9 -63 12 -3 27 97 20 130 -7 30 -42 29 -76 -4 l-27 -26 19 56 c10
31 16 63 13 71 -4 8 -2 15 4 15 13 0 42 106 42 153 0 38 -13 49 -24 21z"/>
<path d="M2692 9398 c0 -23 -35 -252 -48 -315 -3 -18 -11 -31 -17 -30 -6 1
-13 -6 -15 -16 -3 -15 2 -18 29 -15 31 3 33 5 36 47 2 24 9 83 18 130 26 154
30 221 13 221 -9 0 -16 -9 -16 -22z"/>
<path d="M12530 9334 l-34 -86 -48 6 c-39 6 -48 4 -48 -9 0 -10 14 -17 41 -21
35 -6 40 -9 34 -28 -3 -12 -8 -44 -12 -72 -4 -39 -2 -54 12 -67 25 -26 105
-19 105 9 0 11 -11 14 -42 12 -40 -3 -43 -1 -46 25 -2 15 4 49 13 76 l16 48
61 9 c38 6 63 14 66 23 4 11 -6 13 -52 8 -31 -3 -56 -2 -56 3 0 5 11 35 25 66
28 63 31 84 12 84 -7 0 -28 -39 -47 -86z"/>
<path d="M1705 9398 c-3 -7 -13 -51 -22 -98 l-18 -85 -72 -13 c-52 -10 -73
-19 -73 -29 0 -16 16 -15 107 3 l33 6 -14 -39 c-23 -65 -24 -143 -2 -143 9 0
15 19 18 63 6 76 26 122 53 123 41 2 47 4 42 17 -2 7 -15 11 -30 9 -33 -4 -34
5 -8 108 11 41 17 78 14 83 -7 11 -23 8 -28 -5z"/>
<path d="M4210 9363 c0 -27 -16 -102 -35 -168 -37 -129 -42 -165 -22 -164 6 0
26 19 42 41 39 54 51 57 59 14 8 -41 33 -67 46 -47 4 8 2 25 -6 40 -8 14 -14
31 -14 37 0 26 -30 38 -62 26 -27 -10 -29 -9 -25 6 52 168 63 262 31 262 -10
0 -14 -14 -14 -47z"/>
<path d="M5062 9376 c-29 -33 -52 -105 -52 -161 0 -27 -9 -31 -92 -41 -42 -4
-58 -11 -58 -21 0 -13 12 -14 70 -8 l71 7 -7 -28 c-11 -47 -55 -135 -70 -141
-20 -7 -17 -33 4 -33 24 0 58 57 85 140 l22 70 53 0 c39 0 52 4 52 15 0 14
-44 22 -89 16 -10 -2 -12 9 -6 51 4 29 13 67 20 85 14 33 48 58 65 48 18 -11
32 5 19 21 -20 24 -55 16 -87 -20z"/>
<path d="M14502 9378 c-11 -18 -32 -71 -47 -118 -15 -47 -50 -125 -77 -173
-38 -66 -48 -91 -39 -100 8 -8 28 5 76 53 35 35 67 61 70 59 3 -3 0 -20 -6
-38 -7 -21 -8 -36 -2 -42 17 -17 35 17 36 68 2 61 -17 67 -69 21 l-38 -33 21
35 c12 19 37 81 57 137 19 56 42 113 51 126 14 22 12 37 -6 37 -4 0 -16 -15
-27 -32z"/>
<path d="M10220 9373 c0 -28 -46 -175 -89 -281 -28 -71 -8 -80 48 -20 l40 43
1 -41 c0 -23 6 -47 14 -53 20 -16 23 -5 18 63 l-4 58 -33 -5 -33 -5 20 61 c11
34 26 83 35 109 16 53 15 89 -4 96 -9 2 -13 -7 -13 -25z"/>
<path d="M12128 9291 l-28 -88 -41 -6 c-48 -6 -64 -19 -55 -43 6 -15 8 -16 24
0 10 9 29 16 41 16 18 0 20 -3 11 -19 -14 -27 -40 -143 -34 -152 12 -19 33 6
39 47 12 81 30 119 55 119 30 0 38 25 10 32 -11 3 -19 11 -17 17 37 97 48 138
44 151 -12 29 -22 14 -49 -74z"/>
<path d="M14330 9340 c-6 -22 -24 -69 -40 -105 l-29 -65 -66 0 c-51 0 -65 -3
-65 -15 0 -12 13 -15 55 -15 30 0 55 -4 55 -9 0 -5 -13 -37 -29 -71 -28 -59
-31 -95 -8 -87 6 2 14 14 18 28 3 13 18 50 32 82 26 57 26 57 69 57 24 0 49 4
57 9 24 16 2 29 -39 24 -22 -3 -40 -2 -40 2 0 3 13 37 29 73 39 90 48 132 27
132 -9 0 -19 -15 -26 -40z"/>
<path d="M7236 9278 c-22 -123 -21 -121 -44 -107 -26 16 -66 4 -86 -26 -24
-37 -26 -124 -3 -139 49 -32 129 82 153 219 8 49 20 95 26 102 13 16 3 43 -16
43 -10 0 -19 -27 -30 -92z m-58 -160 c2 -16 -7 -37 -23 -57 -37 -43 -49 -40
-41 11 11 70 57 103 64 46z"/>
<path d="M13170 9351 c0 -12 6 -21 16 -21 9 0 14 7 12 17 -5 25 -28 28 -28 4z"/>
<path d="M9268 9355 c-3 -4 -4 -24 -1 -45 4 -29 -3 -61 -31 -132 -65 -169 -58
-202 25 -116 l51 53 -6 -36 c-9 -54 7 -89 42 -89 34 0 78 28 64 42 -5 5 -19 4
-36 -3 -40 -18 -49 -3 -38 62 17 91 -1 102 -60 37 -21 -23 -38 -39 -38 -35 0
4 14 43 31 87 22 57 29 92 27 126 -3 43 -15 63 -30 49z"/>
<path d="M10808 9353 c0 -5 -2 -19 -3 -33 -1 -14 -10 -68 -19 -120 -20 -111
-19 -205 3 -205 11 0 14 14 13 60 -1 33 8 113 21 177 13 65 21 120 19 123 -8
8 -32 6 -34 -2z"/>
<path d="M7765 9290 c-10 -11 -15 -23 -12 -27 10 -9 57 18 57 34 0 19 -24 16
-45 -7z"/>
<path d="M11727 9209 c-21 -22 -37 -45 -37 -50 0 -6 -6 -22 -14 -37 -25 -50
-29 -72 -12 -72 9 0 30 30 52 75 43 87 59 106 69 76 7 -23 35 -29 35 -8 0 19
-29 57 -44 57 -7 0 -29 -18 -49 -41z"/>
<path d="M9870 9214 c-82 -28 -94 -34 -82 -46 8 -8 25 -6 62 6 29 10 54 16 56
14 2 -2 -15 -32 -37 -67 -66 -104 -54 -140 24 -71 l46 41 13 -28 c18 -38 56
-42 87 -9 25 26 45 102 30 112 -16 9 -29 -7 -29 -35 0 -24 -44 -83 -53 -70 -2
2 -8 16 -15 32 -13 31 -37 35 -65 10 -14 -13 -10 0 14 45 29 53 32 64 19 72
-18 12 -14 12 -70 -6z"/>
<path d="M2790 9211 c-35 -9 -36 -40 -5 -101 28 -54 26 -80 -3 -43 -19 25 -49
16 -39 -11 8 -22 71 -50 92 -42 22 8 13 54 -22 114 -14 24 -23 46 -20 49 4 3
25 6 47 6 25 0 40 4 40 12 0 23 -39 30 -90 16z"/>
<path d="M6145 9200 c-17 -19 -19 -19 -31 -2 -19 26 -38 3 -25 -31 7 -17 7
-27 1 -27 -6 0 -10 -9 -10 -20 0 -10 -5 -30 -11 -44 -9 -20 -9 -29 1 -41 16
-19 30 -10 30 18 0 24 52 121 72 133 6 4 14 2 16 -4 2 -7 11 -19 19 -28 25
-25 36 -1 16 34 -21 37 -51 42 -78 12z"/>
<path d="M8650 9180 c-52 -55 -47 -114 12 -150 40 -24 108 -27 108 -5 0 10
-10 15 -32 15 -18 1 -44 7 -57 14 l-24 13 44 24 c24 13 50 36 58 51 14 24 14
28 -3 47 -28 31 -72 27 -106 -9z m78 -9 c10 -6 4 -16 -24 -40 -43 -35 -67 -41
-57 -13 8 23 44 62 57 62 6 0 17 -4 24 -9z"/>
<path d="M13453 9175 l-52 -35 2 28 c3 39 -25 35 -34 -5 -3 -17 -16 -50 -28
-73 -25 -49 -26 -50 -3 -50 9 0 41 25 71 55 29 30 57 55 60 55 4 0 7 -19 7
-42 l-1 -43 44 -3 c50 -4 66 7 56 37 -7 24 -25 28 -25 6 0 -9 -9 -15 -25 -15
-29 0 -32 21 -10 60 18 31 19 60 2 60 -7 0 -36 -16 -64 -35z"/>
<path d="M3486 9188 c-2 -7 -13 -46 -26 -87 -31 -103 -14 -115 40 -28 52 83
75 96 55 31 -11 -39 -11 -46 1 -51 8 -3 25 8 40 26 14 17 38 40 54 51 l29 20
-6 -55 c-5 -50 5 -85 26 -85 3 0 7 39 8 86 2 102 -9 112 -68 65 -34 -28 -39
-30 -39 -13 0 11 -7 25 -15 32 -13 11 -21 9 -45 -9 -29 -21 -30 -21 -30 -2 0
23 -19 38 -24 19z"/>
<path d="M8855 9169 c-17 -21 -25 -41 -23 -58 3 -27 14 -30 55 -17 17 6 22 4
17 -7 -2 -7 4 -25 15 -38 16 -20 22 -22 33 -11 11 11 10 14 -1 21 -13 9 -12
25 4 92 5 21 2 27 -20 37 -39 18 -51 15 -80 -19z m60 -9 c6 -9 -42 -46 -50
-38 -6 6 24 48 35 48 5 0 11 -4 15 -10z"/>
<path d="M13176 9170 c-39 -34 -50 -67 -36 -104 11 -31 45 -41 85 -26 52 20
67 61 43 117 -23 52 -43 55 -92 13z m71 -74 c-7 -18 -54 -39 -68 -30 -20 12
-9 63 18 84 l28 21 14 -29 c7 -17 11 -37 8 -46z"/>
<path d="M1797 9159 c-46 -45 -72 -172 -29 -145 6 3 13 24 17 46 8 47 51 104
72 96 22 -9 36 4 22 20 -18 22 -47 16 -82 -17z"/>
<path d="M5899 9161 c-20 -20 -29 -39 -29 -61 0 -34 46 -90 74 -90 29 0 96 32
96 46 0 18 -9 18 -54 -1 -27 -12 -42 -13 -56 -5 -29 16 -25 25 20 43 41 16 67
53 57 81 -11 28 -74 20 -108 -13z m67 -20 c-19 -21 -56 -34 -56 -21 0 12 41
40 59 40 11 0 11 -4 -3 -19z"/>
<path d="M10400 9177 c-13 -7 -34 -27 -46 -44 -16 -24 -24 -29 -33 -20 -8 8
-14 8 -22 0 -8 -8 -5 -17 10 -32 12 -12 21 -27 21 -34 0 -22 39 -57 63 -57 35
0 95 19 112 36 8 9 15 11 15 5 0 -33 135 -56 159 -28 16 20 5 25 -44 19 -77
-8 -129 44 -63 63 42 13 76 59 62 83 -20 31 -48 25 -90 -20 -27 -30 -39 -52
-39 -72 0 -18 -6 -30 -15 -32 -8 -2 -34 -8 -58 -15 -33 -9 -45 -9 -57 1 -21
17 -19 40 3 40 22 0 82 60 82 81 0 15 -19 39 -29 39 -4 0 -17 -6 -31 -13z m20
-43 c-19 -22 -55 -41 -45 -22 16 28 28 38 42 38 13 0 13 -3 3 -16z m174 2 c-6
-16 -34 -30 -34 -18 0 10 22 32 32 32 4 0 5 -6 2 -14z"/>
<path d="M11860 9179 c0 -6 -12 -26 -26 -45 -48 -62 -5 -116 64 -80 45 23 52
75 14 119 -17 19 -52 23 -52 6z m38 -66 c-2 -22 -9 -29 -30 -31 -32 -4 -34 0
-12 33 22 34 46 33 42 -2z"/>
<path d="M13011 9130 c-22 -42 -30 -67 -25 -85 9 -36 34 -32 34 5 0 17 11 52
25 77 23 44 25 63 5 63 -4 0 -22 -27 -39 -60z"/>
<path d="M3995 9171 c-35 -15 -57 -48 -57 -87 0 -48 17 -63 80 -71 47 -5 52
-4 52 13 0 16 -2 17 -10 4 -5 -8 -10 -10 -10 -4 0 6 -18 14 -40 18 -37 6 -40
8 -40 40 0 37 13 52 50 58 14 1 25 10 25 18 0 17 -22 22 -50 11z"/>
<path d="M7305 9150 c-18 -35 -20 -101 -3 -118 23 -23 56 -13 93 30 38 45 51
78 41 104 -7 19 -26 9 -26 -15 0 -25 -57 -101 -75 -101 -20 0 -20 59 0 86 19
25 19 44 0 44 -8 0 -21 -13 -30 -30z"/>
<path d="M7542 9168 c-7 -7 -22 -13 -35 -13 -15 0 -22 -6 -23 -20 -1 -11 -6
-33 -13 -48 -14 -34 -14 -44 -1 -52 5 -3 18 12 29 34 25 47 65 81 98 81 35 0
24 24 -13 28 -16 2 -35 -3 -42 -10z"/>
<path d="M7963 9147 c-34 -36 -45 -60 -37 -82 8 -20 54 -19 82 1 22 15 22 15
24 -33 2 -54 0 -115 -5 -119 -2 -2 -31 2 -65 8 -98 18 -132 -13 -132 -123 0
-41 4 -51 25 -65 16 -10 34 -14 51 -10 31 8 121 90 130 118 4 13 12 18 25 15
26 -7 36 13 15 29 -14 10 -17 21 -12 51 3 21 0 83 -7 137 -12 96 -13 99 -38
102 -19 2 -35 -7 -56 -29z m57 -12 c0 -15 -38 -55 -52 -55 -15 0 -8 21 17 45
28 29 35 31 35 10z m-51 -246 l51 -11 -14 -26 c-28 -54 -101 -107 -131 -95
-14 5 -16 16 -13 59 5 54 20 84 44 84 7 0 36 -5 63 -11z"/>
<path d="M9030 9144 c-51 -82 -6 -143 88 -118 42 12 25 32 -25 30 -45 -1 -48
1 -51 27 -3 20 5 35 27 56 37 35 38 41 7 41 -17 0 -31 -11 -46 -36z"/>
<path d="M14603 9135 c-36 -36 -43 -48 -37 -67 3 -13 12 -26 18 -30 12 -8 55
0 73 14 8 6 12 2 15 -14 5 -35 33 -29 35 7 1 17 6 43 12 58 9 22 8 33 -5 52
-25 38 -59 32 -111 -20z m77 -3 c0 -20 -34 -55 -62 -65 -31 -11 -21 29 15 57
38 31 47 32 47 8z"/>
<path d="M14797 9114 c-61 -104 -39 -118 55 -35 25 23 48 41 51 41 3 0 0 -16
-5 -35 -13 -39 3 -69 31 -61 9 2 32 7 53 10 35 6 54 28 42 47 -3 5 -15 3 -27
-6 -12 -8 -34 -15 -49 -15 l-28 0 15 36 c31 75 6 94 -57 43 -31 -25 -40 -28
-34 -13 30 72 -3 64 -47 -12z"/>
<path d="M7790 9163 c-18 -3 -31 -18 -48 -51 -12 -26 -22 -50 -22 -54 0 -11
30 -10 30 0 0 13 67 82 79 82 7 0 11 -20 11 -50 0 -38 4 -50 15 -50 11 0 15
13 15 53 0 72 -11 82 -80 70z"/>
<path d="M2404 9150 c-44 -17 -70 -90 -46 -127 14 -23 76 -42 112 -34 41 8 47
22 20 46 -18 16 -20 16 -26 1 -7 -19 -43 -21 -68 -3 -16 11 -12 15 33 36 50
22 72 54 56 80 -7 13 -51 13 -81 1z m51 -29 c-5 -8 -62 -41 -71 -41 -12 0 13
33 30 40 29 12 48 12 41 1z"/>
<path d="M3762 9152 c-17 -12 -27 -95 -13 -121 13 -23 49 -28 83 -10 25 14 53
78 40 91 -14 14 -32 1 -32 -22 0 -22 -25 -50 -45 -50 -20 0 -26 30 -15 70 10
36 3 54 -18 42z"/>
<path d="M5160 9131 c-38 -38 -49 -80 -25 -97 15 -11 23 -11 46 2 l29 15 0
-35 c0 -18 7 -39 15 -46 8 -7 15 -11 16 -9 1 2 3 32 4 67 2 35 9 70 16 78 9
11 8 18 -6 34 -26 28 -62 25 -95 -9z m64 -10 c5 -8 -55 -61 -69 -61 -10 0 24
58 37 63 20 8 26 8 32 -2z"/>
<path d="M2105 9140 c-4 -6 -2 -16 3 -23 5 -7 17 -38 26 -70 25 -86 65 -88 86
-3 18 69 17 68 41 56 14 -8 24 -9 31 -2 7 7 0 17 -23 31 -19 12 -38 19 -44 18
-5 -2 -16 -26 -22 -52 -21 -83 -24 -84 -47 -16 -21 63 -37 83 -51 61z"/>
<path d="M5325 9128 c-29 -129 -30 -138 -12 -138 6 0 23 24 37 53 24 50 26 52
63 50 27 -2 37 2 37 12 0 15 -43 31 -72 27 -9 -2 -19 2 -23 8 -10 17 -24 11
-30 -12z"/>
<path d="M7665 9130 c-3 -11 -11 -20 -16 -20 -14 0 -7 -53 8 -57 12 -4 43 56
43 83 0 21 -28 17 -35 -6z"/>
<path d="M12208 9130 c-32 -25 -41 -56 -21 -75 17 -18 32 -19 68 -5 22 8 25 7
23 -8 -2 -11 3 -17 16 -17 13 0 20 8 22 25 1 14 5 35 9 48 6 18 4 22 -14 22
-12 0 -24 7 -27 15 -8 21 -47 19 -76 -5z m60 -28 c4 -12 -47 -37 -56 -27 -8 7
30 46 42 42 5 -2 12 -9 14 -15z"/>
<path d="M1917 9116 c-34 -31 -45 -73 -25 -93 14 -13 19 -13 46 1 17 9 35 24
41 33 9 16 11 15 19 -7 13 -34 36 -52 56 -44 22 8 20 25 -4 31 -19 5 -35 52
-28 83 2 9 -9 15 -37 17 -33 3 -46 -1 -68 -21z m36 -38 c-18 -18 -35 -30 -38
-27 -9 10 35 59 53 59 12 0 8 -8 -15 -32z"/>
<path d="M4761 8911 l-55 -169 -48 5 c-33 4 -54 1 -65 -8 -12 -10 -14 -10 -9
-1 4 6 2 12 -3 12 -6 0 -11 -7 -11 -16 0 -11 6 -15 20 -11 11 3 22 2 24 -2 3
-4 19 -8 37 -9 18 -1 34 -4 35 -5 1 -1 -9 -35 -22 -75 -14 -41 -24 -90 -22
-110 3 -32 7 -37 30 -40 34 -4 68 14 68 34 0 11 -5 14 -17 9 -45 -18 -53 -18
-53 4 0 12 12 57 26 101 25 75 28 79 58 82 34 3 39 21 6 26 -11 2 -20 6 -20
10 0 4 23 74 51 156 46 136 53 176 32 176 -4 0 -32 -76 -62 -169z"/>
<path d="M6759 9080 c-1 -3 -7 -41 -14 -85 -8 -44 -23 -125 -35 -180 -31 -146
-37 -225 -18 -225 11 0 17 16 22 63 3 34 22 138 41 232 32 151 34 171 20 184
-8 8 -15 13 -16 11z"/>
<path d="M6117 8928 c-6 -58 -35 -148 -78 -246 -24 -54 -26 -64 -13 -69 9 -3
21 3 32 18 19 28 83 89 93 89 4 0 3 -17 -2 -37 -12 -51 -11 -100 1 -108 12 -7
13 -2 29 81 6 34 8 69 5 78 -8 20 -38 21 -69 0 l-24 -16 25 74 c33 92 44 188
22 188 -11 0 -17 -15 -21 -52z"/>
<path d="M3731 8912 c-5 -10 -14 -46 -21 -81 -6 -34 -27 -110 -47 -168 -27
-80 -33 -107 -23 -116 9 -9 15 -7 26 8 32 45 60 76 79 89 20 13 21 12 20 -37
0 -40 4 -52 16 -55 14 -2 16 7 14 60 -1 35 -3 66 -4 71 -3 16 -41 6 -70 -19
-17 -14 -31 -24 -31 -22 0 1 9 32 20 67 18 57 50 194 50 214 0 14 -19 7 -29
-11z"/>
<path d="M3597 8913 c-4 -3 -7 -25 -7 -47 -1 -23 -9 -70 -19 -106 -18 -65 -18
-65 -59 -71 -46 -6 -57 -13 -48 -28 4 -5 22 -7 42 -4 34 6 35 5 28 -23 -4 -16
-11 -37 -15 -46 -13 -25 -11 -38 5 -38 9 0 22 21 32 53 10 32 24 57 37 63 18
8 22 32 5 27 -11 -4 -10 12 6 76 28 114 25 177 -7 144z"/>
<path d="M4925 8829 c-4 -6 -5 -11 -4 -12 2 -1 14 -8 26 -14 26 -15 41 0 23
22 -15 18 -36 19 -45 4z"/>
<path d="M3417 8823 c-13 -12 -7 -33 8 -33 8 0 15 9 15 20 0 20 -11 26 -23 13z"/>
<path d="M5728 8783 c-27 -9 -48 -22 -48 -29 0 -18 15 -17 69 2 24 8 45 13 47
11 3 -2 -20 -38 -51 -80 -50 -69 -67 -107 -47 -107 15 0 52 31 52 43 0 28 39
15 59 -19 15 -26 27 -34 48 -34 36 0 47 8 67 47 20 39 23 147 4 141 -7 -3 -16
-29 -19 -59 -11 -103 -48 -128 -82 -56 -10 20 -25 37 -33 37 -9 0 -5 14 16 46
16 25 26 52 23 60 -7 18 -46 17 -105 -3z"/>
<path d="M6281 8764 c-30 -21 -53 -77 -45 -109 7 -27 49 -55 84 -55 25 0 72
29 65 40 -3 5 -21 4 -40 -1 -24 -7 -41 -6 -55 1 -20 11 -20 12 12 33 45 31 66
70 49 91 -17 20 -40 20 -70 0z m39 -34 c-11 -20 -50 -46 -50 -33 0 10 42 53
52 53 5 0 4 -9 -2 -20z"/>
<path d="M6466 8759 c-42 -33 -65 -89 -51 -128 6 -17 17 -36 25 -41 37 -24
140 -1 140 30 0 18 -2 18 -35 4 -47 -19 -82 -18 -94 4 -8 16 -5 21 22 34 35
17 73 78 64 102 -9 22 -39 20 -71 -5z m35 -27 c-13 -24 -40 -46 -47 -39 -6 6
40 57 51 57 3 0 1 -8 -4 -18z"/>
<path d="M6835 8760 c-18 -19 -18 -23 -2 -74 21 -66 21 -77 1 -48 -17 25 -34
29 -34 8 0 -19 48 -76 65 -76 23 0 25 46 5 106 -23 66 -17 78 38 68 36 -7 44
9 13 26 -31 16 -66 12 -86 -10z"/>
<path d="M3018 8747 c-45 -21 -59 -39 -39 -51 5 -3 30 6 55 20 25 14 51 24 57
22 6 -2 -10 -31 -35 -65 -47 -62 -58 -99 -31 -109 17 -7 95 42 95 59 0 19 11
0 16 -29 11 -59 50 -72 82 -26 24 34 37 152 17 152 -17 0 -25 -23 -25 -73 -1
-38 -17 -77 -33 -77 -3 0 -9 16 -13 36 -8 45 -25 51 -69 25 -20 -12 -38 -21
-41 -21 -3 0 14 26 37 59 23 32 39 67 37 77 -5 27 -53 27 -110 1z"/>
<path d="M1924 8738 c-15 -13 -36 -21 -46 -20 -10 2 -18 -2 -18 -8 0 -5 -13
-38 -29 -72 -28 -58 -31 -78 -12 -78 5 0 28 29 51 65 40 62 88 111 97 101 3
-3 -3 -30 -12 -61 -9 -31 -13 -65 -10 -76 8 -23 55 -27 55 -4 0 8 -5 15 -11
15 -11 0 -10 14 7 109 5 23 2 36 -7 42 -21 13 -34 11 -65 -13z"/>
<path d="M2123 8714 c-76 -59 -89 -117 -35 -152 33 -22 148 -18 174 5 25 22 8
36 -26 23 -42 -15 -121 -13 -136 5 -15 19 -15 18 35 33 50 14 82 60 65 92 -14
27 -38 25 -77 -6z m47 -23 c0 -13 -41 -41 -60 -41 -10 1 -6 9 13 25 29 26 47
32 47 16z"/>
<path d="M1691 8711 c-43 -43 -70 -126 -51 -160 15 -30 54 -26 85 6 38 42 48
82 32 129 -16 45 -37 54 -66 25z m39 -73 c0 -22 -36 -78 -51 -78 -15 0 -10 58
7 91 12 25 18 28 30 18 8 -6 14 -20 14 -31z"/>
<path d="M5201 8670 c-19 -33 -38 -60 -42 -60 -5 0 -9 23 -11 52 -2 30 -8 53
-15 56 -16 5 -18 -100 -3 -128 8 -16 1 -30 -45 -81 -74 -82 -135 -176 -135
-205 0 -37 17 -29 38 19 10 23 45 74 76 112 161 196 222 295 184 295 -7 0 -29
-27 -47 -60z"/>
<path d="M4972 8693 c-33 -31 -52 -63 -52 -87 0 -23 27 -20 35 3 8 25 44 71
56 71 5 0 6 -23 3 -56 -6 -46 -4 -56 7 -52 21 7 36 113 19 133 -18 22 -35 19
-68 -12z"/>
<path d="M3339 8638 c-25 -50 -28 -78 -9 -78 12 0 61 110 54 121 -10 18 -20 8
-45 -43z"/>
<path d="M4864 8665 c-18 -28 -25 -92 -10 -97 6 -2 14 12 18 31 5 18 16 44 24
56 13 20 10 35 -7 35 -5 0 -16 -11 -25 -25z"/>
<path d="M10733 8638 c-46 -64 -112 -175 -150 -251 l-35 -69 -45 7 c-35 5 -44
4 -41 -7 3 -7 18 -17 34 -23 16 -5 30 -10 32 -11 1 0 -5 -17 -13 -37 -18 -45
-19 -107 -2 -131 17 -23 80 -19 85 6 2 12 -4 16 -30 15 -30 -2 -33 1 -36 30
-2 18 6 53 17 78 20 45 20 45 71 45 55 0 94 15 84 32 -4 6 -26 8 -60 3 -30 -3
-54 -3 -54 2 0 17 74 150 136 245 35 53 64 99 64 102 0 20 -31 0 -57 -36z"/>
<path d="M8042 8626 c-34 -29 -105 -140 -148 -233 -29 -61 -30 -62 -78 -70
-58 -9 -63 -28 -8 -28 l39 0 -4 -45 c-5 -57 23 -105 73 -126 41 -17 64 -13 64
12 0 11 -5 14 -16 10 -34 -13 -93 40 -94 84 0 64 6 69 88 72 49 2 77 7 80 16
3 9 -15 12 -67 12 -39 0 -71 2 -71 5 0 29 136 250 168 274 20 14 24 23 16 31
-8 8 -19 4 -42 -14z"/>
<path d="M6978 8605 c-10 -21 -9 -28 2 -35 19 -12 28 -5 28 25 0 36 -16 41
-30 10z"/>
<path d="M13283 8490 c-21 -54 -108 -225 -134 -262 -21 -29 -25 -58 -8 -58 6
0 17 -7 25 -15 36 -35 107 -12 167 54 38 42 44 64 27 91 -11 18 -95 19 -112 2
-26 -26 -28 -10 -4 31 44 76 80 177 67 190 -8 8 -15 0 -28 -33z m46 -209 c19
-12 -1 -45 -51 -81 -66 -48 -121 -35 -81 18 11 14 39 37 63 49 48 26 50 26 69
14z"/>
<path d="M5466 8513 c-3 -3 -6 -12 -6 -19 0 -7 -14 -51 -30 -97 l-31 -84 -60
-7 c-67 -7 -82 -12 -73 -27 3 -6 27 -8 59 -4 l54 7 -24 -58 c-26 -63 -32 -104
-15 -104 6 0 13 8 16 18 3 9 17 45 31 79 23 57 27 62 59 65 42 4 50 22 12 26
-16 2 -28 5 -28 6 0 2 14 36 30 76 17 40 30 83 30 96 0 24 -13 38 -24 27z"/>
<path d="M5584 8483 c-9 -21 -22 -54 -29 -73 -7 -19 -33 -80 -59 -134 -25 -54
-46 -103 -46 -107 0 -20 28 -7 61 27 18 20 47 43 63 51 28 15 29 15 22 -9 -16
-54 -19 -101 -6 -96 15 5 52 117 45 137 -7 18 -71 8 -97 -16 -20 -18 -20 -18
-3 22 56 131 73 175 67 175 -4 0 -2 4 4 8 6 4 14 17 18 30 13 39 -22 26 -40
-15z"/>
<path d="M3294 8468 c-13 -24 -61 -106 -106 -183 -44 -77 -91 -151 -104 -166
-29 -30 -30 -39 -6 -39 18 1 43 32 97 119 l33 54 -5 -66 c-5 -52 -2 -72 11
-92 28 -43 62 -34 128 35 32 33 54 51 48 41 -15 -29 -12 -87 6 -105 25 -26 46
-20 42 12 -2 15 -8 26 -15 25 -20 -4 -16 16 38 177 32 95 47 156 42 161 -14
14 -28 -6 -56 -82 -28 -73 -62 -132 -114 -197 -43 -53 -69 -68 -89 -51 -33 27
-7 152 61 296 23 50 41 94 37 97 -12 13 -24 4 -48 -36z"/>
<path d="M13662 8488 c-7 -7 -12 -18 -12 -26 0 -20 -88 -213 -106 -233 -8 -9
-14 -20 -12 -25 2 -5 -6 -31 -16 -57 -13 -35 -15 -52 -7 -60 7 -7 19 9 40 57
17 36 38 69 47 73 19 7 84 -22 84 -38 0 -6 -9 -23 -20 -39 -19 -27 -18 -40 4
-40 19 0 49 66 43 92 -4 15 -22 31 -49 44 l-42 21 68 49 c107 76 112 81 100
94 -8 7 -31 -5 -85 -44 -40 -30 -75 -53 -77 -52 -1 2 11 33 27 69 17 37 33 77
37 91 6 27 -7 41 -24 24z"/>
<path d="M9267 8463 c-4 -3 -2 -12 3 -18 11 -13 -7 -71 -59 -192 -17 -40 -31
-79 -31 -87 0 -28 22 -28 53 1 61 56 63 56 59 13 -3 -31 0 -40 17 -49 24 -13
71 -5 72 13 0 6 4 1 9 -11 12 -29 85 -66 115 -59 30 8 72 42 62 52 -4 4 -23 0
-43 -9 -31 -15 -38 -16 -64 -2 -42 21 -46 35 -12 35 39 0 95 50 90 82 -2 13
-15 28 -31 36 -26 12 -32 11 -62 -10 -19 -12 -42 -39 -51 -60 -15 -34 -47 -54
-66 -42 -5 3 -6 25 -3 49 9 58 -6 65 -61 27 l-43 -31 25 57 c40 87 68 177 61
196 -6 16 -28 21 -40 9z m237 -232 c9 -14 -41 -53 -64 -49 l-22 3 22 28 c21
26 53 36 64 18z"/>
<path d="M8755 8440 c-9 -14 -6 -17 20 -22 13 -2 20 3 20 12 0 18 -30 26 -40
10z"/>
<path d="M13492 8364 c2 -11 11 -20 22 -22 13 -3 17 1 14 14 -2 11 -11 20 -22
22 -13 3 -17 -1 -14 -14z"/>
<path d="M5723 8295 c-35 -24 -68 -86 -64 -120 7 -69 61 -88 145 -51 53 24 67
38 47 50 -4 3 -25 -4 -47 -14 -47 -24 -99 -26 -108 -4 -10 26 -7 32 18 38 43
11 87 56 84 85 -4 32 -41 40 -75 16z m47 -24 c0 -11 -40 -41 -54 -41 -5 0 1
11 14 25 24 26 40 32 40 16z"/>
<path d="M7100 8288 c-12 -13 -26 -23 -32 -23 -13 0 -40 -93 -33 -112 8 -23
20 -14 42 35 12 26 28 56 36 67 14 18 18 18 41 6 37 -20 46 -4 13 25 -35 30
-41 30 -67 2z"/>
<path d="M7258 8299 c-21 -12 -22 -33 -6 -94 13 -49 4 -71 -25 -59 -22 8 -22
23 1 40 12 9 14 16 6 24 -13 13 -64 -23 -64 -45 0 -19 49 -55 75 -55 36 0 48
24 41 78 -13 91 -15 87 27 90 24 2 37 8 37 18 0 17 -65 19 -92 3z"/>
<path d="M12364 8291 c-32 -20 -58 -67 -52 -97 6 -31 26 -26 33 8 11 51 32 68
82 68 52 0 60 24 12 34 -42 8 -40 8 -75 -13z"/>
<path d="M12528 8279 c-67 -35 -92 -98 -58 -142 17 -22 30 -27 65 -27 45 0
115 24 115 40 0 18 -20 20 -49 5 -51 -26 -111 -17 -111 16 0 15 7 19 36 19 69
0 125 57 94 95 -17 20 -47 18 -92 -6z m72 -18 c0 -16 -42 -41 -68 -41 -30 0
-19 18 22 36 37 16 46 17 46 5z"/>
<path d="M6467 8262 c-31 -32 -33 -44 -12 -62 13 -11 22 -10 51 3 19 10 37 17
41 17 8 0 -3 -189 -12 -213 -5 -13 -11 -14 -25 -7 -31 17 -95 12 -113 -8 -27
-30 -16 -112 21 -154 35 -41 94 -2 123 80 6 18 15 30 19 27 13 -8 23 15 12 28
-7 8 -7 29 -2 57 15 78 12 213 -6 238 -22 31 -64 29 -97 -6z m49 -17 c-26 -19
-42 -19 -26 0 7 8 20 15 29 15 13 -1 13 -3 -3 -15z m-11 -279 c18 -13 17 -15
-4 -59 -21 -43 -44 -63 -61 -52 -12 7 -33 93 -27 110 8 19 66 20 92 1z"/>
<path d="M6694 8254 c-27 -28 -34 -44 -34 -74 0 -55 33 -77 97 -64 65 13 73
39 10 31 -56 -8 -77 -1 -77 24 0 13 7 19 23 19 44 0 93 52 81 84 -11 30 -63
19 -100 -20z m66 -4 c0 -12 -40 -33 -48 -25 -4 4 2 13 12 21 23 16 36 18 36 4z"/>
<path d="M11964 8271 c-17 -10 -43 -34 -58 -52 -15 -19 -23 -24 -17 -12 15 29
14 33 -6 33 -13 0 -26 -21 -46 -73 -15 -39 -39 -96 -53 -126 -18 -39 -22 -57
-14 -65 13 -13 36 13 83 96 20 36 37 56 45 53 7 -3 22 0 32 5 31 17 114 91
127 114 24 45 -35 62 -93 27z m21 -57 c-27 -26 -51 -41 -53 -35 -7 20 6 40 40
61 58 35 65 21 13 -26z"/>
<path d="M14050 8277 c-19 -7 -36 -19 -38 -28 -1 -9 18 -39 43 -66 25 -28 45
-54 45 -57 0 -13 -75 -5 -91 10 -19 17 -39 11 -39 -12 0 -22 46 -35 109 -32
73 4 75 19 16 89 -25 29 -45 56 -45 60 0 12 61 19 80 9 24 -13 37 5 20 25 -15
18 -52 18 -100 2z"/>
<path d="M3572 8264 c-27 -19 -28 -43 -2 -94 11 -21 17 -46 14 -55 -10 -25
-39 -13 -42 18 -4 32 -17 35 -32 6 -9 -16 -8 -26 5 -45 22 -35 73 -30 94 8 14
25 14 31 -7 73 -12 25 -22 50 -22 55 0 5 18 13 40 16 24 4 40 12 40 20 0 19
-60 18 -88 -2z"/>
<path d="M3715 8248 c-23 -27 -26 -39 -22 -75 9 -80 63 -105 133 -62 26 15 34
28 34 49 0 16 -7 30 -16 34 -25 9 -27 8 -20 -18 7 -28 -23 -56 -60 -56 -38 0
-37 28 2 62 28 25 34 37 32 62 -4 46 -46 48 -83 4z m55 -8 c0 -14 -40 -53 -47
-46 -8 7 25 56 37 56 6 0 10 -4 10 -10z"/>
<path d="M8051 8263 c-1 -10 -4 -37 -7 -60 -6 -39 -4 -44 20 -52 74 -29 146
70 84 113 -32 23 -97 21 -97 -1z m89 -41 c0 -25 -19 -42 -47 -42 -25 0 -32 27
-11 48 19 19 58 15 58 -6z"/>
<path d="M9682 8264 c-27 -19 -28 -38 -3 -72 10 -15 23 -37 30 -49 10 -20 9
-23 -10 -23 -12 0 -23 8 -26 20 -8 29 -45 27 -41 -2 4 -30 73 -66 97 -51 27
17 24 42 -9 95 -24 40 -28 53 -18 59 18 12 46 11 53 -1 8 -13 45 -13 45 -1 0
16 -43 41 -70 41 -14 0 -36 -7 -48 -16z"/>
<path d="M12163 8268 c-26 -13 -57 -67 -51 -93 4 -20 36 -26 68 -11 10 4 19
-1 25 -15 14 -30 30 -25 30 9 1 15 4 37 9 49 5 17 1 29 -18 48 -28 28 -31 28
-63 13z m41 -36 c6 -10 -53 -56 -61 -48 -3 3 2 17 11 31 16 25 40 33 50 17z"/>
<path d="M6866 8241 c-21 -22 -26 -35 -21 -51 6 -19 12 -22 47 -17 35 5 40 2
48 -19 10 -24 34 -32 45 -15 3 5 0 13 -6 16 -6 4 -9 26 -7 49 2 33 0 41 -14
41 -10 0 -23 6 -30 13 -18 18 -32 15 -62 -17z m48 -26 c-27 -20 -51 -20 -34 0
7 8 22 15 33 15 20 0 20 0 1 -15z"/>
<path d="M8994 8256 c-62 -27 -86 -102 -41 -130 28 -18 127 -29 147 -17 23 15
5 24 -56 27 -83 5 -106 32 -63 75 17 17 29 20 60 15 31 -5 39 -3 39 9 0 12
-40 37 -53 35 -1 -1 -16 -7 -33 -14z"/>
<path d="M8638 8230 c-62 -51 -62 -145 -1 -138 32 4 44 28 14 28 -27 0 -35 19
-22 53 10 25 63 62 74 51 3 -3 11 -3 17 1 8 5 8 11 -1 21 -18 22 -41 17 -81
-16z"/>
<path d="M10719 8233 c-21 -23 -49 -73 -49 -88 0 -12 35 -35 55 -35 36 0 85
46 85 81 0 30 -30 69 -53 69 -7 0 -25 -12 -38 -27z m61 -42 c0 -18 -39 -51
-60 -51 -21 0 -5 44 20 57 34 17 40 16 40 -6z"/>
<path d="M11206 8229 c-37 -43 -35 -91 4 -130 22 -22 37 -29 57 -27 35 4 32
21 -5 30 -52 14 -69 71 -31 109 15 15 28 19 50 14 22 -5 29 -3 29 8 0 8 -7 18
-16 21 -34 13 -63 5 -88 -25z"/>
<path d="M13412 8223 c-20 -39 -19 -63 1 -63 11 0 37 64 37 90 0 22 -21 8 -38
-27z"/>
<path d="M13800 8247 c-28 -14 -70 -72 -70 -97 0 -10 9 -28 19 -41 17 -21 28
-24 89 -24 72 0 112 19 112 52 0 17 -14 17 -30 -2 -14 -17 -89 -30 -120 -20
-22 7 -21 8 12 27 30 17 68 63 68 81 0 10 -32 37 -43 37 -7 0 -23 -6 -37 -13z
m40 -34 c0 -12 -43 -53 -57 -53 -19 0 -16 10 9 37 20 22 48 31 48 16z"/>
<path d="M8785 8227 c-8 -12 -15 -27 -15 -33 0 -6 -9 -19 -20 -29 -21 -19 -27
-45 -9 -45 5 0 32 24 59 53 26 28 51 49 54 46 4 -4 0 -26 -8 -50 -19 -54 -20
-79 -3 -79 14 0 45 93 43 131 -1 21 -6 24 -44 25 -33 2 -46 -3 -57 -19z"/>
<path d="M11425 8241 c-58 -24 -78 -98 -36 -133 32 -25 56 -23 81 10 18 22 21
35 16 71 -8 56 -21 68 -61 52z m29 -47 c9 -24 7 -38 -7 -58 -18 -25 -47 -11
-47 23 0 44 41 70 54 35z"/>
<path d="M11577 8243 c-4 -3 -7 -14 -7 -23 0 -8 -9 -33 -20 -55 -11 -22 -20
-43 -20 -47 0 -15 23 -8 57 18 18 14 33 20 33 15 0 -17 42 -12 77 9 32 19 32
19 35 -2 3 -23 33 -46 45 -35 4 4 2 17 -5 28 -7 11 -11 28 -8 37 3 9 2 23 -3
31 -8 12 -18 9 -58 -17 -31 -21 -49 -27 -51 -19 -10 37 -11 38 -32 27 -19 -10
-20 -9 -14 14 4 19 2 26 -8 26 -8 0 -18 -3 -21 -7z"/>
<path d="M4003 8135 c-46 -48 -92 -129 -133 -235 -25 -62 -27 -65 -65 -70 -51
-7 -60 -30 -11 -30 20 0 36 -2 36 -5 0 -2 -9 -28 -20 -56 -14 -33 -17 -56 -11
-62 14 -14 33 2 28 24 -3 10 -2 19 2 21 4 2 14 21 22 43 12 34 20 40 54 47 22
5 44 13 48 17 12 12 -28 24 -53 16 -19 -6 -19 -5 -1 47 38 110 136 258 170
258 7 0 10 -4 6 -9 -8 -14 15 -25 27 -13 5 5 7 19 3 31 -11 37 -53 27 -102
-24z"/>
<path d="M2009 8103 c-16 -38 -44 -107 -61 -155 -26 -74 -34 -87 -54 -90 -31
-4 -36 -22 -7 -26 20 -3 21 -7 16 -58 -5 -44 -2 -58 13 -75 39 -43 114 -65
114 -34 0 8 -8 15 -17 15 -10 0 -33 9 -50 20 -27 16 -33 26 -32 52 2 54 12 73
38 73 13 0 26 6 29 14 3 8 0 11 -7 7 -6 -4 -17 -1 -25 7 -12 11 -10 25 14 93
38 108 70 177 89 191 14 11 14 14 1 23 -25 16 -29 13 -61 -57z"/>
<path d="M2145 8100 c-4 -7 -3 -16 2 -21 15 -15 -4 -112 -47 -241 -22 -64 -40
-119 -40 -122 0 -16 41 -3 77 24 l41 30 -13 -57 c-15 -63 -13 -73 14 -73 25 0
32 10 21 29 -5 10 -5 33 0 57 5 21 7 47 4 57 -7 23 -47 22 -69 -3 -10 -11 -20
-19 -22 -17 -2 2 11 46 28 98 34 100 46 238 22 246 -6 2 -14 -1 -18 -7z"/>
<path d="M4119 8050 c-45 -48 -100 -146 -115 -204 -4 -16 -17 -28 -37 -35 -27
-10 -31 -24 -6 -27 5 -1 11 -2 14 -3 3 0 -4 -24 -15 -51 -24 -60 -25 -70 -6
-70 7 0 23 26 36 60 25 66 32 74 75 84 17 4 38 9 47 12 15 4 14 -3 -9 -46
l-26 -51 20 -27 c21 -29 50 -37 90 -27 19 4 24 11 20 25 -3 11 -1 23 4 26 5 3
7 10 4 15 -9 13 -45 -8 -45 -27 0 -10 -7 -14 -22 -12 -24 3 -38 28 -15 28 29
0 77 56 77 89 0 26 -4 31 -23 31 -13 0 -28 -5 -35 -12 -8 -8 -15 -8 -27 2 -10
8 -29 10 -55 6 l-40 -6 21 52 c38 99 111 188 154 188 36 0 27 24 -10 28 -22 3
-36 -6 -76 -48z m41 -275 c-13 -14 -26 -23 -28 -20 -3 3 5 16 18 30 13 14 26
23 28 20 3 -3 -5 -16 -18 -30z"/>
<path d="M5611 8048 c-5 -13 -41 -89 -80 -169 -39 -81 -71 -154 -71 -163 0
-28 28 -17 50 19 22 36 69 75 90 75 8 0 11 -15 10 -42 -4 -60 -2 -68 14 -68
14 0 29 92 19 117 -9 22 -55 27 -85 10 -27 -15 -26 -12 27 93 30 61 55 116 55
124 0 26 -20 28 -29 4z"/>
<path d="M5450 8038 c-5 -13 -16 -48 -25 -78 l-15 -55 -61 -15 c-33 -8 -59
-19 -57 -25 3 -11 27 -11 75 0 l33 7 -25 -73 c-29 -85 -30 -89 -11 -89 10 0
25 30 42 84 15 47 35 88 46 95 14 9 18 8 18 -4 0 -9 9 -15 21 -15 30 0 18 23
-18 35 l-30 10 22 68 c12 37 19 69 17 72 -11 11 -23 4 -32 -17z"/>
<path d="M9666 8042 c-9 -11 -28 -59 -42 -108 -40 -140 -95 -224 -144 -224
-26 0 -31 23 -12 61 14 29 22 34 52 34 50 0 48 29 -2 33 -42 4 -71 -21 -89
-75 -9 -28 -8 -38 5 -58 34 -52 109 -19 161 69 23 39 75 186 75 212 0 6 7 17
15 24 16 13 21 50 7 50 -5 0 -16 -8 -26 -18z"/>
<path d="M11294 8039 c-5 -8 -16 -39 -24 -69 -7 -30 -33 -104 -57 -164 -47
-118 -57 -171 -33 -171 9 0 17 15 21 40 4 22 23 78 42 125 51 125 69 185 65
221 -2 25 -5 29 -14 18z"/>
<path d="M10606 8028 c-3 -7 -14 -47 -26 -88 -12 -41 -30 -88 -39 -105 -70
-120 -73 -125 -56 -131 10 -4 34 11 71 46 30 29 58 50 61 46 3 -3 -2 -26 -11
-51 -16 -41 -15 -65 3 -65 11 0 43 96 39 122 -4 31 -34 35 -71 7 l-31 -22 22
34 c22 37 73 199 65 212 -7 11 -23 8 -27 -5z"/>
<path d="M2563 8000 c0 -16 -8 -56 -18 -89 -17 -56 -19 -59 -59 -67 -49 -11
-54 -28 -9 -32 28 -3 31 -6 24 -25 -4 -12 -11 -41 -15 -65 -5 -37 -3 -46 18
-67 29 -29 71 -32 105 -9 29 21 13 41 -19 24 -12 -6 -33 -9 -46 -6 -20 5 -24
13 -24 43 0 19 5 52 11 73 11 35 14 37 72 48 60 11 87 25 74 39 -4 3 -30 1
-59 -5 -28 -7 -53 -10 -56 -8 -2 3 5 32 17 65 27 77 27 111 3 111 -14 0 -19
-8 -19 -30z"/>
<path d="M5029 7998 c-1 -7 -1 -16 0 -20 1 -10 -54 -167 -78 -222 -12 -27 -20
-55 -17 -62 7 -18 80 -28 106 -14 27 14 60 68 60 97 0 32 -42 58 -69 43 -26
-13 -26 -10 4 75 29 81 32 115 10 115 -8 0 -16 -6 -16 -12z m41 -223 c0 -8
-13 -29 -29 -47 -24 -27 -32 -31 -51 -22 l-23 10 33 37 c33 38 70 49 70 22z"/>
<path d="M3609 7998 c-1 -2 -3 -33 -4 -69 -4 -123 -114 -305 -142 -233 -3 8 0
27 6 41 10 21 16 24 41 20 32 -7 51 10 29 24 -47 29 -109 -14 -109 -75 0 -68
61 -78 110 -18 58 70 93 156 97 238 2 61 0 74 -12 74 -8 0 -16 -1 -16 -2z"/>
<path d="M6944 7969 c-3 -6 -2 -15 4 -21 13 -13 32 -2 32 18 0 16 -26 19 -36
3z"/>
<path d="M3712 7918 c3 -7 17 -14 32 -16 20 -3 27 0 24 10 -3 7 -17 14 -32 16
-20 3 -27 0 -24 -10z"/>
<path d="M12304 7919 c-8 -14 11 -33 25 -25 6 4 11 14 11 22 0 16 -26 19 -36
3z"/>
<path d="M10192 7885 c-32 -14 -51 -40 -38 -52 3 -4 24 3 45 15 39 22 71 28
71 14 0 -5 -14 -21 -31 -38 -56 -52 -90 -105 -78 -120 9 -11 17 -11 46 1 34
14 37 14 58 -10 45 -47 101 -42 129 13 7 15 17 51 21 81 6 43 5 53 -6 49 -8
-3 -18 -22 -23 -44 -13 -61 -23 -82 -46 -94 -19 -10 -26 -7 -57 26 -30 32 -38
36 -54 26 -32 -20 -21 -1 31 54 28 29 50 62 50 73 0 18 -6 21 -42 21 -24 -1
-58 -7 -76 -15z"/>
<path d="M12044 7865 c-4 -8 8 -37 25 -64 33 -51 33 -69 1 -89 -30 -18 -53 -4
-48 30 6 35 -10 48 -29 23 -19 -27 -16 -43 12 -70 32 -33 60 -31 96 4 36 36
36 57 4 105 -14 20 -25 40 -25 43 0 3 20 3 44 0 48 -7 62 -1 45 20 -16 19
-118 18 -125 -2z"/>
<path d="M6880 7823 c-29 -66 -36 -103 -19 -103 14 0 59 103 59 134 0 31 -19
16 -40 -31z"/>
<path d="M9135 7858 c-26 -14 -84 -69 -96 -90 -15 -27 0 -48 35 -48 17 0 38 5
46 10 11 7 16 4 20 -12 7 -28 30 -36 30 -10 0 27 26 86 44 102 23 18 20 24
-19 43 -41 20 -35 19 -60 5z m4 -68 c-37 -37 -69 -52 -69 -31 0 16 70 71 90
71 15 0 10 -8 -21 -40z"/>
<path d="M9348 7850 c-30 -16 -37 -17 -42 -5 -9 24 -21 17 -35 -20 -7 -19 -24
-49 -38 -66 -19 -22 -23 -33 -15 -41 8 -8 18 -2 38 21 29 35 113 96 121 88 2
-3 -5 -27 -16 -52 -25 -57 -25 -55 -5 -55 23 0 67 106 54 130 -13 25 -17 25
-62 0z"/>
<path d="M4400 7850 c-8 -5 -25 -10 -36 -10 -25 0 -39 -29 -54 -109 -13 -69
-13 -71 3 -71 8 0 26 32 41 70 31 78 59 105 100 94 28 -7 34 4 14 24 -14 14
-47 15 -68 2z"/>
<path d="M6997 7854 c-3 -3 -4 -11 -1 -18 2 -6 -11 -38 -31 -70 -39 -64 -42
-76 -21 -76 8 0 30 22 50 50 34 48 82 88 92 78 3 -3 -2 -24 -11 -46 -9 -23
-15 -49 -13 -59 5 -27 31 -22 34 7 1 14 8 44 15 68 11 37 11 44 -3 58 -14 14
-18 14 -46 0 -26 -14 -31 -14 -36 -1 -6 16 -18 19 -29 9z"/>
<path d="M7817 7850 c-29 -18 -49 -67 -37 -90 13 -24 40 -25 80 -5 28 14 30
14 30 -3 0 -26 -19 -131 -30 -167 -9 -29 -12 -30 -58 -27 -44 3 -51 1 -75 -28
-29 -34 -37 -103 -17 -141 25 -47 96 -5 141 83 11 21 22 38 25 38 3 0 19 -8
35 -17 21 -12 32 -14 40 -6 9 9 -4 21 -68 58 -1 0 4 25 12 55 18 66 30 220 18
237 -12 16 -75 25 -96 13z m51 -29 c11 -6 7 -13 -14 -30 -14 -11 -31 -21 -35
-21 -15 0 -10 27 7 44 18 18 24 19 42 7z m-35 -297 c18 -18 -70 -133 -92 -119
-16 9 -13 77 5 103 15 21 71 32 87 16z"/>
<path d="M10975 7848 c-49 -27 -65 -51 -65 -96 0 -35 6 -49 29 -73 29 -29 64
-38 76 -19 3 6 -6 15 -21 20 -33 13 -53 38 -54 67 0 16 5 20 20 16 12 -3 28 4
45 23 42 46 21 91 -30 62z"/>
<path d="M8029 7812 c-39 -39 -56 -80 -45 -107 15 -39 115 -53 154 -23 24 20
11 26 -46 21 -44 -4 -61 -2 -70 10 -18 21 -5 48 22 42 27 -7 86 29 86 53 0 23
-19 42 -43 42 -11 0 -37 -17 -58 -38z m52 -12 c-13 -11 -28 -20 -35 -20 -6 1
0 10 13 20 13 11 28 20 35 20 6 -1 0 -10 -13 -20z"/>
<path d="M8234 7839 c-29 -10 -74 -70 -74 -97 0 -17 6 -22 28 -22 15 0 38 7
50 16 21 14 22 14 13 -8 -4 -13 -6 -29 -4 -35 7 -21 33 -15 33 7 0 10 8 35 17
55 26 54 6 65 -47 26 -24 -17 -48 -31 -53 -31 -16 0 35 51 61 61 12 5 22 13
22 18 0 14 -23 19 -46 10z"/>
<path d="M10764 7828 c-50 -39 -54 -45 -54 -87 0 -66 45 -82 133 -49 15 6 27
17 27 25 0 11 -5 13 -17 8 -10 -4 -40 -10 -66 -13 -47 -4 -49 -4 -45 19 2 16
12 25 34 31 37 9 67 40 62 65 -5 27 -40 27 -74 1z"/>
<path d="M8421 7831 c-7 -5 -21 -7 -30 -4 -12 3 -22 -12 -38 -55 -27 -70 -27
-72 -8 -72 8 0 25 20 37 44 29 61 86 83 102 40 8 -20 26 -8 26 16 0 32 -56 52
-89 31z"/>
<path d="M12623 7822 c-24 -2 -41 -13 -60 -39 -19 -25 -24 -38 -15 -41 6 -2
12 -12 12 -23 0 -10 11 -26 25 -35 21 -14 31 -14 75 -3 49 12 79 33 67 45 -3
3 -29 -1 -57 -9 -29 -9 -59 -13 -66 -10 -22 8 -17 33 6 33 24 0 70 42 70 63 0
18 -16 23 -57 19z m2 -42 c-3 -5 -14 -10 -23 -10 -15 0 -15 2 -2 10 20 13 33
13 25 0z"/>
<path d="M5139 7765 c-23 -52 -22 -73 4 -89 20 -13 41 -2 70 36 17 23 18 30 6
62 -10 27 -19 36 -37 36 -18 0 -28 -10 -43 -45z m51 -19 c0 -24 -22 -51 -33
-40 -3 3 -4 12 -1 20 2 8 6 21 9 29 7 24 25 17 25 -9z"/>
<path d="M12220 7774 c-6 -15 -19 -38 -30 -52 -21 -26 -27 -72 -10 -72 6 0 14
8 17 18 4 9 19 37 35 61 15 25 28 51 28 58 0 23 -30 14 -40 -13z"/>
<path d="M12345 7790 c-10 -17 5 -28 44 -32 l35 -3 -47 -29 c-49 -32 -55 -40
-34 -53 17 -11 110 -32 119 -27 18 11 6 24 -32 34 -22 6 -40 12 -40 14 0 2 23
17 50 34 73 46 69 53 -42 67 -30 4 -49 2 -53 -5z"/>
<path d="M2265 7766 c-24 -36 -16 -80 14 -84 13 -2 28 1 34 7 7 7 15 3 27 -11
10 -13 22 -18 29 -14 7 5 9 12 3 19 -5 7 -12 30 -15 51 -4 22 -12 43 -19 48
-25 15 -57 8 -73 -16z m58 -13 c8 -7 -21 -43 -35 -43 -12 0 -10 24 4 38 14 14
22 15 31 5z"/>
<path d="M3631 7731 c-25 -34 -27 -61 -6 -61 8 0 15 6 15 14 0 8 11 24 25 37
30 29 31 39 6 39 -11 0 -29 -13 -40 -29z"/>
<path d="M12865 7709 c-10 -30 8 -44 29 -24 9 9 16 23 16 31 0 22 -38 17 -45
-7z"/>
<path d="M3140 7143 c-7 -38 -32 -138 -56 -223 -46 -164 -53 -214 -30 -223 16
-6 28 16 20 37 -3 7 11 74 32 147 54 199 82 313 77 322 -14 24 -31 0 -43 -60z"/>
<path d="M2437 7113 c-3 -46 -21 -125 -42 -192 -20 -66 -32 -118 -27 -123 5
-5 25 12 45 41 41 57 97 94 97 65 0 -10 -7 -41 -16 -70 -16 -50 -14 -84 5 -84
5 0 11 12 14 28 3 15 12 51 21 81 25 88 -6 115 -76 68 l-34 -24 22 84 c31 114
35 203 10 203 -9 0 -15 -22 -19 -77z"/>
<path d="M3707 7184 c-4 -4 -7 -26 -7 -49 0 -111 -53 -273 -109 -337 -40 -44
-71 -48 -71 -8 0 53 60 112 81 79 6 -11 11 -11 20 -2 18 18 -7 43 -41 43 -30
0 -74 -43 -91 -89 -22 -56 32 -108 86 -83 31 14 76 82 108 162 51 129 67 327
24 284z"/>
<path d="M4769 7163 c-6 -16 -18 -58 -27 -95 -15 -66 -16 -67 -51 -70 -45 -4
-55 -28 -11 -28 28 0 32 -3 26 -23 -19 -76 -27 -130 -22 -143 10 -25 24 -7 31
39 3 23 13 63 21 89 14 43 18 47 51 50 49 4 57 28 9 28 -41 0 -41 1 -6 110 10
30 16 58 14 62 -10 16 -25 7 -35 -19z"/>
<path d="M8123 7173 c-7 -3 -13 -16 -13 -30 0 -14 -17 -57 -37 -95 -38 -73
-64 -93 -109 -82 -18 5 -24 2 -24 -10 0 -10 11 -19 30 -22 35 -8 34 -5 15 -51
-31 -74 -19 -107 46 -128 39 -13 53 -14 64 -5 23 19 18 29 -12 28 -43 0 -83
19 -83 40 0 11 10 42 21 71 21 49 24 52 78 67 31 8 62 17 68 19 7 2 10 11 7
19 -5 13 -12 13 -52 0 -26 -7 -48 -14 -49 -14 -1 0 10 20 24 45 31 56 56 136
46 146 -5 3 -14 4 -20 2z"/>
<path d="M11536 7138 c-25 -92 -44 -147 -77 -217 -21 -46 -39 -85 -39 -87 0
-10 29 -2 40 10 6 8 26 24 44 34 l32 19 -4 -27 c-4 -28 20 -56 38 -45 8 5 8
11 0 20 -8 10 -8 24 -1 50 13 47 -5 55 -55 25 l-36 -23 22 44 c25 48 70 175
70 196 0 17 -29 17 -34 1z"/>
<path d="M11007 7124 c-14 -14 -7 -35 11 -32 9 2 17 10 17 17 0 16 -18 25 -28
15z"/>
<path d="M8317 7053 c-11 -11 -8 -20 9 -27 19 -7 57 11 49 25 -7 10 -48 12
-58 2z"/>
<path d="M3850 7036 c0 -18 31 -29 44 -16 8 8 7 14 -4 20 -22 14 -40 12 -40
-4z"/>
<path d="M7648 7011 c-18 -15 -39 -26 -45 -24 -8 3 -13 -4 -13 -15 0 -11 -10
-46 -22 -77 -16 -42 -18 -59 -10 -67 9 -9 19 5 41 53 36 79 74 123 101 116 27
-7 37 13 15 30 -26 18 -30 17 -67 -16z"/>
<path d="M2062 6962 c-30 -16 -54 -33 -53 -38 0 -18 31 -15 59 5 16 11 41 23
56 27 l28 7 -17 -34 c-10 -19 -29 -47 -42 -63 -22 -27 -63 -98 -63 -111 0 -16
39 -1 64 25 15 17 37 35 47 41 17 9 21 6 31 -21 20 -58 78 -57 112 1 17 29 24
108 11 129 -15 24 -25 7 -25 -43 0 -88 -48 -129 -75 -64 -19 45 -24 48 -55 32
l-28 -15 34 52 c19 28 34 61 32 72 -5 33 -53 32 -116 -2z"/>
<path d="M9052 6981 c-91 -9 -77 -26 21 -26 66 0 82 3 82 15 0 17 -16 19 -103
11z"/>
<path d="M10295 6978 c-11 -7 -26 -12 -34 -13 -16 0 -55 -120 -46 -143 5 -14
9 -13 25 8 10 14 29 46 41 72 25 53 44 64 83 47 34 -16 44 -5 21 21 -20 22
-60 26 -90 8z"/>
<path d="M12045 6983 c-32 -8 -45 -23 -45 -52 0 -20 10 -32 45 -53 30 -18 45
-34 45 -48 0 -29 -24 -25 -53 10 -14 17 -30 30 -36 30 -20 0 -11 -25 18 -58
35 -37 69 -41 96 -11 18 19 18 21 1 54 -10 19 -34 41 -52 50 -19 9 -34 20 -34
26 0 15 51 31 78 24 19 -5 23 -2 20 12 -3 19 -43 26 -83 16z"/>
<path d="M6750 6972 c-41 -13 -110 -108 -110 -152 0 -39 38 -70 87 -70 53 0
103 18 103 37 0 10 -6 13 -17 8 -39 -14 -113 -18 -128 -5 -31 26 -18 48 40 65
61 17 80 40 70 85 -7 30 -21 40 -45 32z m1 -73 c-13 -10 -30 -19 -39 -19 -13
0 -12 4 4 23 28 32 38 37 49 26 7 -7 2 -17 -14 -30z"/>
<path d="M7134 6958 c-11 -13 -27 -22 -36 -20 -14 3 -18 -3 -18 -26 0 -16 -9
-49 -19 -73 -19 -42 -19 -59 -1 -59 6 0 25 31 44 68 40 79 66 108 66 72 0 -13
5 -20 13 -17 6 2 12 19 12 38 0 27 -4 35 -21 37 -13 2 -29 -6 -40 -20z"/>
<path d="M7810 6972 c-57 -19 -117 -101 -99 -135 13 -22 36 -22 76 2 l31 20
-9 -31 c-9 -34 -5 -48 17 -48 8 0 14 9 14 22 0 12 7 45 16 74 10 28 14 59 11
67 -8 20 -38 36 -57 29z m24 -41 c6 -9 -24 -39 -66 -66 -37 -23 -36 -4 3 40
30 34 52 44 63 26z"/>
<path d="M10072 6950 c-72 -54 -70 -106 4 -97 25 2 47 1 50 -4 10 -17 24 -9
24 14 0 13 7 32 15 43 20 26 19 46 -2 42 -10 -2 -25 5 -33 15 -14 17 -17 16
-58 -13z m44 -32 c9 -14 -23 -38 -50 -38 -18 0 -18 1 4 25 26 28 35 31 46 13z"/>
<path d="M4899 6946 c-44 -30 -93 -92 -79 -101 5 -3 10 -15 10 -26 0 -10 10
-29 21 -40 18 -18 30 -21 71 -17 32 4 53 11 63 24 20 28 2 38 -33 20 -37 -19
-64 -20 -80 -4 -18 18 -14 38 8 38 26 0 100 72 100 97 0 18 -17 33 -38 33 -4
0 -23 -11 -43 -24z m16 -46 c-30 -31 -45 -38 -45 -20 0 9 57 50 69 50 3 0 -8
-13 -24 -30z"/>
<path d="M6394 6936 c-66 -66 -20 -142 54 -90 13 9 26 13 29 10 7 -7 -12 -141
-28 -199 -8 -32 -14 -37 -39 -37 -57 0 -78 -16 -94 -71 -22 -72 -21 -158 1
-166 21 -8 71 51 114 135 18 34 35 62 39 62 3 0 15 -7 26 -15 24 -19 34 -19
34 0 0 11 -24 32 -57 50 -2 1 6 42 16 91 10 49 22 128 25 175 l7 86 -47 1
c-40 1 -51 -3 -80 -32z m83 -4 c14 -9 0 -29 -37 -55 -51 -35 -70 -6 -25 38 25
26 41 30 62 17z m-62 -379 c-9 -21 -30 -59 -48 -86 l-32 -47 -3 32 c-4 35 13
105 30 126 6 6 23 12 39 12 l29 0 -15 -37z"/>
<path d="M9579 6945 c-41 -30 -69 -78 -62 -105 6 -23 51 -27 85 -9 20 11 21 9
14 -30 -3 -22 -16 -66 -27 -96 l-21 -56 -43 7 c-38 5 -45 3 -55 -16 -14 -27
-8 -103 10 -125 27 -33 73 -2 98 66 7 17 17 23 37 24 16 0 30 6 32 13 3 7 -4
12 -16 12 -11 0 -22 4 -25 8 -3 5 6 47 21 93 14 46 31 102 38 124 7 22 15 47
19 56 5 12 -2 22 -27 38 -19 11 -36 21 -39 21 -2 0 -20 -11 -39 -25z m61 -35
c0 -12 -13 -28 -32 -40 -60 -37 -79 -18 -31 32 32 33 63 37 63 8z m-84 -299
c-2 -3 -11 -23 -21 -43 -22 -47 -32 -48 -41 -3 -9 50 -1 63 35 57 17 -2 29 -7
27 -11z"/>
<path d="M9839 6947 c-19 -12 -42 -39 -52 -59 -16 -32 -17 -41 -5 -65 19 -40
55 -55 104 -42 48 13 68 29 55 42 -5 5 -17 4 -30 -3 -12 -6 -39 -10 -59 -8
-32 3 -37 7 -40 31 -3 26 -2 27 42 27 60 0 102 34 92 73 -5 23 -12 27 -40 27
-18 0 -48 -10 -67 -23z m81 -17 c0 -16 -54 -38 -75 -30 -18 6 -17 8 10 23 34
18 65 22 65 7z"/>
<path d="M11704 6936 c-19 -19 -34 -44 -34 -55 0 -30 26 -78 49 -91 29 -15 83
-12 109 6 27 19 28 34 2 34 -11 0 -20 -4 -20 -10 0 -18 -66 -11 -83 8 -16 17
-15 20 24 41 68 39 80 101 18 101 -22 0 -41 -10 -65 -34z m70 -9 c-4 -12 -55
-47 -68 -47 -15 0 17 42 37 50 31 12 37 12 31 -3z"/>
<path d="M5135 6935 c-17 -16 -25 -20 -25 -10 0 8 -6 15 -14 15 -9 0 -15 -18
-20 -52 -3 -29 -9 -68 -12 -85 -11 -57 19 -38 50 32 37 83 53 98 74 67 14 -21
42 -31 42 -14 0 18 -41 72 -55 72 -9 0 -27 -11 -40 -25z"/>
<path d="M6935 6946 c-35 -16 -80 -62 -89 -92 -4 -14 -1 -28 10 -38 15 -15 27
-15 70 1 6 2 14 -10 17 -26 4 -19 13 -31 23 -31 12 0 14 6 9 29 -4 20 1 46 16
80 21 50 21 52 4 71 -21 23 -21 23 -60 6z m35 -37 c0 -16 -56 -69 -74 -69 -26
0 -18 26 15 54 32 27 59 34 59 15z"/>
<path d="M2634 6928 c-11 -13 -25 -34 -30 -48 -13 -33 -2 -119 17 -131 18 -13
87 -2 118 17 36 24 12 35 -38 18 -55 -19 -71 -13 -71 26 0 23 5 30 19 30 22 0
71 44 71 64 0 50 -51 64 -86 24z m50 -23 c-8 -19 -44 -40 -44 -26 0 12 28 41
40 41 5 0 7 -7 4 -15z"/>
<path d="M2807 6920 c-59 -47 -55 -129 8 -155 43 -19 109 -19 124 -2 16 20 5
26 -38 20 -65 -9 -136 45 -83 64 56 20 86 93 38 93 -13 0 -35 -9 -49 -20z m43
-15 c0 -2 -10 -9 -22 -15 -22 -11 -22 -10 -4 4 21 17 26 19 26 11z"/>
<path d="M8430 6933 c-23 -8 -70 -55 -86 -85 -24 -46 -18 -84 14 -97 39 -16
80 -5 119 32 61 58 64 126 7 147 -28 11 -32 11 -54 3z m58 -65 c6 -49 -53 -95
-115 -89 -36 3 14 100 57 112 40 11 55 6 58 -23z"/>
<path d="M11224 6904 c-39 -41 -52 -78 -34 -99 15 -18 36 -19 96 -4 63 16 54
29 -16 24 -33 -3 -60 -2 -60 1 0 20 45 75 66 80 28 7 31 19 8 28 -24 9 -24 9
-60 -30z"/>
<path d="M4462 6917 c-68 -39 -74 -135 -9 -162 38 -15 91 -9 109 13 10 12 10
14 1 8 -7 -4 -13 -4 -13 1 0 4 -19 7 -43 5 -29 -3 -47 1 -56 11 -10 13 -6 17
22 26 46 16 69 43 65 78 -2 22 -9 29 -28 30 -14 2 -35 -3 -48 -10z m48 -32 c0
-16 -60 -48 -70 -38 -6 6 47 53 61 53 5 0 9 -7 9 -15z"/>
<path d="M8216 6923 c-3 -3 -6 -16 -6 -28 0 -12 -9 -34 -21 -48 -16 -21 -18
-31 -9 -47 6 -11 13 -20 15 -20 9 0 45 93 45 116 0 24 -12 38 -24 27z"/>
<path d="M10811 6907 c-35 -42 -19 -127 24 -127 16 0 25 6 25 15 0 8 -6 15
-14 15 -13 0 -26 20 -26 41 0 5 9 18 20 29 21 21 19 40 -4 40 -8 0 -19 -6 -25
-13z"/>
<path d="M10994 6903 c-3 -10 -12 -31 -20 -46 -28 -56 -6 -65 40 -17 15 17 37
35 47 41 18 9 19 7 12 -18 -10 -42 -9 -66 4 -70 7 -3 16 18 24 52 16 70 5 86
-44 67 -20 -8 -33 -9 -35 -2 -6 16 -22 12 -28 -7z"/>
<path d="M3927 6892 c-60 -66 -31 -151 35 -102 l28 21 0 -29 c0 -35 19 -55 40
-42 8 5 22 7 32 4 11 -3 28 11 54 43 55 70 57 72 50 40 -12 -49 4 -51 50 -6
l44 43 0 -47 c0 -51 18 -70 48 -51 17 11 13 30 -6 28 -9 -1 -12 13 -11 47 3
65 -11 79 -48 49 -24 -19 -28 -20 -31 -6 -5 23 -32 20 -59 -6 -20 -18 -23 -19
-23 -5 0 9 -7 17 -15 17 -10 0 -15 -10 -15 -26 0 -25 -38 -104 -49 -104 -24 1
-33 21 -28 58 12 70 -54 121 -96 74z m57 -20 c7 -12 -38 -66 -52 -61 -8 3 -6
14 5 37 15 30 36 41 47 24z"/>
<path d="M5740 6886 c-30 -33 -21 -54 19 -48 40 6 57 34 35 56 -21 21 -27 20
-54 -8z"/>
<path d="M8962 6893 c3 -14 15 -17 83 -17 63 0 80 3 80 15 0 11 -19 15 -83 17
-75 3 -83 1 -80 -15z"/>
<path d="M3787 6892 c-3 -4 -11 -38 -18 -75 -9 -51 -10 -70 -1 -79 8 -8 13 -8
16 3 6 18 30 131 31 143 0 13 -22 19 -28 8z"/>
<path d="M12630 6846 c0 -9 6 -16 14 -16 26 0 205 -201 236 -265 71 -148 62
-353 -20 -477 -33 -50 -180 -182 -235 -211 -40 -21 -45 -37 -13 -37 52 0 264
197 303 282 59 128 57 321 -5 449 -37 79 -219 282 -256 287 -17 2 -24 -2 -24
-12z"/>
<path d="M8974 6762 c-65 -47 -132 -131 -174 -217 -45 -93 -59 -147 -60 -228
0 -100 38 -162 125 -203 55 -26 95 -30 113 -12 9 9 12 9 12 0 0 -7 5 -12 10
-12 6 0 10 6 10 14 0 9 -19 15 -61 19 -184 16 -232 192 -116 422 51 103 151
206 200 209 12 1 22 8 22 16 0 26 -39 22 -81 -8z"/>
<path d="M10257 6734 c-3 -4 -23 -7 -44 -8 -44 -2 -107 -42 -164 -103 -98
-104 -91 -261 14 -312 24 -12 54 -21 68 -21 54 1 135 55 176 118 9 12 24 22
34 22 22 0 69 20 69 30 0 11 -183 4 -213 -8 -46 -19 -28 -37 34 -34 l54 3 -47
-45 c-56 -51 -100 -64 -152 -42 -92 38 -101 180 -18 269 39 42 130 100 146 94
12 -5 12 -13 4 -41 -6 -20 -8 -39 -4 -43 13 -13 41 14 44 43 2 16 10 37 19 46
20 22 1 53 -20 32z"/>
<path d="M4270 6670 c0 -29 -57 -152 -77 -167 -9 -7 -27 -13 -40 -13 l-23 0
26 73 c15 39 31 77 36 84 5 7 7 17 3 23 -16 26 -34 3 -64 -82 -17 -51 -39 -99
-48 -105 -9 -7 -32 -13 -51 -13 -46 0 -37 -24 11 -28 32 -3 35 -5 28 -25 -20
-53 -22 -77 -7 -77 10 0 21 20 31 52 16 56 27 68 62 68 21 0 22 -3 16 -45 -7
-58 7 -58 46 -1 28 40 48 56 72 56 10 0 -28 -81 -42 -90 -11 -7 1 -52 13 -48
15 5 71 136 65 152 -8 21 -61 21 -81 0 -24 -23 -20 -5 18 77 47 103 52 129 26
129 -13 0 -20 -7 -20 -20z"/>
<path d="M11627 6673 c-4 -3 -7 -14 -7 -23 0 -10 -15 -20 -43 -27 -95 -26
-207 -136 -207 -205 0 -37 24 -84 50 -98 61 -33 213 -31 247 2 13 14 3 15 -95
10 l-111 -5 -30 31 c-48 47 -38 93 36 164 38 37 126 83 141 74 5 -3 7 -18 4
-34 -5 -37 16 -52 34 -27 10 13 12 35 8 74 -7 57 -15 77 -27 64z"/>
<path d="M11802 6608 c-7 -40 -17 -100 -23 -134 -14 -81 -8 -209 9 -209 10 0
14 28 16 110 2 61 10 139 19 175 28 120 28 130 9 130 -14 0 -20 -15 -30 -72z"/>
<path d="M7312 6557 c-53 -112 -65 -158 -44 -179 17 -17 32 0 26 30 -4 20 8
57 46 135 46 97 53 127 32 127 -4 0 -31 -51 -60 -113z"/>
<path d="M3042 6613 c-4 -10 -22 -44 -41 -76 -30 -51 -37 -58 -58 -52 -13 3
-28 3 -34 -1 -14 -8 9 -34 30 -34 13 0 16 -7 13 -35 -7 -56 5 -84 42 -102 34
-16 66 -13 66 7 0 5 -8 10 -18 10 -31 0 -62 29 -62 58 0 53 10 69 51 81 44 13
57 46 14 35 -14 -3 -25 -2 -25 3 0 4 11 25 25 45 26 38 33 78 15 78 -6 0 -14
-8 -18 -17z"/>
<path d="M2645 6581 c-17 -100 -145 -299 -145 -225 0 31 33 74 57 74 14 0 23
6 23 16 0 11 -8 14 -32 12 -43 -4 -80 -57 -76 -108 3 -30 7 -35 30 -38 38 -4
78 41 128 143 46 92 62 165 37 165 -10 0 -18 -13 -22 -39z"/>
<path d="M4443 6538 c-43 -48 -56 -106 -30 -141 28 -39 157 -24 157 19 0 11
-5 14 -17 9 -62 -25 -75 -27 -99 -16 -36 16 -30 37 12 44 44 7 74 32 74 62 0
47 -61 62 -97 23z m67 -23 c0 -16 -45 -38 -63 -32 -14 4 29 47 48 47 8 0 15
-7 15 -15z"/>
<path d="M2072 6456 c-40 -35 -86 -66 -102 -70 -22 -4 -30 -11 -30 -26 0 -17
4 -19 28 -14 15 4 43 20 63 35 20 16 38 29 40 29 2 0 4 -19 4 -42 0 -55 21
-60 68 -18 l36 31 -9 -32 c-6 -20 -6 -38 1 -51 14 -25 29 -13 29 23 0 16 7 46
15 66 17 41 19 73 5 73 -5 0 -32 -23 -60 -52 -27 -28 -53 -49 -56 -45 -9 9 24
88 48 114 18 19 18 44 0 43 -4 -1 -40 -29 -80 -64z"/>
<path d="M7415 6483 c-19 -20 -35 -39 -35 -43 0 -17 31 -32 55 -26 22 6 25 3
25 -22 0 -16 3 -32 7 -35 10 -10 33 13 27 27 -3 7 0 25 6 41 15 39 1 48 -46
29 l-39 -16 21 22 c11 12 29 23 40 24 10 2 20 10 22 19 6 32 -44 20 -83 -20z"/>
<path d="M7655 6512 c-49 -10 -59 -50 -24 -88 28 -30 19 -59 -16 -50 -32 8
-35 -18 -4 -34 16 -9 26 -8 45 5 30 19 32 62 4 98 l-21 26 25 13 c28 15 22 36
-9 30z"/>
<path d="M7800 6511 c-12 -8 -11 -16 8 -54 12 -24 22 -52 22 -61 0 -20 -26
-21 -34 -1 -7 19 -36 20 -36 1 0 -17 46 -56 66 -56 32 0 44 66 19 114 -20 37
-20 36 16 36 20 0 29 4 27 13 -5 15 -68 21 -88 8z"/>
<path d="M5420 6497 c-32 -16 -72 -76 -68 -102 4 -24 46 -32 78 -15 12 6 24 9
27 6 7 -7 -22 -125 -48 -198 l-21 -56 -34 14 c-48 20 -71 17 -90 -11 -18 -28
-12 -79 14 -107 25 -29 57 -22 95 22 30 35 38 39 66 34 38 -8 42 11 6 28 -17
8 -24 17 -20 27 31 79 85 302 85 348 0 10 -6 12 -19 8 -11 -3 -22 -1 -26 5 -8
13 -14 13 -45 -3z m38 -49 c3 -14 -41 -48 -63 -48 -10 0 -5 26 11 48 18 26 47
26 52 0z m-119 -329 c37 -13 38 -20 8 -55 -33 -38 -57 -27 -57 26 0 44 2 45
49 29z"/>
<path d="M7108 6485 c-64 -43 -63 -97 3 -116 30 -9 45 -9 65 0 34 15 23 26
-27 27 -56 1 -69 17 -38 50 19 21 30 25 57 20 37 -6 45 16 13 34 -27 14 -32
13 -73 -15z"/>
<path d="M12365 6500 c-28 -11 -45 -33 -37 -46 4 -6 21 -19 39 -27 28 -15 52
-51 40 -63 -2 -3 -16 0 -31 6 -37 14 -56 13 -56 -4 0 -16 82 -41 105 -33 18 8
20 65 2 88 -7 9 -25 23 -41 31 l-29 15 29 7 c18 5 30 3 32 -3 5 -16 32 -14 32
2 0 32 -41 45 -85 27z"/>
<path d="M3233 6494 c-6 -3 -28 -25 -48 -49 -35 -44 -36 -45 -20 -75 24 -47
54 -56 117 -35 57 18 88 40 88 62 0 17 -14 17 -30 -1 -6 -8 -34 -22 -62 -32
-47 -15 -51 -15 -67 1 -11 12 -13 19 -4 22 7 2 27 14 45 27 55 37 39 104 -19
80z m13 -50 c-11 -7 -22 -12 -25 -9 -2 3 4 12 15 19 10 8 21 12 24 9 3 -2 -4
-11 -14 -19z"/>
<path d="M12193 6476 c-25 -21 -26 -26 -15 -47 7 -13 26 -32 43 -41 17 -10 27
-23 24 -29 -5 -7 -13 -5 -25 6 -16 15 -18 14 -24 -2 -7 -18 16 -43 40 -43 54
0 59 47 9 87 -42 33 -44 46 -10 61 14 6 25 16 25 22 0 18 -38 10 -67 -14z"/>
<path d="M2351 6461 c-17 -16 -37 -31 -44 -34 -12 -4 -52 -115 -52 -142 0 -5
-3 -12 -6 -15 -14 -13 -56 -171 -46 -177 16 -10 35 24 62 107 17 55 27 74 39
72 37 -7 85 37 116 106 25 54 25 74 2 95 -25 23 -35 21 -71 -12z m54 -38 c-15
-65 -88 -143 -101 -109 -11 30 60 136 92 136 13 0 15 -6 9 -27z"/>
<path d="M2746 6469 c-14 -11 -33 -34 -42 -51 -14 -28 -14 -32 0 -46 13 -14
21 -14 46 -5 26 10 30 9 30 -7 0 -21 25 -44 40 -35 13 8 13 32 -1 37 -9 3 -8
14 2 41 16 45 6 57 -24 30 -32 -29 -67 -46 -67 -33 0 13 41 55 60 62 8 2 10 9
6 16 -10 17 -19 15 -50 -9z"/>
<path d="M5623 6475 c-12 -8 -31 -31 -43 -51 -18 -29 -21 -40 -12 -59 13 -28
58 -40 95 -26 38 15 35 35 -3 28 -16 -4 -37 -4 -45 -1 -17 7 -21 43 -5 45 6 1
15 3 20 4 6 1 16 3 23 4 22 2 57 40 51 56 -8 19 -53 19 -81 0z"/>
<path d="M5787 6468 c-29 -23 -67 -81 -67 -105 0 -30 24 -30 66 2 l33 25 3
-25 c5 -39 22 -31 32 15 13 59 -3 71 -49 36 -48 -37 -55 -27 -10 13 20 17 33
36 30 41 -8 13 -18 13 -38 -2z"/>
<path d="M10515 6461 c-62 -37 -91 -113 -56 -145 17 -16 30 -18 82 -13 66 7
82 13 73 28 -3 5 -32 7 -68 3 -40 -4 -66 -3 -70 4 -11 18 5 42 28 42 11 0 36
9 54 20 25 15 32 27 32 50 0 24 -4 30 -22 30 -13 0 -37 -8 -53 -19z m45 -19
c0 -5 -12 -14 -27 -21 l-28 -11 24 20 c26 22 31 24 31 12z"/>
<path d="M10686 6449 c-39 -46 -30 -89 19 -89 12 0 26 5 33 12 9 9 12 7 12
-12 0 -35 15 -54 35 -46 14 5 15 9 5 21 -8 9 -9 28 -5 55 8 47 -2 51 -46 19
-16 -11 -34 -17 -40 -14 -16 11 30 55 58 55 14 0 23 6 23 15 0 10 -10 15 -34
15 -26 0 -41 -7 -60 -31z"/>
<path d="M10902 6469 c-26 -10 -39 -30 -47 -71 -6 -30 -4 -38 8 -38 9 0 19 15
24 38 l9 37 59 1 c80 2 79 2 66 18 -13 15 -91 25 -119 15z"/>
<path d="M11971 6454 c-28 -35 -28 -90 -1 -99 11 -4 33 0 49 8 28 14 29 14 35
-14 6 -33 47 -49 71 -29 18 15 11 25 -18 25 -20 0 -22 4 -19 57 3 48 1 58 -17
67 -36 20 -78 13 -100 -15z m77 -26 c-21 -32 -62 -52 -66 -33 -6 28 18 55 50
55 29 0 30 -1 16 -22z"/>
<path d="M5926 6461 c-11 -18 -34 -110 -29 -115 13 -12 33 -5 33 12 0 9 14 33
30 52 26 32 31 34 50 22 26 -16 38 -8 24 16 -8 12 -25 17 -58 18 -26 0 -48 -2
-50 -5z"/>
<path d="M8033 6370 c-24 -10 -30 -25 -13 -35 14 -9 50 13 50 30 0 17 -6 18
-37 5z"/>
</g>
</svg>
