<?xml version="1.0" standalone="no"?>
<!DOCTYPE svg PUBLIC "-//W3C//DTD SVG 20010904//EN"
 "http://www.w3.org/TR/2001/REC-SVG-20010904/DTD/svg10.dtd">
<svg version="1.0" xmlns="http://www.w3.org/2000/svg"
 width="1618.000000pt" height="1214.000000pt" viewBox="0 0 1618.000000 1214.000000"
 preserveAspectRatio="xMidYMid meet">

<g transform="translate(0.000000,1214.000000) scale(0.100000,-0.100000)"
fill="#000000" stroke="none">
<path d="M12928 11708 c-8 -7 -30 -39 -47 -70 -35 -62 -41 -67 -61 -43 -18 22
-43 18 -90 -12 -77 -51 -101 -136 -54 -192 l26 -31 -46 -47 c-50 -50 -54 -58
-30 -67 22 -8 24 -8 24 7 0 25 94 107 122 107 48 0 77 18 99 61 18 36 20 49
11 91 -9 47 -8 53 24 105 18 31 40 63 49 73 8 9 15 20 15 23 0 11 -25 8 -42
-5z m-107 -168 c9 0 10 -3 3 -8 -5 -4 -29 -34 -53 -67 -23 -33 -47 -60 -54
-60 -6 0 -18 12 -26 27 -14 24 -14 30 2 62 9 20 31 45 49 56 28 17 34 18 48 5
9 -8 23 -15 31 -15z m32 -80 c-8 -29 -38 -59 -68 -66 l-29 -7 18 29 c10 16 30
44 44 63 23 31 26 32 32 15 4 -10 5 -26 3 -34z"/>
<path d="M14625 11627 c-9 -15 -14 -31 -10 -37 3 -5 2 -10 -4 -10 -6 0 -17
-13 -26 -30 -15 -29 -48 -43 -42 -18 1 6 -5 13 -14 15 -76 17 -139 -126 -83
-188 13 -15 12 -21 -10 -64 -28 -52 -22 -85 14 -85 22 0 28 26 8 33 -10 3 -8
14 7 42 11 20 24 39 30 40 5 2 23 6 39 10 40 9 106 76 106 107 0 13 -9 34 -20
46 l-20 22 31 61 c20 40 27 65 21 71 -7 7 -16 1 -27 -15z m-75 -143 c0 -9 -32
-68 -50 -91 -9 -12 -21 -18 -27 -15 -18 12 -25 53 -13 81 9 23 18 28 51 29 21
1 39 -1 39 -4z m55 -53 c-6 -19 -74 -75 -82 -67 -2 1 11 28 29 59 27 46 35 53
47 42 8 -8 10 -21 6 -34z"/>
<path d="M14959 11611 c-47 -29 -59 -46 -59 -85 0 -48 58 -62 115 -26 37 23
49 54 32 84 -6 12 -11 28 -12 36 0 25 -28 22 -76 -9z m61 -50 c0 -24 -36 -51
-67 -51 -28 0 -31 25 -6 52 23 25 73 24 73 -1z"/>
<path d="M13736 11555 c-51 -49 -106 -141 -106 -177 0 -6 11 -26 26 -45 31
-41 69 -44 108 -8 50 47 26 100 -45 98 -21 -1 -39 0 -39 2 0 32 109 154 138
155 6 0 12 7 12 15 0 30 -39 14 -94 -40z m24 -177 c0 -18 -31 -48 -51 -48 -20
0 -43 35 -34 50 9 14 85 13 85 -2z"/>
<path d="M12998 11569 c-23 -22 -28 -33 -19 -42 8 -8 16 -5 31 10 20 22 58 39
67 30 3 -3 0 -21 -6 -40 -12 -35 -72 -97 -150 -152 -23 -16 -40 -34 -38 -40 7
-20 38 -16 69 10 l31 27 11 -33 c13 -38 44 -52 76 -36 39 20 36 37 -6 34 -35
-2 -38 0 -45 32 -6 29 -3 37 31 71 47 47 78 123 60 145 -22 26 -78 19 -112
-16z"/>
<path d="M13509 11580 c-47 -24 -66 -47 -51 -62 8 -8 19 -4 42 16 40 33 50 33
50 -2 0 -45 -77 -142 -113 -142 -40 0 -107 -51 -107 -82 0 -22 25 -23 60 -3
34 19 37 19 44 -10 5 -19 13 -25 32 -25 32 0 104 39 104 56 0 18 -23 30 -28
16 -5 -17 -60 -44 -72 -37 -19 12 -10 34 40 93 65 78 83 120 69 160 -14 40
-27 44 -70 22z"/>
<path d="M14225 11576 c-41 -18 -62 -43 -47 -58 9 -9 18 -6 35 10 26 24 47 29
47 10 0 -23 -90 -129 -118 -139 -40 -15 -72 -49 -72 -76 0 -31 18 -29 63 8
l37 30 0 -25 c0 -51 45 -69 100 -41 38 20 40 40 3 31 -64 -16 -68 -14 -71 32
-3 37 2 48 37 90 42 50 61 89 54 110 -9 23 -37 31 -68 18z"/>
<path d="M14716 11517 c-46 -101 -61 -197 -31 -197 15 0 19 10 15 43 -2 24 28
115 52 154 18 31 18 53 -2 53 -5 0 -20 -24 -34 -53z"/>
<path d="M14895 11428 c-55 -53 -64 -84 -35 -121 26 -33 60 -35 101 -4 60 43
76 108 36 145 -33 31 -52 28 -102 -20z m93 -25 c2 -14 -9 -35 -32 -60 -29 -32
-38 -36 -53 -27 -32 20 -29 56 8 87 39 32 73 32 77 0z"/>
<path d="M13161 11331 c-14 -26 5 -40 25 -19 13 13 13 16 0 27 -12 10 -17 9
-25 -8z"/>
<path d="M13842 11338 c-16 -16 -15 -38 1 -38 18 0 49 34 40 43 -10 11 -28 8
-41 -5z"/>
<path d="M8727 11293 c-4 -3 -7 -17 -7 -30 0 -13 -25 -87 -56 -166 -81 -204
-85 -215 -73 -223 6 -3 27 9 47 28 21 18 47 42 60 53 l23 19 -6 -50 c-6 -39
-4 -53 9 -63 9 -7 16 -12 17 -10 0 2 2 20 3 39 1 19 6 52 10 72 12 54 -12 60
-71 19 -25 -18 -43 -27 -40 -19 56 138 117 303 117 318 0 19 -20 27 -33 13z"/>
<path d="M7097 11282 c-11 -2 -16 -9 -13 -18 3 -8 -19 -56 -49 -105 -30 -50
-57 -99 -60 -110 -5 -15 -16 -19 -58 -19 -57 0 -84 -11 -72 -29 4 -8 24 -10
57 -7 49 6 50 5 44 -16 -15 -53 -19 -128 -6 -143 20 -25 90 -17 90 10 0 8 -12
12 -32 11 -29 -1 -33 2 -36 27 -2 15 4 50 13 77 15 45 19 49 52 52 43 4 51 18
22 36 -12 8 -18 9 -14 3 3 -6 1 -11 -4 -11 -23 0 -9 38 44 125 66 107 70 128
22 117z"/>
<path d="M7807 11263 c-4 -3 -7 -16 -7 -28 0 -36 -92 -251 -132 -306 -14 -20
16 -66 49 -75 36 -10 86 26 103 73 13 39 13 44 -5 63 -10 11 -23 20 -29 19
-32 -4 -31 8 11 117 24 64 42 123 39 130 -6 15 -19 18 -29 7z m-9 -306 c4 -20
-53 -80 -71 -75 -25 9 -20 51 10 75 32 26 56 26 61 0z"/>
<path d="M6410 11210 c-11 -22 -35 -79 -52 -127 -43 -119 -90 -192 -126 -193
-10 0 -12 9 -7 33 10 46 31 75 57 79 27 4 31 31 5 36 -26 5 -75 -45 -89 -89
-12 -43 -5 -84 18 -93 46 -18 117 72 170 214 19 52 44 110 54 128 19 32 19 52
0 52 -5 0 -19 -18 -30 -40z"/>
<path d="M5041 11216 c-8 -10 -9 -16 -1 -21 15 -9 52 5 47 18 -6 18 -32 20
-46 3z"/>
<path d="M9460 11193 c0 -15 -21 -79 -46 -143 -47 -116 -58 -170 -38 -177 6
-2 14 10 17 26 4 16 29 89 57 162 28 72 49 138 46 145 -10 25 -36 16 -36 -13z"/>
<path d="M3941 11191 c-28 -8 -41 -31 -17 -31 21 0 21 2 -13 -94 -51 -145 -64
-256 -28 -256 8 0 13 21 14 63 1 44 13 97 42 179 23 65 41 125 41 133 0 16 -2
17 -39 6z"/>
<path d="M9213 11180 c6 -23 -18 -102 -62 -209 -17 -41 -31 -82 -31 -93 0 -35
28 -31 66 12 44 49 81 72 70 45 -17 -45 -18 -65 -3 -65 16 0 51 96 41 112 -11
17 -42 7 -81 -27 -23 -19 -44 -35 -47 -35 -2 0 6 25 20 56 32 72 64 191 57
209 -8 23 -36 19 -30 -5z"/>
<path d="M10593 11188 c-4 -7 -17 -40 -29 -73 -11 -33 -39 -97 -62 -142 -23
-46 -42 -87 -42 -93 0 -19 25 -10 50 19 29 35 99 91 112 91 4 0 -1 -18 -12
-41 -23 -45 -23 -84 0 -84 9 0 14 7 12 17 -1 10 6 35 18 57 29 58 27 81 -9 81
-15 0 -40 -9 -54 -20 -14 -11 -27 -20 -30 -20 -3 0 10 35 29 78 38 89 52 142
36 142 -6 0 -14 -6 -19 -12z"/>
<path d="M3238 11163 c-14 -16 -43 -62 -63 -103 -21 -41 -62 -107 -92 -148
-61 -82 -69 -97 -55 -106 6 -3 33 25 61 63 55 73 65 81 113 81 30 0 31 -1 26
-42 -3 -24 -3 -53 1 -66 11 -43 26 -22 31 45 5 61 7 68 29 73 34 8 39 30 7 30
-22 0 -26 4 -22 23 29 134 30 177 2 177 -7 0 -24 -12 -38 -27z m18 -85 c-10
-80 -20 -98 -56 -98 -24 0 -28 3 -22 18 13 32 75 142 80 142 2 0 1 -28 -2 -62z"/>
<path d="M6170 11156 c0 -17 34 -31 50 -21 16 10 -8 35 -31 35 -11 0 -19 -6
-19 -14z"/>
<path d="M13065 11140 c-3 -5 -4 -10 -1 -10 11 0 -46 -113 -89 -175 -25 -36
-45 -70 -45 -76 0 -17 37 -9 56 12 21 24 74 54 74 42 0 -5 -7 -17 -15 -27 -18
-24 -19 -46 -2 -46 6 0 24 22 39 49 25 43 26 50 12 61 -12 11 -21 10 -50 -4
l-36 -16 20 27 c21 29 72 145 72 163 0 13 -27 13 -35 0z"/>
<path d="M11265 11121 c-8 -15 3 -31 21 -31 9 0 14 7 12 17 -4 20 -24 28 -33
14z"/>
<path d="M5093 11070 c-38 -23 -41 -37 -15 -71 25 -33 32 -53 22 -70 -8 -11
-15 -11 -45 0 -27 9 -40 10 -48 2 -19 -19 7 -33 64 -35 48 -1 53 1 61 27 8 22
5 36 -12 69 -21 40 -21 43 -4 55 10 7 30 13 46 13 18 0 28 5 28 15 0 22 -58
19 -97 -5z"/>
<path d="M5763 11080 c-37 -15 -46 -44 -30 -98 16 -55 13 -72 -14 -72 -15 0
-19 7 -19 36 0 28 -3 35 -17 32 -14 -3 -17 -12 -15 -38 7 -70 62 -89 98 -34
13 19 14 30 5 55 -6 18 -11 45 -11 60 0 28 2 29 45 29 40 0 58 11 38 23 -20
11 -60 14 -80 7z"/>
<path d="M4465 11072 c-30 -7 -85 -52 -85 -71 0 -9 11 -33 25 -54 31 -44 25
-61 -17 -52 -25 6 -29 4 -26 -12 2 -14 12 -18 43 -18 34 0 41 4 49 27 8 22 5
34 -19 67 l-28 41 24 20 c13 10 32 19 41 20 20 0 34 19 22 29 -5 4 -18 6 -29
3z"/>
<path d="M8870 11055 c0 -8 7 -15 15 -15 8 0 15 7 15 15 0 8 -7 15 -15 15 -8
0 -15 -7 -15 -15z"/>
<path d="M10112 11031 c-87 -69 -101 -105 -56 -140 52 -41 162 -53 148 -16 -4
10 -20 15 -46 15 -35 0 -98 23 -98 36 0 15 36 55 74 82 49 35 57 38 54 20 -2
-7 4 -13 12 -13 9 0 15 9 15 25 0 42 -43 38 -103 -9z"/>
<path d="M4270 11029 c-70 -42 -75 -66 -23 -114 l37 -34 -28 -12 c-23 -11 -29
-10 -36 1 -12 20 -35 -2 -27 -24 14 -36 117 0 117 40 0 8 -16 30 -36 48 l-36
33 28 22 c16 12 41 25 56 28 16 3 28 12 28 19 0 21 -40 17 -80 -7z"/>
<path d="M4925 11003 c-36 -65 -43 -108 -20 -133 21 -23 55 -27 55 -6 0 17
-24 38 -33 29 -19 -18 -3 39 23 86 34 61 36 71 16 71 -8 0 -26 -21 -41 -47z"/>
<path d="M10810 11030 c-57 -30 -99 -81 -93 -113 8 -43 50 -70 97 -62 44 6 66
20 66 40 0 10 -9 9 -42 -2 -32 -11 -48 -12 -66 -4 -32 15 -24 43 14 53 41 10
96 61 88 81 -9 24 -27 26 -64 7z m5 -40 c-3 -5 -12 -10 -18 -10 -7 0 -6 4 3
10 19 12 23 12 15 0z"/>
<path d="M5890 11003 c-22 -27 -30 -46 -28 -68 3 -28 6 -30 43 -30 22 0 45 -6
51 -14 13 -17 38 -5 30 15 -3 8 1 32 10 54 21 52 7 80 -41 80 -27 0 -40 -8
-65 -37z m80 -7 c0 -22 -40 -66 -61 -66 -26 0 -24 22 6 54 26 28 55 35 55 12z"/>
<path d="M7929 11017 c-93 -63 -100 -157 -13 -173 40 -7 120 10 141 32 25 24
8 27 -51 8 -72 -23 -109 -13 -114 31 -3 24 -1 27 11 17 12 -10 24 -8 61 10 48
23 62 44 51 78 -9 27 -44 26 -86 -3z m61 -17 c0 -9 -70 -50 -85 -50 -13 0 9
22 39 41 35 21 46 24 46 9z"/>
<path d="M11028 11024 c-48 -21 -51 -53 -8 -84 42 -30 38 -40 -15 -40 -43 0
-58 -11 -34 -26 18 -10 89 -6 105 7 20 17 18 25 -21 68 l-35 39 31 11 c18 6
41 11 51 11 28 0 16 25 -13 27 -13 1 -41 -5 -61 -13z"/>
<path d="M11430 11014 c-6 -14 -10 -28 -10 -31 0 -3 -12 -32 -27 -65 -29 -65
-42 -62 -43 7 0 48 -12 70 -34 62 -17 -7 -22 -27 -7 -27 5 0 9 -21 9 -46 0
-47 22 -84 49 -84 17 0 48 50 75 123 21 57 21 57 54 51 19 -3 34 -2 34 3 0 19
-25 33 -57 33 -27 0 -35 -5 -43 -26z"/>
<path d="M10322 11007 c-30 -32 -29 -74 3 -89 58 -26 128 49 85 92 -27 27 -62
25 -88 -3z m65 -23 c6 -16 -19 -44 -39 -44 -15 0 -20 30 -8 45 16 20 39 19 47
-1z"/>
<path d="M11623 11010 c-45 -27 -63 -58 -63 -111 0 -50 21 -79 57 -79 26 0
113 38 113 50 0 20 -21 20 -59 0 -50 -25 -68 -25 -76 0 -7 23 1 40 20 40 7 0
27 12 44 26 58 49 27 113 -36 74z m37 -30 c0 -14 -49 -44 -58 -35 -4 3 4 15
17 26 26 21 41 24 41 9z"/>
<path d="M12704 11018 c-40 -8 -84 -42 -71 -54 3 -4 22 1 41 10 50 24 51 20
12 -26 -57 -66 -42 -98 24 -54 47 31 50 31 50 8 0 -10 7 -28 16 -41 20 -28 56
-22 96 16 44 42 71 133 40 133 -4 0 -15 -23 -25 -50 -19 -53 -56 -87 -83 -76
-11 4 -14 13 -10 29 3 12 1 29 -4 37 -8 12 -14 13 -41 3 l-32 -12 22 22 c21
23 28 52 14 60 -5 2 -27 0 -49 -5z"/>
<path d="M3684 11009 c-37 -11 -94 -71 -94 -99 0 -25 54 -60 92 -60 18 0 29 7
33 21 9 27 1 33 -23 18 -17 -10 -25 -10 -46 5 -22 14 -24 20 -16 36 14 27 50
50 77 50 16 0 23 6 23 20 0 22 -1 22 -46 9z"/>
<path d="M4037 10990 c-64 -51 -69 -130 -8 -130 16 0 39 9 52 19 24 19 24 19
36 -10 7 -16 19 -29 28 -29 17 0 21 25 5 35 -5 3 -10 24 -10 46 0 21 -3 39 -6
39 -4 0 -24 -16 -45 -35 -43 -38 -69 -45 -69 -17 1 30 35 65 66 66 19 1 29 6
29 16 0 24 -48 24 -78 0z"/>
<path d="M6079 10968 c-12 -23 -28 -48 -36 -56 -19 -20 -11 -37 17 -37 19 0
26 7 30 30 4 17 14 44 23 62 14 27 15 32 2 37 -10 4 -22 -8 -36 -36z"/>
<path d="M13376 10976 c-9 -14 -23 -37 -31 -51 -35 -57 -9 -60 60 -5 28 22 53
40 57 40 4 0 0 -16 -8 -35 -17 -42 -18 -65 -1 -65 14 0 61 116 52 130 -9 15
-38 12 -61 -5 -23 -17 -35 -19 -31 -4 5 23 -22 19 -37 -5z"/>
<path d="M8933 10955 c-26 -26 -34 -41 -31 -62 3 -25 7 -28 41 -27 21 1 46 9
57 19 20 18 20 18 15 -11 -2 -16 -7 -50 -10 -75 -6 -49 -18 -59 -72 -59 -13 0
-41 -7 -63 -16 -35 -14 -40 -20 -40 -49 0 -36 37 -75 71 -75 23 0 86 54 105
91 8 16 20 29 27 29 20 1 49 28 42 39 -4 8 -12 8 -27 0 -19 -10 -20 -9 -15 12
4 13 10 67 13 120 l7 97 -43 0 c-36 1 -49 -5 -77 -33z m77 -2 c-1 -15 -37 -51
-58 -57 -30 -10 -28 6 4 38 25 25 54 35 54 19z m-42 -265 c-8 -12 -26 -31 -40
-41 -21 -15 -30 -17 -47 -8 -50 27 -10 68 68 70 32 1 33 0 19 -21z"/>
<path d="M13164 10971 c-23 -10 -44 -26 -47 -36 -22 -56 9 -95 76 -95 49 0
104 23 104 44 0 18 -12 21 -22 7 -13 -22 -135 -25 -135 -3 0 4 27 15 59 24 60
18 80 40 60 64 -16 19 -46 17 -95 -5z"/>
<path d="M7113 10947 c-28 -40 -29 -59 -5 -80 35 -32 93 -11 112 39 14 35 3
52 -38 64 -48 13 -44 15 -69 -23z m77 -27 c0 -12 -10 -25 -25 -32 -34 -15 -50
0 -29 30 20 28 54 29 54 2z"/>
<path d="M8790 10938 c-23 -51 -25 -68 -6 -68 12 0 46 71 46 98 0 26 -22 10
-40 -30z"/>
<path d="M11180 10948 c-21 -34 -23 -62 -5 -61 12 1 55 75 48 86 -9 15 -24 6
-43 -25z"/>
<path d="M9591 10937 c-11 -18 -29 -42 -41 -52 -20 -18 -20 -18 -20 29 0 39
-3 47 -16 44 -19 -3 -26 -66 -12 -107 7 -18 0 -36 -31 -85 -59 -95 -112 -206
-109 -229 4 -28 28 -35 28 -7 0 43 85 195 182 328 37 50 68 97 68 102 0 22
-30 8 -49 -23z"/>
<path d="M12000 10827 c0 -29 -45 -89 -82 -112 -28 -16 -38 -45 -16 -45 36 0
119 95 132 153 5 23 3 27 -14 27 -14 0 -20 -7 -20 -23z"/>
<path d="M6712 10788 c-7 -7 -12 -21 -12 -32 0 -12 -14 -65 -31 -118 -21 -66
-35 -95 -44 -92 -20 8 -30 -17 -12 -28 13 -7 14 -14 7 -34 -15 -37 -13 -97 3
-92 6 3 13 15 15 29 8 62 23 88 55 94 64 14 79 46 16 35 -35 -7 -39 -5 -34 9
4 9 18 50 31 91 41 125 43 175 6 138z"/>
<path d="M4571 10771 c-20 -37 -90 -292 -85 -306 8 -19 23 -19 43 -1 9 8 33
23 54 35 40 22 46 16 28 -32 -10 -26 1 -53 17 -43 15 9 27 115 14 128 -8 8
-27 1 -66 -21 -31 -17 -56 -30 -56 -28 0 1 16 57 36 122 19 66 38 130 41 143
7 27 -12 30 -26 3z"/>
<path d="M13700 10778 c0 -7 -23 -60 -51 -118 -48 -100 -52 -105 -81 -105 -17
0 -33 -6 -35 -12 -3 -8 4 -13 15 -13 31 0 32 -10 7 -61 -28 -53 -32 -79 -12
-79 6 0 25 30 41 65 28 64 30 65 67 65 28 0 39 4 39 15 0 10 -10 15 -30 15
l-29 0 49 102 c52 106 60 138 35 138 -8 0 -15 -6 -15 -12z"/>
<path d="M4430 10748 c0 -13 -14 -62 -32 -110 -30 -80 -36 -87 -64 -93 -17 -3
-38 -3 -47 0 -21 9 -30 -10 -12 -25 9 -8 29 -10 49 -7 l34 5 -10 -35 c-23 -83
16 -136 84 -117 32 9 49 43 18 35 -54 -14 -60 -13 -71 11 -16 37 4 106 33 110
28 4 36 28 9 28 -12 0 -21 2 -21 5 0 3 16 46 36 96 19 51 33 98 30 105 -9 23
-36 16 -36 -8z"/>
<path d="M6856 10751 c-3 -5 -4 -16 -1 -24 8 -18 -50 -196 -86 -269 -16 -32
-29 -62 -29 -68 0 -18 28 -11 35 10 6 20 82 90 98 90 5 0 6 -17 2 -39 -4 -25
-2 -41 5 -46 17 -10 20 -3 27 53 5 44 3 53 -12 58 -10 4 -30 3 -44 -3 l-26 -9
33 100 c18 55 32 111 30 125 -3 26 -22 39 -32 22z"/>
<path d="M10906 10732 c-9 -11 -18 -29 -21 -40 -2 -11 -9 -30 -15 -42 -30 -56
-70 -168 -70 -196 0 -35 20 -57 47 -52 24 4 31 40 7 36 -40 -7 -30 34 54 215
23 51 32 81 25 88 -6 6 -15 3 -27 -9z"/>
<path d="M11340 10726 c-5 -15 -29 -59 -51 -97 -36 -60 -45 -69 -70 -69 -19 0
-29 -5 -29 -15 0 -8 9 -15 21 -15 17 0 19 -4 12 -22 -21 -61 9 -122 56 -116
35 4 38 26 4 30 -30 3 -40 29 -29 74 7 28 31 42 83 49 84 12 103 16 103 25 0
17 -18 19 -80 9 -34 -5 -64 -8 -66 -7 -1 2 11 26 28 53 41 65 54 103 40 117
-8 8 -14 4 -22 -16z"/>
<path d="M11857 10743 c-10 -17 -36 -111 -47 -165 -10 -52 -14 -58 -36 -58
-37 0 -78 -25 -92 -55 -18 -40 6 -75 52 -75 46 0 81 42 95 115 6 30 16 79 21
109 6 29 19 70 29 89 10 20 16 39 13 42 -8 8 -30 6 -35 -2z m-67 -266 c0 -23
-31 -57 -51 -57 -30 0 -36 30 -10 52 27 21 61 24 61 5z"/>
<path d="M7966 10618 c-31 -62 -58 -124 -61 -138 -8 -33 16 -66 40 -56 14 5
16 9 7 18 -21 21 -13 53 40 159 56 112 59 120 42 126 -7 2 -37 -46 -68 -109z"/>
<path d="M6016 10693 c-8 -20 8 -38 28 -30 9 4 12 13 9 26 -6 25 -28 28 -37 4z"/>
<path d="M12767 10682 c-10 -10 -17 -22 -17 -25 0 -4 -17 -32 -37 -62 -37 -54
-50 -61 -105 -57 -10 1 -18 -5 -18 -13 0 -10 11 -15 35 -15 19 0 35 -1 35 -3
0 -2 -9 -22 -20 -45 -20 -41 -25 -86 -14 -116 7 -19 45 -21 62 -4 20 20 14 31
-14 24 -26 -7 -27 -6 -21 33 3 22 15 56 27 76 20 32 25 35 72 35 57 0 63 20 9
31 -17 4 -34 9 -37 11 -2 3 16 31 41 63 25 32 45 64 45 72 0 19 -24 16 -43 -5z"/>
<path d="M4764 10649 c-8 -14 11 -33 25 -25 6 4 11 11 11 16 0 13 -29 20 -36
9z"/>
<path d="M9804 10649 c-8 -14 11 -33 25 -25 11 7 4 36 -9 36 -5 0 -12 -5 -16
-11z"/>
<path d="M3525 10628 c-2 -7 -6 -46 -7 -87 -4 -93 -20 -103 -44 -27 -11 34
-23 56 -32 56 -29 0 14 -123 51 -144 15 -9 22 -6 38 13 15 18 19 39 19 98 l0
75 43 -6 c41 -6 79 6 64 20 -4 4 -34 9 -67 11 -44 3 -61 1 -65 -9z"/>
<path d="M13454 10615 c-4 -8 -3 -23 1 -32 6 -17 7 -17 21 1 8 11 14 26 14 33
0 18 -29 16 -36 -2z"/>
<path d="M3237 10577 c-54 -58 -56 -63 -50 -104 8 -50 29 -73 68 -73 53 0 95
12 95 26 0 8 5 14 10 14 6 0 10 5 10 10 0 15 -28 12 -55 -6 -34 -22 -89 -15
-93 13 -2 16 5 26 33 39 43 20 68 54 63 86 -5 38 -43 35 -81 -5z m30 -34 c-14
-15 -29 -24 -33 -21 -3 4 6 18 21 33 37 33 47 22 12 -12z"/>
<path d="M8410 10603 c-27 -10 -60 -46 -60 -67 0 -11 5 -35 12 -53 13 -35 2
-58 -27 -58 -20 0 -20 -18 -1 -30 20 -12 46 3 63 35 9 19 9 31 -3 58 -8 19
-14 38 -14 43 0 17 33 39 50 34 23 -7 35 11 20 30 -13 16 -16 17 -40 8z"/>
<path d="M3713 10578 c-68 -49 -79 -116 -26 -158 31 -25 103 -28 103 -5 0 8 5
15 10 15 6 0 10 7 10 15 0 19 -11 19 -36 0 -25 -19 -49 -19 -68 1 -21 20 -20
34 2 34 27 0 79 36 87 60 4 14 1 28 -11 41 -22 24 -32 24 -71 -3z m47 -31 c0
-7 -16 -21 -35 -30 -40 -19 -44 -13 -13 20 24 25 48 30 48 10z"/>
<path d="M3937 10588 c-21 -17 -70 -127 -63 -144 10 -26 24 -14 40 34 25 75
43 94 77 87 22 -5 29 -3 29 8 0 27 -54 36 -83 15z"/>
<path d="M8260 10580 c-17 -17 -21 -32 -19 -74 1 -29 -1 -58 -5 -64 -11 -18
-26 -14 -19 4 4 12 1 15 -13 12 -27 -5 -30 -44 -5 -58 45 -24 76 18 76 105 0
42 3 52 23 60 12 5 22 15 22 22 0 20 -38 15 -60 -7z"/>
<path d="M10475 10590 c-25 -10 -121 -114 -141 -153 -12 -22 -13 -32 -4 -41 8
-8 15 -6 25 9 73 103 102 138 125 150 15 8 30 12 33 8 4 -3 14 -3 23 1 13 5
14 9 4 21 -14 16 -34 18 -65 5z"/>
<path d="M7691 10554 c-37 -31 -63 -77 -55 -97 10 -27 66 -49 118 -45 69 4 74
28 6 28 -92 0 -113 29 -60 82 27 26 35 29 66 23 31 -5 35 -4 32 12 -6 31 -69
29 -107 -3z"/>
<path d="M8098 10563 c-33 -21 -63 -74 -55 -97 7 -17 52 -22 62 -6 10 16 23
12 30 -10 12 -39 33 -23 31 25 -1 24 -5 47 -9 51 -3 3 -22 -6 -42 -21 -45 -35
-57 -26 -18 14 22 21 37 28 52 24 23 -6 28 6 9 25 -16 16 -28 15 -60 -5z"/>
<path d="M13754 10555 c-26 -26 -23 -46 10 -75 32 -26 13 -50 -39 -50 -15 0
-29 9 -36 22 -10 19 -12 19 -21 5 -5 -11 -4 -23 4 -37 22 -35 128 -22 143 18
3 8 -3 26 -12 40 -10 14 -22 31 -28 39 -13 17 9 33 48 33 17 0 27 5 27 15 0
26 -67 19 -96 -10z"/>
<path d="M5906 10514 c-30 -65 -32 -87 -10 -108 19 -20 43 -20 71 -1 12 8 28
13 36 9 9 -3 30 14 58 47 l44 53 5 -45 c3 -26 10 -44 18 -44 6 0 12 3 12 8 0
4 0 30 0 57 0 64 -19 74 -62 34 -28 -27 -30 -27 -24 -6 8 24 6 25 -18 16 -9
-3 -16 -14 -16 -25 0 -26 -21 -69 -31 -63 -5 3 -20 -3 -34 -12 -20 -13 -29
-14 -38 -5 -8 8 -5 25 16 66 31 63 33 75 13 75 -8 0 -26 -25 -40 -56z"/>
<path d="M9873 10536 c-26 -23 -27 -26 -17 -64 15 -57 3 -74 -49 -70 -49 4
-60 -15 -17 -30 63 -22 122 30 101 89 -15 44 -15 45 24 63 20 10 33 21 30 27
-11 16 -43 10 -72 -15z"/>
<path d="M10992 10530 c-61 -45 -69 -90 -16 -90 14 0 34 5 45 10 16 9 19 7 19
-13 0 -31 26 -55 42 -39 8 8 8 15 -2 27 -11 13 -11 23 0 54 9 29 10 43 1 60
-16 29 -40 26 -89 -9z m68 -19 c0 -9 -71 -44 -77 -38 -2 3 10 16 27 31 29 24
50 27 50 7z"/>
<path d="M11504 10541 c-61 -37 -79 -86 -48 -129 11 -16 25 -22 52 -21 51 1
85 12 90 28 3 10 -6 12 -47 6 -35 -5 -56 -3 -66 5 -24 20 -18 28 40 44 59 18
79 39 64 68 -13 23 -46 23 -85 -1z m42 -26 c-11 -8 -27 -15 -35 -14 -9 0 -2 7
14 14 39 18 45 18 21 0z"/>
<path d="M4077 10496 c-38 -82 -66 -72 -58 22 2 23 -6 27 -27 13 -19 -12 -5
-99 18 -113 16 -10 13 -18 -26 -96 -49 -95 -51 -102 -29 -102 9 0 25 23 39 53
13 28 49 97 80 151 49 86 55 102 42 114 -12 12 -17 6 -39 -42z"/>
<path d="M4818 10491 c-27 -32 -48 -64 -48 -70 0 -25 28 -8 63 39 21 28 41 50
45 50 4 0 6 -20 4 -45 -3 -35 -1 -45 11 -45 10 0 16 15 21 49 13 101 -25 110
-96 22z"/>
<path d="M6993 10530 c-71 -43 -73 -134 -3 -158 47 -17 140 19 140 53 0 19 -3
19 -42 -5 -39 -24 -91 -26 -108 -5 -15 18 -15 17 27 39 39 20 66 57 57 80 -8
21 -32 20 -71 -4z m37 -25 c0 -2 -10 -10 -22 -16 -21 -11 -22 -11 -9 4 13 16
31 23 31 12z"/>
<path d="M9729 10505 c-20 -45 -22 -90 -5 -90 5 0 14 19 21 43 7 23 18 49 25
57 12 15 6 35 -11 35 -6 0 -19 -20 -30 -45z"/>
<path d="M10561 10527 c-53 -27 -82 -105 -51 -142 12 -15 71 -21 83 -8 4 3 19
8 33 9 29 3 52 20 41 30 -3 4 -26 1 -51 -5 -65 -16 -86 -14 -86 7 0 13 12 22
39 31 44 13 83 54 74 77 -6 17 -49 18 -82 1z m35 -32 c-19 -15 -46 -20 -46
-10 0 6 40 24 55 24 6 0 1 -6 -9 -14z"/>
<path d="M12845 10530 c-4 -6 -4 -14 -1 -17 3 -3 -3 -18 -14 -33 -39 -55 -12
-88 54 -68 66 21 74 85 14 109 -18 7 -36 14 -40 16 -3 2 -9 -1 -13 -7z m65
-60 c0 -12 -33 -30 -56 -30 -16 0 -16 1 1 20 19 21 55 27 55 10z"/>
<path d="M13375 10490 c-28 -56 -31 -70 -11 -70 15 0 68 99 60 112 -11 18 -25
6 -49 -42z"/>
<path d="M5081 10492 c-17 -22 -40 -42 -51 -45 -38 -10 -18 27 23 42 34 13 35
31 2 31 -52 0 -102 -90 -60 -106 21 -9 83 15 99 37 13 20 14 20 19 -3 6 -23
-7 -140 -17 -156 -3 -5 -30 -7 -60 -4 -50 4 -55 2 -72 -22 -36 -56 -22 -196
20 -196 16 0 62 59 97 125 22 42 26 45 55 39 44 -8 54 13 14 27 -23 8 -30 16
-25 28 27 70 27 209 0 231 -10 8 -20 1 -44 -28z m-11 -243 c0 -16 -57 -114
-74 -128 -29 -24 -32 91 -4 127 13 15 78 16 78 1z"/>
<path d="M4691 10492 c-17 -32 -18 -77 -1 -77 8 0 16 11 18 25 2 14 8 29 13
35 14 14 11 35 -6 35 -8 0 -19 -8 -24 -18z"/>
<path d="M11885 10343 c-9 -27 -48 -114 -86 -194 -38 -81 -69 -152 -69 -158 0
-20 21 -12 47 19 32 39 101 76 115 62 7 -7 4 -22 -11 -45 -22 -36 -28 -67 -12
-67 14 0 61 85 61 109 0 34 -43 48 -86 28 -19 -9 -37 -17 -40 -17 -2 0 5 19
17 43 35 68 109 241 109 254 0 31 -29 9 -45 -34z"/>
<path d="M10917 10288 c-24 -35 -55 -82 -68 -106 -15 -27 -33 -45 -49 -48 -44
-10 -51 -14 -45 -24 3 -5 15 -10 26 -10 22 0 22 1 8 -55 -12 -49 -2 -80 32
-90 24 -8 75 11 83 31 8 22 -11 26 -39 8 -23 -15 -28 -15 -41 -3 -12 13 -12
21 1 67 16 51 16 52 55 52 48 0 70 8 70 26 0 10 -11 12 -47 7 l-46 -6 23 41
c12 22 40 63 61 91 41 53 45 66 30 76 -6 3 -30 -23 -54 -57z"/>
<path d="M7710 10309 c0 -8 -36 -10 -117 -8 -79 3 -117 0 -120 -7 -5 -14 64
-24 157 -24 l68 0 -30 -82 c-80 -225 -93 -278 -65 -278 8 0 18 23 25 58 7 31
34 113 60 182 l47 125 92 5 92 5 -6 -30 c-3 -16 -25 -88 -49 -159 -24 -71 -44
-138 -44 -148 0 -35 29 -17 72 44 58 83 68 84 61 7 -5 -50 -3 -61 8 -57 15 5
34 110 25 134 -9 23 -55 16 -81 -12 -31 -33 -31 -33 -1 52 50 143 61 233 23
195 -10 -10 -52 -9 -174 4 -28 3 -43 1 -43 -6z"/>
<path d="M8452 10252 c-28 -88 -38 -99 -92 -106 -25 -3 -46 -5 -47 -5 -2 -1
-3 -8 -3 -17 0 -13 8 -15 41 -11 34 4 39 2 33 -12 -4 -9 -9 -39 -11 -67 -7
-71 15 -94 92 -94 52 0 55 1 55 25 0 25 -14 33 -25 15 -9 -14 -68 -13 -83 2
-17 17 -14 67 6 107 13 26 27 37 55 45 43 12 46 32 5 30 l-26 -2 24 64 c27 73
30 94 11 94 -7 0 -23 -30 -35 -68z"/>
<path d="M14535 10218 c-103 -221 -114 -251 -104 -270 13 -24 29 -14 29 18 0
13 4 32 10 42 23 40 140 293 140 302 0 6 -6 10 -13 10 -8 0 -35 -46 -62 -102z"/>
<path d="M3410 10286 c0 -35 -54 -182 -71 -196 -12 -10 -16 -19 -10 -25 6 -6
0 -33 -16 -73 -14 -34 -22 -70 -19 -79 9 -23 19 -9 51 74 l28 72 46 3 c53 3
58 22 6 26 -19 2 -35 6 -35 10 0 4 13 46 28 93 16 47 26 91 24 97 -5 17 -32
15 -32 -2z"/>
<path d="M3994 10232 c-5 -4 -19 -32 -31 -62 -12 -30 -33 -83 -48 -118 -26
-62 -29 -97 -10 -97 5 0 14 14 19 30 5 17 29 77 53 134 40 95 45 132 17 113z"/>
<path d="M13963 10194 c-3 -8 -1 -20 6 -27 8 -8 15 -6 25 8 11 15 11 22 3 27
-18 12 -27 9 -34 -8z"/>
<path d="M9145 10161 c-24 -39 -65 -126 -65 -137 0 -22 28 -16 35 7 8 24 63
89 76 89 5 0 2 -16 -6 -36 -17 -41 -20 -74 -6 -74 6 0 33 25 62 55 48 51 88
73 77 43 -37 -99 -45 -160 -20 -144 14 8 55 153 49 170 -9 22 -53 20 -87 -4
l-29 -20 -3 22 c-2 17 -10 23 -28 23 -14 0 -30 3 -37 8 -6 4 -14 3 -18 -2z"/>
<path d="M6545 10133 c-37 -9 -45 -30 -29 -75 21 -60 19 -80 -8 -76 -15 2 -26
13 -32 33 -6 17 -11 31 -12 33 0 1 -8 0 -17 -4 -22 -8 -13 -52 15 -76 26 -23
84 -24 92 -2 10 25 7 71 -6 99 -14 31 -7 38 32 37 33 -1 50 16 29 29 -15 9
-31 10 -64 2z"/>
<path d="M2992 10101 c-68 -72 -70 -75 -66 -116 3 -41 24 -65 55 -65 29 0 31
17 4 38 -28 23 -33 52 -8 52 27 0 83 49 83 74 0 22 -17 46 -33 46 -5 0 -21
-13 -35 -29z m38 -20 c0 -5 -12 -16 -26 -26 l-25 -16 16 25 c17 26 35 34 35
17z"/>
<path d="M6120 10113 c-14 -9 -38 -29 -55 -44 -16 -15 -34 -28 -40 -29 -5 0
-15 -15 -21 -33 -6 -18 -32 -74 -58 -124 -47 -96 -55 -123 -33 -123 6 0 29 38
51 85 38 83 40 85 73 85 38 0 67 12 101 44 46 41 69 137 36 150 -23 9 -27 8
-54 -11z m30 -60 c-15 -47 -33 -68 -71 -84 -44 -18 -54 0 -24 44 24 35 94 91
103 82 2 -2 -2 -21 -8 -42z"/>
<path d="M6732 10119 c-74 -29 -85 -143 -17 -169 44 -17 161 34 149 65 -8 21
-23 19 -42 -6 -22 -26 -100 -39 -113 -18 -15 24 -10 35 17 37 56 4 92 53 64
87 -14 17 -25 18 -58 4z m26 -41 c-3 -7 -15 -14 -29 -16 -23 -2 -23 -2 -5 13
24 18 39 20 34 3z"/>
<path d="M9463 10111 c-18 -11 -40 -33 -50 -48 -10 -15 -21 -31 -26 -34 -14
-10 4 -59 29 -75 17 -12 33 -13 65 -7 60 12 65 36 8 33 -58 -3 -69 -2 -69 10
0 6 10 10 21 10 31 0 101 74 97 102 -4 30 -34 34 -75 9z m20 -46 c-18 -25 -42
-39 -50 -31 -7 7 44 56 57 56 6 0 3 -11 -7 -25z"/>
<path d="M9863 10096 l-52 -34 6 29 c4 22 2 29 -10 29 -10 0 -21 -20 -32 -55
-10 -30 -24 -60 -31 -66 -15 -12 -19 -49 -6 -49 13 0 82 69 82 82 1 14 90 63
90 49 0 -4 -11 -36 -26 -70 -24 -62 -28 -90 -10 -94 8 -2 37 64 62 146 24 77
6 85 -73 33z"/>
<path d="M10086 10109 c-33 -26 -33 -49 -1 -87 l25 -30 -31 -26 c-37 -31 -59
-34 -52 -6 4 14 0 20 -11 20 -17 0 -32 -42 -21 -59 17 -28 112 7 135 49 14 27
13 35 -14 67 -27 33 -23 47 17 62 15 6 27 15 27 21 0 17 -46 11 -74 -11z"/>
<path d="M12298 10113 c-9 -10 -19 -34 -23 -53 -17 -82 -48 -90 -44 -12 3 38
0 48 -14 50 -14 3 -17 -5 -17 -50 0 -56 20 -98 46 -98 19 0 50 53 59 99 8 41
22 54 46 40 25 -13 37 11 14 28 -25 18 -49 16 -67 -4z"/>
<path d="M12463 10111 c-18 -11 -44 -38 -58 -61 -24 -38 -24 -42 -11 -75 17
-39 45 -50 108 -42 41 5 78 30 65 43 -4 4 -18 2 -32 -4 -34 -15 -88 -15 -103
0 -21 21 -13 36 21 42 43 8 90 56 85 87 -4 31 -34 35 -75 10z m33 -40 c-22
-24 -57 -35 -49 -15 6 15 55 45 62 38 2 -2 -4 -12 -13 -23z"/>
<path d="M2743 10098 c-27 -28 -53 -89 -53 -121 0 -27 38 -67 64 -67 26 0 57
20 50 32 -4 5 -19 8 -34 4 -54 -10 -63 41 -19 113 15 25 24 31 40 26 17 -6 20
-3 17 12 -5 27 -40 27 -65 1z"/>
<path d="M5470 10099 c-14 -11 -34 -24 -45 -28 -12 -5 -25 -27 -33 -51 -7 -24
-31 -87 -52 -142 -45 -112 -46 -118 -26 -118 13 0 66 95 66 119 0 5 21 20 48
31 26 12 60 33 75 48 33 31 67 92 67 120 0 44 -57 56 -100 21z m64 -17 c10
-16 -32 -88 -65 -113 -50 -38 -68 -42 -61 -16 18 73 105 162 126 129z"/>
<path d="M13712 10111 c-10 -6 -12 -22 -7 -62 5 -41 3 -59 -9 -74 -15 -19 -15
-19 -16 8 0 18 -5 27 -12 25 -17 -6 -17 -80 -1 -85 7 -3 27 9 44 27 29 29 31
35 27 85 l-5 55 35 0 c22 0 32 4 30 13 -5 14 -67 21 -86 8z"/>
<path d="M9634 10100 c-22 -9 -55 -50 -68 -84 -15 -42 34 -59 81 -29 26 17 26
17 21 -4 -7 -25 15 -52 27 -33 3 5 4 14 1 19 -4 5 3 30 14 56 11 26 20 49 20
51 0 5 -66 35 -72 33 -2 0 -13 -4 -24 -9z m46 -36 c0 -8 -63 -64 -72 -64 -15
0 -8 26 12 48 19 20 60 31 60 16z"/>
<path d="M13131 10075 c-36 -41 -49 -81 -32 -98 9 -9 23 -6 60 14 l47 27 -4
-27 c-4 -30 17 -55 44 -49 26 5 30 28 5 28 -19 0 -20 4 -14 45 3 27 2 45 -4
45 -5 0 -15 11 -21 25 -16 35 -44 31 -81 -10z m40 -27 c-9 -24 -41 -47 -41
-29 0 11 41 63 46 58 3 -2 0 -15 -5 -29z"/>
<path d="M3193 10092 c-12 -4 -39 -26 -59 -50 -28 -34 -34 -46 -25 -55 10 -9
21 -2 53 31 45 48 56 49 39 1 -14 -42 -14 -72 1 -67 15 5 52 114 44 133 -6 16
-17 17 -53 7z"/>
<path d="M5621 10074 c-28 -35 -29 -99 -2 -114 11 -5 24 -10 30 -10 17 0 13
30 -4 36 -23 9 -18 52 10 78 13 13 22 26 18 29 -13 14 -32 6 -52 -19z"/>
<path d="M5880 10085 c-7 -9 -21 -13 -31 -10 -13 5 -19 1 -19 -10 0 -9 -9 -33
-20 -55 -11 -22 -20 -46 -20 -55 0 -25 27 -17 39 13 18 43 79 105 97 98 23 -9
37 3 23 20 -15 19 -53 18 -69 -1z"/>
<path d="M6277 10070 c-14 -16 -28 -44 -32 -62 -16 -73 88 -88 125 -18 19 35
-20 109 -57 110 -6 0 -22 -13 -36 -30z m61 -54 c-3 -27 -7 -31 -36 -34 -31 -3
-33 -2 -27 20 4 13 14 33 22 46 12 19 17 21 29 11 9 -7 14 -25 12 -43z"/>
<path d="M8075 10069 c-47 -42 -60 -66 -44 -85 15 -18 49 -18 77 2 21 15 22
14 28 -15 9 -45 34 -40 34 7 0 20 3 55 7 76 5 35 4 39 -11 33 -10 -4 -26 -2
-36 3 -15 8 -26 4 -55 -21z m55 -19 c0 -12 -62 -52 -69 -45 -2 3 6 16 19 30
24 25 50 33 50 15z"/>
<path d="M5737 10083 c-2 -5 -7 -21 -11 -36 -4 -15 -20 -36 -36 -45 -18 -12
-26 -22 -21 -30 6 -10 15 -9 39 5 34 19 52 50 52 88 0 24 -14 34 -23 18z"/>
<path d="M11001 10064 c-22 -28 -25 -42 -13 -60 23 -34 98 -18 109 24 8 34 -8
56 -44 60 -23 2 -36 -3 -52 -24z m62 -17 c4 3 7 1 7 -5 0 -14 -31 -31 -47 -25
-10 3 -10 10 -2 24 8 15 14 18 23 10 7 -6 16 -8 19 -4z"/>
<path d="M12060 10083 c-23 -9 -70 -55 -70 -70 0 -19 22 -25 52 -14 23 9 27 7
32 -14 8 -30 43 -52 59 -36 8 8 5 15 -11 27 -26 18 -28 39 -5 53 17 9 16 12
-6 35 -26 27 -27 28 -51 19z"/>
<path d="M14620 10083 c-32 -6 -60 -31 -60 -54 0 -9 -5 -19 -11 -21 -15 -5 21
-66 43 -74 35 -11 148 33 148 58 0 12 -26 7 -89 -17 -30 -11 -47 -13 -54 -6
-6 6 -9 12 -6 13 2 2 17 10 34 18 16 9 36 28 45 43 13 24 13 29 0 37 -8 5 -17
9 -20 8 -3 0 -16 -3 -30 -5z m6 -48 c-22 -17 -36 -19 -36 -7 0 14 12 22 34 22
21 -1 21 -1 2 -15z"/>
<path d="M3510 10060 c-21 -21 -60 -92 -60 -110 0 -25 31 -7 45 27 23 55 44
73 82 73 23 0 33 5 33 15 0 23 -75 20 -100 -5z"/>
<path d="M14002 10040 c-61 -47 -66 -55 -49 -69 11 -8 20 -5 38 15 13 14 37
35 53 47 l29 21 -7 -30 c-4 -16 -12 -32 -18 -35 -14 -9 -2 -39 15 -39 14 0 37
61 37 98 0 18 -17 32 -40 32 -4 0 -31 -18 -58 -40z"/>
<path d="M3669 10028 c-56 -59 -21 -110 50 -73 31 15 31 15 31 -10 0 -15 6
-25 14 -25 9 0 15 15 18 48 3 38 0 51 -19 70 -31 30 -60 28 -94 -10z m73 -13
c1 -13 -61 -50 -69 -41 -10 9 39 57 55 54 7 -2 13 -7 14 -13z"/>
<path d="M13867 10025 c-20 -43 -21 -55 -4 -55 12 0 47 59 47 80 0 23 -28 7
-43 -25z"/>
<path d="M14272 10026 c-21 -36 -51 -59 -89 -71 -34 -10 -19 20 23 46 19 12
33 26 31 33 -13 35 -111 -46 -105 -87 4 -32 44 -33 101 -3 l47 25 0 -92 0 -92
-58 3 c-115 7 -163 -41 -147 -145 7 -50 49 -103 81 -103 30 0 110 91 130 148
17 46 22 52 47 52 34 0 32 23 -1 28 -21 3 -22 9 -24 110 0 59 0 116 1 127 2
11 4 26 4 34 4 28 -21 21 -41 -13z m-6 -281 c8 -21 -42 -120 -73 -145 -53 -41
-87 -13 -87 72 0 70 17 84 112 87 30 1 44 -4 48 -14z"/>
<path d="M6962 9988 c-15 -15 -15 -35 -1 -43 11 -8 38 22 39 43 0 15 -22 16
-38 0z"/>
<path d="M4781 9898 c-5 -13 -6 -28 -4 -35 3 -7 -14 -80 -36 -163 -50 -182
-60 -240 -40 -240 9 0 21 32 36 98 13 53 36 149 53 212 28 109 31 150 9 150
-5 0 -13 -10 -18 -22z"/>
<path d="M10325 9888 c-22 -11 -52 -32 -67 -46 -16 -14 -28 -20 -28 -14 0 7
-7 12 -15 12 -8 0 -15 -8 -15 -19 0 -26 -28 -91 -40 -91 -6 0 -10 -12 -10 -27
0 -16 -14 -63 -31 -107 -18 -47 -27 -82 -21 -88 13 -13 27 8 55 82 23 62 25
65 58 65 26 0 37 -6 48 -26 13 -23 13 -34 1 -83 -9 -40 -10 -60 -3 -67 14 -14
19 -5 34 69 12 58 12 67 -5 95 -14 25 -15 32 -5 36 8 2 38 27 67 55 56 53 107
138 98 162 -8 21 -74 17 -121 -8z m85 -13 c0 -21 -46 -88 -84 -123 -48 -44
-85 -59 -110 -45 -25 14 46 108 109 144 46 26 85 37 85 24z"/>
<path d="M12642 9818 c-21 -46 -49 -109 -62 -140 -19 -49 -26 -58 -49 -59 -14
-1 -33 -3 -41 -4 -8 -1 -21 -3 -27 -4 -7 0 -13 -8 -13 -16 0 -11 11 -15 40
-15 22 0 40 -3 40 -8 0 -9 -31 -55 -43 -63 -12 -8 -5 -44 8 -43 6 0 27 30 48
65 21 35 42 63 48 61 17 -4 49 8 49 19 0 5 -11 9 -24 9 l-24 0 32 83 c18 45
45 104 59 130 31 54 33 67 13 67 -8 0 -32 -36 -54 -82z"/>
<path d="M11880 9851 c0 -37 -61 -163 -125 -261 -16 -24 -23 -48 -22 -75 2
-37 5 -40 32 -43 47 -4 117 46 145 103 l23 47 -21 20 c-18 18 -24 19 -53 9
-18 -6 -33 -10 -35 -8 -1 1 17 36 40 78 50 88 60 122 46 149 -17 32 -30 23
-30 -19z m10 -245 c0 -31 -83 -106 -118 -106 -12 0 -3 50 12 69 16 21 68 51
89 51 9 0 17 -6 17 -14z"/>
<path d="M4370 9798 c-13 -46 -36 -125 -52 -177 -15 -51 -28 -100 -28 -108 0
-23 47 -63 74 -63 83 0 140 106 86 160 -16 16 -24 18 -47 9 -16 -6 -36 -18
-47 -27 -18 -16 -18 -16 -13 3 34 110 77 262 77 272 0 7 -6 13 -13 13 -8 0
-23 -33 -37 -82z m66 -223 c18 -45 -34 -103 -81 -91 -36 9 -31 39 12 75 42 34
61 39 69 16z"/>
<path d="M5089 9854 c-6 -16 -24 -71 -40 -122 -15 -51 -31 -97 -34 -102 -3 -6
-27 -10 -51 -10 -58 0 -55 -23 3 -30 l41 -5 -18 -58 c-16 -52 -13 -76 8 -63 5
3 17 34 26 70 14 51 22 66 39 68 27 4 35 28 9 28 -20 0 -20 1 3 83 13 45 29
97 36 114 10 25 11 35 2 44 -10 10 -15 5 -24 -17z"/>
<path d="M12315 9858 c-28 -88 -62 -172 -104 -259 -49 -102 -62 -149 -40 -149
5 0 15 14 21 31 6 17 31 72 55 122 53 109 105 246 97 258 -8 13 -24 11 -29 -3z"/>
<path d="M9292 9706 c-62 -154 -72 -196 -48 -196 9 0 16 3 17 8 3 33 16 70 55
166 58 139 58 142 42 148 -9 4 -29 -34 -66 -126z"/>
<path d="M7646 9808 c-29 -101 -114 -289 -136 -303 -10 -6 -14 -45 -4 -45 3 0
36 25 73 55 38 30 71 55 74 55 6 0 -3 -41 -13 -55 -11 -14 8 -57 22 -53 14 5
30 93 22 121 -7 23 -40 21 -77 -5 l-30 -22 21 40 c28 50 82 206 76 216 -8 12
-24 10 -28 -4z"/>
<path d="M6306 9771 c-8 -12 21 -34 34 -26 8 5 8 11 -1 21 -13 16 -25 18 -33
5z"/>
<path d="M7445 9768 c-44 -5 -106 -6 -138 -4 -52 5 -58 4 -55 -12 4 -24 47
-26 216 -12 134 12 163 20 126 34 -19 7 -44 6 -149 -6z"/>
<path d="M4182 9754 c2 -11 11 -20 22 -22 13 -3 17 1 14 14 -2 11 -11 20 -22
22 -13 3 -17 -1 -14 -14z"/>
<path d="M8910 9733 c0 -5 5 -15 10 -23 9 -13 11 -13 19 0 5 8 7 18 5 22 -6
10 -34 11 -34 1z"/>
<path d="M7447 9713 c-4 -3 -7 -13 -7 -22 0 -9 -23 -73 -52 -144 -39 -97 -49
-130 -40 -139 6 -6 13 -10 15 -7 16 24 107 271 107 292 0 26 -9 34 -23 20z"/>
<path d="M11650 9699 c0 -24 23 -21 28 4 2 10 -3 17 -12 17 -10 0 -16 -9 -16
-21z"/>
<path d="M2775 9686 c-16 -16 -31 -22 -44 -19 -18 5 -20 0 -19 -40 0 -24 -5
-60 -11 -80 -13 -37 -8 -61 11 -55 6 2 17 27 24 56 23 88 76 149 99 112 3 -5
13 -10 21 -10 27 0 10 33 -24 47 -30 12 -34 12 -57 -11z"/>
<path d="M4548 9704 c-11 -10 3 -34 19 -34 8 0 13 7 11 17 -3 18 -20 27 -30
17z"/>
<path d="M3972 9684 c-31 -22 -27 -46 14 -82 30 -26 33 -34 24 -51 -14 -27
-31 -36 -40 -21 -11 18 -42 4 -38 -17 4 -20 29 -27 64 -19 24 6 54 51 54 81 0
16 -26 46 -56 64 -17 9 -17 12 -4 21 8 5 30 10 48 10 22 0 32 5 32 15 0 20
-68 20 -98 -1z"/>
<path d="M4862 9683 c4 -21 33 -25 33 -3 0 8 -8 16 -18 18 -14 3 -18 -1 -15
-15z"/>
<path d="M2935 9680 c-38 -15 -76 -66 -82 -108 -5 -34 -1 -44 20 -66 23 -23
32 -26 69 -20 94 15 102 45 10 37 -50 -5 -60 -3 -65 12 -9 23 -3 31 31 38 36
7 82 44 82 66 0 10 -8 25 -18 34 -21 19 -20 19 -47 7z m35 -38 c0 -10 -54 -42
-71 -42 -7 0 -3 10 11 25 22 24 60 34 60 17z"/>
<path d="M3339 9652 c-24 -21 -50 -37 -58 -34 -10 3 -12 -1 -8 -18 3 -12 -3
-42 -13 -66 -11 -24 -20 -46 -20 -49 0 -3 -10 -26 -21 -52 -49 -111 -55 -143
-28 -143 9 0 74 129 92 182 4 11 13 15 27 11 31 -8 116 83 126 133 14 77 -31
94 -97 36z m71 -14 c0 -25 -45 -95 -70 -108 -9 -5 -20 -6 -26 -2 -9 6 -9 12
-5 40 1 12 83 92 93 92 4 0 8 -10 8 -22z"/>
<path d="M8668 9663 c-36 -23 -41 -38 -23 -74 17 -31 14 -40 -18 -76 -23 -26
-37 -22 -30 8 4 15 2 20 -7 17 -24 -8 -36 -36 -24 -55 25 -39 80 -19 110 39
14 27 15 37 4 67 -11 31 -10 36 6 48 11 8 30 11 46 7 30 -6 36 4 16 24 -17 17
-48 15 -80 -5z"/>
<path d="M7804 9651 c-38 -23 -72 -70 -80 -109 -7 -34 22 -72 54 -72 38 0 122
31 131 49 15 28 3 32 -37 11 -57 -28 -97 -34 -112 -15 -16 20 -7 30 45 48 49
17 84 60 69 85 -16 24 -34 25 -70 3z m30 -36 c-4 -8 -14 -15 -24 -15 -10 0
-21 -6 -23 -12 -4 -10 -6 -10 -6 -1 -1 12 36 43 51 43 4 0 5 -7 2 -15z"/>
<path d="M9415 9654 c-55 -28 -95 -75 -95 -110 0 -58 29 -71 149 -64 60 3 138
60 82 60 -10 0 -24 -7 -31 -15 -20 -24 -163 -17 -168 8 -3 12 3 17 20 17 30 0
108 65 108 90 0 10 -7 21 -16 24 -19 7 -14 9 -49 -10z m0 -49 c-16 -14 -34
-25 -40 -25 -5 1 4 12 20 25 17 14 35 25 40 25 6 -1 -3 -12 -20 -25z"/>
<path d="M12055 9661 c-8 -15 3 -31 21 -31 9 0 14 7 12 17 -4 20 -24 28 -33
14z"/>
<path d="M12370 9656 c0 -8 4 -17 8 -20 13 -8 35 11 28 23 -10 16 -36 14 -36
-3z"/>
<path d="M3119 9645 c-38 -21 -42 -42 -18 -82 12 -19 18 -37 15 -41 -4 -3 -11
0 -15 7 -10 16 -31 6 -31 -13 0 -26 28 -40 55 -28 29 13 35 61 10 82 -32 27
-5 60 50 60 37 0 27 24 -11 27 -16 2 -41 -4 -55 -12z"/>
<path d="M6478 9642 c-69 -45 -99 -131 -59 -171 11 -11 29 -21 39 -21 30 1
102 38 102 54 0 23 -20 30 -33 12 -19 -24 -67 -39 -83 -25 -15 12 -20 54 -5
45 13 -8 89 37 107 63 35 49 -13 79 -68 43z m37 -31 c-3 -6 -21 -18 -38 -27
l-32 -15 33 31 c32 29 53 35 37 11z"/>
<path d="M10640 9649 c-35 -14 -80 -59 -80 -80 0 -10 12 -27 26 -38 l27 -21
-42 0 c-60 0 -56 -21 6 -34 25 -6 36 -3 54 15 l22 22 -33 30 c-32 28 -32 29
-14 48 11 10 36 24 56 31 20 7 38 18 40 23 4 14 -32 16 -62 4z"/>
<path d="M11464 9650 c-30 -12 -37 -38 -19 -73 20 -41 5 -57 -52 -57 -31 0
-43 -4 -41 -12 7 -20 86 -22 114 -3 25 16 33 58 14 70 -16 10 -12 42 6 49 9 4
26 4 36 0 15 -5 19 -2 16 13 -4 20 -41 27 -74 13z"/>
<path d="M6189 9640 c-24 -14 -52 -85 -45 -114 7 -29 41 -43 61 -26 22 18 18
30 -10 30 -14 0 -25 5 -25 10 0 21 31 70 50 80 11 6 18 15 15 21 -8 11 -25 11
-46 -1z"/>
<path d="M10411 9623 c-32 -25 -61 -76 -61 -108 0 -45 83 -72 125 -42 29 22 9
42 -22 22 -23 -15 -26 -15 -50 0 l-25 17 50 23 c56 26 77 54 68 91 -8 32 -42
31 -85 -3z m59 -11 c0 -11 -28 -36 -57 -51 -32 -16 -29 -4 8 30 31 29 49 36
49 21z"/>
<path d="M3545 9630 c-3 -5 -4 -14 0 -19 3 -5 -5 -30 -17 -56 -27 -55 -17 -81
28 -78 55 4 113 70 99 113 -6 19 -39 36 -63 31 -8 -1 -19 3 -27 9 -9 8 -15 8
-20 0z m75 -64 c0 -23 -23 -44 -62 -59 -15 -5 -16 -2 -8 19 19 49 31 64 50 64
14 0 20 -7 20 -24z"/>
<path d="M3785 9609 c-19 -17 -33 -24 -29 -16 9 25 -14 29 -30 5 -23 -36 -51
-126 -42 -135 4 -4 39 26 77 67 39 42 68 66 65 55 -17 -70 -18 -95 -3 -95 17
0 23 14 32 82 6 40 4 48 -14 57 -17 9 -26 6 -56 -20z"/>
<path d="M5225 9575 c-22 -36 -43 -65 -47 -65 -8 0 -12 55 -8 93 1 13 -4 18
-17 15 -15 -3 -17 -12 -15 -58 2 -30 8 -62 12 -71 7 -11 -1 -30 -26 -65 -126
-178 -154 -229 -139 -254 11 -17 28 -6 32 20 4 29 40 91 88 155 64 83 193 283
187 289 -14 15 -30 1 -67 -59z"/>
<path d="M11045 9630 c-3 -5 -3 -15 0 -20 4 -6 -5 -20 -18 -31 -14 -10 -35
-35 -47 -54 -17 -28 -19 -38 -10 -56 10 -18 18 -20 47 -16 43 7 77 29 99 62
14 21 14 30 4 55 -15 35 -65 76 -75 60z m45 -85 c0 -18 -10 -31 -32 -45 -62
-38 -79 -15 -29 39 36 38 61 41 61 6z"/>
<path d="M11280 9614 c-19 -13 -40 -22 -46 -20 -15 6 -35 -17 -62 -72 -43 -83
-21 -84 55 -1 52 55 113 100 113 82 0 -5 -14 -30 -30 -58 -30 -51 -37 -79 -21
-89 11 -7 95 160 86 173 -11 19 -58 11 -95 -15z"/>
<path d="M8946 9609 c-26 -20 -56 -68 -56 -89 0 -22 26 -8 43 23 10 18 27 38
37 45 19 11 20 9 17 -33 -1 -24 3 -45 8 -47 12 -4 30 84 22 106 -9 22 -39 20
-71 -5z"/>
<path d="M9113 9611 c-53 -24 -79 -61 -63 -90 12 -23 26 -26 64 -11 24 9 26 7
25 -18 -1 -15 -4 -38 -8 -52 -6 -22 -11 -24 -48 -22 -53 4 -87 -17 -107 -69
-31 -78 -12 -148 38 -133 29 9 92 71 107 106 7 16 19 28 28 27 31 -3 33 1 18
25 -12 18 -14 32 -7 57 4 19 11 71 14 117 7 92 7 93 -61 63z m18 -55 c-14 -16
-51 -28 -51 -16 0 15 54 52 58 40 2 -6 -1 -17 -7 -24z m-26 -176 c16 -26 -64
-130 -101 -130 -27 0 -11 84 23 122 17 19 68 24 78 8z"/>
<path d="M10818 9611 c-26 -12 -45 -32 -63 -64 -13 -26 -21 -47 -17 -47 4 0 2
-4 -5 -8 -13 -8 -85 -203 -78 -210 10 -10 36 9 54 39 11 18 34 75 52 128 35
107 40 116 82 137 37 20 57 12 50 -17 -8 -27 -89 -109 -109 -109 -8 0 -14 -9
-14 -20 0 -27 10 -25 57 9 136 98 128 226 -9 162z"/>
<path d="M12803 9532 l-73 -77 3 60 c1 47 -1 60 -13 60 -9 0 -15 -11 -16 -32
-1 -18 -4 -42 -7 -55 -3 -13 -2 -32 2 -42 6 -16 -13 -44 -88 -131 -108 -126
-130 -160 -114 -176 8 -8 19 1 39 32 29 47 99 129 257 303 86 96 113 136 90
136 -5 0 -41 -35 -80 -78z"/>
<path d="M4813 9593 c-19 -7 -47 -103 -34 -116 16 -16 33 4 37 44 2 17 9 38
16 46 13 15 0 33 -19 26z"/>
<path d="M4127 9573 c-14 -49 -15 -69 -8 -82 14 -22 33 -1 29 30 -3 16 -1 29
4 29 4 0 8 9 8 20 0 25 -27 27 -33 3z"/>
<path d="M4516 9578 c-11 -34 -15 -97 -7 -102 15 -10 29 17 32 63 3 29 0 46
-8 48 -7 3 -15 -1 -17 -9z"/>
<path d="M8799 9587 c0 -1 -1 -21 -2 -44 0 -23 -4 -40 -8 -37 -12 7 -22 -17
-11 -28 13 -13 52 42 52 75 0 14 -7 27 -15 31 -8 3 -15 4 -16 3z"/>
<path d="M11587 9540 c-16 -17 -24 -30 -19 -30 5 0 9 -8 8 -17 -2 -32 23 -19
44 22 11 21 20 43 20 47 0 17 -26 6 -53 -22z"/>
<path d="M12301 9511 c-28 -55 -30 -71 -9 -71 11 0 68 116 61 124 -14 13 -23
4 -52 -53z"/>
<path d="M12008 9525 c-6 -14 -15 -25 -20 -25 -5 0 -6 5 -2 11 4 7 -2 7 -17
-1 -22 -12 -22 -13 -4 -26 10 -8 24 -14 31 -14 14 0 55 61 48 72 -10 15 -24 8
-36 -17z"/>
<path d="M6660 9505 c0 -29 15 -33 29 -6 11 20 5 31 -16 31 -7 0 -13 -11 -13
-25z"/>
<path d="M5436 9504 c-9 -24 -7 -34 8 -34 16 0 29 27 20 41 -8 14 -21 11 -28
-7z"/>
<path d="M6305 9510 c-8 -12 20 -24 35 -15 5 3 10 10 10 16 0 12 -37 12 -45
-1z"/>
<path d="M3547 9403 c-12 -11 -7 -23 9 -23 18 0 18 2 -18 -137 -11 -46 -25
-83 -30 -83 -4 0 -8 7 -8 15 0 18 -21 20 -38 3 -18 -18 -15 -27 13 -38 25 -9
25 -12 19 -75 -6 -53 -4 -65 8 -65 10 0 17 19 24 62 9 62 10 63 51 78 65 24
100 56 132 118 45 89 45 125 0 141 -35 12 -152 15 -162 4z m147 -32 c46 -3
-26 -155 -88 -185 -32 -15 -56 -20 -56 -13 0 2 11 41 25 87 14 46 25 92 25
101 0 15 7 18 38 15 20 -2 45 -4 56 -5z"/>
<path d="M4867 9377 c-3 -8 -2 -19 2 -26 10 -16 -9 -95 -48 -200 -30 -81 -37
-146 -16 -146 5 0 13 18 16 40 4 22 19 70 33 106 36 95 58 189 51 216 -6 25
-30 31 -38 10z"/>
<path d="M3923 9313 c-21 -8 -15 -23 14 -34 33 -12 53 2 33 26 -13 15 -25 17
-47 8z"/>
<path d="M4462 9234 c2 -11 11 -20 22 -22 13 -3 17 1 14 14 -2 11 -11 20 -22
22 -13 3 -17 -1 -14 -14z"/>
<path d="M3717 9188 c-24 -33 -47 -89 -47 -114 0 -30 28 -11 44 29 24 63 51
94 68 80 9 -8 19 -9 28 -2 13 8 12 12 -4 24 -32 24 -63 18 -89 -17z"/>
<path d="M4630 9175 c-16 -17 -30 -23 -45 -19 -20 5 -23 1 -28 -37 -4 -28 -13
-49 -27 -59 -14 -10 -20 -24 -18 -36 2 -10 -6 -40 -19 -66 -14 -30 -19 -49
-12 -53 14 -9 34 10 49 45 8 19 20 30 32 30 38 0 74 29 101 82 33 65 38 138 9
138 -10 0 -29 -11 -42 -25z m12 -89 c-19 -41 -66 -86 -78 -73 -9 9 23 73 57
112 41 47 51 29 21 -39z"/>
<path d="M3982 9164 c-29 -20 -82 -92 -82 -111 0 -23 25 -14 42 15 38 65 99
103 111 70 2 -7 0 -28 -5 -46 -5 -18 -8 -40 -6 -47 6 -26 27 -1 39 47 12 42
11 49 -6 68 -22 24 -62 26 -93 4z"/>
<path d="M4213 9164 c-63 -31 -87 -101 -48 -134 23 -19 101 -31 130 -20 39 15
29 27 -24 27 -96 2 -118 24 -72 75 23 25 37 32 69 33 46 1 64 12 42 25 -22 14
-61 12 -97 -6z"/>
<path d="M3850 9145 c-23 -60 -24 -77 -5 -73 10 1 18 6 17 11 -2 4 4 20 13 37
19 37 19 50 0 50 -9 0 -20 -11 -25 -25z"/>
<path d="M5002 9149 c-17 -12 -35 -32 -38 -45 -4 -13 -13 -28 -22 -33 -14 -8
-14 -11 -2 -26 8 -9 19 -27 25 -38 6 -12 22 -28 37 -36 24 -14 32 -13 81 2 56
18 94 48 82 67 -4 7 -15 4 -33 -8 -44 -31 -98 -45 -122 -32 -32 17 -24 43 22
65 49 23 82 64 72 88 -9 24 -61 22 -102 -4z m62 -22 c-6 -17 -64 -51 -72 -42
-9 9 45 55 63 55 8 0 12 -6 9 -13z"/>
<path d="M4409 9103 c-17 -43 -17 -88 1 -88 9 0 15 11 17 27 1 15 7 36 13 48
11 21 6 40 -11 40 -5 0 -14 -12 -20 -27z"/>
<path d="M5273 9025 c-3 -9 -3 -18 0 -22 10 -10 37 6 37 22 0 20 -29 20 -37 0z"/>
<path d="M6272 8656 c-39 -33 -87 -126 -131 -255 -30 -86 -41 -106 -60 -111
-28 -6 -29 -24 -1 -28 24 -4 24 4 4 -88 -8 -42 -12 -79 -9 -83 14 -13 34 34
46 104 11 72 12 74 46 82 40 9 41 28 1 28 -32 0 -31 9 14 123 41 105 72 163
104 195 32 32 48 31 52 -6 4 -30 17 -35 26 -11 11 29 6 53 -13 64 -30 15 -47
12 -79 -14z"/>
<path d="M3453 8609 c-23 -4 -56 -15 -75 -25 -53 -27 -138 -93 -138 -109 0
-29 21 -25 51 9 17 20 59 50 95 67 55 28 71 31 125 27 67 -5 94 -25 83 -62
-11 -40 -55 -96 -96 -126 -39 -28 -143 -69 -152 -59 -7 7 15 102 26 116 7 9 5
15 -7 19 -22 9 -30 -6 -45 -79 -8 -44 -16 -61 -31 -64 -20 -6 -26 -29 -9 -35
5 -2 -1 -36 -15 -81 -29 -90 -32 -127 -10 -127 14 0 20 12 16 33 -1 5 11 46
26 92 31 97 47 108 117 77 60 -27 72 -60 52 -140 -20 -74 -20 -82 -2 -82 10 0
20 25 32 75 17 71 17 77 1 111 -10 19 -30 42 -45 51 l-29 17 48 24 c98 48 175
166 148 226 -18 40 -89 59 -166 45z"/>
<path d="M10743 8583 c7 -36 -50 -317 -73 -363 -10 -19 -26 -44 -34 -55 -16
-20 -16 -20 -36 3 -11 13 -22 46 -26 73 -4 27 -13 57 -20 66 -13 17 -16 16
-39 -12 -14 -16 -25 -36 -25 -44 0 -8 -3 -12 -6 -9 -3 3 -17 -6 -32 -21 -27
-26 -27 -26 -30 -4 -2 12 20 80 47 150 55 140 58 154 37 172 -31 26 -181 -67
-161 -99 5 -8 13 -6 29 8 27 26 88 62 103 62 15 0 8 -24 -46 -159 -48 -120
-52 -174 -13 -179 18 -3 36 9 71 48 l48 53 7 -47 c8 -51 47 -106 76 -106 20 0
56 42 83 95 21 43 80 341 73 370 -9 36 -40 34 -33 -2z"/>
<path d="M11080 8543 c0 -27 -13 -84 -29 -128 -84 -237 -101 -292 -101 -322 0
-23 5 -33 15 -33 10 0 15 10 15 28 0 27 12 64 94 297 39 110 49 205 21 205
-11 0 -15 -12 -15 -47z"/>
<path d="M11237 8538 c-5 -48 -36 -138 -86 -250 -39 -88 -54 -198 -26 -198 10
0 15 10 15 28 0 55 29 130 53 138 37 12 78 6 99 -13 19 -17 21 -49 6 -123 -2
-8 2 -17 7 -19 15 -6 38 47 39 90 1 46 -40 94 -88 105 l-31 7 74 69 c41 38 92
78 113 89 36 18 44 39 15 39 -19 0 -106 -63 -169 -122 -32 -30 -58 -54 -58
-54 0 1 14 35 31 76 36 88 51 190 27 190 -11 0 -17 -15 -21 -52z"/>
<path d="M8090 8519 c-65 -57 -205 -168 -208 -165 -1 2 8 44 22 95 14 55 20
94 14 97 -17 11 -25 -8 -52 -115 -16 -64 -34 -113 -46 -126 -12 -13 -20 -29
-19 -36 2 -8 -3 -38 -10 -67 -15 -59 -9 -85 16 -80 14 2 18 14 18 53 1 28 8
64 16 80 13 27 21 31 76 39 51 7 67 6 100 -10 37 -19 38 -20 36 -71 -1 -30 2
-53 8 -53 13 0 29 45 29 85 0 46 -41 74 -120 83 l-60 7 57 45 c31 25 77 61
102 80 56 42 81 69 81 87 0 20 -11 15 -60 -28z"/>
<path d="M5736 8533 c-3 -10 -14 -83 -26 -162 -19 -135 -39 -203 -63 -218 -21
-13 -66 54 -79 118 -7 34 -18 64 -25 66 -7 3 -25 -9 -39 -26 -15 -18 -28 -30
-30 -29 -2 2 12 42 31 88 35 85 45 153 24 165 -16 11 -178 -100 -179 -122 0
-14 36 -18 42 -5 2 4 28 27 58 51 70 54 74 42 26 -77 -20 -49 -36 -99 -36
-111 0 -34 28 -37 60 -6 22 21 31 24 34 14 2 -8 9 -33 15 -56 15 -55 65 -105
100 -101 34 4 65 67 80 163 24 156 33 211 38 238 4 20 1 27 -10 27 -9 0 -18
-8 -21 -17z"/>
<path d="M8923 8537 c-17 -6 -34 -18 -37 -26 -16 -49 -47 -124 -74 -183 -18
-37 -32 -74 -32 -82 0 -8 -4 -17 -9 -20 -12 -8 -1 -56 13 -56 11 0 47 92 61
154 l6 29 73 -6 c165 -12 196 -61 101 -161 -54 -55 -113 -85 -171 -86 -43 0
-86 22 -66 34 20 12 13 28 -10 24 -33 -4 -30 -45 5 -72 75 -56 225 8 306 131
37 56 38 63 7 100 -22 26 -44 36 -136 63 -23 6 -21 8 25 23 119 40 162 103 90
133 -39 16 -104 16 -152 1z m133 -27 c26 -10 26 -11 9 -30 -17 -19 -174 -84
-182 -76 -3 2 1 14 7 26 6 11 10 31 8 43 -2 17 4 24 32 33 45 15 92 17 126 4z"/>
<path d="M12617 8482 c-50 -43 -74 -69 -68 -75 7 -7 29 4 63 31 73 56 104 90
92 101 -5 6 -39 -16 -87 -57z"/>
<path d="M2670 8480 c-25 -50 -34 -60 -48 -54 -9 5 -54 10 -99 12 -69 3 -83 1
-83 -12 0 -18 51 -35 132 -43 l57 -6 -21 -40 c-11 -22 -41 -71 -66 -109 -33
-50 -42 -72 -34 -80 15 -15 43 -2 49 23 3 11 33 41 67 65 l61 45 8 -41 c5 -25
14 -40 23 -40 13 0 14 9 9 54 l-7 54 71 53 c91 68 92 83 6 77 l-64 -4 -3 50
c-2 27 -8 51 -15 53 -7 3 -26 -23 -43 -57z m26 -46 c-4 -9 -9 -15 -11 -12 -3
3 -3 13 1 22 4 9 9 15 11 12 3 -3 3 -13 -1 -22z m64 -55 c-30 -25 -36 -27 -39
-13 -4 21 25 44 53 44 18 -1 16 -5 -14 -31z m-70 -5 c0 -8 -4 -12 -10 -9 -5 3
-10 10 -10 16 0 5 5 9 10 9 6 0 10 -7 10 -16z m-36 -79 c-48 -38 -53 -36 -26
12 24 44 26 45 35 25 8 -18 6 -26 -9 -37z"/>
<path d="M7126 8505 c-43 -32 -46 -33 -43 -12 1 14 -3 22 -13 22 -9 0 -15 -12
-17 -33 -2 -17 -16 -67 -33 -110 -43 -112 -72 -211 -65 -222 3 -5 37 -8 74 -7
73 4 107 20 155 78 49 58 31 112 -53 154 l-35 18 25 19 c49 38 109 102 109
115 0 26 -57 14 -104 -22z m44 -8 c0 -2 -10 -12 -22 -23 l-23 -19 19 23 c18
21 26 27 26 19z m-67 -143 c46 -23 77 -54 77 -77 0 -35 -73 -95 -125 -103 -52
-7 -64 -2 -44 22 10 13 11 18 2 21 -13 5 35 153 50 153 4 0 22 -7 40 -16z"/>
<path d="M13662 8497 c-6 -6 -16 -50 -22 -96 -11 -79 -45 -171 -70 -186 -6 -4
-8 -16 -5 -28 2 -12 2 -16 -1 -9 -4 9 -12 7 -31 -8 -34 -27 -53 -25 -53 4 0
33 37 76 66 76 15 0 24 6 24 15 0 24 -26 28 -58 10 -78 -47 -84 -170 -7 -151
71 18 139 121 161 248 7 42 16 88 20 101 6 28 -8 43 -24 24z"/>
<path d="M3916 8488 c-2 -7 -12 -51 -21 -98 -17 -83 -27 -120 -59 -207 -27
-74 5 -99 80 -63 53 26 99 88 89 119 -9 29 -41 44 -77 37 -24 -5 -28 -3 -24
12 14 46 36 156 36 177 0 26 -18 44 -24 23z m52 -262 c5 -22 -41 -72 -79 -85
-33 -11 -35 -7 -14 42 25 59 85 87 93 43z"/>
<path d="M13427 8433 c-13 -12 -7 -33 8 -33 8 0 15 9 15 20 0 20 -11 26 -23
13z"/>
<path d="M9456 8397 c-28 -20 -12 -39 20 -25 24 11 28 28 8 35 -5 2 -18 -3
-28 -10z"/>
<path d="M5890 8368 c0 -16 19 -38 33 -38 4 0 7 10 5 22 -3 25 -38 39 -38 16z"/>
<path d="M10844 8368 c-4 -6 -2 -14 4 -16 7 -2 12 -12 12 -23 0 -10 4 -19 9
-19 16 0 23 20 17 46 -7 25 -30 32 -42 12z"/>
<path d="M6313 8325 c-26 -18 -28 -36 -11 -100 8 -31 9 -48 2 -55 -13 -13 -46
-2 -38 12 4 6 -4 8 -17 6 -41 -5 -35 -35 9 -49 73 -22 102 22 71 110 -14 40 1
61 43 61 19 0 28 4 26 13 -7 18 -60 20 -85 2z"/>
<path d="M7261 8283 c-7 -27 -16 -64 -22 -84 -5 -20 -9 -44 -9 -53 0 -21 19
-21 26 2 4 9 17 41 31 70 25 52 26 54 59 47 39 -7 45 6 13 29 -15 10 -28 12
-44 6 -19 -7 -22 -6 -18 11 4 12 0 19 -10 19 -9 0 -19 -17 -26 -47z"/>
<path d="M11715 8308 c-27 -24 -68 -128 -63 -160 6 -38 24 -18 45 52 23 77 42
99 85 100 31 0 45 15 22 24 -31 12 -63 6 -89 -16z"/>
<path d="M11906 8311 c-14 -15 -17 -29 -12 -53 12 -61 11 -70 -8 -82 -14 -8
-20 -8 -23 2 -5 14 -29 16 -38 3 -9 -15 25 -41 54 -41 15 0 36 9 46 20 17 19
17 31 0 102 -6 24 -4 28 26 36 42 10 44 26 3 30 -20 2 -36 -4 -48 -17z"/>
<path d="M13742 8308 c-81 -39 -116 -113 -73 -152 32 -29 161 -19 161 13 0 5
-32 8 -72 7 -63 -1 -73 1 -76 18 -2 10 0 16 6 12 5 -3 27 1 48 10 74 31 106
81 66 103 -14 7 -30 5 -60 -11z m43 -27 c-17 -16 -87 -52 -92 -47 -7 6 69 56
86 56 9 0 11 -3 6 -9z"/>
<path d="M11498 8286 c-68 -71 -69 -73 -59 -117 10 -45 31 -65 78 -75 35 -7
85 6 91 24 2 7 -15 10 -52 9 -43 -2 -59 2 -73 17 -13 13 -15 20 -5 23 6 3 9
10 5 16 -7 12 -11 59 -4 51 3 -2 20 10 39 28 34 32 35 32 29 8 -4 -14 -7 -28
-7 -32 0 -4 -14 -15 -30 -23 -17 -9 -28 -20 -25 -25 11 -17 41 -11 62 13 24
26 47 92 38 107 -13 21 -54 9 -87 -24z"/>
<path d="M12115 8310 c-42 -17 -95 -92 -95 -135 0 -8 11 -22 25 -31 21 -14 31
-15 50 -6 36 16 65 70 65 118 0 47 -15 65 -45 54z m15 -59 c0 -35 -35 -81 -62
-81 -14 0 -18 5 -14 16 3 9 6 19 6 24 0 12 50 70 61 70 5 0 9 -13 9 -29z"/>
<path d="M3613 8286 c-16 -14 -38 -43 -48 -66 -17 -38 -17 -43 -2 -75 18 -38
48 -51 100 -41 43 8 97 42 97 62 0 17 -33 16 -34 -1 0 -12 -61 -35 -93 -35
-27 0 -56 40 -47 65 6 15 8 15 16 2 11 -20 56 -6 88 28 17 18 20 30 15 54 -5
26 -11 31 -35 31 -16 0 -42 -11 -57 -24z m57 -26 c0 -21 -27 -40 -56 -40 -14
0 -12 6 11 30 33 35 45 38 45 10z"/>
<path d="M4113 8287 c-31 -22 -63 -74 -63 -102 0 -8 9 -24 20 -35 22 -22 88
-27 121 -9 32 17 12 28 -39 22 -36 -4 -51 -1 -60 10 -11 13 -10 16 7 22 57 18
90 77 58 103 -10 9 -21 6 -44 -11z m27 -20 c0 -2 -10 -12 -22 -23 l-23 -19 19
23 c18 21 26 27 26 19z"/>
<path d="M12338 8282 c-18 -15 -42 -34 -52 -42 -18 -14 -19 -14 -8 7 16 28 15
53 0 52 -7 0 -28 -31 -45 -68 -54 -113 -44 -117 59 -29 41 36 69 54 64 43 -4
-11 -12 -42 -18 -68 -10 -40 -9 -50 4 -64 20 -19 45 -8 27 13 -8 10 -6 30 10
83 12 38 21 76 21 85 0 24 -25 19 -62 -12z"/>
<path d="M12598 8279 c-43 -22 -46 -32 -18 -74 26 -39 25 -51 -6 -72 -21 -14
-29 -14 -46 -4 -24 15 -36 6 -22 -17 18 -28 58 -26 93 3 34 29 40 60 16 91
-22 29 -18 41 16 53 17 6 29 16 27 23 -7 19 -20 18 -60 -3z"/>
<path d="M4472 8265 c-53 -45 -59 -110 -13 -135 25 -13 92 2 111 25 18 22 5
30 -25 17 -14 -7 -39 -12 -55 -12 -25 0 -30 4 -30 25 0 31 41 75 70 75 11 0
20 7 20 15 0 24 -45 18 -78 -10z"/>
<path d="M5948 8263 c-30 -31 -48 -72 -48 -109 0 -40 27 -28 34 15 3 21 15 49
25 62 17 21 23 22 40 12 30 -19 40 6 11 29 -29 23 -31 23 -62 -9z"/>
<path d="M7582 8260 c-44 -60 -22 -100 56 -100 44 0 77 25 52 40 -8 5 -21 5
-29 1 -25 -13 -66 -6 -69 12 -2 8 10 26 27 38 17 12 28 26 25 31 -11 17 -41 7
-62 -22z"/>
<path d="M9230 8276 c-17 -10 -29 -11 -37 -4 -17 13 -33 1 -33 -25 0 -12 -11
-46 -25 -75 -24 -51 -25 -72 -5 -72 5 0 22 25 37 57 30 60 68 95 105 98 28 2
31 29 3 32 -11 2 -31 -4 -45 -11z"/>
<path d="M13970 8279 c-60 -24 -89 -81 -55 -109 12 -10 21 -10 40 -2 20 9 25
9 25 -3 0 -28 43 -46 93 -39 42 6 47 9 47 33 0 15 -3 21 -8 14 -9 -13 -72 -20
-90 -9 -10 6 -8 15 8 42 19 34 19 36 3 59 -20 27 -26 28 -63 14z m5 -54 c-32
-26 -45 -31 -45 -16 0 13 41 41 60 41 10 -1 4 -9 -15 -25z"/>
<path d="M4294 8261 c-17 -10 -36 -33 -43 -50 -11 -26 -11 -34 2 -55 18 -27
66 -40 102 -26 40 15 29 30 -24 30 -32 0 -51 5 -54 14 -7 19 20 55 49 66 25
10 34 40 12 40 -7 0 -27 -9 -44 -19z"/>
<path d="M7422 8253 c-37 -54 -43 -72 -32 -93 21 -39 99 -11 121 42 9 23 8 32
-5 53 -22 34 -59 33 -84 -2z m58 -43 c-12 -22 -49 -45 -58 -35 -3 3 2 21 12
40 16 29 22 33 37 24 15 -8 17 -14 9 -29z"/>
<path d="M9760 8263 c-14 -9 -38 -28 -54 -42 l-28 -26 7 25 c11 39 11 45 -4
45 -11 0 -60 -111 -61 -137 0 -23 37 -1 90 52 66 66 89 77 65 30 -18 -35 -19
-72 -3 -88 13 -13 66 -16 92 -6 30 11 6 30 -34 26 -47 -5 -50 4 -19 72 11 25
17 51 14 56 -9 15 -37 12 -65 -7z"/>
<path d="M9504 8251 c-33 -20 -65 -76 -57 -99 6 -14 39 -13 73 2 11 5 19 -3
28 -26 17 -45 26 -29 28 50 2 93 -13 109 -72 73z m18 -52 c-19 -17 -36 -28
-40 -25 -9 9 40 56 57 56 11 0 5 -11 -17 -31z"/>
<path d="M13321 8248 c-5 -13 -6 -27 -3 -32 3 -5 0 -6 -6 -2 -15 9 -52 -56
-46 -81 7 -26 51 -43 82 -32 33 13 27 29 -12 29 -19 0 -37 4 -40 8 -3 5 11 32
30 60 33 47 38 72 13 72 -5 0 -13 -10 -18 -22z"/>
<path d="M4650 8224 c-19 -22 -30 -44 -28 -57 3 -19 9 -22 51 -21 29 0 47 -4
47 -11 0 -7 9 -20 20 -30 34 -31 150 0 150 40 0 19 -19 19 -40 0 -10 -9 -34
-18 -54 -22 -45 -7 -54 11 -30 62 9 19 15 37 13 39 -11 8 -78 36 -87 36 -5 0
-24 -16 -42 -36z m75 -14 c7 -12 -39 -43 -60 -38 -14 3 -14 5 0 26 16 23 49
30 60 12z"/>
<path d="M6560 8247 c0 -16 26 -24 100 -29 26 -2 35 1 38 15 3 14 -4 17 -36
17 -22 0 -54 3 -71 6 -24 5 -31 3 -31 -9z"/>
<path d="M10806 8251 c-9 -14 -36 -103 -36 -118 0 -7 6 -13 13 -13 11 0 44 89
48 127 1 12 -19 15 -25 4z"/>
<path d="M5821 8208 c-7 -22 -19 -48 -27 -56 -8 -8 -13 -19 -11 -26 5 -15 53
-14 50 1 -2 6 4 31 12 54 15 43 14 69 -3 69 -5 0 -14 -19 -21 -42z"/>
<path d="M9336 8193 c-19 -57 -20 -73 -3 -73 14 0 50 97 41 112 -11 18 -23 6
-38 -39z"/>
<path d="M8272 8118 c-7 -7 -12 -17 -12 -23 0 -7 -22 -35 -50 -64 -27 -29 -50
-54 -50 -57 0 -2 9 -4 19 -4 20 0 111 96 111 116 0 7 5 14 12 16 6 2 8 10 4
16 -9 15 -19 15 -34 0z"/>
<path d="M2808 8100 c-25 -15 -94 -124 -112 -178 -14 -40 -22 -50 -49 -57 -37
-12 -38 -31 0 -28 24 2 25 0 17 -35 -11 -53 -11 -105 1 -109 6 -2 17 29 24 69
7 40 18 79 23 86 6 7 28 15 49 18 38 6 68 28 55 41 -3 3 -24 1 -47 -6 -22 -7
-43 -10 -46 -8 -7 8 35 97 63 135 14 18 37 37 50 42 15 6 22 15 18 25 -7 17
-22 19 -46 5z"/>
<path d="M5670 8096 c0 -7 -9 -35 -19 -62 -11 -27 -27 -75 -36 -106 l-16 -58
-54 0 c-49 0 -76 -12 -61 -27 3 -4 28 -6 55 -4 l49 2 -24 -82 c-22 -77 -24
-106 -4 -94 5 3 21 45 35 93 15 48 29 89 31 91 2 2 27 9 56 15 72 17 79 41 9
33 -32 -4 -51 -2 -51 4 0 17 52 163 61 174 16 16 10 35 -11 35 -11 0 -20 -6
-20 -14z"/>
<path d="M5320 8034 c0 -15 -14 -71 -30 -124 -50 -161 -57 -230 -24 -230 10 0
14 13 14 43 0 23 14 89 31 147 34 114 42 181 22 187 -8 3 -13 -5 -13 -23z"/>
<path d="M4906 8028 c-2 -7 -14 -53 -26 -103 -11 -49 -30 -109 -41 -132 -11
-23 -19 -55 -17 -70 3 -27 5 -28 59 -27 67 2 113 24 139 67 24 39 25 60 4 81
-23 23 -65 19 -104 -9 -19 -14 -35 -25 -35 -25 -1 0 9 39 22 88 25 94 29 142
13 142 -6 0 -12 -6 -14 -12z m97 -210 c13 -39 -54 -93 -108 -86 l-30 3 46 48
c44 46 83 60 92 35z"/>
<path d="M12200 8028 c0 -7 20 -21 44 -31 71 -29 99 -66 104 -137 8 -106 -48
-193 -186 -289 -32 -22 -34 -23 -47 -5 -18 26 -31 10 -19 -24 12 -33 32 -31
89 8 121 83 182 168 192 264 8 76 -3 120 -39 156 -52 52 -138 88 -138 58z"/>
<path d="M12925 8030 c-4 -6 2 -28 13 -48 11 -21 23 -56 26 -79 l7 -41 -60
-23 c-34 -13 -71 -31 -82 -40 -32 -24 -17 -38 28 -29 21 4 56 10 79 14 l41 6
13 -73 c7 -39 17 -78 22 -84 13 -16 28 -7 28 15 0 9 13 45 30 80 33 69 36 70
107 34 18 -9 35 -13 39 -9 13 12 -4 34 -41 51 -20 10 -39 24 -42 33 -3 8 12
40 36 74 35 49 39 60 26 65 -10 4 -27 -3 -43 -18 -31 -29 -81 -63 -85 -57 -2
2 -23 29 -47 59 -62 78 -81 92 -95 70z m105 -137 c0 -13 -30 -19 -30 -5 0 4
-3 18 -7 32 -6 25 -6 25 15 6 12 -11 22 -25 22 -33z m49 -46 c15 -19 4 -27
-41 -27 -42 0 -50 16 -15 30 31 13 43 12 56 -3z m-19 -64 c-1 -14 -39 -78 -40
-67 0 6 -3 26 -6 43 -6 28 -4 31 20 31 14 0 26 -3 26 -7z"/>
<path d="M10844 7982 c-137 -134 -224 -351 -184 -456 14 -39 67 -67 118 -64
47 3 58 21 15 26 -52 5 -73 12 -93 32 -62 62 29 307 159 435 47 45 53 48 72
36 27 -16 49 0 29 24 -24 29 -64 18 -116 -33z"/>
<path d="M6733 8004 c-17 -7 -34 -18 -37 -23 -12 -18 13 -22 43 -6 59 30 169
12 185 -30 35 -91 -48 -224 -161 -259 -20 -6 -23 -4 -23 21 0 15 12 71 25 123
26 97 25 130 -2 130 -11 0 -14 -6 -10 -20 3 -12 -5 -60 -19 -108 -13 -48 -24
-102 -24 -119 0 -37 0 -37 -35 -21 -26 12 -32 23 -15 33 15 9 12 25 -5 25 -14
0 -35 -29 -35 -49 0 -20 64 -51 104 -51 56 0 118 33 171 92 47 52 65 97 65
163 0 74 -52 116 -142 114 -29 0 -67 -7 -85 -15z"/>
<path d="M8733 7986 c-32 -15 -49 -54 -18 -43 12 5 12 1 4 -21 -6 -15 -22 -67
-34 -117 -13 -49 -24 -79 -25 -67 0 14 -5 22 -12 20 -23 -8 -19 -43 7 -68 21
-19 35 -24 72 -22 153 6 290 243 181 311 -33 20 -137 24 -175 7z m126 -22 c18
-4 39 -17 48 -30 24 -37 -4 -117 -59 -170 -53 -51 -77 -64 -121 -64 l-35 0 15
68 c9 37 24 89 34 116 13 35 15 53 8 62 -7 9 -5 14 8 17 28 7 68 8 102 1z"/>
<path d="M11335 7995 c-5 -2 -29 -9 -52 -15 l-43 -11 6 -42 c5 -36 0 -53 -35
-121 -38 -71 -46 -106 -24 -106 4 0 16 19 26 43 9 23 25 52 35 65 l17 22 38
-31 c27 -22 41 -45 53 -85 12 -44 18 -53 29 -44 24 20 -17 130 -57 151 -20 11
-19 12 18 25 70 24 125 109 92 142 -11 11 -79 15 -103 7z m85 -39 c0 -17 -75
-86 -94 -86 -27 0 -46 12 -46 29 0 9 -5 22 -12 29 -9 9 -8 13 3 16 79 27 149
33 149 12z"/>
<path d="M11598 7954 c-5 -4 -8 -21 -8 -38 0 -31 -59 -168 -77 -179 -5 -3 -9
-18 -8 -34 0 -23 5 -29 27 -31 53 -6 174 73 202 133 20 41 9 100 -24 130 -20
18 -100 32 -112 19z m100 -51 c6 -9 12 -33 12 -53 0 -29 -8 -44 -42 -77 -38
-37 -114 -80 -123 -71 -2 2 14 43 36 91 21 48 39 99 39 113 0 25 2 26 33 20
17 -3 38 -14 45 -23z"/>
<path d="M4690 7936 c0 -14 29 -31 38 -22 2 3 2 12 -1 21 -8 19 -37 20 -37 1z"/>
<path d="M5124 7938 c-7 -10 20 -38 38 -38 12 0 10 24 -4 38 -15 15 -25 15
-34 0z"/>
<path d="M11877 7938 c-10 -8 -20 -30 -22 -51 -1 -20 -20 -73 -41 -118 -43
-92 -40 -116 16 -111 70 5 163 73 192 140 34 76 0 130 -92 147 -23 4 -41 1
-53 -7z m101 -44 c24 -17 29 -61 11 -97 -24 -47 -113 -107 -158 -107 -19 0
-18 4 15 73 19 39 37 89 40 110 6 34 9 37 38 37 17 0 42 -7 54 -16z"/>
<path d="M5435 7931 c-8 -15 3 -31 21 -31 9 0 14 7 12 17 -4 20 -24 28 -33 14z"/>
<path d="M7255 7930 c-3 -6 1 -13 10 -16 19 -8 30 0 20 15 -8 14 -22 14 -30 1z"/>
<path d="M9426 7931 c-3 -4 1 -17 9 -27 13 -18 15 -18 31 -2 9 9 13 21 10 27
-8 13 -43 15 -50 2z"/>
<path d="M4510 7913 c-30 -11 -60 -47 -60 -73 0 -17 12 -38 35 -60 l35 -34
-22 -13 c-31 -17 -48 -16 -48 3 0 9 -7 14 -17 12 -29 -5 -22 -41 9 -52 21 -7
37 -6 63 7 51 24 53 41 11 87 -20 22 -36 46 -36 54 0 31 53 49 93 32 24 -11
23 20 -2 34 -21 11 -37 12 -61 3z"/>
<path d="M3625 7892 c-22 -4 -55 -30 -55 -43 0 -4 23 -30 51 -58 28 -28 48
-55 44 -61 -7 -11 -68 -14 -78 -3 -4 3 -2 12 4 19 6 7 8 18 4 23 -8 14 -55
-16 -55 -35 0 -39 112 -61 144 -28 27 26 18 55 -29 100 -25 23 -45 45 -45 49
0 4 18 5 41 1 34 -6 40 -4 37 10 -4 19 -34 32 -63 26z"/>
<path d="M3847 7847 c-23 -24 -50 -47 -59 -50 -10 -4 -18 -17 -18 -30 0 -27
-29 -120 -60 -192 -23 -53 -26 -85 -7 -85 6 0 28 44 48 97 33 90 37 96 64 98
35 1 130 101 140 146 16 70 -46 79 -108 16z m83 -1 c0 -19 -74 -112 -100 -126
-17 -9 -20 -8 -20 7 0 22 21 56 63 101 32 34 57 42 57 18z"/>
<path d="M3230 7863 c-14 -10 -31 -18 -39 -18 -9 0 -19 -21 -27 -60 -17 -80
-17 -95 1 -95 8 0 15 6 15 13 0 21 50 120 68 134 9 7 27 10 40 8 19 -5 23 -2
20 12 -4 25 -47 28 -78 6z"/>
<path d="M3380 7867 c-51 -41 -83 -134 -61 -175 20 -38 46 -45 104 -28 56 16
107 58 87 71 -16 10 -40 -14 -33 -33 3 -12 2 -13 -4 -4 -8 10 -18 9 -53 -3
-41 -15 -45 -14 -63 4 -28 27 -16 67 22 76 64 14 97 97 41 102 -14 2 -32 -3
-40 -10z m40 -25 c0 -13 -23 -32 -39 -32 -11 0 -10 4 4 20 19 21 35 26 35 12z"/>
<path d="M7050 7844 c-44 -35 -57 -57 -59 -101 -2 -35 28 -29 35 7 9 43 77
102 109 94 27 -7 33 4 13 24 -21 21 -51 13 -98 -24z"/>
<path d="M7413 7868 c-6 -7 -14 -29 -17 -48 -10 -47 -27 -90 -36 -90 -14 0
-20 31 -14 71 5 31 3 39 -8 39 -19 0 -32 -69 -19 -102 12 -31 35 -50 53 -43
17 7 44 63 53 112 6 32 8 33 44 27 44 -7 83 9 75 31 -5 11 -11 12 -26 4 -18
-10 -43 -8 -80 6 -8 3 -19 0 -25 -7z"/>
<path d="M7585 7852 c-55 -39 -66 -55 -72 -100 -4 -32 -1 -44 17 -62 18 -18
29 -21 62 -16 54 9 103 35 91 47 -7 7 -28 4 -62 -7 -42 -13 -54 -14 -67 -4
-28 24 -13 54 32 65 55 13 86 42 82 74 -4 37 -36 38 -83 3z m46 -26 c-10 -11
-61 -29 -61 -21 0 2 15 12 32 23 35 22 48 21 29 -2z"/>
<path d="M9023 7860 c-63 -38 -86 -101 -52 -143 19 -25 27 -28 68 -25 33 2 46
7 46 18 0 11 -10 14 -42 12 -31 -3 -44 1 -51 14 -8 14 -1 21 42 43 53 27 70
58 46 87 -16 18 -19 18 -57 -6z m32 -30 c-3 -5 -16 -15 -28 -21 -22 -12 -22
-12 -3 10 19 21 43 30 31 11z"/>
<path d="M9741 7826 c-17 -31 -31 -64 -31 -75 0 -23 16 -36 25 -21 6 10 110
90 117 90 2 0 3 -21 3 -47 0 -43 3 -48 23 -51 25 -4 65 25 56 39 -3 5 -14 5
-24 -1 -29 -16 -33 -12 -26 23 14 68 12 82 -9 79 -11 -2 -39 -17 -62 -33 -47
-31 -48 -31 -31 6 8 18 8 29 1 36 -7 7 -20 -7 -42 -45z"/>
<path d="M9240 7863 c-24 -9 -50 -35 -50 -51 0 -8 11 -27 25 -43 26 -32 24
-59 -6 -59 -16 0 -18 5 -13 25 5 19 2 25 -10 25 -21 0 -32 -46 -15 -66 20 -24
71 -14 88 18 14 25 14 29 -12 65 -25 35 -26 39 -10 51 9 6 25 12 36 12 10 0
17 5 15 13 -5 14 -26 18 -48 10z"/>
<path d="M4026 7820 c-42 -46 -48 -96 -17 -124 17 -16 22 -16 54 -2 37 15 67
58 67 96 0 21 -41 70 -58 70 -5 0 -26 -18 -46 -40z m72 -31 c4 -22 -36 -69
-59 -69 -24 0 -26 36 -3 68 18 26 57 27 62 1z"/>
<path d="M4255 7830 c-30 -31 -30 -31 -35 -8 -8 32 -36 30 -32 -2 1 -14 -4
-45 -13 -69 -23 -68 -4 -71 46 -9 24 30 54 62 67 72 l22 17 0 -59 c0 -65 19
-97 43 -73 9 9 9 14 0 19 -7 4 -13 36 -15 72 -3 61 -5 65 -28 68 -18 2 -34 -7
-55 -28z"/>
<path d="M2477 7822 c-32 -34 -48 -121 -27 -147 22 -27 65 -18 99 20 39 44 40
83 5 124 -32 38 -43 39 -77 3z m70 -50 c7 -29 -26 -77 -53 -77 -24 0 -30 36
-14 75 15 36 58 37 67 2z"/>
<path d="M5794 7778 l-49 -63 -3 45 c-4 50 -16 70 -33 53 -7 -7 -7 -28 1 -71
10 -59 10 -62 -19 -109 -50 -80 -104 -202 -97 -219 9 -23 21 -10 41 42 29 77
102 198 170 285 58 73 70 99 46 99 -4 0 -30 -28 -57 -62z"/>
<path d="M7754 7803 c-9 -21 -23 -50 -30 -65 -36 -68 -4 -64 64 10 38 40 51
50 47 34 -11 -40 3 -74 28 -70 12 2 22 10 22 18 0 8 -6 14 -12 13 -9 -2 -11 9
-7 41 4 28 2 46 -5 51 -16 10 -63 -23 -55 -38 4 -7 4 -9 -1 -5 -4 4 -14 3 -22
-3 -9 -9 -13 -8 -13 0 0 6 5 11 10 11 6 0 10 9 10 20 0 32 -19 23 -36 -17z"/>
<path d="M6235 7818 c-16 -5 -51 -7 -77 -4 -51 5 -67 -4 -43 -24 18 -15 141
-8 158 9 18 18 -5 29 -38 19z"/>
<path d="M5086 7792 c-21 -40 -21 -92 -1 -92 9 0 15 9 15 25 0 13 5 36 12 50
8 18 8 29 1 36 -8 8 -16 3 -27 -19z"/>
<path d="M7170 7775 c-23 -53 -26 -85 -7 -85 6 0 20 24 30 53 24 70 24 69 10
74 -8 3 -21 -14 -33 -42z"/>
<path d="M8165 7809 c-10 -16 0 -21 45 -25 29 -3 40 0 40 10 0 23 -73 36 -85
15z"/>
<path d="M9497 7792 c-41 -42 -31 -82 20 -82 23 0 25 -10 8 -66 -2 -6 -21 -14
-43 -18 -70 -11 -131 -105 -119 -183 8 -45 23 -63 54 -63 51 0 102 77 127 192
5 24 9 26 40 21 40 -6 86 3 86 17 0 6 -17 10 -37 10 -21 0 -48 3 -60 6 -21 6
-21 8 -8 51 8 25 19 51 24 56 17 17 13 74 -5 81 -32 12 -61 5 -87 -22z m63
-16 c0 -19 -26 -38 -45 -34 -14 3 -14 5 0 26 18 24 45 30 45 8z m-51 -221
c-11 -57 -43 -121 -69 -135 -70 -37 -56 118 14 161 53 32 65 26 55 -26z"/>
<path d="M4655 7776 c-17 -40 -17 -77 0 -83 14 -4 38 98 25 111 -6 6 -15 -4
-25 -28z"/>
<path d="M9355 7761 c-16 -37 -15 -61 4 -61 8 0 41 76 41 93 0 4 -6 7 -13 7
-8 0 -22 -18 -32 -39z"/>
<path d="M5380 7758 c-24 -39 -26 -68 -5 -68 9 0 18 12 22 30 3 17 10 33 14
36 12 7 11 34 -1 34 -6 0 -19 -15 -30 -32z"/>
<path d="M10060 7715 c0 -11 7 -15 23 -13 12 2 22 8 22 13 0 6 -10 11 -22 13
-16 2 -23 -2 -23 -13z"/>
<path d="M2751 7193 c-41 -75 -55 -117 -48 -137 9 -23 27 -20 27 4 0 11 18 56
40 99 36 72 40 91 19 91 -4 0 -21 -26 -38 -57z"/>
<path d="M3208 7183 c-24 -32 -63 -88 -88 -125 -25 -37 -53 -69 -63 -72 -10
-2 -17 -11 -15 -19 2 -8 -21 -43 -49 -77 -57 -67 -63 -80 -35 -80 9 0 35 25
57 56 55 77 79 94 133 94 l45 0 -6 -41 c-3 -22 -13 -46 -23 -53 -23 -17 -12
-43 18 -41 20 1 24 9 33 65 8 52 14 64 34 72 23 8 23 9 7 27 -17 18 -16 24 3
115 12 53 21 105 21 116 0 36 -28 21 -72 -37z m14 -108 l-17 -80 -48 -3 -49
-3 63 92 c35 50 64 88 66 83 1 -5 -5 -45 -15 -89z"/>
<path d="M2830 7178 c-18 -30 -18 -48 0 -48 11 0 50 67 43 74 -12 12 -24 5
-43 -26z"/>
<path d="M3832 7191 c-10 -6 -100 -229 -123 -306 -15 -48 -11 -105 6 -105 11
0 15 11 15 39 0 45 105 331 127 344 7 4 13 12 13 16 0 13 -25 20 -38 12z"/>
<path d="M2795 7097 c-18 -44 -18 -44 -1 -50 20 -8 43 60 27 76 -7 7 -15 0
-26 -26z"/>
<path d="M4111 6993 c-54 -28 -60 -46 -33 -94 20 -35 22 -43 10 -55 -11 -11
-18 -11 -42 1 -37 19 -38 19 -34 -7 4 -31 61 -45 94 -23 30 19 31 49 3 94 -20
33 -20 35 -3 48 10 7 24 14 31 14 7 1 19 2 26 3 17 2 15 30 -3 33 -8 2 -30 -5
-49 -14z"/>
<path d="M4243 6980 c-40 -24 -41 -39 -8 -78 14 -17 25 -35 25 -41 0 -15 -37
-14 -43 2 -3 9 -7 9 -17 0 -18 -17 -6 -40 25 -45 69 -14 97 33 50 82 -34 35
-28 60 15 60 32 0 37 9 18 28 -16 16 -28 15 -65 -8z"/>
<path d="M3509 6963 c-37 -32 -60 -81 -52 -112 7 -26 51 -51 90 -51 34 0 113
35 113 50 0 14 -15 13 -70 -7 -60 -21 -100 -9 -100 33 0 36 50 84 89 84 21 0
31 5 31 15 0 26 -64 19 -101 -12z"/>
<path d="M3874 6976 c-30 -22 -60 -94 -47 -114 14 -23 47 -26 77 -7 24 16 25
16 28 -12 2 -16 9 -28 17 -28 10 0 15 15 16 53 2 60 -4 63 -57 27 -35 -24 -58
-31 -58 -20 0 13 30 62 44 74 13 11 19 11 31 1 13 -10 18 -11 28 -1 9 10 8 15
-7 27 -25 18 -46 18 -72 0z"/>
</g>
</svg>
