<?xml version="1.0" standalone="no"?>
<!DOCTYPE svg PUBLIC "-//W3C//DTD SVG 20010904//EN"
 "http://www.w3.org/TR/2001/REC-SVG-20010904/DTD/svg10.dtd">
<svg version="1.0" xmlns="http://www.w3.org/2000/svg"
 width="1618.000000pt" height="1214.000000pt" viewBox="0 0 1618.000000 1214.000000"
 preserveAspectRatio="xMidYMid meet">

<g transform="translate(0.000000,1214.000000) scale(0.100000,-0.100000)"
fill="#000000" stroke="none">
<path d="M3727 11739 c-125 -29 -151 -97 -77 -205 68 -100 83 -190 43 -253
-13 -21 -21 -23 -73 -19 -65 5 -130 44 -130 79 0 20 -8 23 -34 13 -25 -10 -19
-26 22 -60 57 -48 99 -65 155 -66 45 0 55 4 78 30 56 63 41 181 -36 294 -38
54 -44 97 -20 122 14 14 114 50 121 43 1 -1 -3 -24 -9 -50 -11 -51 -2 -75 27
-64 19 7 39 78 30 111 -5 20 -33 38 -54 35 -3 -1 -22 -5 -43 -10z"/>
<path d="M7981 11718 c2 -36 -18 -107 -54 -193 -30 -71 -38 -81 -68 -90 -41
-12 -50 -35 -14 -35 14 0 25 5 25 12 0 6 2 9 5 7 2 -3 -7 -38 -20 -79 -22 -71
-21 -101 4 -86 6 4 11 14 11 23 0 14 38 132 45 141 1 1 11 4 21 6 132 26 144
30 144 44 0 15 -2 15 -95 -3 -16 -3 -36 -8 -42 -10 -17 -6 -17 -7 12 60 14 32
24 60 21 62 -3 3 1 12 9 20 18 18 19 33 3 33 -10 0 -10 2 0 9 19 12 32 77 19
90 -17 17 -27 13 -26 -11z"/>
<path d="M2834 11705 c-4 -9 -1 -35 6 -58 9 -30 9 -42 1 -45 -6 -2 -11 -10
-11 -18 0 -8 -18 -57 -40 -108 -22 -52 -42 -112 -46 -135 -6 -37 -4 -41 14
-41 13 0 32 15 49 39 15 22 35 44 44 49 13 9 14 4 6 -43 -10 -53 -3 -96 12
-79 4 5 14 42 21 83 10 61 10 75 -1 82 -21 13 -25 12 -69 -29 -22 -22 -40 -37
-40 -35 0 2 18 45 39 96 34 78 40 104 42 171 1 54 -2 81 -9 84 -7 2 -15 -4
-18 -13z"/>
<path d="M7603 11714 c-7 -3 -9 -18 -6 -40 4 -26 -9 -80 -52 -214 -32 -98 -55
-186 -52 -194 12 -29 35 -18 35 17 0 17 19 86 42 152 44 129 74 251 66 272 -6
13 -13 15 -33 7z"/>
<path d="M2381 11639 c-47 -47 -69 -75 -62 -82 12 -12 67 29 106 82 19 26 38
41 53 41 19 0 22 -5 22 -40 0 -30 -14 -67 -50 -136 -52 -100 -61 -140 -33
-151 11 -5 27 5 50 32 26 31 33 34 34 19 1 -46 10 -88 20 -101 44 -52 186 62
205 165 6 32 -3 212 -11 220 -2 2 -9 1 -15 -3 -7 -4 -8 -39 -4 -109 6 -91 4
-106 -14 -142 -24 -48 -94 -114 -121 -114 -22 0 -31 26 -31 92 0 65 -16 69
-62 17 -36 -40 -38 -42 -28 -14 6 17 27 58 46 92 35 63 59 153 48 185 -4 13
-15 18 -43 18 -34 0 -46 -8 -110 -71z"/>
<path d="M8979 11694 c-7 -8 -49 -97 -94 -197 -52 -117 -86 -182 -95 -182 -8
0 -15 -6 -14 -12 1 -7 2 -20 3 -28 0 -8 8 -15 16 -15 16 0 53 74 162 320 9 20
10 11 6 -47 -5 -63 -4 -73 12 -79 20 -8 78 53 125 131 l30 50 -6 -45 c-8 -57
-39 -182 -59 -239 -20 -57 -20 -101 0 -101 8 0 15 9 15 20 0 11 13 66 30 122
32 107 66 295 55 306 -12 12 -40 -16 -80 -82 -23 -36 -53 -79 -69 -94 l-28
-27 7 60 c4 33 11 76 16 95 5 19 9 41 9 48 0 17 -25 15 -41 -4z"/>
<path d="M9599 11688 c-1 -2 -3 -12 -5 -23 -7 -48 -33 -125 -62 -182 -29 -56
-35 -62 -67 -65 -46 -4 -50 -22 -7 -26 24 -2 32 -7 28 -18 -3 -7 -8 -36 -12
-63 -6 -44 -4 -51 18 -65 26 -17 68 -11 68 10 0 9 -11 14 -30 14 -34 0 -34 0
-19 70 10 46 13 50 40 50 36 0 99 25 99 39 0 13 -36 15 -44 3 -5 -9 -66 -15
-66 -7 0 3 13 31 28 63 33 66 66 177 57 192 -6 9 -23 14 -26 8z"/>
<path d="M9795 11661 c-9 -17 -13 -36 -10 -41 6 -10 -55 -173 -67 -178 -4 -2
-8 -13 -8 -24 0 -12 -7 -45 -16 -73 -21 -64 -13 -102 23 -116 30 -11 72 0 87
24 15 24 3 29 -29 13 -20 -11 -34 -12 -47 -5 -22 12 -22 19 -1 90 l17 56 75
19 c41 11 76 24 78 30 4 13 -45 11 -100 -4 -20 -6 -37 -8 -37 -6 0 2 11 31 24
63 36 90 52 159 39 172 -8 8 -16 3 -28 -20z"/>
<path d="M4478 11675 c-3 -4 -4 -23 -1 -43 4 -27 -6 -70 -36 -157 -45 -132
-62 -207 -51 -226 13 -19 30 0 30 33 0 18 19 86 41 152 29 84 42 139 43 180 1
53 -9 77 -26 61z"/>
<path d="M7130 11647 c0 -39 -24 -112 -70 -212 -62 -135 -62 -135 -53 -162 12
-35 34 -47 68 -39 53 13 134 122 119 161 -9 21 -51 30 -81 16 -14 -7 -27 -10
-29 -8 -2 2 9 33 25 68 61 135 74 209 36 209 -10 0 -15 -10 -15 -33z m30 -278
c0 -26 -84 -113 -102 -107 -28 10 -18 40 25 83 48 49 77 58 77 24z"/>
<path d="M14696 11629 c-15 -17 -33 -44 -41 -60 -8 -15 -21 -32 -27 -36 -7 -4
-31 -43 -53 -86 -47 -93 -57 -104 -79 -82 -9 9 -16 20 -16 24 0 19 49 78 83
100 37 24 40 41 8 41 -23 0 -108 -90 -117 -124 -6 -26 17 -76 35 -76 5 0 -4
-25 -21 -55 -29 -55 -31 -88 -2 -64 8 6 14 15 14 20 0 23 53 91 78 100 61 23
102 83 102 151 0 45 46 133 75 144 8 4 15 12 15 20 0 24 -27 15 -54 -17z m-66
-171 c0 -16 -40 -82 -46 -76 -4 4 37 88 44 88 1 0 2 -6 2 -12z"/>
<path d="M13000 11617 c0 -7 -11 -29 -25 -49 -18 -26 -30 -35 -44 -31 -26 7
-75 -21 -105 -60 -28 -36 -33 -80 -15 -121 10 -21 6 -32 -36 -91 -38 -52 -45
-69 -35 -78 9 -9 15 -8 24 7 55 90 86 123 115 124 41 1 85 26 132 74 52 54 52
83 1 106 l-38 17 28 39 c31 43 36 76 13 76 -8 0 -15 -6 -15 -13z m-92 -149
c-8 -13 -24 -40 -37 -61 -25 -40 -41 -41 -41 0 0 37 36 83 67 83 24 0 24 -1
11 -22z m98 -2 c18 -14 18 -16 -16 -51 -37 -39 -79 -65 -104 -65 -11 0 -4 18
25 65 43 67 60 76 95 51z"/>
<path d="M13205 11564 c-40 -20 -59 -40 -51 -52 4 -7 22 -2 48 13 78 44 70 10
-21 -92 -30 -34 -67 -65 -81 -68 -29 -7 -70 -38 -70 -54 0 -19 16 -20 57 -1
l42 18 16 -25 c14 -21 22 -24 48 -19 34 7 69 34 62 47 -3 4 -21 1 -39 -6 -32
-14 -35 -13 -49 8 -13 20 -10 26 54 101 71 81 76 93 59 127 -13 23 -35 24 -75
3z"/>
<path d="M14767 11498 c-66 -100 -87 -141 -87 -167 0 -27 19 -37 26 -14 12 41
62 131 102 185 39 52 47 78 22 78 -5 0 -33 -37 -63 -82z"/>
<path d="M13841 11493 c-87 -71 -93 -77 -75 -90 13 -9 32 -12 57 -8 20 4 37 5
37 2 0 -2 -4 -28 -10 -57 -5 -29 -7 -56 -4 -62 10 -16 34 13 34 44 0 35 25 98
39 98 6 0 8 6 5 14 -3 8 6 36 20 63 53 98 23 97 -103 -4z m54 -24 c-17 -32
-34 -43 -60 -37 -12 2 -4 12 26 36 24 17 44 32 46 32 2 0 -4 -14 -12 -31z"/>
<path d="M14945 11560 c-11 -4 -33 -20 -49 -34 -22 -21 -27 -34 -24 -57 4 -24
-2 -35 -34 -64 -51 -48 -73 -91 -60 -120 20 -45 101 -34 171 23 42 34 53 82
25 113 -9 10 -13 19 -7 19 22 0 63 53 63 81 0 15 -3 30 -7 32 -20 11 -60 14
-78 7z m55 -43 c0 -21 -31 -43 -67 -50 -42 -8 -45 12 -7 42 30 24 74 28 74 8z
m-44 -119 c3 -5 3 -20 0 -33 -11 -42 -124 -94 -149 -69 -11 11 21 61 58 92 35
29 77 33 91 10z"/>
<path d="M6896 11528 c-20 -40 -20 -40 7 -36 17 2 23 11 25 36 4 41 -12 41
-32 0z"/>
<path d="M14301 11534 c-39 -18 -52 -27 -44 -35 8 -8 27 -5 67 10 34 12 56 16
56 10 0 -16 -121 -129 -137 -129 -37 0 -133 -70 -133 -97 0 -21 22 -15 84 22
66 40 67 40 60 22 -3 -8 0 -26 6 -41 8 -22 15 -27 37 -24 31 4 44 28 15 28
-16 0 -21 8 -24 40 -3 37 0 42 55 91 64 56 85 93 66 115 -16 20 -46 17 -108
-12z"/>
<path d="M7361 11536 c-7 -8 -8 -17 -3 -20 14 -8 53 6 49 18 -6 17 -32 19 -46
2z"/>
<path d="M13634 11529 c-23 -11 -44 -29 -47 -40 -6 -24 6 -24 41 0 40 28 72
36 72 17 0 -24 -109 -136 -133 -136 -30 0 -97 -49 -97 -71 0 -24 41 -26 75 -3
23 15 25 15 31 -1 11 -28 53 -38 81 -20 30 20 21 36 -17 28 -54 -10 -49 21 17
95 71 79 86 106 78 132 -8 26 -48 26 -101 -1z"/>
<path d="M7765 11521 c-8 -15 3 -31 21 -31 9 0 14 7 12 17 -4 20 -24 28 -33
14z"/>
<path d="M1702 11470 c-42 -40 -49 -52 -37 -56 11 -5 30 6 55 31 l39 38 7 -29
c16 -70 61 -94 110 -59 26 18 58 81 50 101 -10 26 -36 16 -36 -14 0 -31 -36
-72 -63 -72 -11 0 -20 14 -28 43 -11 42 -25 67 -38 67 -4 0 -30 -23 -59 -50z"/>
<path d="M3910 11490 c-13 -9 -13 -11 0 -20 18 -11 39 5 24 20 -6 6 -15 6 -24
0z"/>
<path d="M4655 11466 c-16 -11 -17 -17 -7 -29 10 -12 10 -18 -3 -31 -22 -22
-42 -20 -22 2 9 10 13 23 8 30 -5 9 -14 4 -33 -15 -71 -76 -65 -153 12 -153
35 0 120 29 120 42 0 5 4 7 9 3 11 -6 26 13 17 22 -3 4 -37 -4 -74 -17 -38
-13 -76 -21 -85 -17 -31 12 -18 37 28 57 55 24 89 80 64 105 -13 13 -18 13
-34 1z"/>
<path d="M5323 11445 c-15 -19 -34 -35 -40 -35 -7 0 -13 -11 -13 -25 0 -14 -7
-42 -15 -62 -8 -19 -15 -46 -15 -59 0 -35 27 -30 35 7 9 39 48 127 69 154 l15
20 15 -20 c10 -14 18 -17 26 -9 8 8 5 18 -10 37 -12 15 -25 27 -30 27 -5 0
-22 -16 -37 -35z"/>
<path d="M5493 11449 c-46 -29 -77 -85 -74 -134 4 -67 44 -91 106 -63 32 15
35 43 3 32 -13 -4 -34 -8 -48 -8 -20 -1 -26 4 -28 27 -2 19 2 29 15 33 53 17
80 35 98 67 16 30 17 38 6 51 -18 21 -39 20 -78 -5z m23 -56 c-15 -13 -31 -23
-37 -23 -18 0 -9 19 23 45 23 19 34 23 37 14 2 -7 -8 -23 -23 -36z"/>
<path d="M5714 11456 c-17 -8 -34 -21 -37 -31 -7 -17 15 -69 33 -80 5 -3 10
-14 10 -23 0 -13 -4 -11 -16 7 -24 34 -43 11 -20 -24 19 -29 52 -31 69 -3 8
12 4 26 -17 58 -31 47 -28 70 7 70 30 0 40 10 26 27 -14 16 -16 16 -55 -1z"/>
<path d="M6648 11453 c-49 -19 -51 -53 -7 -99 l30 -31 -30 -12 c-17 -8 -43
-10 -60 -6 -24 5 -31 3 -31 -8 0 -32 70 -36 118 -7 40 25 41 52 2 80 -16 12
-30 27 -30 35 0 7 14 18 30 24 29 10 38 25 23 34 -5 3 -25 -2 -45 -10z"/>
<path d="M5941 11434 c-24 -20 -31 -22 -31 -10 0 9 -4 16 -10 16 -5 0 -13 0
-17 0 -5 0 -9 -11 -10 -26 -1 -14 -23 -91 -48 -171 -26 -79 -44 -147 -41 -150
16 -17 35 17 70 128 22 68 40 127 40 132 1 4 6 8 11 9 6 1 21 15 33 30 25 30
52 37 52 15 0 -8 -14 -35 -31 -61 -24 -36 -36 -45 -50 -41 -14 5 -19 1 -19
-14 0 -52 54 -27 101 47 31 48 37 90 17 110 -18 18 -33 15 -67 -14z"/>
<path d="M10465 11453 c-31 -8 -65 -34 -65 -50 0 -9 16 -34 36 -56 32 -35 34
-41 20 -49 -24 -13 -54 -2 -38 14 18 18 15 28 -8 28 -10 0 -25 -10 -31 -22
-26 -48 76 -78 119 -34 13 13 13 18 -1 40 -9 14 -28 36 -42 49 -30 27 -21 43
30 50 18 2 31 10 33 20 4 17 -12 20 -53 10z"/>
<path d="M2990 11387 c0 -53 4 -67 20 -78 19 -14 18 -17 -32 -103 -32 -55 -52
-102 -52 -122 -1 -18 -5 -30 -10 -27 -5 3 -7 0 -4 -7 10 -31 27 -18 42 32 8
29 43 98 77 153 74 121 99 169 99 190 0 28 -19 15 -41 -27 -39 -77 -67 -79
-71 -6 -2 30 -8 53 -15 56 -10 3 -13 -14 -13 -61z"/>
<path d="M6391 11418 c-19 -18 -31 -27 -27 -21 4 7 3 20 -2 30 -8 13 -17 1
-46 -61 -20 -43 -33 -83 -29 -89 4 -6 33 18 69 58 35 38 65 67 68 64 3 -3 1
-21 -4 -40 -14 -48 -13 -89 3 -89 8 0 18 27 26 75 20 111 4 132 -58 73z"/>
<path d="M4029 11425 c-14 -8 -37 -30 -50 -49 -13 -20 -29 -36 -35 -36 -13 0
-27 -57 -18 -71 10 -16 20 -9 36 25 21 44 76 106 94 106 17 0 17 -3 -1 -65
-16 -51 -13 -79 7 -73 12 4 37 88 38 129 0 26 -16 49 -34 49 -6 -1 -23 -7 -37
-15z"/>
<path d="M7688 11369 c-17 -69 -16 -89 2 -89 8 0 24 49 25 77 0 6 4 15 8 19
12 12 8 64 -5 64 -8 0 -20 -30 -30 -71z"/>
<path d="M10214 11415 c-15 -23 -19 -24 -26 -11 -5 9 -12 16 -17 16 -13 0 -43
-111 -37 -136 10 -40 31 -27 61 36 32 66 59 98 70 81 11 -19 26 -12 23 12 -5
34 -52 36 -74 2z"/>
<path d="M4232 11416 c-31 -16 -72 -79 -72 -110 0 -35 27 -48 62 -30 15 8 32
22 38 31 8 14 10 5 8 -40 l-1 -58 -49 -21 c-62 -26 -88 -59 -88 -110 0 -28 7
-46 25 -63 29 -30 49 -31 74 -6 18 18 51 107 51 137 0 20 19 27 36 13 8 -6 17
-9 20 -6 10 10 -4 37 -23 45 -15 6 -18 20 -19 77 -3 125 -20 164 -62 141z m11
-64 c-8 -22 -34 -52 -45 -52 -14 0 -9 21 13 51 21 30 43 31 32 1z m1 -234
c-20 -68 -40 -99 -59 -92 -20 8 -30 51 -19 82 8 21 64 62 86 62 4 0 0 -24 -8
-52z"/>
<path d="M6152 11400 c-51 -36 -77 -82 -63 -109 25 -45 122 -27 142 26 14 36
3 90 -20 103 -15 7 -28 3 -59 -20z m58 -49 c0 -25 -32 -51 -62 -51 -39 0 -36
22 9 59 37 31 52 28 53 -8z"/>
<path d="M6847 11424 c-4 -4 -7 -19 -7 -33 0 -14 -9 -46 -20 -70 -24 -51 -25
-61 -6 -61 16 0 55 85 58 130 3 31 -10 48 -25 34z"/>
<path d="M7271 11379 c-24 -55 -19 -101 13 -107 14 -3 16 2 10 36 -4 27 -1 49
10 70 20 38 20 52 2 52 -7 0 -23 -23 -35 -51z"/>
<path d="M9995 11416 c-16 -7 -39 -23 -49 -35 -11 -11 -27 -21 -37 -21 -27 0
-34 -21 -10 -27 12 -3 21 -13 21 -24 0 -26 35 -59 63 -59 27 0 89 32 95 48 5
16 -20 15 -54 -3 -38 -20 -51 -19 -64 4 -14 27 -13 31 9 31 25 0 83 58 79 78
-4 21 -18 23 -53 8z"/>
<path d="M3816 11393 c-2 -10 -8 -34 -11 -53 -4 -19 -11 -40 -16 -46 -12 -14
0 -46 15 -41 11 4 28 54 40 120 5 29 4 37 -8 37 -8 0 -17 -8 -20 -17z"/>
<path d="M8141 11340 c-32 -42 -57 -67 -65 -64 -7 3 -20 23 -29 45 -11 28 -21
39 -36 39 -24 0 -28 -25 -6 -34 8 -3 15 -12 15 -19 0 -8 9 -25 19 -39 19 -24
19 -24 0 -48 -82 -103 -155 -232 -143 -251 9 -15 25 1 41 39 21 51 87 146 152
222 32 36 73 85 92 110 18 25 37 47 42 48 11 5 -2 22 -17 22 -7 0 -37 -31 -65
-70z"/>
<path d="M9226 11379 c-51 -40 -58 -109 -12 -109 13 0 30 7 37 17 13 14 15 13
19 -13 8 -44 32 -36 36 11 2 22 5 49 6 60 2 11 -1 20 -5 20 -5 0 -13 8 -18 18
-13 23 -30 22 -63 -4z m17 -61 c-21 -23 -34 -23 -26 0 11 32 25 44 34 30 5 -7
1 -20 -8 -30z"/>
<path d="M13294 11329 c-3 -6 -2 -15 4 -21 13 -13 32 -2 32 18 0 16 -26 19
-36 3z"/>
<path d="M13989 11338 c-7 -23 -5 -38 6 -38 16 0 37 25 28 33 -6 7 -32 10 -34
5z"/>
<path d="M11026 11240 c-70 -21 -114 -97 -146 -257 -28 -134 -67 -195 -104
-164 -36 30 -2 108 50 115 23 3 30 24 11 32 -20 7 -72 -20 -91 -48 -38 -53 -7
-138 49 -138 53 0 87 60 116 203 33 162 72 221 152 234 22 3 37 11 37 19 0 16
-30 17 -74 4z"/>
<path d="M14747 11160 c-9 -33 -26 -84 -37 -114 -19 -49 -25 -56 -63 -68 -25
-8 -42 -19 -42 -28 0 -14 5 -15 49 -2 20 5 20 6 0 -65 -5 -17 -2 -23 9 -23 10
0 21 19 32 56 16 55 16 55 53 52 28 -2 37 1 37 12 0 9 -11 16 -27 18 -16 2
-28 5 -28 7 0 2 14 46 30 97 33 103 36 118 18 118 -7 0 -21 -27 -31 -60z"/>
<path d="M4857 11168 c-13 -18 -55 -76 -92 -128 -100 -140 -144 -190 -160
-183 -22 8 -31 -26 -12 -44 14 -14 19 -11 56 28 22 24 41 47 41 52 0 4 25 7
56 7 53 0 56 -1 51 -22 -18 -71 -19 -105 -3 -111 9 -4 15 -3 14 1 -1 4 4 33
11 65 l12 57 46 0 c54 0 56 23 1 28 l-35 3 29 107 c41 155 44 172 25 172 -9 0
-27 -15 -40 -32z m-20 -148 l-22 -85 -42 -3 c-24 -2 -43 -1 -43 2 0 10 122
178 126 174 2 -2 -7 -42 -19 -88z"/>
<path d="M2203 11163 c-7 -2 -13 -15 -13 -28 0 -12 -14 -54 -31 -93 -31 -71
-31 -71 -70 -69 -47 2 -55 -14 -13 -25 30 -8 31 -9 26 -57 -4 -43 -2 -51 19
-64 26 -18 87 -20 106 -5 19 15 5 29 -23 22 -13 -3 -35 -3 -49 0 -19 5 -25 13
-25 35 0 48 9 61 44 61 47 0 108 20 103 33 -4 12 -14 12 -80 1 l-37 -7 36 84
c20 46 37 90 38 98 1 16 -13 22 -31 14z"/>
<path d="M7321 11105 c-12 -31 -21 -59 -21 -64 0 -4 -22 -45 -50 -90 -71 -117
-64 -142 21 -78 53 41 89 60 96 53 3 -3 2 -18 -2 -33 -14 -48 -13 -51 3 -49
16 3 30 28 31 59 1 12 -3 16 -11 11 -10 -6 -10 -4 0 7 19 21 14 39 -13 39 -34
0 -76 -21 -68 -34 3 -6 3 -8 -2 -4 -4 4 -16 3 -26 -3 -15 -8 -14 -1 9 38 26
44 82 178 82 196 0 4 -6 7 -14 7 -8 0 -23 -24 -35 -55z"/>
<path d="M7783 11097 c-23 -35 -48 -76 -54 -91 -11 -24 -17 -27 -46 -23 -43 7
-53 -10 -14 -26 23 -10 28 -16 21 -27 -6 -8 -10 -32 -10 -52 0 -51 35 -77 80
-58 35 15 40 32 8 30 -49 -4 -58 0 -58 26 0 47 17 64 63 64 47 0 84 20 73 39
-5 8 -13 8 -26 1 -10 -5 -32 -10 -49 -10 l-31 0 32 53 c17 28 44 68 60 88 26
35 27 49 4 49 -6 0 -30 -29 -53 -63z"/>
<path d="M11999 11067 l-46 -92 -40 -1 c-71 -1 -81 -33 -10 -34 15 0 27 -2 27
-4 0 -2 -15 -36 -34 -77 -19 -41 -32 -77 -30 -81 12 -19 26 -2 63 77 33 71 44
85 63 85 13 0 40 3 60 6 l37 7 -24 -52 c-14 -28 -25 -55 -25 -60 0 -27 23 -16
68 31 28 29 53 50 57 46 3 -3 1 -24 -6 -47 -9 -32 -9 -43 1 -56 15 -18 29 -12
28 13 0 9 3 41 7 69 7 45 5 54 -9 59 -11 4 -29 -2 -47 -15 l-29 -21 9 22 c19
47 24 63 23 71 -1 4 2 7 7 7 11 0 51 93 51 119 0 12 -7 21 -15 21 -8 0 -15 -8
-15 -17 0 -14 -64 -165 -78 -183 -2 -2 -7 2 -12 9 -5 10 -20 12 -49 8 -23 -3
-41 -3 -41 1 0 3 18 38 40 78 41 76 49 104 28 103 -7 0 -34 -42 -59 -92z"/>
<path d="M7172 11138 c-7 -7 -12 -19 -12 -27 0 -16 -55 -118 -75 -138 -8 -7
-15 -9 -17 -3 -2 6 -15 6 -33 2 -37 -10 -31 -27 11 -27 l31 0 -14 -32 c-36
-86 18 -163 72 -103 22 25 12 39 -16 22 -40 -25 -50 9 -23 78 14 35 20 40 49
40 42 0 53 15 23 31 -13 6 -25 13 -26 15 -2 1 15 34 37 72 23 39 41 73 41 76
0 11 -36 6 -48 -6z"/>
<path d="M9395 11107 c-8 -20 -15 -43 -15 -51 0 -54 -78 -193 -121 -216 -32
-18 -45 1 -29 40 14 34 41 53 63 44 21 -8 32 15 15 32 -29 29 -99 -23 -114
-83 -9 -35 11 -73 39 -73 65 0 136 98 177 244 15 55 19 81 11 89 -7 7 -15 0
-26 -26z"/>
<path d="M10695 11130 c-3 -5 1 -10 9 -10 9 0 16 5 16 10 0 6 -4 10 -9 10 -6
0 -13 -4 -16 -10z"/>
<path d="M13442 11103 c-6 -10 -13 -43 -17 -73 -14 -105 -56 -186 -105 -202
-22 -8 -50 10 -50 31 0 27 55 71 80 64 24 -6 29 24 5 33 -41 16 -115 -48 -115
-98 0 -58 66 -82 123 -45 34 22 73 108 88 193 6 38 15 73 20 79 14 14 11 35
-6 35 -8 0 -18 -8 -23 -17z"/>
<path d="M13897 11103 c-4 -3 -7 -14 -7 -22 0 -9 -14 -49 -31 -89 -32 -77 -37
-147 -10 -147 9 0 14 15 15 45 1 25 14 71 28 102 16 35 23 60 17 64 -6 3 -3
11 7 18 9 7 14 18 10 24 -8 13 -19 15 -29 5z"/>
<path d="M9990 11081 c0 -27 15 -34 31 -15 10 13 10 17 -2 25 -22 13 -29 11
-29 -10z"/>
<path d="M11787 11054 c-9 -10 2 -24 19 -24 8 0 14 7 14 15 0 15 -21 21 -33 9z"/>
<path d="M14467 11045 c-7 -16 8 -29 23 -20 15 9 12 35 -4 35 -8 0 -16 -7 -19
-15z"/>
<path d="M10604 11036 c-67 -47 -90 -83 -85 -133 2 -23 33 -43 67 -43 35 0 84
24 84 41 0 13 -44 11 -57 -2 -17 -17 -58 -7 -61 16 -2 16 3 20 27 21 16 1 43
11 60 24 26 18 32 28 29 54 -3 36 -30 45 -64 22z m21 -46 c-10 -11 -25 -20
-34 -20 -11 1 -8 8 13 26 32 29 48 24 21 -6z"/>
<path d="M8445 11018 c12 -38 20 -39 27 -3 2 12 -3 21 -15 23 -16 3 -18 0 -12
-20z"/>
<path d="M1423 11010 c-59 -36 -71 -95 -26 -136 22 -21 35 -24 77 -22 68 4 75
28 8 28 -51 0 -82 20 -82 52 0 20 63 75 68 59 5 -15 32 -14 32 2 0 16 -20 37
-34 37 -6 0 -25 -9 -43 -20z"/>
<path d="M6186 11009 c-19 -15 -30 -18 -35 -11 -11 18 -26 -1 -27 -37 -1 -18
-5 -36 -10 -40 -14 -10 -107 -202 -101 -208 15 -15 37 12 78 94 42 84 45 88
74 85 23 -2 37 5 61 30 51 53 53 88 8 102 -14 4 -30 -1 -48 -15z m44 -32 c0
-21 -46 -59 -66 -55 -15 3 -13 7 10 36 28 33 56 42 56 19z"/>
<path d="M9484 10966 c-30 -30 -50 -57 -45 -60 5 -3 7 -15 4 -26 -16 -60 31
-100 93 -80 53 18 45 41 -11 33 -36 -5 -46 -3 -51 11 -9 23 12 67 28 61 16 -6
77 30 84 50 4 8 3 26 0 40 -10 40 -42 31 -102 -29z m71 3 c-3 -8 -19 -22 -35
-31 l-30 -17 16 25 c16 23 45 46 52 40 1 -2 0 -9 -3 -17z"/>
<path d="M1674 10996 c-17 -8 -34 -21 -38 -31 -27 -71 43 -126 95 -74 16 16
19 30 16 67 -4 53 -20 61 -73 38z m46 -53 c8 -7 -16 -38 -33 -41 -17 -3 -32
31 -22 48 6 10 42 5 55 -7z"/>
<path d="M6388 10990 c-16 -13 -29 -17 -33 -10 -3 5 -11 10 -16 10 -15 0 -59
-102 -54 -125 3 -11 2 -14 -1 -7 -8 17 -76 -138 -69 -157 8 -21 27 1 60 69 20
42 33 59 43 55 21 -8 97 40 127 80 35 45 32 99 -5 102 -14 2 -37 -6 -52 -17z
m52 -29 c0 -20 -47 -74 -81 -91 -15 -9 -19 -7 -19 8 0 10 6 24 13 31 10 11 10
14 0 18 -21 7 -15 25 6 18 11 -3 28 3 42 14 30 26 39 26 39 2z"/>
<path d="M9720 10982 c-40 -34 -37 -53 16 -84 34 -20 35 -22 18 -35 -12 -9
-31 -12 -51 -8 -25 4 -33 2 -33 -8 0 -29 55 -35 100 -12 40 21 38 48 -5 81
-19 14 -35 30 -35 34 0 4 16 15 35 24 19 9 35 21 35 26 0 20 -47 9 -80 -18z"/>
<path d="M1806 10991 c-4 -5 -4 -16 0 -24 3 -8 -7 -28 -21 -45 -24 -29 -27
-52 -6 -52 5 0 29 18 55 41 l46 41 0 -45 c0 -52 18 -72 55 -63 32 8 34 39 3
34 -21 -3 -23 1 -23 52 0 45 -3 55 -18 58 -10 2 -24 -1 -31 -7 -10 -8 -17 -7
-26 4 -14 17 -26 19 -34 6z"/>
<path d="M10286 10988 c-2 -7 -11 -39 -21 -71 -10 -31 -15 -60 -12 -64 4 -3
29 15 56 40 47 44 71 57 71 40 0 -5 -5 -25 -11 -46 -8 -29 -7 -42 2 -53 22
-27 32 -9 35 63 4 83 -8 96 -62 64 l-33 -19 2 25 c2 27 -20 45 -27 21z"/>
<path d="M11390 10967 c-34 -13 -59 -31 -65 -45 -5 -12 -15 -22 -22 -22 -15 0
-17 -16 -3 -25 17 -10 45 3 55 27 9 20 105 68 105 52 0 -3 -20 -31 -45 -63
-43 -54 -57 -91 -35 -91 5 0 30 16 56 35 54 41 64 43 64 11 0 -35 25 -52 55
-38 28 13 49 51 59 105 6 29 4 37 -8 37 -9 0 -18 -12 -21 -27 -8 -37 -27 -76
-41 -80 -6 -2 -14 10 -18 28 -5 28 -9 31 -36 27 -29 -4 -30 -4 -15 16 23 32
28 45 21 61 -8 21 -41 18 -106 -8z"/>
<path d="M10154 10965 c-5 -11 -10 -13 -19 -5 -10 8 -25 3 -59 -21 -75 -53
-71 -96 7 -83 20 3 37 2 37 -3 0 -4 -9 -40 -21 -79 l-21 -71 -48 5 c-26 2 -57
-1 -69 -7 -46 -25 -8 -101 50 -101 18 0 37 11 57 34 25 29 38 35 78 38 65 4
72 28 9 28 -35 0 -46 3 -42 13 3 7 15 48 27 92 12 43 29 93 37 111 16 33 12
64 -7 64 -6 0 -13 -7 -16 -15z m-21 -56 c-10 -10 -73 -30 -73 -24 0 12 75 54
79 44 2 -6 -1 -15 -6 -20z m-89 -239 c18 0 18 -1 1 -20 -21 -24 -48 -26 -65
-5 -16 19 -2 38 24 31 11 -3 30 -6 40 -6z"/>
<path d="M5024 10938 c-29 -26 -35 -28 -26 -11 15 28 15 33 -2 33 -7 0 -21
-11 -30 -25 -9 -14 -14 -25 -11 -25 3 0 -6 -12 -20 -27 -22 -25 -34 -63 -19
-63 10 0 67 41 102 74 l33 31 -8 -30 c-4 -16 -8 -46 -8 -65 0 -31 3 -35 27
-38 29 -3 77 25 78 46 0 17 -25 15 -40 -3 -13 -16 -40 -21 -40 -7 0 5 7 32 16
61 25 86 8 102 -52 49z"/>
<path d="M5810 10930 c-43 -43 -49 -60 -25 -80 18 -15 58 -6 97 21 28 20 28
20 28 1 0 -25 25 -46 45 -38 19 7 20 26 0 26 -19 0 -19 3 6 52 30 59 12 70
-41 25 -40 -34 -101 -69 -108 -62 -10 9 21 44 48 53 16 6 30 18 30 26 0 29
-39 17 -80 -24z"/>
<path d="M8397 10952 c-45 -50 -75 -172 -42 -172 8 0 15 3 16 8 4 53 10 74 28
109 11 23 25 45 31 48 11 7 4 25 -9 25 -4 0 -15 -8 -24 -18z"/>
<path d="M8558 10953 c-32 -20 -37 -56 -13 -87 20 -27 19 -43 -5 -51 -22 -7
-50 14 -50 39 0 20 -14 21 -30 2 -9 -12 -7 -21 11 -45 26 -35 61 -40 97 -15
26 18 28 46 5 85 -20 34 -9 53 35 55 34 1 36 28 2 31 -14 2 -37 -5 -52 -14z"/>
<path d="M9906 10924 c-16 -47 -13 -68 6 -62 13 5 36 78 30 96 -7 23 -20 12
-36 -34z"/>
<path d="M12735 10961 c-3 -5 -1 -12 4 -15 5 -3 -2 -32 -15 -63 -27 -69 -17
-94 20 -48 15 18 20 33 14 36 -7 4 -6 9 1 13 6 4 11 4 11 0 0 -4 14 5 30 21
29 28 39 25 20 -5 -5 -9 -5 -19 2 -27 8 -10 20 -6 53 17 24 17 46 30 49 30 3
0 -1 -18 -10 -40 -9 -22 -14 -47 -10 -55 7 -20 46 -20 46 0 0 8 -4 15 -9 15
-5 0 -1 21 9 48 27 73 9 91 -55 52 l-32 -20 5 25 c6 32 -18 33 -60 4 l-30 -22
7 22 c5 18 2 21 -19 21 -14 0 -27 -4 -31 -9z"/>
<path d="M13990 10952 c-35 -17 -83 -77 -77 -96 9 -28 36 -29 86 -4 l51 25 0
-22 c0 -18 28 -57 31 -44 0 2 2 27 3 54 2 28 6 58 10 68 12 27 -17 21 -45 -9
-26 -28 -70 -54 -90 -54 -7 0 0 14 16 30 16 17 34 30 41 30 17 0 28 20 17 31
-5 5 -23 1 -43 -9z"/>
<path d="M14186 10945 c-25 -23 -56 -81 -56 -105 0 -31 49 9 50 41 0 24 43 59
73 59 15 0 27 6 27 13 0 8 4 7 11 -3 9 -13 10 -13 6 0 -2 9 -18 16 -43 18 -32
2 -46 -2 -68 -23z"/>
<path d="M7468 10927 c-30 -23 -43 -40 -43 -58 0 -19 5 -24 25 -23 14 0 35 4
48 8 17 6 22 4 22 -9 0 -24 33 -15 36 10 2 11 6 32 10 48 5 20 3 27 -9 27 -8
0 -17 7 -21 15 -8 22 -19 19 -68 -18z m42 -27 c-33 -26 -60 -26 -29 0 13 10
31 19 39 19 10 1 6 -6 -10 -19z"/>
<path d="M14821 10951 c-12 -8 -12 -12 2 -26 10 -9 17 -25 17 -36 0 -10 9 -28
19 -38 20 -20 19 -20 -28 -84 -56 -76 -108 -173 -99 -182 11 -12 25 3 58 63
34 60 191 275 210 287 13 8 4 25 -14 25 -7 0 -30 -25 -52 -55 -45 -61 -43 -61
-74 23 -13 34 -17 37 -39 23z"/>
<path d="M11681 10911 c-23 -44 -26 -67 -11 -76 8 -5 53 82 52 102 -1 23 -24
9 -41 -26z"/>
<path d="M13075 10907 c-28 -49 -31 -67 -13 -85 21 -21 56 -13 92 22 43 40 44
49 11 81 -36 37 -60 32 -90 -18z m75 -9 c0 -16 -41 -58 -57 -58 -17 0 -16 4 2
40 15 30 55 42 55 18z"/>
<path d="M13670 10936 c0 -24 -59 -76 -87 -76 -19 0 -24 4 -20 18 2 9 6 23 8
31 8 28 -20 21 -36 -9 -15 -30 -15 -33 1 -51 29 -32 77 -25 124 19 40 39 54
82 25 82 -8 0 -15 -6 -15 -14z"/>
<path d="M14386 10898 c-12 -72 -12 -83 3 -83 8 0 19 20 27 50 18 67 17 75 -5
75 -14 0 -20 -10 -25 -42z"/>
<path d="M2875 10881 c-11 -19 3 -28 35 -23 17 2 29 9 27 16 -5 15 -53 20 -62
7z"/>
<path d="M2648 10872 c-31 -6 -21 -32 12 -32 19 0 30 5 30 14 0 16 -18 24 -42
18z"/>
<path d="M2415 10860 c-9 -15 4 -30 26 -30 23 0 26 25 3 34 -21 8 -22 8 -29
-4z"/>
<path d="M4073 10758 c-4 -7 -23 -56 -41 -108 -18 -51 -37 -97 -43 -101 -6 -3
-26 -3 -44 1 -18 4 -39 4 -45 0 -23 -14 1 -30 44 -30 l43 0 -15 -54 c-17 -61
-11 -101 16 -108 23 -6 82 17 82 31 0 15 -23 26 -28 13 -5 -16 -52 -15 -52 1
0 7 7 37 15 65 13 44 20 52 40 52 33 0 75 17 75 31 0 8 -14 10 -45 6 l-45 -7
36 98 c19 53 36 101 37 106 3 14 -21 18 -30 4z"/>
<path d="M6734 10703 c-52 -53 -100 -146 -112 -214 -7 -39 -12 -46 -58 -70
-29 -14 -58 -29 -65 -31 -12 -5 -12 -8 -1 -19 8 -9 15 -10 20 -4 4 6 14 10 22
10 8 0 14 6 12 13 -1 8 2 11 8 7 5 -3 21 0 36 8 24 13 28 12 50 -10 18 -18 33
-23 57 -21 42 4 41 20 -2 29 -56 12 -55 27 10 93 94 96 114 129 114 195 0 50
-2 56 -22 59 -16 2 -36 -11 -69 -45z m66 -12 c0 -31 -18 -70 -49 -108 -16 -20
-28 -41 -27 -47 2 -6 1 -7 -2 -3 -2 5 -20 -6 -39 -25 -34 -32 -35 -32 -28 -8
15 53 64 146 95 178 35 37 50 40 50 13z"/>
<path d="M10526 10715 c-9 -14 -14 -30 -10 -36 6 -11 -7 -49 -49 -139 -11 -25
-21 -53 -22 -63 -1 -10 -11 -31 -23 -47 -27 -36 -27 -46 -3 -60 56 -30 140 2
182 69 47 73 33 105 -46 103 -25 0 -45 3 -45 7 0 4 14 44 30 90 28 77 31 101
11 101 -5 0 -16 -11 -25 -25z m74 -210 c0 -17 -33 -66 -60 -89 -30 -25 -74
-35 -83 -18 -9 14 30 96 49 103 22 9 94 11 94 4z"/>
<path d="M1694 10695 c-9 -23 1 -28 33 -18 34 12 33 27 -2 31 -16 2 -27 -2
-31 -13z"/>
<path d="M8358 10668 c-7 -13 -11 -27 -10 -32 2 -5 -19 -67 -45 -138 -46 -127
-47 -131 -28 -145 25 -18 156 -14 163 5 3 9 -15 12 -67 12 -58 0 -71 3 -71 16
0 8 23 76 50 150 28 74 48 139 45 144 -10 16 -23 11 -37 -12z"/>
<path d="M11410 10682 c0 -4 4 -12 10 -18 5 -5 6 -14 2 -19 -10 -15 -172 -135
-182 -135 -4 0 3 32 16 72 28 85 29 98 9 98 -8 0 -15 -6 -15 -13 0 -8 -20 -69
-45 -136 -25 -67 -45 -131 -45 -142 0 -33 27 -21 34 16 10 50 80 97 139 93
l42 -3 0 -59 c0 -74 19 -86 33 -20 13 61 0 102 -36 110 -15 3 -31 7 -35 8 -5
1 11 16 35 33 79 57 88 69 75 98 -11 23 -37 35 -37 17z"/>
<path d="M7147 10673 c-3 -5 -13 -37 -22 -73 -9 -36 -35 -101 -58 -146 -40
-80 -44 -120 -12 -108 8 4 14 11 13 18 -4 18 23 76 36 76 6 0 23 7 38 14 70
37 124 19 120 -39 -3 -43 17 -44 31 -2 11 35 -11 72 -55 90 l-32 13 40 28 c21
15 54 36 72 47 33 19 42 39 19 39 -18 0 -100 -53 -159 -103 -26 -22 -50 -38
-52 -36 -2 2 9 42 25 89 15 46 25 88 23 92 -6 10 -21 10 -27 1z"/>
<path d="M5040 10660 c0 -5 0 -11 0 -12 0 -2 -11 -36 -25 -77 -28 -84 -34
-181 -11 -181 8 0 29 14 46 31 36 36 43 35 32 -7 -10 -37 -5 -64 14 -64 9 0
14 11 14 29 0 16 5 42 10 57 7 19 7 30 -1 40 -17 20 -34 17 -68 -12 l-31 -26
0 29 c0 15 13 65 28 111 16 45 26 84 24 87 -9 9 -32 5 -32 -5z"/>
<path d="M2950 10640 c0 -13 38 -32 51 -25 14 10 -9 35 -32 35 -11 0 -19 -4
-19 -10z"/>
<path d="M2348 10614 c-37 -20 -78 -92 -78 -138 0 -90 70 -137 131 -87 28 22
18 41 -11 23 -30 -18 -57 -14 -74 10 -23 33 -21 57 4 51 22 -6 83 49 109 100
26 49 -22 74 -81 41z m52 -24 c0 -16 -61 -80 -76 -80 -23 0 -16 20 20 56 33
33 56 43 56 24z"/>
<path d="M2755 10607 c-20 -15 -18 -38 8 -98 13 -30 14 -39 3 -54 -15 -21 -36
-12 -36 16 0 10 -7 19 -15 19 -22 0 -19 -43 4 -64 27 -25 63 -17 80 18 12 26
11 34 -8 79 -21 50 -21 50 -1 64 21 15 19 33 -4 33 -7 0 -20 -6 -31 -13z"/>
<path d="M10910 10586 c0 -18 30 -30 43 -17 5 5 6 14 3 20 -10 16 -46 13 -46
-3z"/>
<path d="M1808 10583 c-9 -2 -20 -13 -23 -23 -6 -19 16 -73 35 -85 14 -9 12
-42 -2 -48 -22 -7 -36 4 -30 25 4 16 1 19 -14 16 -29 -5 -25 -49 7 -67 24 -13
29 -13 53 2 32 22 35 63 5 101 -11 15 -18 33 -15 41 6 17 52 20 61 5 5 -8 11
-7 21 1 33 27 -34 49 -98 32z"/>
<path d="M11625 10583 c-26 -6 -55 -32 -55 -49 0 -7 14 -29 30 -47 35 -41 36
-48 10 -72 -28 -26 -66 -13 -73 25 -5 21 -12 30 -27 30 -23 0 -24 -7 -10 -46
23 -58 92 -73 135 -29 32 31 32 69 0 97 -14 12 -25 30 -25 41 0 16 5 18 28 14
34 -7 57 6 49 27 -6 16 -23 18 -62 9z"/>
<path d="M3289 10543 c-18 -21 -40 -38 -48 -38 -11 0 -18 -13 -22 -45 -4 -25
-5 -48 -2 -52 8 -14 23 -8 30 10 4 9 21 41 40 70 26 41 38 52 58 52 15 0 24
-4 20 -10 -3 -5 -1 -10 4 -10 15 0 14 33 -1 48 -21 21 -45 13 -79 -25z"/>
<path d="M6927 10564 c-13 -13 -7 -24 14 -24 11 0 19 5 17 12 -5 14 -22 21
-31 12z"/>
<path d="M2508 10549 c-27 -15 -60 -77 -53 -99 9 -27 34 -25 76 5 31 23 34 24
37 8 9 -57 13 -63 37 -63 28 0 34 17 9 27 -12 4 -15 18 -12 66 l3 61 -40 2
c-22 2 -48 -1 -57 -7z m42 -27 c0 -12 -59 -66 -65 -60 -7 7 43 68 56 68 5 0 9
-4 9 -8z"/>
<path d="M3015 10514 c-41 -55 -45 -91 -12 -122 26 -25 64 -27 116 -8 48 17
55 41 10 32 -87 -18 -95 -18 -108 -2 -8 9 -11 26 -7 38 8 29 53 84 61 76 10
-10 -14 -48 -30 -48 -8 0 -15 -7 -15 -16 0 -24 40 -13 63 18 26 35 17 78 -18
78 -17 0 -34 -14 -60 -46z"/>
<path d="M8575 10529 c-50 -37 -85 -79 -85 -101 0 -28 40 -48 98 -48 54 0 97
14 87 29 -2 5 -33 6 -68 4 -48 -4 -65 -2 -75 10 -10 12 -7 15 20 21 18 4 50
18 71 32 31 20 37 29 31 47 -6 20 -22 37 -34 36 -3 0 -23 -14 -45 -30z m29
-34 c-10 -8 -23 -14 -29 -14 -5 -1 1 8 15 19 14 10 27 17 29 14 3 -2 -4 -11
-15 -19z"/>
<path d="M1621 10541 c-20 -13 -28 -135 -11 -156 25 -30 106 -3 83 27 -6 7 -9
21 -8 31 4 22 -8 22 -28 -1 -13 -15 -14 -21 -4 -31 10 -11 9 -13 -3 -9 -22 7
-26 91 -5 108 32 26 11 53 -24 31z"/>
<path d="M5894 10516 c-22 -12 -48 -38 -59 -58 l-20 -37 21 -28 c17 -23 30
-29 71 -31 51 -3 111 13 99 26 -4 4 -37 7 -73 7 -44 0 -68 4 -70 13 -3 7 4 12
17 12 33 0 88 29 95 51 7 21 -8 54 -28 62 -8 3 -31 -5 -53 -17z m48 -31 c0 -6
-9 -15 -21 -21 -11 -6 -18 -13 -15 -17 3 -3 -4 -3 -17 0 l-22 6 27 24 c28 24
47 27 48 8z"/>
<path d="M10990 10511 c-33 -33 -48 -77 -33 -100 12 -20 84 -27 113 -11 32 17
14 30 -34 24 -52 -8 -63 4 -42 45 16 30 48 47 66 36 17 -11 32 5 19 21 -19 23
-58 16 -89 -15z"/>
<path d="M2893 10522 c-17 -11 -55 -102 -49 -118 9 -25 36 -16 36 11 0 14 9
43 20 65 19 37 16 56 -7 42z"/>
<path d="M4744 10486 c-49 -49 -56 -84 -24 -116 25 -25 61 -34 104 -26 33 6
64 31 54 42 -3 2 -26 -1 -51 -7 -39 -11 -48 -10 -71 4 -33 22 -33 39 2 78 25
29 30 30 50 18 27 -17 35 -9 23 25 -15 37 -37 33 -87 -18z"/>
<path d="M7458 10523 c-32 -5 -76 -47 -94 -90 -18 -42 -18 -49 6 -73 21 -21
40 -20 138 6 35 10 52 20 52 30 0 12 -6 15 -22 9 -106 -32 -148 -33 -148 -5 0
15 7 20 28 20 58 0 127 65 101 96 -6 8 -17 13 -23 13 -6 -1 -23 -4 -38 -6z m3
-53 c-13 -11 -30 -20 -39 -20 -13 0 -12 3 3 20 10 11 28 20 39 20 20 -1 20 -1
-3 -20z"/>
<path d="M8754 10496 c-19 -19 -34 -44 -34 -55 0 -27 35 -41 74 -30 16 5 31 7
33 5 5 -5 -23 -125 -30 -132 -3 -3 -19 2 -36 10 -69 36 -111 7 -111 -80 0 -87
26 -117 80 -89 27 14 93 106 96 135 1 8 9 42 18 75 9 32 16 68 16 80 0 11 7
29 15 39 22 29 18 49 -12 64 -44 20 -73 14 -109 -22z m84 -17 c3 -18 -46 -43
-75 -37 -16 3 -15 7 10 31 29 30 60 32 65 6z m-88 -214 c35 -18 34 -17 16 -53
-20 -38 -53 -65 -71 -59 -19 8 -21 97 -3 115 16 16 23 15 58 -3z"/>
<path d="M9008 10518 c-48 -40 -64 -109 -28 -128 37 -20 120 14 120 50 0 16
-59 90 -72 90 -2 0 -11 -6 -20 -12z m47 -58 c21 -23 19 -27 -24 -40 -37 -10
-50 5 -31 39 14 26 32 27 55 1z"/>
<path d="M5208 10497 c-31 -25 -50 -68 -39 -86 9 -14 37 -17 67 -7 17 5 23 2
27 -14 7 -28 37 -26 35 3 -1 12 2 36 6 54 10 44 -9 51 -43 14 -27 -29 -61 -42
-61 -23 0 13 43 50 63 54 26 4 22 23 -5 25 -13 2 -35 -7 -50 -20z"/>
<path d="M10673 10499 c-32 -20 -73 -75 -73 -98 0 -21 27 -11 41 15 24 46 68
76 101 69 28 -7 29 -6 19 14 -15 27 -47 27 -88 0z"/>
<path d="M5435 10500 c-4 -6 -16 -10 -28 -8 -18 2 -27 -7 -45 -46 -35 -73 -15
-79 47 -15 64 67 81 59 56 -26 -18 -64 -13 -81 15 -47 24 29 36 103 21 131
-12 22 -55 29 -66 11z"/>
<path d="M4192 10493 c-26 -5 -62 -57 -62 -90 0 -32 33 -47 74 -33 43 14 62
49 50 92 -10 33 -21 39 -62 31z m36 -62 c-4 -20 -50 -43 -62 -31 -16 16 20 59
44 53 12 -3 20 -12 18 -22z"/>
<path d="M10826 10483 c-3 -3 -6 -17 -6 -29 0 -13 -4 -26 -10 -29 -12 -8 -13
-45 -1 -45 15 0 32 27 38 63 5 32 -6 54 -21 40z"/>
<path d="M5653 10467 c-32 -17 -73 -60 -73 -77 0 -40 68 -54 123 -26 l27 15 0
-42 c0 -23 -3 -59 -6 -79 -6 -37 -7 -38 -44 -32 -68 11 -130 -44 -130 -116 0
-44 47 -109 79 -110 24 0 81 70 92 115 9 35 14 42 30 38 15 -4 19 0 19 21 0
15 -6 26 -14 26 -10 0 -12 9 -5 43 9 48 11 162 3 193 -7 25 -73 46 -101 31z
m42 -37 c4 -6 11 -8 16 -5 15 10 10 -11 -5 -24 -20 -17 -82 -25 -90 -13 -7 12
39 52 60 52 7 0 16 -5 19 -10z m11 -243 c7 -7 -19 -84 -38 -114 -25 -41 -53
-42 -73 -3 -22 43 -19 68 15 102 26 25 36 29 62 24 17 -3 33 -8 34 -9z"/>
<path d="M6836 10426 c-16 -43 -13 -80 7 -73 11 3 38 98 30 109 -10 17 -21 6
-37 -36z"/>
<path d="M6071 10421 c-9 -15 -6 -22 14 -35 32 -21 47 -20 43 2 -2 10 -12 17
-26 16 -17 0 -21 4 -16 18 7 24 -2 23 -15 -1z"/>
<path d="M11701 10386 c-7 -9 -8 -17 -2 -20 14 -9 41 4 41 20 0 18 -24 18 -39
0z"/>
<path d="M3443 9798 c-44 -68 -107 -163 -138 -213 -32 -49 -62 -91 -67 -93
-14 -6 -9 -32 7 -32 8 0 33 28 56 63 l40 62 70 0 69 0 -6 -35 c-4 -19 -10 -39
-15 -44 -12 -13 -11 -36 0 -36 20 0 39 31 46 77 4 29 14 53 26 61 21 14 25 32
8 32 -5 0 -7 -6 -3 -12 5 -9 4 -10 -4 -3 -7 7 -7 40 -1 105 14 149 15 183 3
187 -6 2 -47 -52 -91 -119z m63 -13 c-3 -30 -9 -79 -12 -109 l-5 -54 -51 -7
c-30 -4 -54 -3 -60 3 -7 7 12 44 58 116 38 58 70 106 72 106 2 0 1 -25 -2 -55z"/>
<path d="M9217 9913 c-4 -3 -7 -15 -7 -27 0 -30 -50 -187 -63 -200 -13 -12
-15 -12 -77 -14 -26 -1 -43 -7 -47 -17 -9 -24 0 -26 55 -13 29 6 55 9 58 6 3
-4 -8 -50 -26 -103 -17 -54 -29 -100 -26 -103 16 -15 34 17 60 106 27 99 29
101 60 104 36 3 42 21 9 26 -13 2 -23 7 -23 11 0 5 14 52 30 106 17 54 30 104
30 111 0 14 -22 19 -33 7z"/>
<path d="M9402 9901 c-8 -4 -13 -10 -11 -12 3 -5 -33 -115 -84 -257 -31 -87
-38 -115 -29 -124 10 -10 22 -1 56 35 23 26 46 47 50 47 4 0 6 -24 4 -52 -2
-42 0 -53 12 -53 12 0 15 14 15 65 0 55 -3 65 -19 68 -10 2 -31 -5 -46 -17
l-28 -20 50 142 c62 177 66 201 30 178z"/>
<path d="M5812 9870 c-22 -18 -30 -40 -14 -40 5 0 -15 -71 -45 -157 -29 -87
-53 -166 -53 -175 0 -28 28 -21 44 10 8 15 29 43 47 62 29 30 34 32 37 16 2
-10 -1 -29 -8 -41 -14 -26 -10 -57 7 -62 15 -5 35 67 31 110 -4 46 -45 50 -82
7 -14 -17 -26 -30 -26 -28 0 2 23 66 50 143 28 77 50 145 50 152 0 21 -14 22
-38 3z"/>
<path d="M6309 9883 c-1 -4 -1 -16 0 -25 1 -10 -3 -27 -9 -39 -10 -17 -9 -23
1 -30 11 -7 11 -9 -2 -9 -10 0 -21 -16 -29 -41 -16 -49 -19 -50 -89 -58 -41
-4 -57 -10 -59 -23 -3 -15 4 -16 52 -11 60 6 61 5 46 -47 -15 -51 -3 -107 26
-127 21 -13 31 -14 65 -4 25 8 37 16 33 23 -5 8 -1 9 9 5 10 -3 17 -2 17 3 0
13 -16 13 -58 1 -43 -13 -59 -6 -66 29 -5 27 18 130 30 130 23 0 152 24 164
30 28 16 -17 23 -85 13 -76 -11 -76 -10 -41 70 32 72 37 110 14 115 -10 2 -19
0 -19 -5z"/>
<path d="M7036 9844 c-3 -25 -28 -100 -55 -167 -62 -156 -69 -187 -44 -187 11
0 27 14 37 33 41 71 107 118 92 65 -18 -62 -19 -88 -2 -88 9 0 16 8 16 17 0
10 8 37 17 61 16 43 16 45 -2 58 -23 17 -52 10 -87 -24 l-28 -26 26 65 c30 74
58 160 69 207 6 27 4 32 -13 32 -15 0 -21 -9 -26 -46z"/>
<path d="M13715 9859 c-4 -17 -26 -74 -50 -127 -58 -132 -97 -243 -91 -259 10
-25 36 -14 36 15 0 29 14 68 89 244 48 113 58 158 37 158 -8 0 -17 -14 -21
-31z"/>
<path d="M5622 9854 c-5 -11 -13 -41 -16 -69 -11 -75 -37 -165 -50 -167 -6 -1
-36 -2 -66 -2 -41 -1 -55 -5 -55 -15 0 -10 15 -15 54 -18 30 -1 57 -5 59 -8 3
-3 -2 -29 -11 -59 -20 -62 -22 -89 -5 -84 6 2 23 40 37 84 20 60 31 80 46 82
19 4 54 38 55 55 0 14 -41 7 -46 -8 -4 -8 -10 -15 -15 -15 -4 0 -2 21 5 48 28
98 39 173 28 184 -7 7 -13 5 -20 -8z"/>
<path d="M2653 9848 c-4 -7 -17 -38 -28 -68 l-20 -55 -50 0 c-28 1 -66 3 -85
5 -26 4 -35 1 -35 -9 0 -16 28 -26 97 -36 l48 -6 -23 -39 c-12 -22 -32 -45
-44 -51 -26 -14 -40 -59 -22 -70 17 -10 37 2 52 30 7 12 35 36 64 52 l52 30
10 -38 c14 -51 38 -83 63 -83 18 0 19 4 13 38 -3 20 -14 53 -24 72 l-18 36 96
64 c53 35 98 65 100 67 3 2 0 8 -7 15 -8 8 -17 7 -34 -4 -20 -13 -154 -58
-172 -58 -3 0 -6 24 -6 54 0 55 -11 77 -27 54z m71 -143 c-22 -17 -34 -19 -34
-6 0 5 8 12 18 14 32 9 36 7 16 -8z m-84 -44 c0 -4 -11 -13 -25 -19 -23 -11
-24 -10 -13 13 9 21 38 25 38 6z"/>
<path d="M13179 9803 c-12 -27 -37 -88 -56 -136 -20 -49 -46 -101 -59 -117
-38 -45 -29 -71 29 -85 56 -14 147 45 147 96 0 26 -22 59 -39 59 -4 0 -26 -14
-49 -31 l-41 -30 44 105 c24 58 49 114 54 125 14 25 14 61 1 61 -6 0 -20 -21
-31 -47z m29 -245 c-3 -22 -46 -53 -82 -60 -14 -2 -19 4 -22 22 -1 14 0 19 3
12 4 -10 8 -10 19 -1 8 6 11 16 7 22 -3 5 -2 8 3 4 5 -3 20 1 34 9 35 19 42
17 38 -8z"/>
<path d="M14006 9784 c-15 -31 -34 -79 -44 -106 -13 -37 -23 -50 -42 -55 -32
-7 -90 -42 -90 -54 0 -14 28 -11 55 7 40 26 44 12 17 -53 -14 -35 -23 -66 -19
-69 13 -13 36 18 58 81 24 68 33 75 102 75 26 0 37 4 37 15 0 17 -8 19 -63 16
-41 -3 -41 -8 -3 82 9 20 14 37 10 37 -3 0 2 7 10 16 17 17 22 64 7 64 -5 0
-21 -25 -35 -56z"/>
<path d="M4399 9828 c0 -1 -3 -19 -6 -38 -2 -19 -22 -87 -44 -150 -45 -130
-62 -240 -37 -240 11 0 17 16 21 58 4 31 25 110 47 174 43 125 53 188 33 195
-7 3 -13 3 -14 1z"/>
<path d="M12982 9753 c5 -25 28 -28 28 -4 0 12 -6 21 -16 21 -9 0 -14 -7 -12
-17z"/>
<path d="M13495 9760 c-4 -6 -3 -14 0 -20 9 -15 35 -12 35 4 0 17 -27 29 -35
16z"/>
<path d="M14685 9760 c-8 -13 14 -52 26 -45 14 9 11 42 -6 48 -8 4 -17 2 -20
-3z"/>
<path d="M13802 9696 c1 -10 8 -17 13 -17 15 1 12 24 -3 29 -9 3 -13 -2 -10
-12z"/>
<path d="M10516 9675 c-43 -29 -46 -30 -46 -10 0 8 -7 15 -15 15 -8 0 -15 -8
-15 -17 0 -10 -11 -42 -25 -71 -21 -45 -22 -54 -9 -59 9 -3 21 3 31 18 24 35
103 113 108 107 3 -3 0 -19 -6 -36 -15 -44 -8 -86 15 -90 16 -4 18 0 13 27 -4
17 0 48 9 73 25 71 4 86 -60 43z"/>
<path d="M10300 9672 c-39 -19 -80 -74 -80 -107 0 -31 34 -59 62 -52 65 17
123 143 78 167 -23 12 -19 13 -60 -8z m38 -66 c-3 -22 -65 -69 -80 -60 -13 8
1 45 30 76 20 22 28 25 39 16 8 -6 13 -20 11 -32z"/>
<path d="M11396 9671 c-10 -11 -27 -21 -38 -23 -15 -2 -29 -25 -54 -88 -39
-98 -39 -100 -19 -100 9 0 29 27 47 66 42 88 89 138 122 130 19 -5 24 -2 22
12 -4 26 -57 28 -80 3z"/>
<path d="M7408 9659 c-44 -22 -48 -45 -19 -93 14 -22 16 -37 10 -53 -9 -25
-24 -30 -35 -12 -4 8 -9 7 -15 -2 -10 -17 8 -39 31 -39 20 0 45 26 55 58 4 15
0 34 -14 58 -25 41 -21 51 22 62 33 8 44 35 17 39 -8 1 -32 -7 -52 -18z"/>
<path d="M7816 9608 c-51 -133 -45 -179 13 -94 22 32 27 46 19 54 -9 9 -8 21
5 47 20 43 22 65 4 65 -7 0 -25 -33 -41 -72z"/>
<path d="M8324 9647 c-49 -45 -88 -157 -55 -157 4 0 20 29 36 65 28 68 54 91
93 86 24 -3 29 8 10 27 -20 20 -47 14 -84 -21z"/>
<path d="M8498 9660 c-72 -38 -101 -117 -58 -160 26 -26 65 -25 135 1 46 17
54 23 44 35 -9 11 -8 14 6 14 10 0 16 3 12 6 -3 4 -25 -3 -49 -15 -60 -28
-105 -36 -123 -21 -25 21 -17 37 20 43 48 8 105 44 105 67 0 16 -35 51 -50 50
-3 -1 -22 -10 -42 -20z m47 -39 c-11 -10 -33 -21 -50 -25 l-30 -6 28 25 c15
14 38 25 50 25 21 0 21 0 2 -19z"/>
<path d="M10699 9665 c-43 -23 -79 -78 -73 -111 8 -44 26 -57 81 -56 60 2 143
21 143 34 0 5 -4 7 -9 3 -5 -3 -12 -1 -15 4 -3 5 -22 5 -43 1 -21 -5 -56 -10
-78 -12 -35 -3 -40 0 -43 19 -2 17 3 23 28 28 73 16 127 106 63 105 -16 -1
-40 -7 -54 -15z m32 -35 c-13 -11 -28 -20 -35 -20 -6 1 0 10 13 20 13 11 28
20 35 20 6 -1 0 -10 -13 -20z"/>
<path d="M7887 9632 c-52 -53 -51 -87 1 -39 l25 22 -12 -22 c-6 -12 -11 -26
-11 -32 0 -17 40 -13 46 4 4 8 14 15 23 15 14 0 18 -9 17 -42 -1 -32 3 -43 14
-43 10 0 15 10 16 30 0 17 4 47 8 68 9 41 -4 49 -40 22 -27 -20 -37 -19 -24 4
31 60 -9 68 -63 13z"/>
<path d="M12037 9646 c-24 -16 -38 -21 -45 -14 -15 15 -32 0 -32 -28 0 -13
-11 -41 -24 -62 -33 -49 -88 -189 -84 -210 6 -34 21 -15 62 75 29 66 43 88 49
78 18 -33 67 -8 115 58 37 53 49 92 32 112 -17 21 -32 19 -73 -9z m46 -36 c-9
-35 -78 -104 -96 -97 -26 10 -20 26 27 73 47 47 78 58 69 24z"/>
<path d="M14803 9652 c-93 -30 -114 -67 -52 -92 16 -7 29 -16 29 -21 0 -16
-42 -30 -83 -27 -32 2 -42 -1 -42 -12 0 -11 13 -16 44 -18 102 -7 161 65 80
99 -36 14 -28 22 49 45 29 9 51 21 49 27 -5 17 -18 17 -74 -1z"/>
<path d="M12713 9641 c-38 -24 -41 -45 -13 -81 11 -14 20 -33 20 -42 0 -25
-46 -35 -69 -14 -22 20 -41 21 -41 2 0 -21 39 -46 71 -46 29 0 79 34 79 54 0
7 -11 30 -25 51 -15 20 -25 38 -23 40 18 15 52 24 70 20 24 -5 57 9 46 20 -18
18 -84 15 -115 -4z"/>
<path d="M7176 9631 c-27 -29 -46 -93 -35 -113 11 -21 22 -22 51 -7 17 9 23 8
30 -5 14 -25 28 -19 28 14 0 16 5 41 12 55 8 18 8 29 2 33 -6 4 -13 15 -17 25
-9 23 -49 22 -71 -2z m38 -63 c-15 -15 -31 -28 -36 -28 -15 0 -8 27 13 54 17
22 24 24 35 15 13 -10 11 -16 -12 -41z"/>
<path d="M11560 9624 c-77 -55 -88 -71 -80 -116 9 -48 27 -64 80 -73 43 -7
100 16 100 40 0 19 -15 19 -45 -1 -19 -12 -31 -13 -64 -4 -34 9 -41 15 -41 35
0 22 5 25 34 25 64 0 120 72 84 108 -17 17 -28 14 -68 -14z m40 -34 c-11 -20
-56 -38 -67 -26 -3 3 6 10 20 15 14 5 28 15 32 20 12 20 26 12 15 -9z"/>
<path d="M4865 9626 c-58 -25 -61 -40 -21 -89 37 -45 37 -57 3 -57 -16 0 -17
2 -7 15 20 24 -1 38 -28 19 -12 -8 -22 -19 -22 -24 0 -19 33 -40 64 -40 62 0
75 48 25 96 -30 29 -30 29 -10 46 12 9 29 14 40 11 23 -6 39 16 20 28 -18 11
-28 11 -64 -5z"/>
<path d="M5929 9619 c-27 -27 -50 -84 -43 -103 7 -18 49 -22 59 -6 11 17 20
11 32 -21 13 -34 38 -31 29 5 -2 11 1 38 9 59 12 36 12 41 -8 63 -25 30 -50
31 -78 3z m44 -51 c-46 -51 -74 -37 -32 16 17 21 24 24 35 15 12 -10 12 -15
-3 -31z"/>
<path d="M9656 9632 c-3 -5 -9 -26 -14 -48 -6 -21 -13 -47 -17 -56 -13 -32 16
-19 55 25 l39 42 -2 -45 c-2 -42 0 -45 23 -45 20 0 24 4 21 20 -2 11 -3 39 -2
63 1 47 -16 55 -57 26 -22 -15 -23 -15 -20 1 3 19 -16 32 -26 17z"/>
<path d="M11805 9630 c-32 -13 -65 -49 -65 -71 0 -11 10 -30 23 -43 l23 -23
-43 -9 c-24 -5 -45 -13 -46 -19 -5 -28 131 -6 141 22 2 7 -10 21 -27 30 -17
10 -33 24 -36 32 -8 20 20 45 53 47 19 0 27 6 27 20 0 21 -20 27 -50 14z"/>
<path d="M12463 9620 c-18 -11 -39 -17 -48 -14 -10 4 -18 -3 -26 -22 -6 -16
-21 -43 -35 -61 -13 -17 -24 -36 -24 -42 0 -25 30 -7 87 54 34 36 66 65 72 65
6 0 0 -25 -14 -56 -19 -43 -22 -60 -14 -70 20 -24 39 -16 38 14 -1 15 7 48 16
73 29 74 9 97 -52 59z"/>
<path d="M14600 9624 c0 -9 -13 -39 -30 -66 -33 -54 -37 -68 -16 -68 16 0 65
81 73 123 4 20 2 27 -11 27 -9 0 -16 -7 -16 -16z"/>
<path d="M4683 9615 c-33 -23 -31 -74 3 -109 22 -22 24 -26 9 -26 -10 0 -24 8
-31 18 -12 16 -13 16 -19 -1 -16 -39 48 -64 89 -34 21 15 13 40 -20 62 -42 27
-27 69 26 77 14 1 25 8 25 13 0 17 -59 17 -82 0z"/>
<path d="M13386 9608 c-9 -12 -16 -28 -16 -35 0 -7 -7 -28 -16 -47 -18 -36
-12 -78 7 -59 6 6 12 17 13 24 2 8 8 27 14 42 7 16 12 33 12 38 0 5 12 14 26
19 22 9 24 13 14 25 -18 21 -36 19 -54 -7z"/>
<path d="M14136 9568 l-46 -62 0 42 c0 31 -4 42 -15 42 -12 0 -15 -14 -15 -63
0 -59 -3 -66 -51 -132 -46 -64 -89 -136 -89 -150 0 -3 7 -5 15 -5 8 0 22 15
31 33 21 40 208 299 229 317 19 16 19 26 1 33 -10 4 -31 -15 -60 -55z"/>
<path d="M8122 9597 c-46 -49 -37 -136 12 -121 39 12 57 44 54 94 -2 36 -7 46
-23 48 -12 2 -31 -8 -43 -21z m27 -73 c-30 -36 -41 5 -11 46 l17 25 3 -28 c2
-16 -2 -35 -9 -43z"/>
<path d="M9486 9599 c-32 -25 -60 -75 -52 -95 7 -18 40 -18 76 1 25 13 29 13
34 0 6 -18 32 -20 42 -4 3 6 1 15 -6 19 -9 5 -9 9 -1 14 6 4 15 16 21 26 8 15
4 22 -24 39 -42 26 -57 26 -90 0z m64 -19 c17 -11 16 -12 -37 -39 -48 -24 -56
-13 -18 24 27 27 33 29 55 15z"/>
<path d="M12243 9609 c-41 -12 -63 -44 -63 -91 0 -38 19 -58 55 -58 29 0 85
65 85 97 0 25 -26 65 -41 62 -2 0 -18 -5 -36 -10z m45 -51 c3 -18 -47 -70 -63
-65 -17 6 -17 54 1 71 20 21 58 17 62 -6z"/>
<path d="M4011 9574 c-23 -20 -41 -43 -41 -51 0 -27 32 -63 64 -72 44 -11 111
0 111 19 0 17 -35 15 -48 -3 -6 -9 -10 -9 -14 1 -2 6 -15 12 -27 12 -13 0 -31
9 -42 21 -19 21 -18 21 14 50 23 21 43 29 68 29 48 0 40 24 -9 28 -29 3 -43
-3 -76 -34z"/>
<path d="M4469 9581 c-52 -53 -31 -108 32 -84 26 10 29 9 38 -19 9 -25 15 -29
43 -26 36 3 41 21 7 26 -20 3 -21 8 -17 59 4 51 3 55 -19 64 -38 14 -53 11
-84 -20z m61 -15 c0 -14 -36 -46 -52 -46 -14 0 -8 20 12 40 24 24 40 26 40 6z"/>
<path d="M13686 9554 c-25 -53 -26 -74 -6 -74 5 0 18 20 29 44 31 72 34 86 17
86 -8 0 -26 -24 -40 -56z"/>
<path d="M12872 9549 c-21 -50 -21 -69 -2 -69 10 0 36 55 46 97 12 45 -22 24
-44 -28z"/>
<path d="M1996 9448 c-29 -33 -45 -70 -73 -160 l-36 -116 -44 -11 c-26 -7 -43
-17 -43 -26 0 -18 9 -19 45 -5 24 9 26 8 19 -12 -3 -13 -13 -38 -20 -57 -17
-42 -18 -51 -1 -51 8 0 26 32 41 70 24 60 33 73 62 85 42 17 46 40 5 32 l-28
-6 28 90 c31 98 60 153 90 169 15 8 19 7 19 -5 0 -8 7 -15 16 -15 11 0 14 8
12 28 -2 21 -9 28 -29 30 -21 2 -35 -6 -63 -40z"/>
<path d="M2213 9469 c-56 -36 -108 -138 -137 -270 -5 -21 -15 -29 -51 -39 -25
-7 -45 -19 -45 -26 0 -16 19 -18 54 -5 l24 10 -25 -57 c-14 -31 -30 -63 -36
-70 -5 -7 -7 -16 -3 -19 15 -15 40 15 70 82 17 39 41 78 53 88 22 17 23 44 2
32 -23 -15 8 99 46 167 36 65 68 92 99 84 21 -5 26 -3 26 13 0 17 -18 31 -38
31 -4 0 -22 -10 -39 -21z"/>
<path d="M3063 9478 c-4 -7 -8 -15 -8 -18 0 -3 -16 -60 -35 -127 l-34 -122
-35 -6 c-59 -11 -106 -34 -94 -46 7 -7 26 -6 62 5 28 8 51 14 51 13 -1 -1 -11
-36 -23 -77 -15 -50 -27 -75 -37 -75 -8 0 -15 -9 -15 -20 0 -14 8 -21 26 -23
22 -3 28 2 33 25 4 15 16 61 28 101 21 71 21 72 55 72 39 0 42 23 4 28 -16 3
-21 9 -18 20 3 9 14 52 26 96 12 43 28 94 36 113 15 34 13 53 -5 53 -5 0 -12
-6 -17 -12z"/>
<path d="M3686 9452 c-11 -13 -14 -28 -11 -48 4 -19 -4 -55 -23 -104 -32 -81
-29 -79 -134 -95 -24 -4 -38 -11 -38 -20 0 -12 12 -13 61 -8 60 6 61 6 50 -15
-18 -33 -61 -158 -61 -176 0 -39 27 -10 43 47 27 94 67 161 97 165 51 6 71 13
67 25 -2 7 -18 11 -42 9 -33 -3 -37 -2 -31 15 22 55 66 193 66 207 0 22 -23
20 -44 -2z"/>
<path d="M1624 9415 c-3 -14 -4 -50 0 -80 13 -125 -62 -321 -116 -300 -17 7
-11 62 10 102 15 27 52 50 52 32 0 -8 4 -8 15 1 12 10 13 16 4 26 -18 22 -43
17 -71 -13 -37 -40 -48 -66 -48 -112 0 -32 5 -44 25 -57 34 -22 57 -11 92 44
51 78 66 136 67 247 1 88 4 100 19 103 26 5 15 26 -16 30 -21 3 -28 -2 -33
-23z"/>
<path d="M10447 9413 c-2 -5 -12 -33 -22 -63 -20 -63 -73 -172 -87 -181 -5 -3
-9 -9 -8 -13 1 -3 -8 -32 -20 -63 -11 -31 -19 -62 -16 -70 6 -15 26 -18 26 -3
0 5 9 34 21 65 20 54 21 55 61 55 45 0 49 21 6 30 l-25 5 35 75 c19 41 35 87
36 102 0 16 4 28 9 28 10 0 9 28 -2 35 -5 3 -12 2 -14 -2z"/>
<path d="M1801 9376 c-10 -12 -8 -17 9 -26 28 -15 43 -4 30 21 -13 23 -23 24
-39 5z"/>
<path d="M14271 9369 c-13 -15 -26 -53 -37 -119 l-17 -97 -47 -17 c-65 -23
-87 -41 -95 -76 -8 -39 8 -60 46 -60 78 0 108 48 139 220 17 94 25 119 45 138
30 28 31 32 5 32 -10 0 -28 -10 -39 -21z m-73 -279 c-12 -35 -43 -60 -75 -60
-26 0 -27 3 -12 31 8 16 53 43 96 58 1 1 -3 -13 -9 -29z"/>
<path d="M2795 9368 c-2 -7 -22 -67 -45 -132 -29 -86 -40 -133 -38 -165 4 -60
28 -68 27 -9 -1 27 16 90 43 168 43 119 48 150 27 150 -5 0 -11 -6 -14 -12z"/>
<path d="M6703 9363 c-24 -2 -43 -7 -43 -11 0 -4 -28 -7 -62 -7 -41 0 -63 -4
-66 -13 -3 -10 16 -12 93 -8 88 4 96 3 90 -12 -38 -91 -106 -306 -101 -319 9
-23 22 -7 39 52 9 28 32 95 52 150 20 55 38 111 38 124 2 23 3 23 79 18 80 -5
109 5 63 23 -25 10 -94 11 -182 3z"/>
<path d="M10113 9292 c-12 -42 -37 -111 -56 -152 -34 -74 -41 -96 -38 -132 2
-33 31 -20 31 13 0 17 18 71 40 120 22 49 41 97 43 107 1 9 6 22 9 28 4 6 10
30 14 52 5 32 3 42 -7 42 -9 0 -22 -29 -36 -78z"/>
<path d="M6934 9343 c3 -10 -19 -78 -49 -152 -30 -73 -55 -142 -55 -152 0 -25
27 -24 35 0 7 23 84 95 92 87 4 -3 -2 -23 -11 -45 -19 -42 -19 -72 2 -79 7 -2
12 6 12 20 1 13 7 34 15 48 19 34 19 79 -1 87 -8 3 -27 0 -41 -6 -14 -6 -27
-10 -29 -8 -2 2 13 44 33 94 20 50 33 98 30 107 -9 23 -40 21 -33 -1z"/>
<path d="M9708 9318 c-9 -24 -39 -95 -67 -158 -28 -63 -50 -124 -49 -134 4
-26 54 -40 92 -24 31 13 86 81 86 108 0 38 -39 48 -93 25 -19 -8 -19 -6 22 88
11 26 20 50 20 54 0 3 4 9 10 12 6 4 14 21 17 39 10 49 -18 41 -38 -10z m32
-206 c0 -11 -30 -55 -48 -69 -21 -17 -62 -17 -62 0 0 23 68 76 98 77 6 0 12
-3 12 -8z"/>
<path d="M12960 9333 c0 -10 -11 -47 -24 -83 -23 -63 -25 -65 -62 -70 -50 -6
-56 -37 -7 -32 l33 3 -26 -56 c-26 -60 -25 -107 2 -84 8 6 14 20 14 30 0 10
10 39 22 63 20 42 25 46 70 53 61 10 67 27 11 31 -24 2 -43 4 -43 6 0 2 9 29
20 61 24 69 25 95 5 95 -8 0 -15 -8 -15 -17z"/>
<path d="M13784 9316 c-3 -8 -3 -19 0 -24 7 -11 -5 -39 -71 -170 -53 -102 -61
-126 -45 -136 11 -6 98 164 94 182 -2 8 1 11 7 8 11 -7 41 82 41 120 0 28 -18
41 -26 20z"/>
<path d="M9547 9283 c-13 -12 -7 -23 13 -23 11 0 20 7 20 15 0 15 -21 21 -33
8z"/>
<path d="M9590 9280 c0 -5 5 -10 11 -10 5 0 7 5 4 10 -3 6 -8 10 -11 10 -2 0
-4 -4 -4 -10z"/>
<path d="M10573 9263 c-15 -5 -18 -33 -4 -33 23 0 62 21 56 30 -6 10 -31 12
-52 3z"/>
<path d="M2254 9249 c-8 -14 11 -33 25 -25 16 10 13 36 -3 36 -8 0 -18 -5 -22
-11z"/>
<path d="M8774 9244 c-47 -24 -96 -76 -81 -86 7 -5 1 -6 -15 -2 -25 5 -29 2
-47 -38 -40 -85 -78 -193 -74 -205 10 -27 25 -10 64 77 l42 89 43 -1 c33 -2
49 3 68 22 28 26 66 97 66 123 0 27 -33 38 -66 21z m25 -51 c-5 -16 -19 -41
-32 -56 -18 -23 -29 -28 -57 -25 l-34 3 51 53 c58 59 88 69 72 25z"/>
<path d="M5258 9225 c-70 -47 -71 -83 -3 -125 19 -12 35 -26 35 -31 0 -16 -62
-41 -90 -35 -34 6 -49 -18 -21 -33 36 -20 151 32 151 67 0 10 -20 32 -45 50
-25 17 -45 38 -45 45 0 7 18 24 40 37 38 24 53 50 27 50 -7 0 -29 -11 -49 -25z"/>
<path d="M9905 9240 c-3 -5 -4 -14 -1 -19 9 -13 46 -1 46 15 0 16 -36 19 -45
4z"/>
<path d="M5433 9211 c-37 -23 -83 -97 -83 -134 0 -35 33 -67 67 -67 56 0 189
87 167 109 -7 8 -25 0 -63 -28 -29 -22 -66 -43 -82 -46 -62 -14 -81 49 -22 69
62 21 114 81 91 104 -17 17 -38 15 -75 -7z m36 -28 c-18 -23 -31 -33 -44 -33
-5 1 3 12 18 25 33 29 45 33 26 8z"/>
<path d="M8164 9215 c-10 -8 -26 -15 -35 -15 -15 0 -59 -115 -59 -154 0 -31
24 -11 41 34 9 24 31 62 49 83 31 37 34 38 47 21 17 -23 38 -5 28 25 -8 25
-42 28 -71 6z"/>
<path d="M10200 9211 c0 -22 15 -35 29 -27 13 9 1 46 -15 46 -8 0 -14 -9 -14
-19z"/>
<path d="M4547 9198 c-13 -13 -29 -22 -35 -20 -13 4 -82 -128 -82 -158 0 -11
7 -20 15 -20 8 0 15 5 15 10 0 14 45 83 89 139 33 42 36 43 41 22 8 -33 25
-26 25 12 0 42 -34 49 -68 15z"/>
<path d="M9332 9197 c-27 -29 -28 -47 -1 -81 19 -24 19 -26 3 -33 -10 -4 -19
-2 -22 5 -6 18 -39 14 -46 -5 -9 -22 5 -34 43 -35 29 -1 71 25 71 44 0 5 -10
22 -22 39 -22 30 -22 31 -4 44 10 8 23 16 29 18 14 4 0 27 -17 27 -7 0 -22
-10 -34 -23z"/>
<path d="M4710 9175 c-50 -36 -70 -65 -70 -106 0 -63 55 -88 120 -54 33 17 43
53 13 40 -58 -24 -72 -28 -87 -22 -29 11 -18 41 24 61 51 25 72 49 68 78 -4
31 -26 32 -68 3z m40 -20 c0 -2 -10 -9 -22 -15 -22 -11 -22 -10 -4 4 21 17 26
19 26 11z"/>
<path d="M4972 9147 c-45 -60 -63 -80 -94 -101 -29 -20 -18 -52 12 -34 11 7
20 18 20 23 0 6 9 11 20 12 11 1 20 -4 20 -13 0 -23 44 -16 70 11 31 33 43 32
35 -3 -4 -20 -1 -33 9 -42 18 -14 21 -9 30 53 2 21 12 52 20 69 20 39 20 68 1
68 -8 0 -15 -5 -15 -11 0 -6 -26 -38 -57 -71 -54 -56 -58 -58 -64 -36 -3 12
-2 25 1 28 16 13 59 84 54 92 -10 16 -22 7 -62 -45z"/>
<path d="M8268 9167 c-24 -18 -51 -36 -60 -40 -18 -6 -25 -27 -10 -27 5 0 9
-14 9 -31 0 -19 7 -37 18 -45 20 -15 68 -17 99 -5 28 11 2 26 -44 26 -28 0
-36 4 -38 21 -2 16 6 23 38 34 52 17 84 54 69 81 -14 27 -31 24 -81 -14z m51
-10 c-2 -1 -13 -9 -24 -17 -19 -14 -19 -14 -6 3 7 9 18 17 24 17 6 0 8 -1 6
-3z"/>
<path d="M8504 9189 c-17 -5 -39 -18 -49 -29 -18 -20 -18 -21 4 -50 l21 -30
-22 3 c-17 1 -23 -3 -23 -18 0 -27 27 -30 56 -6 20 17 22 22 11 38 -32 47 -26
57 41 68 22 4 36 12 34 18 -5 15 -34 18 -73 6z"/>
<path d="M9136 9179 c-16 -12 -25 -16 -24 -8 2 7 -4 14 -12 16 -9 2 -28 -18
-47 -51 -56 -92 -38 -102 47 -26 30 27 56 48 57 46 2 -1 -2 -17 -8 -35 -14
-39 -6 -61 21 -61 21 0 27 14 11 25 -6 3 -4 22 5 47 24 68 2 88 -50 47z"/>
<path d="M1705 9137 c-16 -56 -12 -87 10 -87 8 0 14 19 17 52 3 29 11 54 17
56 19 6 12 32 -9 32 -15 0 -23 -12 -35 -53z"/>
<path d="M10634 9171 c-82 -51 -100 -171 -25 -171 41 0 90 19 101 40 13 25 -9
39 -25 16 -16 -22 -88 -27 -92 -6 -2 10 16 23 51 38 68 30 94 56 80 80 -16 24
-54 26 -90 3z m51 -21 c-3 -6 -21 -17 -38 -26 l-32 -15 28 25 c28 26 54 35 42
16z"/>
<path d="M10850 9177 c-44 -15 -49 -41 -15 -77 35 -37 29 -80 -11 -80 -13 0
-27 7 -30 15 -8 19 -30 19 -37 1 -8 -20 16 -37 60 -42 49 -6 62 4 70 50 4 29
1 44 -16 66 -28 39 -27 42 13 39 41 -4 54 5 36 26 -15 18 -23 18 -70 2z"/>
<path d="M11675 9158 c-33 -29 -55 -78 -55 -125 0 -42 26 -24 39 26 15 59 45
94 72 86 14 -5 19 -2 19 13 0 34 -37 34 -75 0z"/>
<path d="M12682 9160 c-31 -22 -42 -26 -42 -15 0 8 -7 15 -15 15 -8 0 -15 -8
-15 -17 0 -10 -9 -29 -20 -43 -22 -29 -26 -60 -7 -60 7 0 31 18 52 41 22 22
48 45 58 50 17 10 17 9 3 -20 -18 -34 -21 -77 -6 -86 10 -6 13 0 40 75 16 45
18 82 4 87 -6 2 -29 -10 -52 -27z"/>
<path d="M3717 9164 c-45 -24 -74 -123 -45 -152 28 -28 94 -1 127 51 24 39 27
80 9 94 -22 17 -65 20 -91 7z m58 -34 c13 10 15 9 15 -10 0 -26 -64 -94 -82
-88 -22 7 -20 52 3 81 17 22 24 25 35 16 11 -9 18 -8 29 1z"/>
<path d="M7084 9161 c-17 -10 -42 -34 -54 -51 -22 -30 -22 -35 -9 -59 17 -29
36 -36 83 -27 20 4 33 12 33 22 0 12 -9 13 -45 8 -41 -6 -44 -5 -40 16 2 17
16 27 56 42 55 21 75 44 51 59 -21 13 -41 11 -75 -10z"/>
<path d="M7248 9165 c-37 -20 -44 -50 -22 -91 20 -38 13 -54 -17 -36 -16 10
-20 10 -26 -4 -8 -21 15 -35 52 -32 25 3 31 8 33 31 2 16 -4 40 -14 54 -16 26
-16 27 6 45 12 10 26 15 32 12 5 -3 16 -3 25 0 12 5 13 9 3 21 -15 19 -37 18
-72 0z"/>
<path d="M11505 9160 c-43 -22 -85 -66 -85 -90 0 -9 7 -26 16 -39 13 -18 22
-22 48 -17 17 3 39 7 49 9 9 1 16 5 15 8 -2 4 5 16 15 27 11 11 22 37 27 56 7
31 5 39 -13 51 -26 18 -23 19 -72 -5z m55 -29 c0 -5 -7 -14 -15 -21 -8 -7 -15
-18 -15 -26 0 -14 -38 -44 -56 -44 -24 0 -25 33 -2 58 32 34 88 55 88 33z"/>
<path d="M12454 9161 c-40 -18 -84 -72 -84 -104 0 -9 11 -24 25 -35 20 -16 32
-18 69 -11 49 9 83 26 90 46 6 16 -16 17 -30 3 -6 -6 -34 -13 -62 -17 -43 -5
-52 -3 -52 10 0 9 12 18 29 22 57 12 122 105 74 105 -10 0 -36 -9 -59 -19z
m16 -36 c-7 -8 -18 -15 -24 -15 -6 0 -2 7 8 15 25 19 32 19 16 0z"/>
<path d="M7403 9151 c-38 -24 -53 -49 -53 -89 0 -50 29 -66 106 -58 75 8 104
19 104 42 0 12 -5 14 -17 9 -32 -14 -129 -28 -146 -22 -10 4 -17 17 -17 30 0
20 10 28 51 45 37 16 50 26 47 39 -5 25 -37 27 -75 4z"/>
<path d="M8881 9128 c-34 -46 -37 -58 -19 -76 47 -47 141 37 108 97 -18 35
-54 26 -89 -21z m69 -8 c0 -5 -9 -19 -20 -30 -11 -11 -24 -20 -30 -20 -18 0
-10 29 12 44 26 18 38 20 38 6z"/>
<path d="M10273 9162 c-22 -2 -33 -9 -33 -19 0 -12 7 -14 36 -10 20 3 39 9 42
12 11 11 -14 20 -45 17z"/>
<path d="M11850 9156 c0 -9 -5 -16 -11 -16 -5 0 -7 5 -3 12 5 7 2 8 -7 3 -50
-29 -76 -74 -59 -105 12 -23 68 -40 128 -40 65 0 48 24 -22 31 -31 4 -59 9
-62 12 -4 3 9 12 27 20 43 18 61 40 57 69 -4 27 -48 40 -48 14z m6 -42 c-19
-13 -46 -19 -46 -9 0 8 55 34 60 28 3 -2 -4 -11 -14 -19z"/>
<path d="M2201 9138 c-33 -89 -35 -98 -24 -109 9 -9 15 -3 26 22 8 20 10 37 5
40 -6 3 -3 9 6 12 17 7 22 57 6 57 -6 0 -14 -10 -19 -22z"/>
<path d="M2307 9132 c-52 -55 -28 -126 42 -120 49 4 50 32 1 32 -49 1 -54 35
-11 75 36 33 38 41 13 41 -10 0 -30 -13 -45 -28z"/>
<path d="M9466 9125 c-25 -32 -29 -65 -9 -65 4 0 19 19 31 41 32 55 15 73 -22
24z"/>
<path d="M13524 9144 c-16 -8 -43 -29 -61 -46 -25 -24 -30 -35 -23 -48 13 -24
34 -30 69 -20 38 10 38 6 7 -75 l-23 -60 -63 -6 c-64 -6 -77 -15 -91 -64 -8
-28 6 -83 26 -105 25 -28 48 -12 102 71 42 66 47 70 74 64 22 -5 29 -3 29 9 0
9 -11 18 -24 22 l-25 6 20 44 c27 63 47 176 32 181 -7 3 -10 10 -7 18 8 21
-10 25 -42 9z m26 -38 c0 -19 -39 -46 -65 -46 -17 1 -15 5 15 30 38 33 50 37
50 16z m-100 -283 c-11 -21 -30 -49 -40 -63 -17 -21 -21 -23 -30 -10 -5 8 -10
32 -10 52 0 43 17 57 68 58 l33 0 -21 -37z"/>
<path d="M10483 9133 c-4 -10 -17 -35 -31 -55 -13 -20 -21 -42 -17 -47 10 -17
35 -13 35 5 0 9 9 28 19 43 10 14 21 35 23 45 4 25 -20 33 -29 9z"/>
<path d="M13058 9110 c-62 -61 -38 -120 30 -72 l28 20 -4 -33 c-4 -32 14 -60
22 -33 2 7 10 37 19 67 29 97 -22 125 -95 51z m67 0 c-3 -5 -19 -19 -36 -31
-31 -22 -31 -22 -20 -1 11 21 38 41 54 42 5 0 6 -4 2 -10z"/>
<path d="M13240 9140 c0 -5 1 -11 3 -13 1 -1 -8 -15 -20 -31 -13 -16 -23 -35
-23 -42 0 -8 -4 -14 -10 -14 -5 0 -10 -9 -10 -20 0 -30 14 -24 46 17 40 51 74
83 90 83 20 0 17 -12 -11 -54 -27 -40 -32 -66 -12 -66 17 0 69 96 65 123 -4
26 -45 35 -78 17 -13 -7 -20 -7 -20 0 0 5 -4 10 -10 10 -5 0 -10 -4 -10 -10z"/>
<path d="M13881 9124 c-38 -31 -58 -92 -42 -122 13 -25 72 -39 109 -26 36 13
24 30 -18 26 -42 -4 -74 16 -65 40 4 9 12 15 18 12 16 -5 87 36 101 59 26 41
-56 50 -103 11z m49 -19 c-33 -19 -50 -18 -26 0 11 8 27 15 35 15 10 -1 7 -6
-9 -15z"/>
<path d="M2480 9121 c-14 -27 -13 -84 2 -99 24 -24 60 -13 104 32 39 39 57 76
37 76 -5 0 -27 -20 -51 -45 -24 -25 -49 -45 -57 -45 -21 0 -20 56 1 68 19 10
11 32 -11 32 -8 0 -19 -9 -25 -19z"/>
<path d="M9821 9100 c-22 -42 -28 -80 -12 -80 12 0 62 100 55 111 -10 17 -22
9 -43 -31z"/>
<path d="M10132 9060 c-6 -26 -6 -42 0 -46 15 -9 25 7 31 49 8 52 -17 50 -31
-3z"/>
<path d="M5690 9035 c0 -8 7 -15 15 -15 8 0 15 7 15 15 0 8 -7 15 -15 15 -8 0
-15 -7 -15 -15z"/>
<path d="M2239 8958 c0 -1 -2 -18 -5 -36 -2 -18 -16 -70 -31 -115 l-28 -82
-59 3 c-46 3 -57 1 -54 -10 3 -8 24 -14 57 -16 45 -3 52 -6 46 -20 -3 -9 -9
-30 -12 -47 -4 -16 -12 -39 -20 -51 -12 -19 -9 -34 7 -34 8 0 33 57 50 112 11
37 26 48 61 48 10 0 19 6 19 14 0 9 -10 13 -28 12 l-29 -2 23 71 c28 87 34
146 17 152 -7 3 -13 3 -14 1z"/>
<path d="M2393 8948 c-6 -7 -29 -65 -52 -128 -23 -63 -51 -128 -61 -146 -22
-34 -26 -74 -9 -74 6 0 31 21 56 48 24 26 42 39 39 30 -16 -53 -17 -85 -2 -97
9 -8 16 -12 17 -10 1 2 3 20 4 39 2 20 10 54 18 77 18 52 6 68 -34 47 -33 -16
-33 -16 -18 23 41 102 68 188 60 196 -4 4 -12 2 -18 -5z"/>
<path d="M3475 8938 c-2 -7 -9 -31 -16 -53 -6 -21 -22 -62 -35 -91 -22 -51
-24 -52 -73 -59 -36 -5 -51 -11 -51 -22 0 -12 8 -14 45 -8 l46 6 -15 -35 c-9
-21 -11 -38 -5 -41 15 -10 28 4 40 45 11 38 13 39 71 47 69 9 74 28 6 28 l-46
-1 20 51 c31 75 47 132 41 139 -10 10 -23 7 -28 -6z"/>
<path d="M3631 8907 c-5 -13 -23 -54 -41 -92 -77 -170 -104 -255 -81 -255 5 0
34 28 65 62 l56 63 -7 -54 c-8 -70 14 -67 33 5 27 102 9 121 -53 59 -20 -20
-38 -34 -40 -31 -2 2 19 55 46 117 28 62 51 121 51 131 0 26 -19 22 -29 -5z"/>
<path d="M4785 8773 c-47 -124 -62 -212 -40 -223 6 -3 13 15 16 40 7 49 71
231 95 267 19 30 18 43 -5 43 -15 0 -28 -26 -66 -127z"/>
<path d="M2582 8824 c2 -11 11 -20 22 -22 13 -3 17 1 14 14 -2 11 -11 20 -22
22 -13 3 -17 -1 -14 -14z"/>
<path d="M2000 8796 c0 -18 30 -30 43 -17 5 5 6 14 3 20 -10 16 -46 13 -46 -3z"/>
<path d="M1695 8770 c-10 -11 -42 -32 -72 -46 -36 -18 -51 -30 -44 -37 11 -11
59 5 103 35 l27 19 -13 -28 c-7 -15 -23 -50 -35 -76 -41 -88 -4 -104 71 -30
35 34 48 42 48 29 0 -28 19 -56 34 -50 17 7 56 86 56 114 0 33 -21 22 -37 -20
-15 -38 -17 -39 -30 -20 -20 28 -27 26 -78 -21 -25 -23 -45 -39 -45 -35 0 3
16 37 35 75 19 37 35 78 35 90 0 27 -31 28 -55 1z"/>
<path d="M5130 8742 c-44 -21 -51 -54 -19 -88 18 -20 21 -28 12 -42 -5 -9 -22
-17 -36 -17 -35 0 -46 -14 -23 -31 26 -19 30 -18 65 12 36 30 40 66 11 91 -29
25 -25 41 13 51 17 4 32 14 32 22 0 21 -17 22 -55 2z"/>
<path d="M5306 8740 c-68 -21 -86 -72 -36 -105 16 -11 28 -24 27 -30 -5 -15
-39 -19 -47 -5 -11 18 -42 4 -38 -17 2 -9 16 -21 32 -26 22 -7 33 -5 55 10 38
29 38 56 2 83 -17 12 -31 26 -31 31 0 15 66 40 85 32 13 -4 16 -1 13 13 -4 22
-22 26 -62 14z"/>
<path d="M4486 8706 c-42 -39 -45 -68 -11 -102 22 -22 32 -25 82 -22 77 4 86
28 10 28 -37 0 -61 5 -71 16 -22 21 -20 31 12 60 22 21 34 25 65 21 24 -3 37
-1 37 6 0 7 5 5 10 -3 6 -9 10 -10 10 -3 0 18 -34 33 -74 33 -26 0 -44 -9 -70
-34z"/>
<path d="M3745 8721 c-41 -17 -58 -48 -52 -93 8 -59 37 -82 96 -75 50 6 91 41
71 61 -8 8 -15 6 -24 -6 -17 -24 -72 -34 -91 -18 -18 15 -19 30 -2 30 7 0 30
18 52 40 32 33 36 41 25 55 -13 16 -43 19 -75 6z m25 -46 c-25 -27 -53 -34
-44 -11 5 13 39 34 58 35 5 1 -1 -10 -14 -24z"/>
<path d="M4905 8723 c-27 -7 -44 -22 -60 -53 -12 -23 -12 -30 -1 -46 14 -18
16 -18 50 -1 l36 17 0 -24 c0 -30 26 -54 42 -38 8 8 8 15 -1 26 -9 11 -8 23 5
56 10 24 13 45 8 50 -13 12 -55 19 -79 13z m35 -33 c0 -8 -51 -40 -64 -40 -14
0 9 33 28 40 28 12 36 12 36 0z"/>
<path d="M2486 8641 c-33 -64 -36 -81 -14 -81 7 0 78 131 78 145 0 3 -7 5 -15
5 -8 0 -30 -30 -49 -69z"/>
<path d="M2670 8695 c-9 -11 -16 -12 -25 -5 -16 13 -44 -14 -82 -78 -18 -30
-23 -46 -15 -54 7 -7 26 5 62 42 28 29 53 50 55 48 3 -2 -1 -20 -7 -40 -14
-47 -4 -88 22 -88 22 0 28 26 8 33 -10 3 -7 21 10 74 12 38 22 72 22 76 0 13
-38 7 -50 -8z"/>
<path d="M1918 8637 c-21 -50 -23 -77 -5 -77 12 0 37 57 40 94 4 36 -18 26
-35 -17z"/>
<path d="M3350 8606 c-14 -37 -13 -46 5 -46 18 0 31 48 17 62 -8 8 -14 4 -22
-16z"/>
<path d="M5402 8574 c4 -21 22 -23 26 -1 2 10 -3 17 -13 17 -10 0 -15 -6 -13
-16z"/>
</g>
</svg>
